<?xml version="1.0" standalone="no"?>
<!DOCTYPE svg PUBLIC "-//W3C//DTD SVG 1.1//EN" "http://www.w3.org/Graphics/SVG/1.1/DTD/svg11.dtd" >
<svg xmlns="http://www.w3.org/2000/svg" xmlns:xlink="http://www.w3.org/1999/xlink" version="1.1">
<metadata>
Created by FontForge 20161003 at Mon May 14 19:04:06 2018
 By www-data
Copyright 2017 The EB Garamond Project Authors (https://github.com/octaviopardo/EBGaramond12)
</metadata>
<defs>
<font id="EBGaramond-Regular" horiz-adv-x="0" >
  <font-face 
    font-family="EB Garamond"
    font-weight="400"
    font-stretch="normal"
    units-per-em="1000"
    panose-1="0 0 5 0 0 0 0 0 0 0"
    ascent="800"
    descent="-200"
    x-height="403"
    cap-height="653"
    bbox="-147 -287 1024 860"
    underline-thickness="50"
    underline-position="-100"
    unicode-range="U+0400-2116"
  />
<missing-glyph horiz-adv-x="500" 
d="M50 473h400v-473h-400v473zM400 50v373h-300v-373h300z" />
    <glyph glyph-name=".notdef" horiz-adv-x="500" 
d="M50 473h400v-473h-400v473zM400 50v373h-300v-373h300z" />
    <glyph glyph-name="NULL" 
 />
    <glyph glyph-name="nonmarkingreturn" horiz-adv-x="200" 
 />
    <glyph glyph-name="space" horiz-adv-x="200" 
 />
    <glyph glyph-name="A" horiz-adv-x="692" 
d="M6 -1.5q-8 3.5 -8 9.5q0 13 33 23q29 9 50 25.5t36 51.5q53 122 92.5 221.5t94.5 248.5q11 31 14 58q3 1 14.5 4.5t21.5 10.5q8 6 12.5 18t6.5 16q1 1 2.5 0.5t2.5 -1.5q2 -5 3.5 -11t3.5 -11q74 -233 178 -534q19 -55 42 -74.5t59 -25.5q16 -3 24.5 -9.5t8.5 -13.5
q0 -10 -29 -10l-54 2q-56 4 -85 4l-105 -1q-29 0 -29 12q0 6 9.5 11.5t23.5 7.5q61 10 61 45q0 32 -39 162q-2 7 -7.5 9t-19.5 2h-189q-11 0 -17 -18q-11 -32 -26 -83.5t-15 -60.5q0 -21 16.5 -36t41.5 -21q18 -5 25.5 -9t7.5 -11q0 -11 -29 -11q-18 0 -30 1l-61 1
q-17 0 -37.5 -1.5t-30.5 -1.5q-28 -3 -52 -3q-13 0 -21 3.5zM416 282q6 0 10 1t4 4l-2 10l-78 244q-6 18 -9 18q-2 0 -8 -17l-91 -245l-2 -8q0 -5 4.5 -6t16.5 -1h155z" />
    <glyph glyph-name="B" horiz-adv-x="587" 
d="M19 6q0 7 8 11t25 7q40 7 59 24t19 51v450q0 36 -15.5 53t-51.5 20q-16 1 -24.5 7t-8.5 13q0 11 29 11q45 0 60 -1h44q15 0 43 2q51 3 68 3q120 0 176 -34.5t56 -114.5q0 -31 -10.5 -57t-23.5 -39q-16 -16 -29.5 -24.5t-37.5 -18.5q-4 -2 -4 -5.5t4 -4.5q42 -14 70.5 -30
t50 -48.5t21.5 -86.5q0 -51 -16 -83.5t-37.5 -49t-50.5 -31.5q-68 -34 -170 -34l-30 1q-27 3 -65 3q-25 0 -61 -2q-28 -3 -69 -3q-29 0 -29 11zM375 400q16 9 30.5 33t14.5 62q0 54 -31.5 93t-114.5 39q-39 0 -52.5 -10.5t-13.5 -34.5v-174q0 -37 46 -37q69 0 121 29z
M369 57q38 20 61 55t23 77q0 51 -22.5 82t-51.5 47q-45 25 -114 25q-29 0 -43 -11.5t-14 -24.5v-199q0 -40 19 -55.5t60 -15.5q44 0 82 20z" />
    <glyph glyph-name="C" horiz-adv-x="710" 
d="M230 27.5q-83 42.5 -133.5 119.5t-50.5 176q0 95 53 172.5t142 122.5t191 45q52 0 84.5 -5.5t93.5 -20.5q14 -4 20.5 -12t8.5 -22q8 -78 9 -115q1 -6 -4.5 -10.5t-12.5 -4.5q-13 0 -17 14q-11 43 -24.5 68.5t-37.5 42.5q-25 16 -60.5 25t-76.5 9q-76 0 -137 -40
t-96 -105.5t-35 -139.5q0 -83 35 -159.5t97.5 -124t142.5 -47.5q69 0 116.5 31.5t82.5 93.5q3 6 9 9.5t11 3.5q6 0 10 -4t4 -12q0 -12 -9 -43.5t-18 -53.5q-8 -14 -12 -18t-20 -9q-35 -14 -86 -21.5t-103 -7.5q-94 0 -177 42.5z" />
    <glyph glyph-name="E" horiz-adv-x="564" 
d="M37 6q0 7 8 11t25 7q39 7 56.5 23.5t17.5 51.5v450q0 35 -14.5 50.5t-52.5 22.5q-33 6 -33 20q0 11 29 11q38 0 92 -2l85 -1l137 1l85 2q17 0 18 -9q2 -8 8.5 -44t6.5 -59q0 -15 -14 -15q-5 0 -7 2t-4 8q-2 5 -8 26t-14 29q-24 27 -67 27h-131q-10 0 -23 -9.5t-13 -22.5
v-212q0 -9 5.5 -15.5t12.5 -6.5h99q28 0 39 10t19 39q6 22 18 22q4 0 8.5 -4.5t4.5 -11.5l-1 -26l-2 -44l1 -53l1 -24q0 -17 -9 -17q-15 0 -23 32q-6 24 -16.5 34.5t-29.5 10.5h-93q-19 0 -26.5 -5t-7.5 -21v-192q0 -37 15.5 -52t50.5 -15h74q33 0 54.5 4t36.5 13
q15 10 27.5 27.5t29.5 49.5q7 13 14 13q13 0 13 -14q0 -13 -11 -54.5t-20 -61.5q-1 -2 -3 -7t-4.5 -7.5t-6.5 -2.5q-20 0 -176 3q-69 3 -137 3q-28 0 -52 -3q-51 -3 -63 -3q-29 0 -29 11z" />
    <glyph glyph-name="H" horiz-adv-x="810" 
d="M45 -1.5q-8 3.5 -8 9.5t7 9.5t25 6.5q37 7 49 22.5t12 52.5v452q0 26 -3 38.5t-14 20.5t-36 12q-17 3 -25 7t-8 11q0 13 29 13q30 0 60 -2l43 -1l45 1q32 2 61 2t29 -13q0 -7 -8 -11t-25 -7q-37 -7 -52.5 -24t-15.5 -47v-197q0 -9 14 -9h371q7 0 7 12v195q0 29 -15 46.5
t-51 23.5q-17 3 -25 7t-8 11q0 6 8 9.5t21 3.5q28 0 64 -2l52 -1l35 1q26 2 56 2q29 0 29 -13q0 -7 -8 -11t-25 -7q-34 -6 -43.5 -21.5t-9.5 -48.5v-452q0 -39 10 -54.5t46 -21.5q18 -3 25 -6.5t7 -9.5t-8 -9.5t-21 -3.5q-37 0 -60 3q-26 2 -44 2q-20 0 -46 -2
q-24 -3 -61 -3q-13 0 -21 3.5t-8 9.5t7 9.5t25 6.5q69 13 69 73v195v5q0 4 -1 7t-4 3h-382q-3 0 -4 -3t-1 -8v-190q0 -31 22.5 -53.5t57.5 -28.5q18 -3 25 -6.5t7 -9.5t-8 -9.5t-21 -3.5q-37 0 -64 3q-32 2 -53 2q-20 0 -48 -2q-24 -3 -62 -3q-13 0 -21 3.5z" />
    <glyph glyph-name="I" horiz-adv-x="340" 
d="M19 6q0 7 8 11t25 7q40 7 59 23.5t19 50.5v452q0 35 -14.5 50t-52.5 22q-33 6 -33 20q0 11 29 11q28 0 64 -2l53 -1l48 1q32 2 61 2t29 -11q0 -14 -33 -20q-39 -7 -55 -22.5t-16 -49.5v-452q0 -34 19.5 -50.5t59.5 -23.5q17 -3 25 -7t8 -11q0 -11 -29 -11q-37 0 -64 3
q-32 2 -53 2q-25 0 -61 -2q-30 -3 -67 -3q-29 0 -29 11z" />
    <glyph glyph-name="J" horiz-adv-x="340" 
d="M-42.5 -187.5q-26.5 12.5 -26.5 36.5q0 16 13.5 31.5t25.5 15.5q28 0 47 -25q13 -16 23.5 -23t23.5 -7q66 0 66 158v552q0 34 -14.5 49t-51.5 22q-33 6 -33 20q0 11 29 11q28 0 64 -2l53 -1l37 1q26 2 57 2q29 0 29 -11q0 -14 -33 -20q-36 -7 -46.5 -21t-10.5 -50v-504
q0 -56 -23.5 -106t-55.5 -87q-46 -54 -97 -54q-50 0 -76.5 12.5z" />
    <glyph glyph-name="M" horiz-adv-x="901" 
d="M19 6q0 7 8 11t25 7q52 9 62 78q41 308 41 426q0 23 -1 33q-1 11 -3.5 18.5t-11.5 14.5q-16 14 -31.5 19t-43.5 11q-10 2 -16 7.5t-6 12.5t8.5 9t25.5 2q13 0 75 -4t75 -4q14 0 19 -16l7 -26q9 -36 15 -51l158 -401q3 -9 13 -9q7 0 10 6l197 410q12 45 18 75q3 13 10 13
h36q15 0 72 5q26 3 42 3q21 0 21 -10q0 -7 -5.5 -11t-20.5 -10q-9 -3 -24 -9l-35 -14q-11 -5 -17.5 -14t-6.5 -20q0 -88 3.5 -165t10.5 -180q6 -82 8 -128q1 -31 19 -47.5t56 -23.5q17 -3 25 -7t8 -11q0 -11 -29 -11q-37 0 -64 3q-32 2 -53 2q-17 0 -45 -2q-22 -3 -60 -3
q-29 0 -29 11q0 14 33 18q29 4 40 20t11 52q0 102 -3.5 188.5t-4.5 102.5q-2 25 -4 77q-1 10 -6 10q-4 0 -10 -10l-230 -469q-1 -6 -9 -6q-6 0 -9 7q-69 205 -184 475q-2 5 -7 5t-6 -5q-18 -133 -25 -205t-7 -164q0 -28 17.5 -50t47.5 -28q17 -3 25 -7t8 -11q0 -11 -29 -11
q-37 0 -57 3q-20 2 -37 2q-15 0 -35 -2q-39 -3 -56 -3q-29 0 -29 11z" />
    <glyph glyph-name="O" horiz-adv-x="763" 
d="M212.5 27.5q-76.5 41.5 -122 116.5t-45.5 171q0 92 40 172t117 128.5t184 48.5q88 0 164.5 -41.5t122 -116.5t45.5 -171q0 -92 -40 -172t-117 -128.5t-184 -48.5q-88 0 -164.5 41.5zM563 95.5q59 69.5 59 190.5q0 95 -29 171t-85.5 120.5t-137.5 44.5q-111 0 -170 -68.5
t-59 -188.5q0 -95 28.5 -172t85 -122t137.5 -45q112 0 171 69.5z" />
    <glyph glyph-name="P" horiz-adv-x="552" 
d="M24 6q0 7 8 11t25 7q39 7 56 23.5t17 52.5v422q0 48 -12.5 71t-48.5 29q-33 6 -33 20q0 11 29 11q43 0 56 -1h42q15 0 35 1t30 2q26 3 46 3q115 0 184 -47.5t69 -130.5q0 -63 -24.5 -114.5t-75 -81.5t-124.5 -30q-20 0 -32.5 6t-12.5 13q0 4 5.5 9t10.5 5q3 0 15.5 -1
t30.5 -1q59 0 90 49t31 139q0 77 -45.5 117t-121.5 40q-64 0 -64 -42v-477q0 -38 15.5 -59t51.5 -28q17 -3 25 -7t8 -11q0 -11 -29 -11q-32 0 -58 4q-18 3 -40 3q-18 0 -36.5 -1.5t-26.5 -1.5q-40 -4 -67 -4q-29 0 -29 11z" />
    <glyph glyph-name="S" horiz-adv-x="465" 
d="M63 32q-11 11 -13 20q-4 18 -9 83l-1 22q0 7 5.5 10.5t14.5 3.5q13 0 16 -11q18 -73 56.5 -108t85.5 -35q52 0 86 33.5t34 88.5q0 39 -12.5 64.5t-34.5 43t-66 44.5l-20 12q-49 30 -77 52t-48 54t-20 73q0 80 54 131t155 51q51 0 105 -22q7 -3 13 -10t8 -15
q10 -35 15 -56.5t5 -42.5q0 -11 -15 -11q-9 0 -17.5 4t-10.5 10q-22 55 -50.5 82t-69.5 27q-50 0 -82.5 -27.5t-32.5 -86.5q0 -28 18 -52t45.5 -44t76.5 -50q47 -29 76 -52t49 -57t20 -81q0 -89 -60 -142.5t-158 -53.5q-84 0 -141 48z" />
    <glyph glyph-name="T" horiz-adv-x="670" 
d="M185 6q0 7 8 11t25 7q39 7 58.5 25t19.5 53v388q0 67 -4.5 90.5t-16.5 25.5q-13 3 -30.5 3.5t-40.5 0.5h-47q-26 0 -49 -10t-33 -29q-6 -12 -18.5 -25t-22.5 -13q-7 0 -7 13q0 10 5 20q14 27 20 49.5t11 55.5q3 23 17 23q3 0 11.5 -11t13.5 -21q6 -10 26.5 -15t43.5 -5
h352q62 0 95 15q6 3 17.5 11.5t21.5 8.5q3 0 5 -7.5t2 -15.5q0 -4 -4 -28l-6 -30q-4 -12 -4 -29v-12q0 -10 -4.5 -21t-11.5 -11t-11 9.5t-8 31.5t-25 34t-67 12h-101q-25 0 -34.5 -6t-12.5 -28.5t-3 -80.5v-393q0 -35 20 -53t59 -25q17 -3 25 -7t8 -11q0 -11 -29 -11
q-37 0 -64 3q-32 2 -53 2q-25 0 -61 -2q-30 -3 -67 -3q-29 0 -29 11z" />
    <glyph glyph-name="X" horiz-adv-x="707" 
d="M-5 6q0 7 8 12t25 10q31 9 73 35t70 61l125 156q15 21 15 34t-10 27l-134 188q-34 47 -59.5 65.5t-56.5 27.5q-17 6 -25 11t-8 11q0 11 29 11q13 0 57 -2q14 -1 35.5 -2t50.5 -1l68 1q13 1 31 1q29 0 29 -11q0 -6 -7 -10t-26 -10q-30 -9 -40.5 -14.5t-10.5 -16.5
q0 -16 33 -62l91 -128q11 -15 16 -15t14 12l107 141q26 33 26 51q0 23 -45 31q-12 3 -22.5 8.5t-10.5 11.5q0 11 29 11l81 -1q22 0 39 1t28 2q27 3 47 3q29 0 29 -11q0 -7 -7.5 -11t-25.5 -9q-26 -7 -57.5 -36.5t-72.5 -78.5l-115 -136q-8 -9 -12.5 -16t-4.5 -12q0 -4 3 -12
l155 -223q23 -33 51 -55.5t56 -29.5q18 -5 25.5 -9t7.5 -11q0 -11 -29 -11l-54 2q-58 4 -89 4l-103 -1q-29 0 -29 11t33 20q17 5 30.5 17.5t13.5 29.5t-12 33l-104 151q-8 11 -13 11q-4 0 -9 -6l-135 -174q-9 -12 -9 -23q0 -14 12 -24.5t33 -15.5q18 -5 25.5 -9t7.5 -11
q0 -11 -29 -11q-18 0 -30 1l-59 1q-25 0 -43 -1t-30 -2q-28 -3 -53 -3q-29 0 -29 11z" />
    <glyph glyph-name="a" horiz-adv-x="399" 
d="M81 -0.5q-19 13.5 -31.5 34t-12.5 38.5q0 31 16.5 49t54.5 34l102 42q19 8 23 14t5 26l2 64q1 27 -15 45.5t-44 18.5q-15 0 -30 -5t-25 -13q-10 -7 -10 -29l1 -18q0 -8 -25.5 -21.5t-40.5 -13.5q-5 0 -8 2.5t-3 6.5q0 16 10.5 34.5t29.5 34.5q34 31 76.5 51t72.5 20
q36 0 59.5 -25.5t22.5 -63.5l-5 -240q-1 -21 9 -34t27 -13q25 0 37 11q5 5 8 5q5 0 8 -3t3 -8q0 -4 -3 -10.5t-8 -11.5q-16 -16 -34.5 -25.5t-34.5 -9.5q-46 0 -73 52h-3q-33 -27 -63 -39.5t-62 -12.5q-17 0 -36 13.5zM223 58q6 6 9 15t4 26l2 49v6q0 8 -2 11.5t-7 3.5
q-6 0 -20 -5q-50 -18 -72 -38t-22 -39q0 -25 14.5 -39t34.5 -14q35 0 59 24z" />
    <glyph glyph-name="c" horiz-adv-x="407" 
d="M122.5 10.5q-40.5 25.5 -64 70t-23.5 99.5q0 64 28.5 117.5t76.5 85t106 31.5q65 0 114 -35q12 -9 12 -19q0 -13 -15 -27t-28 -14q-5 0 -10 3.5t-11 7.5q-25 19 -51 33t-43 14q-49 0 -79.5 -46t-30.5 -119q0 -46 20 -84.5t55 -60.5t77 -22q29 0 50 9.5t45 33.5q5 5 10 5
t8 -4t3 -10q0 -11 -15 -31q-24 -31 -61 -47t-83 -16q-50 0 -90.5 25.5z" />
    <glyph glyph-name="e" horiz-adv-x="390" 
d="M117.5 12q-41.5 27 -64.5 76.5t-23 114.5q0 56 26.5 105t70.5 77.5t96 28.5q60 0 98.5 -35.5t38.5 -90.5q0 -31 -30 -31h-211q-14 0 -19.5 -7.5t-5.5 -29.5q0 -47 20.5 -87t56 -63.5t77.5 -23.5q59 0 98 45q6 8 11 8q8 0 8 -10q0 -19 -18 -42q-22 -29 -58 -45.5
t-76 -16.5q-54 0 -95.5 27zM212 288q47 0 74 5q8 1 8 22q0 29 -25.5 49.5t-60.5 20.5q-22 0 -45.5 -13.5t-38.5 -33.5t-15 -40q0 -10 12 -10h91z" />
    <glyph glyph-name="hbar" horiz-adv-x="519" 
d="M490.5 17.5q5.5 -3.5 5.5 -9.5q0 -11 -20 -11q-25 0 -42 3q-20 2 -36 2t-36 -2q-17 -3 -42 -3q-20 0 -20 11q0 6 4.5 8.5t18.5 7.5q18 6 28.5 16t10.5 28v189q0 24 -14 44.5t-35.5 33t-43.5 12.5q-21 0 -45.5 -6t-37.5 -16q-16 -13 -21.5 -27.5t-5.5 -44.5v-188
q0 -18 10 -26.5t29 -14.5q11 -3 16.5 -6.5t5.5 -9.5t-4.5 -8.5t-15.5 -2.5q-26 0 -41 3q-18 2 -35 2q-16 0 -38 -2q-16 -3 -43 -3q-20 0 -20 11q0 6 5 9t18 7q20 6 31 14.5t12 26.5v451h-56q-6 0 -10 6t-4 11q0 7 7.5 12t16.5 5h46v16q0 64 -44 72q-9 2 -9 14q0 9 8 12
q79 25 111 39q4 2 6 2q7 0 7 -7q0 -5 -4.5 -30.5t-4.5 -105.5v-12h138q5 0 9.5 -3t4.5 -7l-1 -3q-11 -21 -31 -21h-120v-143q0 -15 1.5 -22.5t5.5 -14.5q85 63 152 63q49 0 81.5 -39t32.5 -97v-195q0 -32 41 -44q12 -3 17.5 -6.5z" />
    <glyph glyph-name="dotlessi" horiz-adv-x="245" 
d="M24 8q0 7 5.5 10t17.5 6q23 6 33 13.5t10 24.5v217q0 66 -45 73q-10 1 -10 13q0 11 9 12q61 14 105 50q9 7 14 7q6 0 6 -5q0 -11 -3 -38q-1 -12 -3.5 -44.5t-2.5 -52.5v-232q0 -16 10.5 -24t32.5 -14q12 -3 17.5 -6t5.5 -10q0 -11 -20 -11q-25 0 -42 3q-22 2 -39 2
q-16 0 -38 -2q-16 -3 -43 -3q-20 0 -20 11z" />
    <glyph glyph-name="o" horiz-adv-x="495" 
d="M133.5 12q-45.5 26 -72 72t-26.5 103q0 55 29.5 108t80 86t109.5 33q57 0 104 -27.5t74.5 -74t27.5 -99.5q0 -60 -26 -112t-77 -83.5t-123 -31.5q-55 0 -100.5 26zM358 71q20 39 20 118q0 48 -18 93t-50 73t-73 28q-29 0 -50 -9t-38 -31q-18 -23 -25 -56.5t-7 -76.5
q0 -50 18 -94.5t49.5 -72t70.5 -27.5q75 0 103 55z" />
    <glyph glyph-name="p" horiz-adv-x="519" 
d="M19 -276q0 7 5.5 10.5t17.5 7.5q22 7 32.5 13.5t10.5 24.5v507q0 17 -12 42.5t-34 30.5q-4 1 -6 4.5t-2 8.5q0 10 7 12q44 10 77 23.5t39 16.5l2 1q2 0 4 -3t2 -6l-2 -26q-3 -18 -3 -34q0 -8 1 -9q11 11 38.5 26.5t61 27.5t62.5 12q49 0 86.5 -27t57.5 -70.5t20 -91.5
q0 -59 -30 -114.5t-82 -90t-113 -34.5q-22 0 -54 9.5t-46 22.5q-2 0 -3 -20t-1 -31v-187q0 -15 13 -22.5t26.5 -11t18.5 -4.5q12 -4 17.5 -7.5t5.5 -10.5q0 -9 -22 -9q-27 0 -50 3q-26 2 -44 2q-16 0 -38 -2q-16 -3 -42 -3q-21 0 -21 9zM328.5 34.5q30.5 17.5 53 57.5
t22.5 101q0 101 -43.5 138.5t-92.5 37.5q-22 0 -48 -9.5t-44 -22.5t-18 -20q0 -45 -2 -105q-1 -20 -1 -46q0 -39 18 -73.5t46 -55t55 -20.5q24 0 54.5 17.5z" />
    <glyph glyph-name="s" horiz-adv-x="323" 
d="M86 -4.5q-27 9.5 -46 26.5q-8 16 -11 80q0 9 13 9q11 0 12 -7q12 -46 39.5 -68.5t59.5 -22.5q29 0 49.5 19.5t20.5 48.5q0 26 -17.5 45.5t-63.5 48.5q-52 32 -73.5 59.5t-21.5 64.5q0 50 35 82.5t100 32.5q28 0 48.5 -5.5t31.5 -13.5q8 -11 13.5 -34.5t5.5 -44.5
q0 -7 -10 -7q-6 0 -12 2.5t-7 6.5q-14 34 -33.5 51t-47.5 17q-26 0 -45 -16t-19 -43q0 -24 14.5 -41.5t54.5 -40.5q63 -36 89 -64.5t26 -72.5q0 -54 -41 -88t-106 -34q-31 0 -58 9.5z" />
    <glyph glyph-name="uni026A" horiz-adv-x="250" 
d="M24 6q0 7 5.5 10.5t17.5 7.5q22 7 32.5 14t10.5 25v268q0 22 -9 33t-28 14q-10 2 -16.5 6.5t-6.5 11.5q0 9 20 9q25 0 39 -3q18 -2 34 -2q17 0 37 2q17 3 43 3q20 0 20 -9q0 -7 -6.5 -11.5t-16.5 -6.5q-40 -7 -40 -47v-268q0 -18 10.5 -25t32.5 -14q12 -4 17.5 -7.5
t5.5 -10.5q0 -9 -20 -9q-26 0 -43 3q-22 2 -38 2t-38 -2q-16 -3 -43 -3q-20 0 -20 9z" />
    <glyph glyph-name="uni1E9F" horiz-adv-x="481" 
d="M126.5 14q-41.5 28 -66.5 74.5t-25 98.5q0 69 46.5 127t124.5 82q8 3 0 9l-22 18q-46 38 -70 67.5t-24 68.5t41 72t92 39l58 6q37 4 75 9t63 12q3 1 4.5 2.5t3.5 1.5q3 0 4.5 -4.5t1.5 -8.5q0 -35 -28.5 -60.5t-77.5 -25.5q-26 0 -74 8q-50 8 -78 8q-20 0 -33 -11
t-13 -24q0 -19 27 -42.5t82 -62.5l48 -35q51 -39 83.5 -69.5t54.5 -71t22 -89.5q0 -60 -27.5 -111t-80 -83t-124.5 -33q-46 0 -87.5 28zM337.5 66q31.5 50 31.5 128q0 36 -15.5 71.5t-40.5 62.5q-20 23 -43 36.5t-40 13.5q-33 0 -59 -24.5t-40 -63t-14 -80.5q0 -49 17.5 -94
t45.5 -72.5t59 -27.5q67 0 98.5 50z" />
    <glyph glyph-name="x" horiz-adv-x="430" 
d="M10 5q0 7 6 11t17 7q17 5 32 17.5t35 39.5l77 107q6 7 6 13q0 5 -4 10l-82 125q-12 20 -21.5 29t-24.5 13q-11 3 -17 7t-6 11q0 9 20 9q21 0 37 -2q20 -2 45 -2l26 1q7 1 25 1h3q20 0 20 -9q0 -5 -4.5 -8t-13.5 -6q-10 -3 -15.5 -6.5t-5.5 -10.5q0 -11 13 -32l46 -69
q4 -7 9 0l51 77q8 11 8 22q0 12 -13 16q-12 4 -17.5 7.5t-5.5 10.5q0 9 20 9q5 0 23.5 -1.5t29.5 -1.5q22 0 39 2.5t24 2.5q20 0 20 -9q0 -7 -5.5 -10.5t-17.5 -7.5q-48 -14 -71 -47l-63 -95q-4 -6 1 -13l97 -158q12 -19 23 -28t26 -14q11 -3 17 -7t6 -11q0 -9 -20 -9
q-19 0 -37 2q-20 2 -47 2l-37 -1q-13 -1 -36 -1t-23 10q0 8 6 12.5t19 7.5q28 8 28 24q0 8 -6 18l-59 96q-1 1 -3 1t-3 -1l-66 -99q-5 -7 -5 -19q0 -7 3.5 -13.5t10.5 -8.5q12 -4 17.5 -7.5t5.5 -10.5q0 -9 -20 -9q-6 0 -21.5 1t-34.5 1q-13 0 -46 -3q-14 -2 -21 -2
q-20 0 -20 9z" />
    <glyph glyph-name="y" horiz-adv-x="438" 
d="M27.5 -275q-14.5 10 -14.5 31q0 19 9 32t24 13q8 0 21.5 -3t18.5 -3q12 0 19 11q19 29 42 76.5t43 101.5q3 9 3 23q0 18 -4 29l-116 293q-17 41 -45 49q-12 4 -17.5 7.5t-5.5 10.5q0 9 20 9q26 0 39 -3q18 -2 34 -2q17 0 35 2q15 3 41 3q7 0 13.5 -3t6.5 -8
q0 -7 -9.5 -13t-19.5 -9q-11 -3 -15.5 -10.5t-4.5 -21.5q0 -9 8 -28l81 -200q2 -6 6 -6q3 0 5 6l69 183q3 7 5.5 18.5t2.5 18.5q0 17 -5 25.5t-15 12.5q-29 13 -29 24q0 5 6.5 8t13.5 3q5 0 23 -2q36 -3 48 -3q14 0 38 3q12 2 21 2q20 0 20 -9q0 -7 -5.5 -10.5t-17.5 -7.5
q-15 -5 -32 -24t-27 -43l-136 -324l-15 -37q-62 -150 -81 -194q-9 -20 -26 -30.5t-39 -10.5t-36.5 10z" />
    <glyph glyph-name="j.dotless" horiz-adv-x="226" 
d="M-13 -284.5q-7 2.5 -7 7.5t4 10t7 7q41 10 66 63q32 67 32 266v210q0 64 -46 73q-4 1 -6 4.5t-2 8.5q0 4 2 7.5t5 4.5q29 7 51 18.5t35.5 20.5t17.5 11q12 7 13 7q7 0 7 -5q-7 -72 -7 -154v-184q0 -69 -5.5 -129.5t-24.5 -113.5q-12 -33 -35 -64.5t-48 -51t-45 -19.5
q-7 0 -14 2.5z" />
    <glyph glyph-name="uni0410" unicode="&#x410;" horiz-adv-x="692" 
d="M6 -1.5q-8 3.5 -8 9.5q0 13 33 23q29 9 50 25.5t36 51.5q53 122 92.5 221.5t94.5 248.5q11 31 14 58q3 1 14.5 4.5t21.5 10.5q8 6 12.5 18t6.5 16q1 1 2.5 0.5t2.5 -1.5q2 -5 3.5 -11t3.5 -11q74 -233 178 -534q19 -55 42 -74.5t59 -25.5q16 -3 24.5 -9.5t8.5 -13.5
q0 -10 -29 -10l-54 2q-56 4 -85 4l-105 -1q-29 0 -29 12q0 6 9.5 11.5t23.5 7.5q61 10 61 45q0 32 -39 162q-2 7 -7.5 9t-19.5 2h-189q-11 0 -17 -18q-11 -32 -26 -83.5t-15 -60.5q0 -21 16.5 -36t41.5 -21q18 -5 25.5 -9t7.5 -11q0 -11 -29 -11q-18 0 -30 1l-61 1
q-17 0 -37.5 -1.5t-30.5 -1.5q-28 -3 -52 -3q-13 0 -21 3.5zM416 282q6 0 10 1t4 4l-2 10l-78 244q-6 18 -9 18q-2 0 -8 -17l-91 -245l-2 -8q0 -5 4.5 -6t16.5 -1h155z" />
    <glyph glyph-name="uni0411" unicode="&#x411;" horiz-adv-x="587" 
d="M37 6q0 7 8 11t25 7q40 7 59 23.5t19 50.5v452q0 35 -14.5 50t-52.5 22q-33 6 -33 20q0 11 29 11q28 0 64 -2l53 -1h248q5 0 17 2t22 3q5 0 7.5 -5t2.5 -9q1 -19 2 -32t2 -23q4 -30 4 -46q0 -10 -4.5 -15.5t-9.5 -5.5t-14 10t-10 18q-5 29 -19.5 50t-52.5 21h-132
q-13 0 -21 -10.5t-8 -24.5v-175q0 -27 2 -38.5t10 -11.5q3 0 5 1q51 17 107 17q92 0 145.5 -48t53.5 -134q0 -50 -16 -82.5t-35.5 -48.5t-48.5 -33q-57 -34 -160 -34q-13 0 -39 3q-60 5 -81 5q-19 0 -45 -4q-38 -5 -60 -5q-29 0 -29 11zM380 57.5q36 20.5 58.5 55t22.5 76.5
q0 51 -22.5 82t-51.5 47q-45 25 -104 25q-55 0 -55 -36v-199q0 -34 20 -52.5t57 -18.5q39 0 75 20.5z" />
    <glyph glyph-name="uni0412" unicode="&#x412;" horiz-adv-x="587" 
d="M19 6q0 7 8 11t25 7q40 7 59 24t19 51v450q0 36 -15.5 53t-51.5 20q-16 1 -24.5 7t-8.5 13q0 11 29 11q45 0 60 -1h44q15 0 43 2q51 3 68 3q120 0 176 -34.5t56 -114.5q0 -31 -10.5 -57t-23.5 -39q-16 -16 -29.5 -24.5t-37.5 -18.5q-4 -2 -4 -5.5t4 -4.5q42 -14 70.5 -30
t50 -48.5t21.5 -86.5q0 -51 -16 -83.5t-37.5 -49t-50.5 -31.5q-68 -34 -170 -34l-30 1q-27 3 -65 3q-25 0 -61 -2q-28 -3 -69 -3q-29 0 -29 11zM375 400q16 9 30.5 33t14.5 62q0 54 -31.5 93t-114.5 39q-39 0 -52.5 -10.5t-13.5 -34.5v-174q0 -37 46 -37q69 0 121 29z
M369 57q38 20 61 55t23 77q0 51 -22.5 82t-51.5 47q-45 25 -114 25q-29 0 -43 -11.5t-14 -24.5v-199q0 -40 19 -55.5t60 -15.5q44 0 82 20z" />
    <glyph glyph-name="uni0413" unicode="&#x413;" horiz-adv-x="517" 
d="M19 6q0 7 8 11t25 7q40 7 59 23.5t19 50.5v452q0 35 -14.5 50t-52.5 22q-33 6 -33 20q0 11 29 11q28 0 64 -2l54 -1h290q8 0 15.5 1.5t10.5 1.5q7 0 12.5 -2t5.5 -7q0 -17 2 -53q2 -52 2 -73q0 -5 -3.5 -9.5t-7.5 -4.5q-9 0 -14 16q-2 6 -7 24t-12 31t-16 21
q-24 22 -71 22h-132q-23 0 -32.5 -15t-9.5 -47v-458q0 -34 19.5 -50.5t59.5 -23.5q17 -3 25 -7t8 -11q0 -11 -29 -11q-37 0 -64 3q-32 2 -53 2q-25 0 -61 -2q-30 -3 -67 -3q-29 0 -29 11z" />
    <glyph glyph-name="uni0403" unicode="&#x403;" horiz-adv-x="517" 
d="M19 6q0 7 8 11t25 7q40 7 59 23.5t19 50.5v452q0 35 -14.5 50t-52.5 22q-33 6 -33 20q0 11 29 11q28 0 64 -2l54 -1h290q8 0 15.5 1.5t10.5 1.5q7 0 12.5 -2t5.5 -7q0 -17 2 -53q2 -52 2 -73q0 -5 -3.5 -9.5t-7.5 -4.5q-9 0 -14 16q-2 6 -7 24t-12 31t-16 21
q-24 22 -71 22h-132q-23 0 -32.5 -15t-9.5 -47v-458q0 -34 19.5 -50.5t59.5 -23.5q17 -3 25 -7t8 -11q0 -11 -29 -11q-37 0 -64 3q-32 2 -53 2q-25 0 -61 -2q-30 -3 -67 -3q-29 0 -29 11zM248 691q0 7 5 15q35 58 77 119q9 13 27 13q14 0 36 -7t22 -16q0 -5 -3.5 -9.5
t-9.5 -9.5q-22 -20 -85 -68l-45 -34q-12 -9 -18 -9t-6 6z" />
    <glyph glyph-name="uni0490" unicode="&#x490;" horiz-adv-x="504" 
d="M20 6q0 7 8 11t25 7q40 7 59 23.5t19 50.5v452q0 35 -14.5 50t-52.5 22q-33 6 -33 20q0 11 29 11q28 0 64 -2l54 -1h145q51 0 79 11t38.5 29.5t15.5 49.5q1 6 6 12t10 6q4 0 8 -6.5t4 -11.5q0 -17 -1 -30.5t-2 -22.5q-4 -42 -4 -63q0 -5 -5.5 -7t-12.5 -2q-3 0 -24 1.5
t-33 1.5h-149q-23 0 -32.5 -15t-9.5 -47v-458q0 -34 19.5 -50.5t59.5 -23.5q17 -3 25 -7t8 -11q0 -11 -29 -11q-37 0 -64 3q-32 2 -53 2q-25 0 -61 -2q-30 -3 -67 -3q-29 0 -29 11z" />
    <glyph glyph-name="uni0414" unicode="&#x414;" horiz-adv-x="705" 
d="M33 -197q-6 9 -7 22q-4 55 -13 114q-8 62 -8 84q0 7 4 12t11 5q59 0 105 53t73.5 168.5t27.5 295.5q0 29 -13.5 43.5t-50.5 21.5q-33 6 -33 20q0 11 29 11l34 -2q36 -2 61 -2q165 0 258 1l50 1q34 2 63 2t29 -11q0 -14 -33 -20q-39 -7 -57 -23t-18 -49v-478q0 -19 29 -25
t52 -6.5t28 -0.5q7 0 9 -4.5t2 -13.5q0 -12 -5 -50q-12 -89 -14 -146q-1 -13 -7 -22t-17 -9t-14 9t-3.5 19.5t-0.5 14.5q-4 66 -12.5 99t-27 48t-55.5 15h-346q-37 0 -56 -15t-27 -49t-11 -99q-1 -23 -4 -33t-15 -10q-11 0 -17 9zM430 36q21 0 28 7t7 25v490q0 28 -7 42
t-25 14h-139q-16 0 -22.5 -10t-6.5 -34q0 -220 -34 -339.5t-91 -176.5q-7 -7 -7 -11q0 -7 25 -7h272z" />
    <glyph glyph-name="uni0415" unicode="&#x415;" horiz-adv-x="564" 
d="M37 6q0 7 8 11t25 7q39 7 56.5 23.5t17.5 51.5v450q0 35 -14.5 50.5t-52.5 22.5q-33 6 -33 20q0 11 29 11q38 0 92 -2l85 -1l137 1l85 2q17 0 18 -9q2 -8 8.5 -44t6.5 -59q0 -15 -14 -15q-5 0 -7 2t-4 8q-2 5 -8 26t-14 29q-24 27 -67 27h-131q-10 0 -23 -9.5t-13 -22.5
v-212q0 -9 5.5 -15.5t12.5 -6.5h99q28 0 39 10t19 39q6 22 18 22q4 0 8.5 -4.5t4.5 -11.5l-1 -26l-2 -44l1 -53l1 -24q0 -17 -9 -17q-15 0 -23 32q-6 24 -16.5 34.5t-29.5 10.5h-93q-19 0 -26.5 -5t-7.5 -21v-192q0 -37 15.5 -52t50.5 -15h74q33 0 54.5 4t36.5 13
q15 10 27.5 27.5t29.5 49.5q7 13 14 13q13 0 13 -14q0 -13 -11 -54.5t-20 -61.5q-1 -2 -3 -7t-4.5 -7.5t-6.5 -2.5q-20 0 -176 3q-69 3 -137 3q-28 0 -52 -3q-51 -3 -63 -3q-29 0 -29 11z" />
    <glyph glyph-name="uni0400" unicode="&#x400;" horiz-adv-x="564" 
d="M37 6q0 7 8 11t25 7q39 7 56.5 23.5t17.5 51.5v450q0 35 -14.5 50.5t-52.5 22.5q-33 6 -33 20q0 11 29 11q38 0 92 -2l85 -1l137 1l85 2q17 0 18 -9q2 -8 8.5 -44t6.5 -59q0 -15 -14 -15q-5 0 -7 2t-4 8q-2 5 -8 26t-14 29q-24 27 -67 27h-131q-10 0 -23 -9.5t-13 -22.5
v-212q0 -9 5.5 -15.5t12.5 -6.5h99q28 0 39 10t19 39q6 22 18 22q4 0 8.5 -4.5t4.5 -11.5l-1 -26l-2 -44l1 -53l1 -24q0 -17 -9 -17q-15 0 -23 32q-6 24 -16.5 34.5t-29.5 10.5h-93q-19 0 -26.5 -5t-7.5 -21v-192q0 -37 15.5 -52t50.5 -15h74q33 0 54.5 4t36.5 13
q15 10 27.5 27.5t29.5 49.5q7 13 14 13q13 0 13 -14q0 -13 -11 -54.5t-20 -61.5q-1 -2 -3 -7t-4.5 -7.5t-6.5 -2.5q-20 0 -176 3q-69 3 -137 3q-28 0 -52 -3q-51 -3 -63 -3q-29 0 -29 11zM312 694l-45 34q-63 48 -85 68q-6 5 -9.5 9.5t-3.5 9.5q0 9 22 16t36 7q18 0 27 -13
q42 -61 77 -119q5 -8 5 -15q0 -6 -6 -6t-18 9z" />
    <glyph glyph-name="uni0401" unicode="&#x401;" horiz-adv-x="564" 
d="M37 6q0 7 8 11t25 7q39 7 56.5 23.5t17.5 51.5v450q0 35 -14.5 50.5t-52.5 22.5q-33 6 -33 20q0 11 29 11q38 0 92 -2l85 -1l137 1l85 2q17 0 18 -9q2 -8 8.5 -44t6.5 -59q0 -15 -14 -15q-5 0 -7 2t-4 8q-2 5 -8 26t-14 29q-24 27 -67 27h-131q-10 0 -23 -9.5t-13 -22.5
v-212q0 -9 5.5 -15.5t12.5 -6.5h99q28 0 39 10t19 39q6 22 18 22q4 0 8.5 -4.5t4.5 -11.5l-1 -26l-2 -44l1 -53l1 -24q0 -17 -9 -17q-15 0 -23 32q-6 24 -16.5 34.5t-29.5 10.5h-93q-19 0 -26.5 -5t-7.5 -21v-192q0 -37 15.5 -52t50.5 -15h74q33 0 54.5 4t36.5 13
q15 10 27.5 27.5t29.5 49.5q7 13 14 13q13 0 13 -14q0 -13 -11 -54.5t-20 -61.5q-1 -2 -3 -7t-4.5 -7.5t-6.5 -2.5q-20 0 -176 3q-69 3 -137 3q-28 0 -52 -3q-51 -3 -63 -3q-29 0 -29 11zM165.5 709.5q-14.5 14.5 -14.5 35.5t14.5 35.5t35.5 14.5t35.5 -14.5t14.5 -35.5
t-14.5 -35.5t-35.5 -14.5t-35.5 14.5zM360.5 709.5q-14.5 14.5 -14.5 35.5t14.5 35.5t35.5 14.5t35.5 -14.5t14.5 -35.5t-14.5 -35.5t-35.5 -14.5t-35.5 14.5z" />
    <glyph glyph-name="uni0416" unicode="&#x416;" horiz-adv-x="982" 
d="M40 -12.5q-24 5.5 -34 12.5q-8 6 -8 13q0 5 3.5 8.5t7.5 3.5q40 0 77 38.5t80 107.5q3 6 8 13.5t11 17.5q39 64 64 97.5t51 44.5q6 3 6 7q0 5 -8 13q-30 30 -47 69l-42 100q-13 31 -27 40t-32 9q-6 0 -16.5 -4t-13.5 -5q-24 -11 -36 -11t-24 16t-12 38q0 23 10.5 35
t40.5 12q53 0 84 -25t51 -72l42 -97q29 -59 56 -83t76 -27h36q5 0 6 2.5t1 8v7.5v179q0 34 -14 46.5t-53 19.5q-33 6 -33 20q0 11 29 11q28 0 64 -2l53 -1l48 1q32 2 61 2t29 -11q0 -14 -33 -20q-40 -7 -55.5 -20t-15.5 -46v-179v-8q0 -6 1.5 -8t5.5 -2h36q50 3 78.5 27
t53.5 83l42 97q20 47 51 72t84 25q30 0 40.5 -12t10.5 -35q0 -22 -12 -38t-24 -16t-36 11q-3 1 -13.5 5t-16.5 4q-18 0 -32 -9t-27 -40l-42 -100q-16 -39 -47 -69q-8 -8 -8 -13q0 -4 6 -7q26 -11 51 -44.5t64 -97.5q6 -10 11 -17.5t8 -13.5q43 -69 80 -107.5t77 -38.5
q4 0 7.5 -3.5t3.5 -8.5q0 -7 -8 -13q-10 -7 -34 -12.5t-49 -5.5q-35 0 -69.5 38t-77.5 108l-28 47q-30 50 -46.5 75t-32.5 41q-4 4 -14.5 15t-30 16t-53.5 5q-5 0 -7.5 -5.5t-2.5 -11.5v-211q0 -34 19.5 -51t59.5 -24q17 -3 25 -7t8 -11q0 -11 -29 -11q-37 0 -64 3
q-32 2 -53 2q-25 0 -61 -2q-30 -3 -67 -3q-29 0 -29 11q0 7 8 11t25 7q40 7 59 24t19 51v211q0 6 -2.5 11.5t-7.5 5.5q-44 0 -60 -6.5t-25 -16t-13 -13.5q-15 -15 -31.5 -40t-46.5 -75q-9 -16 -29 -48q-41 -68 -76.5 -107t-70.5 -39q-25 0 -49 5.5z" />
    <glyph glyph-name="uni0417" unicode="&#x417;" horiz-adv-x="510" 
d="M137 -6.5q-27 7.5 -57 21.5q-12 5 -22 15t-12 22q-1 5 -6 40t-5 67q0 6 6 10.5t14 4.5q6 0 24 -44q21 -52 58.5 -82.5t79.5 -30.5q75 0 114 50.5t39 121.5q0 63 -30.5 106.5t-88.5 43.5q-8 0 -15.5 -1t-13.5 -2q-22 -4 -45 -4q-41 0 -41 21q0 11 13.5 18t25.5 7
q24 0 38 -3q4 0 15 -1.5t28 -1.5q39 0 58.5 36.5t19.5 86.5q0 57 -25.5 97.5t-95.5 40.5q-85 0 -119 -128q-2 -10 -11.5 -17.5t-14.5 -7.5q-4 0 -7 9t-3 16q0 24 3 46t7 46q2 9 4.5 14t8.5 6q18 5 49 19q32 14 54 21t48 7q82 0 139 -39.5t57 -116.5q0 -54 -25 -86.5
t-74 -52.5q-4 -2 -4 -5.5t4 -4.5q40 -13 69 -29t49.5 -49t20.5 -87q0 -72 -40 -118.5t-100.5 -68t-126.5 -21.5q-37 0 -64 7.5z" />
    <glyph glyph-name="uni0418" unicode="&#x418;" horiz-adv-x="803" 
d="M37 6q0 7 8 11t25 7q36 7 48 22.5t12 52.5v452q0 26 -3 38.5t-14 20.5t-36 12q-33 6 -33 20q0 11 29 11q30 0 60 -2l43 -1l45 1q32 2 61 2t29 -11q0 -14 -33 -20q-37 -7 -52.5 -24t-15.5 -47v-379q0 -22 11 -11l387 385q8 8 8 16v4q-1 23 -17.5 36.5t-47.5 19.5
q-33 6 -33 20q0 11 29 11q28 0 64 -2l52 -1l36 1q26 2 57 2q29 0 29 -11q0 -14 -33 -20q-35 -6 -45 -22t-10 -48v-452q0 -39 10.5 -54.5t46.5 -21.5q17 -3 25 -7t8 -11q0 -11 -29 -11q-37 0 -61 3q-26 2 -45 2q-20 0 -46 -2q-24 -3 -61 -3q-29 0 -29 11q0 7 8 11t25 7
q34 6 50.5 19.5t16.5 41.5v398q0 17 -10 7l-388 -386q-4 -4 -5.5 -6.5t-1.5 -6.5v-6q0 -29 19 -41.5t59 -19.5q17 -3 25 -7t8 -11q0 -11 -29 -11q-37 0 -64 3q-32 2 -53 2q-20 0 -48 -2q-24 -3 -62 -3q-29 0 -29 11z" />
    <glyph glyph-name="uni0419" unicode="&#x419;" horiz-adv-x="803" 
d="M37 6q0 7 8 11t25 7q36 7 48 22.5t12 52.5v452q0 26 -3 38.5t-14 20.5t-36 12q-33 6 -33 20q0 11 29 11q30 0 60 -2l43 -1l45 1q32 2 61 2t29 -11q0 -14 -33 -20q-37 -7 -52.5 -24t-15.5 -47v-379q0 -22 11 -11l387 385q8 8 8 16v4q-1 23 -17.5 36.5t-47.5 19.5
q-33 6 -33 20q0 11 29 11q28 0 64 -2l52 -1l36 1q26 2 57 2q29 0 29 -11q0 -14 -33 -20q-35 -6 -45 -22t-10 -48v-452q0 -39 10.5 -54.5t46.5 -21.5q17 -3 25 -7t8 -11q0 -11 -29 -11q-37 0 -61 3q-26 2 -45 2q-20 0 -46 -2q-24 -3 -61 -3q-29 0 -29 11q0 7 8 11t25 7
q34 6 50.5 19.5t16.5 41.5v398q0 17 -10 7l-388 -386q-4 -4 -5.5 -6.5t-1.5 -6.5v-6q0 -29 19 -41.5t59 -19.5q17 -3 25 -7t8 -11q0 -11 -29 -11q-37 0 -64 3q-32 2 -53 2q-20 0 -48 -2q-24 -3 -62 -3q-29 0 -29 11zM309.5 722q-35.5 30 -35.5 70q0 29 14 48.5t36 19.5
q19 0 32 -9.5t13 -26.5t-6 -31q-7 -14 -7 -23q0 -15 16.5 -25.5t45.5 -10.5q96 0 121 100q1 5 5.5 8.5t6.5 3.5q4 0 6 -5.5t2 -11.5q0 -38 -19 -69.5t-52 -49.5t-73 -18q-70 0 -105.5 30z" />
    <glyph glyph-name="uni040D" unicode="&#x40d;" horiz-adv-x="803" 
d="M37 6q0 7 8 11t25 7q36 7 48 22.5t12 52.5v452q0 26 -3 38.5t-14 20.5t-36 12q-33 6 -33 20q0 11 29 11q30 0 60 -2l43 -1l45 1q32 2 61 2t29 -11q0 -14 -33 -20q-37 -7 -52.5 -24t-15.5 -47v-379q0 -22 11 -11l387 385q8 8 8 16v4q-1 23 -17.5 36.5t-47.5 19.5
q-33 6 -33 20q0 11 29 11q28 0 64 -2l52 -1l36 1q26 2 57 2q29 0 29 -11q0 -14 -33 -20q-35 -6 -45 -22t-10 -48v-452q0 -39 10.5 -54.5t46.5 -21.5q17 -3 25 -7t8 -11q0 -11 -29 -11q-37 0 -61 3q-26 2 -45 2q-20 0 -46 -2q-24 -3 -61 -3q-29 0 -29 11q0 7 8 11t25 7
q34 6 50.5 19.5t16.5 41.5v398q0 17 -10 7l-388 -386q-4 -4 -5.5 -6.5t-1.5 -6.5v-6q0 -29 19 -41.5t59 -19.5q17 -3 25 -7t8 -11q0 -11 -29 -11q-37 0 -64 3q-32 2 -53 2q-20 0 -48 -2q-24 -3 -62 -3q-29 0 -29 11zM431 694l-45 34q-63 48 -85 68q-6 5 -9.5 9.5t-3.5 9.5
q0 9 22 16t36 7q18 0 27 -13q42 -61 77 -119q5 -8 5 -15q0 -6 -6 -6t-18 9z" />
    <glyph glyph-name="uni041A" unicode="&#x41a;" horiz-adv-x="661" 
d="M491 3.5q-33 21.5 -56 72.5l-71 156q-17 38 -40 62.5t-43 28.5t-61 4q-9 0 -9 -19v-198q0 -74 69 -86q17 -3 25 -7t8 -11q0 -11 -29 -11q-32 0 -58 4q-18 3 -40 3q-17 0 -34.5 -1.5t-25.5 -1.5q-38 -4 -66 -4q-29 0 -29 11q0 7 8 11t25 7q38 7 52.5 23.5t14.5 53.5v450
q0 34 -14.5 49t-52.5 22q-33 6 -33 20q0 11 29 11q28 0 64 -2l53 -1l36 1q24 2 56 2q29 0 29 -11q0 -14 -33 -20q-35 -6 -44.5 -22t-9.5 -49v-173q0 -11 1 -15t5 -4h36q47 0 82.5 29t54.5 79l38 99q17 44 47 70.5t80 26.5q29 0 38.5 -12.5t9.5 -36.5q0 -23 -11.5 -35
t-26.5 -12q-11 0 -31 8q-16 7 -26 7q-18 0 -29.5 -9.5t-23.5 -39.5l-34 -82q-17 -43 -39 -71q-4 -5 -4 -11q0 -5 3 -11q2 -5 7.5 -19t19.5 -40l81 -145q34 -62 55.5 -88t43 -33.5t64.5 -7.5q4 0 7.5 -3.5t3.5 -8.5q0 -7 -8 -13q-10 -7 -34 -12.5t-49 -5.5q-48 0 -81 21.5z
" />
    <glyph glyph-name="uni040C" unicode="&#x40c;" horiz-adv-x="661" 
d="M491 3.5q-33 21.5 -56 72.5l-71 156q-17 38 -40 62.5t-43 28.5t-61 4q-9 0 -9 -19v-198q0 -74 69 -86q17 -3 25 -7t8 -11q0 -11 -29 -11q-32 0 -58 4q-18 3 -40 3q-17 0 -34.5 -1.5t-25.5 -1.5q-38 -4 -66 -4q-29 0 -29 11q0 7 8 11t25 7q38 7 52.5 23.5t14.5 53.5v450
q0 34 -14.5 49t-52.5 22q-33 6 -33 20q0 11 29 11q28 0 64 -2l53 -1l36 1q24 2 56 2q29 0 29 -11q0 -14 -33 -20q-35 -6 -44.5 -22t-9.5 -49v-173q0 -11 1 -15t5 -4h36q47 0 82.5 29t54.5 79l38 99q17 44 47 70.5t80 26.5q29 0 38.5 -12.5t9.5 -36.5q0 -23 -11.5 -35
t-26.5 -12q-11 0 -31 8q-16 7 -26 7q-18 0 -29.5 -9.5t-23.5 -39.5l-34 -82q-17 -43 -39 -71q-4 -5 -4 -11q0 -5 3 -11q2 -5 7.5 -19t19.5 -40l81 -145q34 -62 55.5 -88t43 -33.5t64.5 -7.5q4 0 7.5 -3.5t3.5 -8.5q0 -7 -8 -13q-10 -7 -34 -12.5t-49 -5.5q-48 0 -81 21.5z
M326 691q0 7 5 15q35 58 77 119q9 13 27 13q14 0 36 -7t22 -16q0 -5 -3.5 -9.5t-9.5 -9.5q-22 -20 -85 -68l-45 -34q-12 -9 -18 -9t-6 6z" />
    <glyph glyph-name="uni041B" unicode="&#x41b;" horiz-adv-x="711" 
d="M23.5 2q-18.5 16 -18.5 42q0 19 7.5 30.5t17.5 11.5q13 -4 36 -8t46 -4q119 0 119 483q0 29 -13.5 43.5t-50.5 21.5q-33 6 -33 20q0 11 29 11l34 -2q36 -2 61 -2q174 0 267 1l48 1q32 2 61 2t29 -11q0 -14 -33 -20q-39 -7 -55 -22.5t-16 -49.5v-452q0 -34 19.5 -50.5
t59.5 -23.5q17 -3 25 -7t8 -11q0 -11 -29 -11q-37 0 -64 3q-32 2 -53 2q-25 0 -61 -2q-30 -3 -67 -3q-29 0 -29 11q0 7 8 11t25 7q78 14 78 75v456q0 28 -7 42t-25 14h-142q-16 0 -22.5 -10t-6.5 -34q0 -234 -34.5 -363.5t-79.5 -173.5t-86 -44q-34 0 -52.5 16z" />
    <glyph glyph-name="uni041C" unicode="&#x41c;" horiz-adv-x="901" 
d="M19 6q0 7 8 11t25 7q52 9 62 78q41 308 41 426q0 23 -1 33q-1 11 -3.5 18.5t-11.5 14.5q-16 14 -31.5 19t-43.5 11q-10 2 -16 7.5t-6 12.5t8.5 9t25.5 2q13 0 75 -4t75 -4q14 0 19 -16l7 -26q9 -36 15 -51l158 -401q3 -9 13 -9q7 0 10 6l197 410q12 45 18 75q3 13 10 13
h36q15 0 72 5q26 3 42 3q21 0 21 -10q0 -7 -5.5 -11t-20.5 -10q-9 -3 -24 -9l-35 -14q-11 -5 -17.5 -14t-6.5 -20q0 -88 3.5 -165t10.5 -180q6 -82 8 -128q1 -31 19 -47.5t56 -23.5q17 -3 25 -7t8 -11q0 -11 -29 -11q-37 0 -64 3q-32 2 -53 2q-17 0 -45 -2q-22 -3 -60 -3
q-29 0 -29 11q0 14 33 18q29 4 40 20t11 52q0 102 -3.5 188.5t-4.5 102.5q-2 25 -4 77q-1 10 -6 10q-4 0 -10 -10l-230 -469q-1 -6 -9 -6q-6 0 -9 7q-69 205 -184 475q-2 5 -7 5t-6 -5q-18 -133 -25 -205t-7 -164q0 -28 17.5 -50t47.5 -28q17 -3 25 -7t8 -11q0 -11 -29 -11
q-37 0 -57 3q-20 2 -37 2q-15 0 -35 -2q-39 -3 -56 -3q-29 0 -29 11z" />
    <glyph glyph-name="uni041D" unicode="&#x41d;" horiz-adv-x="810" 
d="M45 -1.5q-8 3.5 -8 9.5t7 9.5t25 6.5q37 7 49 22.5t12 52.5v452q0 26 -3 38.5t-14 20.5t-36 12q-17 3 -25 7t-8 11q0 13 29 13q30 0 60 -2l43 -1l45 1q32 2 61 2t29 -13q0 -7 -8 -11t-25 -7q-37 -7 -52.5 -24t-15.5 -47v-197q0 -9 14 -9h371q7 0 7 12v195q0 29 -15 46.5
t-51 23.5q-17 3 -25 7t-8 11q0 6 8 9.5t21 3.5q28 0 64 -2l52 -1l35 1q26 2 56 2q29 0 29 -13q0 -7 -8 -11t-25 -7q-34 -6 -43.5 -21.5t-9.5 -48.5v-452q0 -39 10 -54.5t46 -21.5q18 -3 25 -6.5t7 -9.5t-8 -9.5t-21 -3.5q-37 0 -60 3q-26 2 -44 2q-20 0 -46 -2
q-24 -3 -61 -3q-13 0 -21 3.5t-8 9.5t7 9.5t25 6.5q69 13 69 73v195v5q0 4 -1 7t-4 3h-382q-3 0 -4 -3t-1 -8v-190q0 -31 22.5 -53.5t57.5 -28.5q18 -3 25 -6.5t7 -9.5t-8 -9.5t-21 -3.5q-37 0 -64 3q-32 2 -53 2q-20 0 -48 -2q-24 -3 -62 -3q-13 0 -21 3.5z" />
    <glyph glyph-name="uni041E" unicode="&#x41e;" horiz-adv-x="763" 
d="M212.5 27.5q-76.5 41.5 -122 116.5t-45.5 171q0 92 40 172t117 128.5t184 48.5q88 0 164.5 -41.5t122 -116.5t45.5 -171q0 -92 -40 -172t-117 -128.5t-184 -48.5q-88 0 -164.5 41.5zM563 95.5q59 69.5 59 190.5q0 95 -29 171t-85.5 120.5t-137.5 44.5q-111 0 -170 -68.5
t-59 -188.5q0 -95 28.5 -172t85 -122t137.5 -45q112 0 171 69.5z" />
    <glyph glyph-name="uni041F" unicode="&#x41f;" horiz-adv-x="828" 
d="M37 6q0 7 8 11t25 7q40 7 59 23.5t19 50.5v452q0 35 -14.5 50t-52.5 22q-33 6 -33 20q0 11 29 11t61 -2q26 -2 45 -2l229 -1q67 0 101 1l129 1l48 1q32 2 61 2t29 -11q0 -14 -33 -20q-39 -7 -55 -22.5t-16 -49.5v-452q0 -34 19.5 -50.5t59.5 -23.5q17 -3 25 -7t8 -11
q0 -11 -29 -11q-37 0 -64 3q-32 2 -53 2q-25 0 -61 -2q-30 -3 -67 -3q-29 0 -29 11q0 7 8 11t25 7q76 14 77 75q2 112 2 167l-1 168q-1 56 -1 167q0 5 -2 6t-6 1q-45 0 -109 2l-84 1q-60 0 -161 -3q-3 0 -4 -3t-1 -8q-4 -166 -4 -249t4 -249q1 -61 79 -75q17 -3 25 -7t8 -11
q0 -11 -29 -11q-37 0 -64 3q-32 2 -53 2q-25 0 -61 -2q-30 -3 -67 -3q-29 0 -29 11z" />
    <glyph glyph-name="uni0420" unicode="&#x420;" horiz-adv-x="552" 
d="M24 6q0 7 8 11t25 7q39 7 56 23.5t17 52.5v422q0 48 -12.5 71t-48.5 29q-33 6 -33 20q0 11 29 11q43 0 56 -1h42q15 0 35 1t30 2q26 3 46 3q115 0 184 -47.5t69 -130.5q0 -63 -24.5 -114.5t-75 -81.5t-124.5 -30q-20 0 -32.5 6t-12.5 13q0 4 5.5 9t10.5 5q3 0 15.5 -1
t30.5 -1q59 0 90 49t31 139q0 77 -45.5 117t-121.5 40q-64 0 -64 -42v-477q0 -38 15.5 -59t51.5 -28q17 -3 25 -7t8 -11q0 -11 -29 -11q-32 0 -58 4q-18 3 -40 3q-18 0 -36.5 -1.5t-26.5 -1.5q-40 -4 -67 -4q-29 0 -29 11z" />
    <glyph glyph-name="uni0421" unicode="&#x421;" horiz-adv-x="710" 
d="M230 27.5q-83 42.5 -133.5 119.5t-50.5 176q0 95 53 172.5t142 122.5t191 45q52 0 84.5 -5.5t93.5 -20.5q14 -4 20.5 -12t8.5 -22q8 -78 9 -115q1 -6 -4.5 -10.5t-12.5 -4.5q-13 0 -17 14q-11 43 -24.5 68.5t-37.5 42.5q-25 16 -60.5 25t-76.5 9q-76 0 -137 -40
t-96 -105.5t-35 -139.5q0 -83 35 -159.5t97.5 -124t142.5 -47.5q69 0 116.5 31.5t82.5 93.5q3 6 9 9.5t11 3.5q6 0 10 -4t4 -12q0 -12 -9 -43.5t-18 -53.5q-8 -14 -12 -18t-20 -9q-35 -14 -86 -21.5t-103 -7.5q-94 0 -177 42.5z" />
    <glyph glyph-name="uni0422" unicode="&#x422;" horiz-adv-x="670" 
d="M185 6q0 7 8 11t25 7q39 7 58.5 25t19.5 53v388q0 67 -4.5 90.5t-16.5 25.5q-13 3 -30.5 3.5t-40.5 0.5h-47q-26 0 -49 -10t-33 -29q-6 -12 -18.5 -25t-22.5 -13q-7 0 -7 13q0 10 5 20q14 27 20 49.5t11 55.5q3 23 17 23q3 0 11.5 -11t13.5 -21q6 -10 26.5 -15t43.5 -5
h352q62 0 95 15q6 3 17.5 11.5t21.5 8.5q3 0 5 -7.5t2 -15.5q0 -4 -4 -28l-6 -30q-4 -12 -4 -29v-12q0 -10 -4.5 -21t-11.5 -11t-11 9.5t-8 31.5t-25 34t-67 12h-101q-25 0 -34.5 -6t-12.5 -28.5t-3 -80.5v-393q0 -35 20 -53t59 -25q17 -3 25 -7t8 -11q0 -11 -29 -11
q-37 0 -64 3q-32 2 -53 2q-25 0 -61 -2q-30 -3 -67 -3q-29 0 -29 11z" />
    <glyph glyph-name="uni0423" unicode="&#x423;" horiz-adv-x="637" 
d="M123.5 -17.5q-25.5 22.5 -25.5 65.5q0 6 8 15.5t14 9.5q3 0 30 -11q34 -14 69 -14q20 0 33.5 12t29.5 46q9 16 9 26q0 9 -5 20t-7 14l-165 356q-23 49 -40.5 71.5t-46.5 26.5q-16 2 -24.5 8.5t-8.5 13.5q0 11 29 11l46 -1q44 -2 71 -2l48 1q12 1 32 1q29 0 29 -11
q0 -6 -7 -10t-26 -10q-16 -5 -27 -12t-11 -25q0 -14 22 -55q3 -7 6 -13l6 -12l120 -242q2 -5 5.5 -14t6 -12t4.5 -3q8 0 20 29l97 241q8 19 13 38.5t5 27.5q0 18 -15.5 31.5t-36.5 19.5q-33 9 -33 20t29 11l81 -1q23 0 59 2l37 1q29 0 29 -11q0 -13 -33 -20q-44 -9 -71 -75
l-145 -325q-64 -144 -108 -203t-89 -59q-38 0 -63.5 22.5z" />
    <glyph glyph-name="uni040E" unicode="&#x40e;" horiz-adv-x="637" 
d="M123.5 -17.5q-25.5 22.5 -25.5 65.5q0 6 8 15.5t14 9.5q3 0 30 -11q34 -14 69 -14q20 0 33.5 12t29.5 46q9 16 9 26q0 9 -5 20t-7 14l-165 356q-23 49 -40.5 71.5t-46.5 26.5q-16 2 -24.5 8.5t-8.5 13.5q0 11 29 11l46 -1q44 -2 71 -2l48 1q12 1 32 1q29 0 29 -11
q0 -6 -7 -10t-26 -10q-16 -5 -27 -12t-11 -25q0 -14 22 -55q3 -7 6 -13l6 -12l120 -242q2 -5 5.5 -14t6 -12t4.5 -3q8 0 20 29l97 241q8 19 13 38.5t5 27.5q0 18 -15.5 31.5t-36.5 19.5q-33 9 -33 20t29 11l81 -1q23 0 59 2l37 1q29 0 29 -11q0 -13 -33 -20q-44 -9 -71 -75
l-145 -325q-64 -144 -108 -203t-89 -59q-38 0 -63.5 22.5zM210.5 722q-35.5 30 -35.5 70q0 29 14 48.5t36 19.5q19 0 32 -9.5t13 -26.5t-6 -31q-7 -14 -7 -23q0 -15 16.5 -25.5t45.5 -10.5q96 0 121 100q1 5 5.5 8.5t6.5 3.5q4 0 6 -5.5t2 -11.5q0 -38 -19 -69.5t-52 -49.5
t-73 -18q-70 0 -105.5 30z" />
    <glyph glyph-name="uni0424" unicode="&#x424;" horiz-adv-x="763" 
d="M230 -16q0 7 8 11t25 7q33 6 47 10t22.5 13.5t8.5 28.5v22q-83 0 -152 33t-109 94t-40 143q0 77 40 136t108.5 91t152.5 32v24q0 15 -15 24t-52 16q-33 6 -33 20q0 11 29 11q28 0 64 -2l53 -1l48 1q32 2 61 2t29 -11q0 -14 -33 -20q-38 -7 -54.5 -16t-16.5 -24v-24
q82 0 151 -29.5t110 -85.5t41 -131q0 -84 -40 -148.5t-109 -99.5t-153 -35v-22q0 -19 9 -28.5t22.5 -13.5t47.5 -10q17 -3 25 -7t8 -11q0 -11 -29 -11q-37 0 -64 3q-32 2 -53 2q-25 0 -61 -2q-30 -3 -67 -3q-29 0 -29 11zM341 574q-63 0 -110.5 -27t-73 -74t-25.5 -106
q0 -72 24 -130.5t71 -93t114 -34.5v465zM533 137.5q48 30.5 73 84.5t25 121q0 64 -25 116.5t-72.5 83.5t-112.5 31v-467q64 0 112 30.5z" />
    <glyph glyph-name="uni0425" unicode="&#x425;" horiz-adv-x="707" 
d="M-5 6q0 7 8 12t25 10q31 9 73 35t70 61l125 156q15 21 15 34t-10 27l-134 188q-34 47 -59.5 65.5t-56.5 27.5q-17 6 -25 11t-8 11q0 11 29 11q13 0 57 -2q14 -1 35.5 -2t50.5 -1l68 1q13 1 31 1q29 0 29 -11q0 -6 -7 -10t-26 -10q-30 -9 -40.5 -14.5t-10.5 -16.5
q0 -16 33 -62l91 -128q11 -15 16 -15t14 12l107 141q26 33 26 51q0 23 -45 31q-12 3 -22.5 8.5t-10.5 11.5q0 11 29 11l81 -1q22 0 39 1t28 2q27 3 47 3q29 0 29 -11q0 -7 -7.5 -11t-25.5 -9q-26 -7 -57.5 -36.5t-72.5 -78.5l-115 -136q-8 -9 -12.5 -16t-4.5 -12q0 -4 3 -12
l155 -223q23 -33 51 -55.5t56 -29.5q18 -5 25.5 -9t7.5 -11q0 -11 -29 -11l-54 2q-58 4 -89 4l-103 -1q-29 0 -29 11t33 20q17 5 30.5 17.5t13.5 29.5t-12 33l-104 151q-8 11 -13 11q-4 0 -9 -6l-135 -174q-9 -12 -9 -23q0 -14 12 -24.5t33 -15.5q18 -5 25.5 -9t7.5 -11
q0 -11 -29 -11q-18 0 -30 1l-59 1q-25 0 -43 -1t-30 -2q-28 -3 -53 -3q-29 0 -29 11z" />
    <glyph glyph-name="uni0427" unicode="&#x427;" horiz-adv-x="678" 
d="M368 6q0 7 8 11t25 7q69 13 69 74v222q0 11 -2 15t-4 1q-7 -9 -31.5 -22.5t-61 -24t-77.5 -10.5q-98 0 -145 40.5t-47 139.5v93q0 25 -3 37.5t-14 20.5t-36 12q-33 6 -33 20q0 11 29 11q30 0 60 -2l43 -1l45 1q32 2 61 2t29 -11q0 -14 -33 -20q-37 -7 -52.5 -24
t-15.5 -46v-97q0 -131 136 -131q41 0 84 14.5t59 27.5q9 6 9 24v162q0 28 -15.5 46t-51.5 24q-33 6 -33 20q0 11 29 11q28 0 64 -2l53 -1l35 1q26 2 56 2q29 0 29 -11q0 -14 -33 -20q-34 -6 -43.5 -21.5t-9.5 -48.5v-452q0 -27 3.5 -41t15 -22.5t36.5 -12.5q17 -3 25 -7
t8 -11q0 -11 -29 -11q-37 0 -60 3q-28 2 -45 2q-20 0 -46 -2q-24 -3 -61 -3q-29 0 -29 11z" />
    <glyph glyph-name="uni0426" unicode="&#x426;" horiz-adv-x="777" 
d="M684 -193q-4 12 -4 31q1 23 1 60q0 42 -7 63.5t-22.5 30t-45.5 8.5h-430q-25 0 -61 -2q-30 -3 -67 -3q-29 0 -29 11q0 7 8 11t25 7q40 7 59 23.5t19 50.5v452q0 35 -14.5 50t-52.5 22q-33 6 -33 20q0 11 29 11q28 0 64 -2l53 -1l48 1q32 2 61 2t29 -11q0 -14 -33 -20
q-39 -7 -55 -22.5t-16 -49.5v-452q0 -24 15.5 -40.5t38.5 -16.5h245q25 0 41.5 20.5t16.5 44.5v443q0 35 -14.5 50.5t-52.5 22.5q-33 6 -33 20q0 11 29 11q28 0 64 -2l53 -1l48 1q32 2 61 2t29 -11q0 -14 -33 -20q-39 -7 -55 -22.5t-16 -50.5v-457q0 -29 28.5 -39.5
t62.5 -11.5q14 0 14 -16q0 -9 -7 -49q-15 -97 -18 -150q-1 -13 -8 -22t-18 -9q-13 0 -17 12z" />
    <glyph glyph-name="uni0428" unicode="&#x428;" horiz-adv-x="1034" 
d="M19 6q0 7 8 11t25 7q40 7 59 23t19 50v452q0 36 -14 51t-52 22q-33 6 -33 20q0 11 29 11q28 0 64 -2l53 -1l48 1q32 2 61 2t29 -11q0 -14 -33 -20q-39 -7 -54.5 -22.5t-15.5 -50.5v-450q0 -24 14.5 -41t37.5 -17h147q41 0 54 18t13 47v442q0 36 -14.5 51.5t-52.5 22.5
q-33 6 -33 20q0 11 29 11q28 0 64 -2l53 -1l48 1q32 2 61 2t29 -11q0 -14 -33 -20q-39 -7 -55 -22t-16 -50v-458q0 -51 62 -51h146q25 0 41.5 20.5t16.5 44.5v443q0 35 -14.5 50.5t-52.5 22.5q-33 6 -33 20q0 11 29 11q28 0 64 -2l53 -1l48 1q32 2 61 2t29 -11
q0 -14 -33 -20q-39 -7 -55 -22.5t-16 -49.5v-452q0 -34 19.5 -50.5t59.5 -23.5q17 -3 25 -7t8 -11q0 -11 -29 -11q-37 0 -64 3q-32 2 -53 2l-348 1h-165t-181 -1q-25 0 -61 -2q-30 -3 -67 -3q-29 0 -29 11z" />
    <glyph glyph-name="uni0429" unicode="&#x429;" horiz-adv-x="1034" 
d="M949 -193q-4 12 -4 31v23q0 57 -8 86.5t-26.5 41t-53.5 11.5l-335 1h-165t-181 -1q-25 0 -61 -2q-30 -3 -67 -3q-29 0 -29 11q0 7 8 11t25 7q40 7 59 23t19 50v452q0 36 -14 51t-52 22q-33 6 -33 20q0 11 29 11q28 0 64 -2l53 -1l48 1q32 2 61 2t29 -11q0 -14 -33 -20
q-39 -7 -54.5 -22.5t-15.5 -50.5v-450q0 -24 14.5 -41t37.5 -17h147q41 0 54 18t13 47v442q0 36 -14.5 51.5t-52.5 22.5q-33 6 -33 20q0 11 29 11q28 0 64 -2l53 -1l48 1q32 2 61 2t29 -11q0 -14 -33 -20q-39 -7 -55 -22t-16 -50v-458q0 -51 62 -51h146q25 0 41.5 20.5
t16.5 44.5v443q0 35 -14.5 50.5t-52.5 22.5q-33 6 -33 20q0 11 29 11q28 0 64 -2l53 -1l48 1q32 2 61 2t29 -11q0 -14 -33 -20q-39 -7 -55 -22.5t-16 -49.5l1 -455q0 -32 25 -42.5t73 -10.5q9 0 15 -6.5t6 -15.5t-9 -45q-10 -45 -15.5 -77.5t-7.5 -71.5q-1 -13 -8 -22
t-18 -9q-13 0 -17 12z" />
    <glyph glyph-name="uni040F" unicode="&#x40f;" horiz-adv-x="793" 
d="M448.5 -6.5q-5.5 -6.5 -9.5 -20.5q-21 -75 -22 -157q0 -14 -6 -22t-13 -8t-13.5 8t-7.5 21q-3 87 -23 158q-7 27 -27 27h-151q-25 0 -61 -2q-30 -3 -67 -3q-29 0 -29 11q0 7 8 11t25 7q40 7 59 23.5t19 50.5v452q0 35 -14.5 50t-52.5 22q-33 6 -33 20q0 11 29 11
q28 0 64 -2l53 -1l48 1q32 2 61 2t29 -11q0 -14 -33 -20q-39 -7 -55 -22.5t-16 -49.5v-452q0 -24 15.5 -40.5t38.5 -16.5h267q24 0 38 20t14 45v443q0 35 -14.5 50.5t-52.5 22.5q-33 6 -33 20q0 11 29 11q28 0 64 -2l53 -1l43 1q30 2 60 2q29 0 29 -11q0 -14 -33 -20
q-38 -7 -51.5 -22t-13.5 -50v-452q0 -34 17 -50.5t56 -23.5q17 -3 25 -7t8 -11q0 -11 -29 -11q-44 0 -74 3l-37 2h-160q-15 0 -20.5 -6.5z" />
    <glyph glyph-name="uni042C" unicode="&#x42c;" horiz-adv-x="568" 
d="M19 6q0 7 8 11t25 7q40 7 59 24t19 52v449q0 35 -15 50.5t-53 22.5q-33 6 -33 20q0 11 29 11q28 0 64 -2l53 -1l48 1q32 2 61 2t29 -11q0 -14 -33 -20q-39 -7 -55.5 -22.5t-16.5 -49.5v-167q0 -23 16 -23l8 2q54 16 100 16q92 0 146.5 -49t54.5 -135q0 -50 -16 -82.5
t-35.5 -48.5t-48.5 -33q-57 -34 -160 -34l-30 1q-27 3 -65 3q-25 0 -61 -2q-28 -3 -69 -3q-29 0 -29 11zM400.5 60q42.5 33 42.5 124q0 49 -22 84t-48 50q-21 12 -39 18t-51 6q-14 0 -34 -3t-28 -7q-13 -6 -13 -25v-204q0 -36 15 -51q9 -9 28 -17t36 -8q71 0 113.5 33z" />
    <glyph glyph-name="uni042A" unicode="&#x42a;" horiz-adv-x="656" 
d="M107 6q0 7 8 11t25 7q40 7 59 24t19 52v456q0 33 -7.5 47.5t-32.5 14.5h-49q-30 0 -46 -19t-26 -52q-2 -9 -10.5 -21.5t-13.5 -12.5q-4 0 -9 8.5t-5 18.5q0 15 4 45q4 36 4 60q0 4 2.5 9t7.5 5t23 -4t36 -4h35q19 -1 83 -1h49l48 1q32 2 61 2t29 -11q0 -14 -33 -20
q-39 -7 -55.5 -22.5t-16.5 -49.5v-138q0 -27 1.5 -40t7.5 -14q2 0 37 10t78 10q92 0 146.5 -49t54.5 -135q0 -50 -16 -82.5t-35.5 -48.5t-48.5 -33q-57 -34 -160 -34l-30 1q-27 3 -65 3q-25 0 -61 -2q-28 -3 -69 -3q-29 0 -29 11zM488.5 60q42.5 33 42.5 124q0 50 -22.5 86
t-49.5 50q-21 11 -38 16t-50 5q-14 0 -35.5 -4.5t-28.5 -8.5q-11 -7 -11 -25v-200q0 -36 15 -51q9 -9 28 -17t36 -8q71 0 113.5 33z" />
    <glyph glyph-name="uni042B" unicode="&#x42b;" horiz-adv-x="875" 
d="M19 6q0 7 8 11t25 7q40 7 59 24t19 52v449q0 35 -15 50.5t-53 22.5q-33 6 -33 20q0 11 29 11q28 0 64 -2l53 -1l48 1q32 2 61 2t29 -11q0 -14 -33 -20q-39 -7 -55.5 -22.5t-16.5 -49.5v-167q0 -23 16 -23l8 2q54 16 100 16q92 0 146.5 -49t54.5 -135q0 -50 -16 -82.5
t-35.5 -48.5t-48.5 -33q-57 -34 -160 -34l-30 1q-27 3 -65 3q-25 0 -61 -2q-28 -3 -69 -3q-29 0 -29 11zM400.5 60q42.5 33 42.5 124q0 49 -22 84t-48 50q-21 12 -39 18t-51 6q-14 0 -34 -3t-28 -7q-13 -6 -13 -25v-204q0 -36 15 -51q9 -9 28 -17t36 -8q71 0 113.5 33z
M554 6q0 7 8 11t25 7q40 7 59 23.5t19 50.5v452q0 35 -14.5 50t-52.5 22q-33 6 -33 20q0 11 29 11q28 0 64 -2l53 -1l48 1q32 2 61 2t29 -11q0 -14 -33 -20q-39 -7 -55 -22.5t-16 -49.5v-452q0 -34 19.5 -50.5t59.5 -23.5q17 -3 25 -7t8 -11q0 -11 -29 -11q-37 0 -64 3
q-32 2 -53 2q-25 0 -61 -2q-30 -3 -67 -3q-29 0 -29 11z" />
    <glyph glyph-name="uni0409" unicode="&#x409;" horiz-adv-x="951" 
d="M23.5 2q-18.5 16 -18.5 42q0 21 11.5 38t28.5 17q12 0 18.5 -2.5t12.5 -8.5q7 -7 14.5 -10.5t21.5 -3.5q36 0 67 47t50 155t19 281q0 31 -17.5 45.5t-48.5 19.5q-33 6 -33 20q0 11 29 11q10 0 50 -2q56 -2 94 -2h128q42 0 114 2q60 2 84 2q29 0 29 -11q0 -14 -33 -20
q-53 -10 -53 -65v-149q0 -49 8 -46q51 14 118 14q92 0 145.5 -48t53.5 -134q0 -57 -29.5 -100.5t-70.5 -63.5q-68 -34 -160 -34q-5 0 -43 2.5t-69 2.5q-25 0 -45 -3q-48 -3 -61 -3q-29 0 -29 11q0 7 8 11t25 7q69 13 69 73v460q0 25 -6 38t-23 13h-168q-10 0 -15.5 -12
t-5.5 -30q0 -234 -38.5 -363t-87.5 -173t-91 -44q-34 0 -52.5 16zM745 52q36 22 58.5 58.5t22.5 78.5q0 84 -74 125q-32 18 -94 18q-16 0 -41.5 -6.5t-25.5 -22.5v-195q0 -14 5 -28.5t14 -23.5q10 -10 26.5 -18t33.5 -8q39 0 75 22z" />
    <glyph glyph-name="uni040A" unicode="&#x40a;" horiz-adv-x="968" 
d="M627 -2q-30 3 -66 3q-25 0 -45 -3q-48 -3 -61 -3q-29 0 -29 11q0 7 8 11t25 7q68 13 68 73v217q0 18 -7 18h-305q-3 0 -4 -3t-1 -8v-215q0 -31 22 -53.5t57 -28.5q17 -3 25 -7t8 -11q0 -11 -29 -11q-37 0 -64 3q-32 2 -53 2q-20 0 -48 -2q-24 -3 -62 -3q-29 0 -29 11
q0 7 8 11t25 7q36 7 48 22.5t12 52.5v452q0 26 -3 38.5t-14 20.5t-36 12q-33 6 -33 20q0 11 29 11q30 0 60 -2l43 -1l45 1q32 2 61 2t29 -11q0 -14 -33 -20q-37 -7 -52.5 -24t-15.5 -47v-172q0 -9 14 -9h296q7 0 7 12v170q0 29 -15 46.5t-51 23.5q-33 6 -33 20q0 11 29 11
q28 0 64 -2l52 -1l35 1q26 2 56 2q29 0 29 -11q0 -14 -33 -20q-31 -6 -42 -20.5t-11 -48.5v-155q0 -23 4.5 -29.5t11.5 -6.5q2 0 26 4q52 10 85 10q92 0 145.5 -48t53.5 -134q0 -57 -29.5 -100.5t-70.5 -63.5q-68 -34 -160 -34q-12 0 -46 2zM762 52q36 22 58.5 58.5
t22.5 78.5q0 38 -16 69t-43 51q-45 34 -101 34q-21 0 -37 -4q-24 -5 -31 -10.5t-7 -22.5v-198q0 -14 5 -28.5t14 -23.5q10 -10 26.5 -18t33.5 -8q39 0 75 22z" />
    <glyph glyph-name="uni0405" unicode="&#x405;" horiz-adv-x="465" 
d="M63 32q-11 11 -13 20q-4 18 -9 83l-1 22q0 7 5.5 10.5t14.5 3.5q13 0 16 -11q18 -73 56.5 -108t85.5 -35q52 0 86 33.5t34 88.5q0 39 -12.5 64.5t-34.5 43t-66 44.5l-20 12q-49 30 -77 52t-48 54t-20 73q0 80 54 131t155 51q51 0 105 -22q7 -3 13 -10t8 -15
q10 -35 15 -56.5t5 -42.5q0 -11 -15 -11q-9 0 -17.5 4t-10.5 10q-22 55 -50.5 82t-69.5 27q-50 0 -82.5 -27.5t-32.5 -86.5q0 -28 18 -52t45.5 -44t76.5 -50q47 -29 76 -52t49 -57t20 -81q0 -89 -60 -142.5t-158 -53.5q-84 0 -141 48z" />
    <glyph glyph-name="uni0404" unicode="&#x404;" horiz-adv-x="652" 
d="M200 29.5q-69 44.5 -111.5 119.5t-42.5 162q0 93 41.5 174t115 130t163.5 49q69 0 137 -19q43 -11 56 -12q5 0 7 -6t3.5 -13.5t2.5 -10.5q14 -66 15 -109q0 -23 -10 -23q-8 0 -11 7.5t-7 23.5q-14 57 -70 93.5t-128 36.5q-56 0 -104.5 -33.5t-79 -92.5t-33.5 -132v-2
q0 -7 2.5 -14t4.5 -5q17 16 51.5 30.5t57.5 14.5q16 0 30 -4.5t39 -15.5q24 -12 43 -18t42 -6q35 0 70 19l2 1q4 0 6.5 -4t2.5 -8q0 -1 -6 -9q-15 -19 -38 -36t-46 -17q-28 0 -52 6t-51 17q-16 6 -32 10.5t-29 4.5q-20 0 -46 -8t-43 -18l-5 -2.5t-3 -7.5q1 -57 27.5 -123.5
t75.5 -113t113 -46.5q82 0 131 29.5t73 94.5q3 9 9.5 17t11.5 8q6 -1 9 -8.5t3 -16.5q0 -18 -5 -45.5t-11 -46.5q-5 -16 -19 -23.5t-43 -18.5t-75.5 -17.5t-99.5 -6.5q-75 0 -144 44.5z" />
    <glyph glyph-name="uni042D" unicode="&#x42d;" horiz-adv-x="651" 
d="M200 -10q-47 5 -73 15q-22 8 -36.5 18.5t-19.5 27.5q-6 19 -11 46.5t-5 45.5q0 9 3 16.5t9 8.5q6 0 12 -8t9 -17q22 -61 76 -94.5t124 -33.5t118.5 43t73 111.5t28.5 147.5v2q0 5 -2.5 7t-4.5 0q-26 -29 -49 -42t-48 -13q-16 0 -30.5 5.5t-41.5 17.5q-22 10 -39.5 16
t-34.5 6q-33 0 -52 -5.5t-40 -15.5l-3 -1q-3 0 -5.5 4t-2.5 8q0 3 20.5 22t46.5 34.5t49 15.5t42.5 -6t42.5 -16q6 -2 20 -8.5t25.5 -9.5t22.5 -3q25 0 42.5 4.5t33.5 13.5q2 1 4.5 2t3.5 3t0 5q-5 72 -31.5 133.5t-75 98.5t-116.5 37q-70 0 -124 -37.5t-68 -92.5
q-4 -15 -7 -22.5t-10 -8.5h-1q-10 0 -10 23q1 43 15 109q1 3 2.5 12t4 13.5t6.5 4.5q14 1 49 11q20 6 27 7q30 6 67 9.5t64 3.5q84 0 154 -44.5t110.5 -118.5t40.5 -160q0 -90 -39.5 -172t-110 -133t-159.5 -51q-49 0 -96 5z" />
    <glyph glyph-name="uni0406" unicode="&#x406;" horiz-adv-x="340" 
d="M19 6q0 7 8 11t25 7q40 7 59 23.5t19 50.5v452q0 35 -14.5 50t-52.5 22q-33 6 -33 20q0 11 29 11q28 0 64 -2l53 -1l48 1q32 2 61 2t29 -11q0 -14 -33 -20q-39 -7 -55 -22.5t-16 -49.5v-452q0 -34 19.5 -50.5t59.5 -23.5q17 -3 25 -7t8 -11q0 -11 -29 -11q-37 0 -64 3
q-32 2 -53 2q-25 0 -61 -2q-30 -3 -67 -3q-29 0 -29 11z" />
    <glyph glyph-name="uni0407" unicode="&#x407;" horiz-adv-x="340" 
d="M19 6q0 7 8 11t25 7q40 7 59 23.5t19 50.5v452q0 35 -14.5 50t-52.5 22q-33 6 -33 20q0 11 29 11q28 0 64 -2l53 -1l48 1q32 2 61 2t29 -11q0 -14 -33 -20q-39 -7 -55 -22.5t-16 -49.5v-452q0 -34 19.5 -50.5t59.5 -23.5q17 -3 25 -7t8 -11q0 -11 -29 -11q-37 0 -64 3
q-32 2 -53 2q-25 0 -61 -2q-30 -3 -67 -3q-29 0 -29 11zM37.5 709.5q-14.5 14.5 -14.5 35.5t14.5 35.5t35.5 14.5t35.5 -14.5t14.5 -35.5t-14.5 -35.5t-35.5 -14.5t-35.5 14.5zM232.5 709.5q-14.5 14.5 -14.5 35.5t14.5 35.5t35.5 14.5t35.5 -14.5t14.5 -35.5t-14.5 -35.5
t-35.5 -14.5t-35.5 14.5z" />
    <glyph glyph-name="uni0408" unicode="&#x408;" horiz-adv-x="340" 
d="M-42.5 -187.5q-26.5 12.5 -26.5 36.5q0 16 13.5 31.5t25.5 15.5q28 0 47 -25q13 -16 23.5 -23t23.5 -7q66 0 66 158v552q0 34 -14.5 49t-51.5 22q-33 6 -33 20q0 11 29 11q28 0 64 -2l53 -1l37 1q26 2 57 2q29 0 29 -11q0 -14 -33 -20q-36 -7 -46.5 -21t-10.5 -50v-504
q0 -56 -23.5 -106t-55.5 -87q-46 -54 -97 -54q-50 0 -76.5 12.5z" />
    <glyph glyph-name="uni040B" unicode="&#x40b;" horiz-adv-x="763" 
d="M136 6q0 7 8 11t25 7q39 7 58 25t19 54v454q0 27 -8 36q-6 8 -18.5 9.5t-41.5 1.5h-33q-26 0 -49 -10t-33 -29q-6 -12 -18.5 -25t-22.5 -13q-7 0 -7 13q0 10 5 20q13 26 19.5 50.5t11.5 60.5q3 23 17 23q3 0 11.5 -11t13.5 -21q10 -18 70 -20q85 -3 140 -3q83 0 205 6
q61 2 73 19q16 22 27 22q4 0 8 -5t4 -12q0 -15 -10 -61q-6 -36 -6 -51v-5q0 -11 -4 -18t-11 -7q-6 0 -9.5 6t-5.5 13.5t-4 11.5q-2 3 -7.5 17t-22.5 21.5t-46 7.5l-121 -1q-19 0 -33 -15t-14 -31v-177q0 -9 1 -13.5t4 -4.5t15 7q49 27 117 27q89 0 139 -56.5t50 -145.5v-90
q0 -40 11 -57t47 -23q17 -3 25 -7t8 -11q0 -11 -29 -11q-38 0 -59 3q-24 2 -41 2t-45 -2q-22 -3 -60 -3q-29 0 -29 11q0 7 8 11t25 7q36 6 47.5 23.5t11.5 56.5v85q0 69 -30 121.5t-94 52.5q-33 0 -67 -8t-43 -14q-7 -5 -9.5 -8.5t-2.5 -11.5v-218q0 -39 11 -56t47 -23
q17 -3 25 -7t8 -11q0 -11 -29 -11q-38 0 -59 3q-24 2 -41 2q-22 0 -58 -2q-27 -3 -65 -3q-29 0 -29 11z" />
    <glyph glyph-name="uni042E" unicode="&#x42e;" horiz-adv-x="1028" 
d="M514.5 30.5q-70.5 44.5 -113 118.5t-46.5 159l-117 -4q-4 0 -7 -3.5t-3 -8.5v-194q0 -34 19.5 -50.5t59.5 -23.5q17 -3 25 -7t8 -11q0 -11 -29 -11q-37 0 -64 3q-32 2 -53 2q-25 0 -61 -2q-30 -3 -67 -3q-29 0 -29 11q0 7 8 11t25 7q40 7 59 23.5t19 50.5v452
q0 35 -14.5 50t-52.5 22q-33 6 -33 20q0 11 29 11q28 0 64 -2l53 -1l48 1q32 2 61 2t29 -11q0 -14 -33 -20q-39 -7 -55 -22.5t-16 -49.5v-196q0 -10 8 -10l119 -3q7 85 49 159.5t111.5 119t153.5 44.5q87 0 159 -45t113.5 -120.5t41.5 -163.5q0 -91 -40.5 -171.5
t-112.5 -129t-161 -48.5q-84 0 -154.5 44.5zM792.5 65.5q46.5 40.5 70 105t23.5 134.5q0 80 -25.5 153.5t-76 120t-122.5 46.5q-65 0 -112.5 -39.5t-73 -103t-25.5 -132.5q0 -82 26.5 -156.5t78.5 -121.5t126 -47q64 0 110.5 40.5z" />
    <glyph glyph-name="uni042F" unicode="&#x42f;" horiz-adv-x="671" 
d="M-5 -3q-7 5 -7 13q0 5 3 8.5t7 3.5q34 0 74.5 34t80.5 101q33 56 71 94.5t76 46.5q3 0 3 2q0 3 -11 4q-44 4 -78.5 29.5t-54 62.5t-19.5 74q0 97 69 142t181 45q22 0 58 -4q8 0 23.5 -1.5t29.5 -1.5l48 1q32 2 61 2t29 -11q0 -14 -33 -20q-39 -7 -55 -22.5t-16 -49.5
v-452q0 -34 19.5 -50.5t59.5 -23.5q17 -3 25 -7t8 -11q0 -11 -29 -11q-37 0 -64 3q-32 2 -53 2q-25 0 -61 -2q-30 -3 -67 -3q-29 0 -29 11q0 7 8 11t25 7q78 14 78 74v169q0 17 -3 23t-9.5 7t-27.5 1q-9 0 -18 -4t-24 -13l-18 -10q-27 -15 -52 -45t-60 -83l-22 -33
q-41 -60 -78 -93t-83 -33t-65 13zM437 340.5q18 7.5 18 31.5v178q0 38 -21.5 57t-57.5 19q-39 0 -73.5 -18t-55.5 -49.5t-21 -69.5q0 -80 39 -118t115 -38q39 0 57 7.5z" />
    <glyph glyph-name="uni0402" unicode="&#x402;" horiz-adv-x="750" 
d="M380.5 -214q-8.5 4 -8.5 9q0 2 5.5 4.5t10.5 3.5t7 2q34 11 50 18q83 37 114.5 129t31.5 184q0 121 -31 174t-102 53q-33 0 -67 -8t-43 -14q-12 -8 -12 -28v-210q0 -35 20 -53.5t60 -25.5q17 -3 25 -7t8 -11q0 -11 -29 -11q-37 0 -64 3q-32 2 -53 2q-25 0 -61 -2
q-30 -3 -67 -3q-29 0 -29 11q0 7 8 11t25 7q39 7 58 25t19 54v457q0 25 -7.5 36t-29.5 11h-62q-25 0 -48.5 -11.5t-33.5 -30.5q-6 -12 -18.5 -25t-22.5 -13q-7 0 -7 13q0 10 5 20q13 26 19.5 50.5t11.5 60.5q3 23 17 23q8 0 16 -15t9 -17q10 -18 70 -20q86 -3 138 -3
q84 0 205 6q29 2 47.5 6t25.5 13q16 22 27 22q4 0 8.5 -5t3.5 -12l-4 -21q-12 -53 -12 -91v-5q0 -9 -3.5 -17t-9.5 -8q-7 0 -11 6.5t-6.5 14l-3.5 10.5q-2 4 -7.5 18t-22.5 22.5t-46 8.5h-146q-11 0 -16.5 -13.5t-5.5 -29.5v-155q0 -25 2 -33t10 -8q6 0 8 1q50 27 117 27
q95 0 153.5 -64t58.5 -186q0 -85 -36 -160.5t-86.5 -126t-90.5 -64.5q-38 -13 -67 -13q-16 0 -24.5 4z" />
    <glyph glyph-name="uni04B0" unicode="&#x4b0;" horiz-adv-x="578" 
d="M621 642q0 -6 -13.5 -12t-39.5 -13q-24 -7 -40.5 -25t-47.5 -66q-53 -82 -111 -176q-15 -25 -21 -41h128q5 0 9.5 -3.5t4.5 -7.5l-1 -3q-12 -22 -31 -22h-114v-13v-152q0 -34 20.5 -55.5t58.5 -28.5q17 -3 25 -7t8 -11q0 -11 -29 -11q-37 0 -64 3q-32 2 -53 2
q-25 0 -61 -2q-30 -3 -67 -3q-29 0 -29 11q0 7 8 11t25 7q78 14 78 84v148q0 5 -2 17h-119q-6 0 -10 6t-4 12q0 7 7.5 12.5t16.5 5.5h96q-6 15 -10 21l-117 192q-55 88 -89 98q-17 6 -25 11t-8 11q0 11 29 11l46 -1q44 -2 71 -2l48 1q12 1 32 1q29 0 29 -11q0 -12 -33 -20
q-17 -4 -24.5 -9.5t-7.5 -15.5q0 -13 13 -36l92 -170q20 -38 28 -38q6 0 12 7.5t21 30.5q30 48 66 112q4 8 18 32q18 30 18 51q0 29 -41 35q-11 2 -22 8t-11 12q0 11 29 11l75 -1q28 0 66 2l38 1q29 0 29 -11z" />
    <glyph glyph-name="uni0430" unicode="&#x430;" horiz-adv-x="399" 
d="M81 -0.5q-19 13.5 -31.5 34t-12.5 38.5q0 31 16.5 49t54.5 34l102 42q19 8 23 14t5 26l2 64q1 27 -15 45.5t-44 18.5q-15 0 -30 -5t-25 -13q-10 -7 -10 -29l1 -18q0 -8 -25.5 -21.5t-40.5 -13.5q-5 0 -8 2.5t-3 6.5q0 16 10.5 34.5t29.5 34.5q34 31 76.5 51t72.5 20
q36 0 59.5 -25.5t22.5 -63.5l-5 -240q-1 -21 9 -34t27 -13q25 0 37 11q5 5 8 5q5 0 8 -3t3 -8q0 -4 -3 -10.5t-8 -11.5q-16 -16 -34.5 -25.5t-34.5 -9.5q-46 0 -73 52h-3q-33 -27 -63 -39.5t-62 -12.5q-17 0 -36 13.5zM223 58q6 6 9 15t4 26l2 49v6q0 8 -2 11.5t-7 3.5
q-6 0 -20 -5q-50 -18 -72 -38t-22 -39q0 -25 14.5 -39t34.5 -14q35 0 59 24z" />
    <glyph glyph-name="uni0431" unicode="&#x431;" horiz-adv-x="473" 
d="M89.5 58.5q-48.5 73.5 -49.5 182.5q0 366 243 413l43 8q36 7 55 15.5t39 22.5q1 1 4 1t4.5 -4t1.5 -7q0 -35 -19 -63.5t-59 -36.5l-134 -26q-57 -11 -83 -53t-26 -130q0 -9 7 -9q5 0 12 5q48 37 125 37q57 0 99 -28t64 -74t22 -99q0 -61 -22.5 -113t-68.5 -83.5
t-113 -31.5q-96 0 -144.5 73.5zM331.5 64q24.5 48 24.5 136q0 46 -14.5 88.5t-42 68.5t-63.5 26q-28 0 -52 -9.5t-38 -28.5q-15 -19 -21 -47.5t-6 -69.5q1 -95 34 -153.5t91 -58.5q63 0 87.5 48z" />
    <glyph glyph-name="uni0432" unicode="&#x432;" horiz-adv-x="424" 
d="M24 6q0 7 5.5 10.5t17.5 7.5q5 1 17.5 4.5t19 10.5t6.5 20v271q0 37 -37 48q-12 4 -17.5 7.5t-5.5 10.5q0 9 20 9q22 0 42 -2l30 -1q11 0 33 2q26 2 51 2q79 0 124.5 -23.5t45.5 -71.5q0 -38 -21 -62t-55 -33q-4 -1 -5 -2.5t5 -2.5q35 -7 64.5 -30.5t29.5 -62.5
q0 -66 -50.5 -93.5t-138.5 -27.5l-26 2q-34 4 -55 4q-29 -1 -57.5 -3t-28.5 -3h9q-23 0 -23 9zM277.5 248q29.5 21 29.5 54q0 70 -101 70q-27 0 -36.5 -8t-9.5 -25v-87q0 -25 29 -25q59 0 88.5 21zM292.5 50.5q27.5 20.5 27.5 61.5q0 48 -31.5 66.5t-89.5 18.5
q-39 0 -39 -25v-92q0 -50 55 -50q50 0 77.5 20.5z" />
    <glyph glyph-name="uni0433" unicode="&#x433;" horiz-adv-x="354" 
d="M27 6q0 7 5.5 10.5t17.5 7.5q21 6 30.5 13t9.5 25v238q0 63 -46 73q-6 1 -11.5 5.5t-5.5 11.5q0 5 8.5 9t13.5 4q14 0 30 -2l28 -1h167q26 0 41.5 2.5t20.5 2.5q2 0 5 -3t3 -7l-2 -36q-2 -30 -2 -41q0 -41 -13 -41q-6 0 -10 9t-9 29q-5 21 -19 37t-30 16l-68 1
q-18 0 -24.5 -12.5t-6.5 -25.5v-269q0 -18 11 -24.5t35 -13.5q12 -4 17.5 -7.5t5.5 -10.5q0 -9 -23 -9q-26 0 -41 3q-20 2 -37 2q-16 0 -38 -2q-16 -3 -43 -3q-20 0 -20 9z" />
    <glyph glyph-name="uni0453" unicode="&#x453;" horiz-adv-x="354" 
d="M27 6q0 7 5.5 10.5t17.5 7.5q21 6 30.5 13t9.5 25v238q0 63 -46 73q-6 1 -11.5 5.5t-5.5 11.5q0 5 8.5 9t13.5 4q14 0 30 -2l28 -1h167q26 0 41.5 2.5t20.5 2.5q2 0 5 -3t3 -7l-2 -36q-2 -30 -2 -41q0 -41 -13 -41q-6 0 -10 9t-9 29q-5 21 -19 37t-30 16l-68 1
q-18 0 -24.5 -12.5t-6.5 -25.5v-269q0 -18 11 -24.5t35 -13.5q12 -4 17.5 -7.5t5.5 -10.5q0 -9 -23 -9q-26 0 -41 3q-20 2 -37 2q-16 0 -38 -2q-16 -3 -43 -3q-20 0 -20 9zM149 466q0 7 4 18q9 24 34.5 71t42.5 76q5 8 12.5 13t14.5 5q20 0 34.5 -5.5t14.5 -15.5
q0 -7 -4 -13t-6 -8q-17 -25 -52 -66.5t-56 -62.5t-31 -21q-8 0 -8 9z" />
    <glyph glyph-name="uni0491" unicode="&#x491;" horiz-adv-x="350" 
d="M27 6q0 7 5.5 10.5t17.5 7.5q21 6 30.5 13t9.5 25v238q0 63 -46 73q-6 1 -11.5 5.5t-5.5 11.5q0 5 8.5 9t13.5 4q14 0 30 -2l28 -1q1 0 30 -1t72 -1l54 1q19 0 31 17.5t20 54.5q8 36 22 36t14 -16l-1 -8q-1 -14 -3 -48t-2 -67q0 -4 -3 -7t-5 -4q-7 0 -24 3.5t-52 3.5h-78
q-12 0 -17 -13.5t-5 -27.5v-261q0 -18 11 -24.5t35 -13.5q12 -4 17.5 -7.5t5.5 -10.5q0 -9 -23 -9q-26 0 -41 3q-20 2 -37 2t-37 -2q-15 -3 -41 -3q-23 0 -23 9z" />
    <glyph glyph-name="uni0434" unicode="&#x434;" horiz-adv-x="455" 
d="M36.5 -129q-6.5 10 -7.5 21q-2 41 -7.5 64.5t-13.5 45.5q-1 4 -3.5 11.5t-2.5 12.5q0 14 13 14q6 0 11 -1t9 -1q98 0 98 281q0 27 -12.5 38.5t-40.5 17.5q-6 1 -11.5 4.5t-5.5 10.5q0 5 8.5 9t13.5 4q14 0 28 -2l26 -1h209l28 1q16 2 30 2q5 0 13.5 -4t8.5 -9
q0 -7 -5.5 -10.5t-11.5 -4.5q-18 -4 -27.5 -10t-14 -21t-4.5 -44v-220q0 -24 5 -33t25 -9q5 0 12.5 1t16.5 1q18 0 18 -9q0 -3 -1 -5q-2 -4 -8.5 -19t-11.5 -43.5t-7 -71.5q-1 -11 -7.5 -21t-12.5 -10q-21 0 -21 36l1 43q0 27 -4 39.5t-12.5 16.5t-25.5 4h-207
q-28 0 -42 -16t-14 -60l1 -27q0 -36 -21 -36q-6 0 -12.5 10zM264 37q21 0 26 4t5 23v259q0 44 -16 44h-89q-17 0 -17 -44q0 -84 -13 -150.5t-44 -123.5q-1 0 -2 -2t-1 -4q0 -6 14 -6h137z" />
    <glyph glyph-name="uni0435" unicode="&#x435;" horiz-adv-x="390" 
d="M117.5 12q-41.5 27 -64.5 76.5t-23 114.5q0 56 26.5 105t70.5 77.5t96 28.5q60 0 98.5 -35.5t38.5 -90.5q0 -31 -30 -31h-211q-14 0 -19.5 -7.5t-5.5 -29.5q0 -47 20.5 -87t56 -63.5t77.5 -23.5q59 0 98 45q6 8 11 8q8 0 8 -10q0 -19 -18 -42q-22 -29 -58 -45.5
t-76 -16.5q-54 0 -95.5 27zM212 288q47 0 74 5q8 1 8 22q0 29 -25.5 49.5t-60.5 20.5q-22 0 -45.5 -13.5t-38.5 -33.5t-15 -40q0 -10 12 -10h91z" />
    <glyph glyph-name="uni0450" unicode="&#x450;" horiz-adv-x="390" 
d="M117.5 12q-41.5 27 -64.5 76.5t-23 114.5q0 56 26.5 105t70.5 77.5t96 28.5q60 0 98.5 -35.5t38.5 -90.5q0 -31 -30 -31h-211q-14 0 -19.5 -7.5t-5.5 -29.5q0 -47 20.5 -87t56 -63.5t77.5 -23.5q59 0 98 45q6 8 11 8q8 0 8 -10q0 -19 -18 -42q-22 -29 -58 -45.5
t-76 -16.5q-54 0 -95.5 27zM212 288q47 0 74 5q8 1 8 22q0 29 -25.5 49.5t-60.5 20.5q-22 0 -45.5 -13.5t-38.5 -33.5t-15 -40q0 -10 12 -10h91zM214 478q-21 21 -56 62.5t-52 66.5q-2 2 -6 8t-4 13q0 10 14.5 15.5t34.5 5.5q7 0 14.5 -5t12.5 -13q17 -29 42.5 -76t34.5 -71
q4 -11 4 -18q0 -9 -8 -9q-10 0 -31 21z" />
    <glyph glyph-name="uni0451" unicode="&#x451;" horiz-adv-x="390" 
d="M117.5 12q-41.5 27 -64.5 76.5t-23 114.5q0 56 26.5 105t70.5 77.5t96 28.5q60 0 98.5 -35.5t38.5 -90.5q0 -31 -30 -31h-211q-14 0 -19.5 -7.5t-5.5 -29.5q0 -47 20.5 -87t56 -63.5t77.5 -23.5q59 0 98 45q6 8 11 8q8 0 8 -10q0 -19 -18 -42q-22 -29 -58 -45.5
t-76 -16.5q-54 0 -95.5 27zM212 288q47 0 74 5q8 1 8 22q0 29 -25.5 49.5t-60.5 20.5q-22 0 -45.5 -13.5t-38.5 -33.5t-15 -40q0 -10 12 -10h91zM99.5 523.5q-15.5 15.5 -15.5 34.5t15.5 34.5t34.5 15.5t34.5 -15.5t15.5 -34.5t-15.5 -34.5t-34.5 -15.5t-34.5 15.5z
M276.5 523.5q-15.5 15.5 -15.5 34.5t15.5 34.5t34.5 15.5t34.5 -15.5t15.5 -34.5t-15.5 -34.5t-34.5 -15.5t-34.5 15.5z" />
    <glyph glyph-name="uni0436" unicode="&#x436;" horiz-adv-x="701" 
d="M31.5 -4q-16.5 6 -16.5 14q0 7 4.5 10t13.5 3q26 0 50 14.5t49 62.5q4 9 20 41t29.5 52.5t27.5 34.5q7 7 1 12q-14 11 -25 27t-24 39q-9 16 -13 21q-10 14 -17 18.5t-20 4.5q-6 0 -19 -9q-16 -12 -26 -12q-14 0 -21.5 11.5t-7.5 25.5q0 18 15 33t39 15q23 0 42 -11.5
t36 -42.5q37 -67 54 -92t34 -33t50 -8q11 0 11 7v94q0 39 -38 50q-12 4 -17.5 7.5t-5.5 10.5q0 9 20 9q27 0 40 -3q16 -2 33 -2q16 0 32 2q12 3 36 3h3q20 0 20 -9q0 -7 -5.5 -10.5t-17.5 -7.5q-35 -10 -35 -50v-94q0 -7 11 -7q33 0 50 8t34 33t54 92q17 31 36 42.5t42 11.5
q24 0 39 -15t15 -33q0 -14 -7.5 -25.5t-21.5 -11.5q-10 0 -26 12q-13 9 -19 9q-13 0 -20 -4.5t-17 -18.5q-4 -5 -13 -21q-13 -23 -24 -39t-25 -27q-6 -5 1 -12q17 -17 29.5 -38.5t32.5 -60.5l15 -29q25 -48 49 -62.5t50 -14.5q9 0 13.5 -3t4.5 -10q0 -8 -16.5 -14t-50.5 -6
q-58 0 -95 76q-32 65 -51.5 94t-36 37t-43.5 8q-4 0 -7 -2.5t-3 -6.5v-134q0 -18 10 -24.5t33 -13.5q12 -4 17.5 -7.5t5.5 -10.5q0 -9 -20 -9q-27 0 -42 3q-18 2 -35 2t-37 -2q-15 -3 -41 -3h-3q-20 0 -20 9q0 7 5.5 10.5t17.5 7.5q4 1 17 4.5t20 11t7 21.5v135q0 4 -3 6.5
t-7 2.5q-28 0 -44.5 -8.5t-35.5 -37t-51 -93.5q-37 -76 -95 -76q-34 0 -50.5 6z" />
    <glyph glyph-name="uni0437" unicode="&#x437;" horiz-adv-x="382" 
d="M100.5 7q-43.5 15 -49.5 39q-4 19 -5 32t-1 27q0 12 4 18.5t11 6.5q5 0 18 -30q18 -40 44.5 -58t56.5 -18q41 0 66.5 23.5t25.5 67.5q0 33 -14.5 57t-42.5 24q-7 0 -21 -3t-26 -3q-14 0 -24 5.5t-10 16.5q0 25 41 25q6 0 19.5 -3t23.5 -3q19 0 34.5 18t15.5 46
q0 35 -17.5 60.5t-55.5 25.5q-53 0 -92 -64q-5 -9 -10 -22t-8.5 -18.5t-8.5 -5.5q-7 0 -9 5.5t-2 17.5q0 18 3 36l3 21q2 24 14 29q68 31 112 31q63 0 102.5 -27t39.5 -73q0 -38 -18.5 -59t-49.5 -34q-9 -4 0 -7q82 -21 82 -91q0 -49 -29 -77.5t-67 -39.5t-69 -11
q-43 0 -86.5 15z" />
    <glyph glyph-name="uni0438" unicode="&#x438;" horiz-adv-x="528" 
d="M25 6q0 7 5.5 10.5t17.5 7.5q22 6 32 13.5t10 25.5v274q0 18 -9.5 25.5t-28.5 13.5q-12 4 -17.5 7.5t-5.5 10.5q0 9 20 9q26 0 41 -3q20 -2 36 -2q17 0 35 2q13 3 40 3q20 0 20 -9q0 -7 -5.5 -10.5t-17.5 -7.5q-19 -6 -28.5 -13.5t-9.5 -25.5v-200q0 -3 4 -5.5t6 -0.5
l191 197q1 2 3 4t2 7q0 18 -8 24.5t-27 12.5q-12 4 -17.5 7.5t-5.5 10.5q0 9 20 9q27 0 40 -3q18 -2 35 -2q16 0 36 2q15 3 41 3q20 0 20 -9q0 -7 -5.5 -10.5t-17.5 -7.5q-20 -6 -30.5 -13.5t-10.5 -25.5v-274q0 -18 11 -25t33 -14q12 -4 17.5 -7.5t5.5 -10.5q0 -9 -20 -9
q-26 0 -43 3q-22 2 -38 2t-38 -2q-16 -3 -43 -3q-20 0 -20 9q0 7 5.5 10.5t17.5 7.5q21 6 31.5 13.5t10.5 25.5v213q0 3 -1 5t-3 0l-199 -207q-3 -3 -3 -11q0 -18 10.5 -25t33.5 -14q12 -4 17.5 -7.5t5.5 -10.5q0 -9 -20 -9q-26 0 -43 3q-22 2 -38 2t-38 -2q-16 -3 -43 -3
q-20 0 -20 9z" />
    <glyph glyph-name="uni0439" unicode="&#x439;" horiz-adv-x="528" 
d="M25 6q0 7 5.5 10.5t17.5 7.5q22 6 32 13.5t10 25.5v274q0 18 -9.5 25.5t-28.5 13.5q-12 4 -17.5 7.5t-5.5 10.5q0 9 20 9q26 0 41 -3q20 -2 36 -2q17 0 35 2q13 3 40 3q20 0 20 -9q0 -7 -5.5 -10.5t-17.5 -7.5q-19 -6 -28.5 -13.5t-9.5 -25.5v-200q0 -3 4 -5.5t6 -0.5
l191 197q1 2 3 4t2 7q0 18 -8 24.5t-27 12.5q-12 4 -17.5 7.5t-5.5 10.5q0 9 20 9q27 0 40 -3q18 -2 35 -2q16 0 36 2q15 3 41 3q20 0 20 -9q0 -7 -5.5 -10.5t-17.5 -7.5q-20 -6 -30.5 -13.5t-10.5 -25.5v-274q0 -18 11 -25t33 -14q12 -4 17.5 -7.5t5.5 -10.5q0 -9 -20 -9
q-26 0 -43 3q-22 2 -38 2t-38 -2q-16 -3 -43 -3q-20 0 -20 9q0 7 5.5 10.5t17.5 7.5q21 6 31.5 13.5t10.5 25.5v213q0 3 -1 5t-3 0l-199 -207q-3 -3 -3 -11q0 -18 10.5 -25t33.5 -14q12 -4 17.5 -7.5t5.5 -10.5q0 -9 -20 -9q-26 0 -43 3q-22 2 -38 2t-38 -2q-16 -3 -43 -3
q-20 0 -20 9zM178.5 501q-34.5 25 -34.5 67q0 25 11 39t27 14q15 0 24.5 -8.5t9.5 -20.5l-1 -34q0 -15 18.5 -27.5t42.5 -12.5q25 0 47 16t35 52q6 16 9.5 21t7.5 5q8 0 8 -14q0 -58 -36.5 -90t-86.5 -32q-47 0 -81.5 25z" />
    <glyph glyph-name="uni045D" unicode="&#x45d;" horiz-adv-x="528" 
d="M25 6q0 7 5.5 10.5t17.5 7.5q22 6 32 13.5t10 25.5v274q0 18 -9.5 25.5t-28.5 13.5q-12 4 -17.5 7.5t-5.5 10.5q0 9 20 9q26 0 41 -3q20 -2 36 -2q17 0 35 2q13 3 40 3q20 0 20 -9q0 -7 -5.5 -10.5t-17.5 -7.5q-19 -6 -28.5 -13.5t-9.5 -25.5v-200q0 -3 4 -5.5t6 -0.5
l191 197q1 2 3 4t2 7q0 18 -8 24.5t-27 12.5q-12 4 -17.5 7.5t-5.5 10.5q0 9 20 9q27 0 40 -3q18 -2 35 -2q16 0 36 2q15 3 41 3q20 0 20 -9q0 -7 -5.5 -10.5t-17.5 -7.5q-20 -6 -30.5 -13.5t-10.5 -25.5v-274q0 -18 11 -25t33 -14q12 -4 17.5 -7.5t5.5 -10.5q0 -9 -20 -9
q-26 0 -43 3q-22 2 -38 2t-38 -2q-16 -3 -43 -3q-20 0 -20 9q0 7 5.5 10.5t17.5 7.5q21 6 31.5 13.5t10.5 25.5v213q0 3 -1 5t-3 0l-199 -207q-3 -3 -3 -11q0 -18 10.5 -25t33.5 -14q12 -4 17.5 -7.5t5.5 -10.5q0 -9 -20 -9q-26 0 -43 3q-22 2 -38 2t-38 -2q-16 -3 -43 -3
q-20 0 -20 9zM256 478q-21 21 -56 62.5t-52 66.5q-2 2 -6 8t-4 13q0 10 14.5 15.5t34.5 5.5q7 0 14.5 -5t12.5 -13q17 -29 42.5 -76t34.5 -71q4 -11 4 -18q0 -9 -8 -9q-10 0 -31 21z" />
    <glyph glyph-name="uni043A" unicode="&#x43a;" horiz-adv-x="478" 
d="M348.5 10q-29.5 24 -68.5 86q-6 10 -11 19t-10 16q-17 29 -27.5 43t-25.5 22.5t-38 8.5q-4 0 -7 -2.5t-3 -6.5v-134q0 -18 10.5 -24.5t34.5 -13.5q12 -4 17.5 -7.5t5.5 -10.5q0 -9 -20 -9q-27 0 -44 3q-20 2 -37 2t-37 -2q-15 -3 -41 -3h-3q-20 0 -20 9q0 7 5.5 10.5
t17.5 7.5q5 1 17.5 4.5t19 10.5t6.5 20v271q0 37 -37 48q-12 4 -17.5 7.5t-5.5 10.5q0 9 20 9q27 0 40 -3q16 -2 33 -2q16 0 34 2q14 3 38 3h3q20 0 20 -9q0 -7 -5.5 -10.5t-17.5 -7.5q-37 -11 -37 -50v-93q0 -8 11 -8q46 0 73 22.5t49 62.5l11 21q23 44 42.5 64.5
t55.5 20.5q24 0 36.5 -12.5t12.5 -29.5t-8.5 -27.5t-21.5 -10.5q-6 0 -24 8t-25 8q-11 0 -17 -4.5t-10.5 -11t-6.5 -8.5q-1 -1 -14 -25q-14 -27 -25.5 -43.5t-23.5 -25.5q-3 -2 -3 -4t1 -3l2 -2q25 -39 38 -63l34 -55q20 -31 41.5 -50.5t49.5 -29.5q27 -10 27 -23
q0 -7 -13 -13.5t-33 -6.5q-39 0 -68.5 24z" />
    <glyph glyph-name="uni045C" unicode="&#x45c;" horiz-adv-x="478" 
d="M348.5 10q-29.5 24 -68.5 86q-6 10 -11 19t-10 16q-17 29 -27.5 43t-25.5 22.5t-38 8.5q-4 0 -7 -2.5t-3 -6.5v-134q0 -18 10.5 -24.5t34.5 -13.5q12 -4 17.5 -7.5t5.5 -10.5q0 -9 -20 -9q-27 0 -44 3q-20 2 -37 2t-37 -2q-15 -3 -41 -3h-3q-20 0 -20 9q0 7 5.5 10.5
t17.5 7.5q5 1 17.5 4.5t19 10.5t6.5 20v271q0 37 -37 48q-12 4 -17.5 7.5t-5.5 10.5q0 9 20 9q27 0 40 -3q16 -2 33 -2q16 0 34 2q14 3 38 3h3q20 0 20 -9q0 -7 -5.5 -10.5t-17.5 -7.5q-37 -11 -37 -50v-93q0 -8 11 -8q46 0 73 22.5t49 62.5l11 21q23 44 42.5 64.5
t55.5 20.5q24 0 36.5 -12.5t12.5 -29.5t-8.5 -27.5t-21.5 -10.5q-6 0 -24 8t-25 8q-11 0 -17 -4.5t-10.5 -11t-6.5 -8.5q-1 -1 -14 -25q-14 -27 -25.5 -43.5t-23.5 -25.5q-3 -2 -3 -4t1 -3l2 -2q25 -39 38 -63l34 -55q20 -31 41.5 -50.5t49.5 -29.5q27 -10 27 -23
q0 -7 -13 -13.5t-33 -6.5q-39 0 -68.5 24zM220 466q0 7 4 18q9 24 34.5 71t42.5 76q5 8 12.5 13t14.5 5q20 0 34.5 -5.5t14.5 -15.5q0 -7 -4 -13t-6 -8q-17 -25 -52 -66.5t-56 -62.5t-31 -21q-8 0 -8 9z" />
    <glyph glyph-name="uni043B" unicode="&#x43b;" horiz-adv-x="481" 
d="M20.5 1q-18.5 15 -18.5 35q0 17 11.5 29.5t30.5 12.5q9 0 16 -4t12 -8.5t6 -5.5q11 -11 20 -11q19 0 34.5 43.5t24.5 107.5t9 120q0 27 -12 35.5t-45 13.5q-5 1 -11 6.5t-6 12.5q0 5 9 10t13 5q14 0 28 -2l26 -1h209q12 0 30 2l28 1q4 0 13 -5t9 -10q0 -7 -6 -12.5
t-11 -6.5q-27 -6 -36.5 -18.5t-9.5 -50.5v-238q0 -18 8.5 -25t27.5 -13q12 -4 17.5 -7.5t5.5 -10.5q0 -9 -20 -9q-25 0 -40 3q-20 2 -36 2q-17 0 -37 -2q-15 -3 -40 -3q-20 0 -20 9q0 7 5.5 10.5t17.5 7.5q21 6 31 13t10 25v268q0 38 -16 38h-89q-17 0 -17 -38
q0 -77 -14 -156.5t-42.5 -133.5t-70.5 -54q-36 0 -54.5 15z" />
    <glyph glyph-name="uni043C" unicode="&#x43c;" horiz-adv-x="625" 
d="M286 1l-135 300q-3 7 -5 7q-3 0 -4 -7q-2 -11 -7.5 -103t-7.5 -136q0 -18 8 -25t27 -13q12 -4 17.5 -7.5t5.5 -10.5q0 -9 -20 -9q-25 0 -39 3q-16 2 -34 2q-16 0 -28 -2q-9 -3 -32 -3q-20 0 -20 9q0 6 5 9t11.5 5t9.5 3q21 6 32.5 13.5t13.5 25.5l28 263q4 42 -45 53
q-9 2 -16.5 7t-7.5 12q0 8 21 8l31 -2l30 -2l41 1q7 0 13 -12l139 -288q5 -11 9 -11q3 0 7 9l109 242l9 22q14 36 18 36h33q21 0 47.5 2.5t30.5 2.5q20 0 20 -9q0 -12 -23 -18q-20 -5 -32 -12.5t-12 -24.5q0 -74 7 -165l6 -113q1 -18 11.5 -25t32.5 -14q12 -4 17.5 -7.5
t5.5 -10.5q0 -9 -20 -9q-26 0 -43 3q-22 2 -38 2t-38 -2q-17 -3 -43 -3q-20 0 -20 9q0 7 5.5 10.5t17.5 7.5q21 6 30.5 13t9.5 26q0 124 -7 234q0 10 -4 10t-9 -12l-130 -296q-4 -9 -7.5 -12.5t-9.5 -3.5q-14 0 -22 18z" />
    <glyph glyph-name="uni043D" unicode="&#x43d;" horiz-adv-x="521" 
d="M24 6q0 7 5.5 10.5t17.5 7.5q22 6 32 13.5t10 25.5v274q0 18 -9.5 25.5t-28.5 13.5q-12 4 -17.5 7.5t-5.5 10.5q0 9 23 9q26 0 39 -3q18 -2 35 -2q16 0 34 2q13 3 38 3q23 0 23 -9q0 -7 -5.5 -10.5t-17.5 -7.5q-19 -6 -28.5 -13.5t-9.5 -25.5v-105q0 -6 10 -6h186
q5 0 5 8v103q0 18 -8.5 26t-26.5 13q-12 4 -17.5 7.5t-5.5 10.5q0 6 6.5 7.5t16.5 1.5q24 0 38 -3q18 -2 34 -2q17 0 35 2q14 3 39 3q10 0 16.5 -1.5t6.5 -7.5q0 -7 -5.5 -10.5t-17.5 -7.5q-20 -6 -30.5 -13.5t-10.5 -25.5v-274q0 -18 11 -25t33 -14q12 -4 17.5 -7.5
t5.5 -10.5q0 -9 -23 -9q-26 0 -41 3q-20 2 -37 2t-37 -2q-15 -3 -41 -3q-23 0 -23 9q0 7 5.5 10.5t17.5 7.5q21 6 31.5 13.5t10.5 25.5v125q0 3 -1 4t-3 1h-194q-2 0 -2.5 -2t-0.5 -5v-123q0 -18 10.5 -25t33.5 -14q12 -4 17.5 -7.5t5.5 -10.5q0 -9 -23 -9q-26 0 -41 3
q-20 2 -37 2t-37 -2q-15 -3 -41 -3q-23 0 -23 9z" />
    <glyph glyph-name="uni043E" unicode="&#x43e;" horiz-adv-x="495" 
d="M133.5 12q-45.5 26 -72 72t-26.5 103q0 55 29.5 108t80 86t109.5 33q57 0 104 -27.5t74.5 -74t27.5 -99.5q0 -60 -26 -112t-77 -83.5t-123 -31.5q-55 0 -100.5 26zM358 71q20 39 20 118q0 48 -18 93t-50 73t-73 28q-29 0 -50 -9t-38 -31q-18 -23 -25 -56.5t-7 -76.5
q0 -50 18 -94.5t49.5 -72t70.5 -27.5q75 0 103 55z" />
    <glyph glyph-name="uni043F" unicode="&#x43f;" horiz-adv-x="503" 
d="M24 6q0 7 5.5 10.5t17.5 7.5q19 6 27.5 13t8.5 25v255q0 28 -8 37.5t-34 14.5q-5 1 -11 6.5t-6 12.5q0 5 9 10t13 5q14 0 28 -2l26 -1h299l28 1q16 2 30 2q4 0 13 -5t9 -10q0 -7 -6 -12.5t-11 -6.5q-27 -6 -36.5 -15.5t-9.5 -37.5v-254q0 -18 8.5 -25t27.5 -13
q12 -4 17.5 -7.5t5.5 -10.5q0 -6 -6.5 -7.5t-16.5 -1.5q-25 0 -39 3q-16 2 -34 2q-17 0 -35 -2q-13 -3 -39 -3q-23 0 -23 9q0 7 5.5 10.5t17.5 7.5q21 6 31 13t10 25v268q0 38 -16 38h-160q-17 0 -17 -38v-268q0 -18 10 -25t31 -13q12 -4 17.5 -7.5t5.5 -10.5
q0 -6 -6.5 -7.5t-16.5 -1.5q-25 0 -39 3q-16 2 -34 2q-17 0 -35 -2q-13 -3 -39 -3q-23 0 -23 9z" />
    <glyph glyph-name="uni0440" unicode="&#x440;" horiz-adv-x="519" 
d="M19 -276q0 7 5.5 10.5t17.5 7.5q22 7 32.5 13.5t10.5 24.5v507q0 17 -12 42.5t-34 30.5q-4 1 -6 4.5t-2 8.5q0 10 7 12q44 10 77 23.5t39 16.5l2 1q2 0 4 -3t2 -6l-2 -26q-3 -18 -3 -34q0 -8 1 -9q11 11 38.5 26.5t61 27.5t62.5 12q49 0 86.5 -27t57.5 -70.5t20 -91.5
q0 -59 -30 -114.5t-82 -90t-113 -34.5q-22 0 -54 9.5t-46 22.5q-2 0 -3 -20t-1 -31v-187q0 -15 13 -22.5t26.5 -11t18.5 -4.5q12 -4 17.5 -7.5t5.5 -10.5q0 -9 -22 -9q-27 0 -50 3q-26 2 -44 2q-16 0 -38 -2q-16 -3 -42 -3q-21 0 -21 9zM328.5 34.5q30.5 17.5 53 57.5
t22.5 101q0 101 -43.5 138.5t-92.5 37.5q-22 0 -48 -9.5t-44 -22.5t-18 -20q0 -45 -2 -105q-1 -20 -1 -46q0 -39 18 -73.5t46 -55t55 -20.5q24 0 54.5 17.5z" />
    <glyph glyph-name="uni0441" unicode="&#x441;" horiz-adv-x="407" 
d="M122.5 10.5q-40.5 25.5 -64 70t-23.5 99.5q0 64 28.5 117.5t76.5 85t106 31.5q65 0 114 -35q12 -9 12 -19q0 -13 -15 -27t-28 -14q-5 0 -10 3.5t-11 7.5q-25 19 -51 33t-43 14q-49 0 -79.5 -46t-30.5 -119q0 -46 20 -84.5t55 -60.5t77 -22q29 0 50 9.5t45 33.5q5 5 10 5
t8 -4t3 -10q0 -11 -15 -31q-24 -31 -61 -47t-83 -16q-50 0 -90.5 25.5z" />
    <glyph glyph-name="uni0442" unicode="&#x442;" horiz-adv-x="410" 
d="M102 6q0 7 5.5 10.5t17.5 7.5q21 6 31.5 14t10.5 27v271q0 32 -12 32h-60q-22 0 -32.5 -12.5t-19.5 -46.5q-2 -9 -9 -17t-14 -8q-4 0 -7 4t-3 11q0 3 2 11q4 16 8 42.5t4 43.5q0 18 15 18q7 0 16 -2.5t16 -4.5q26 -7 50 -7h206q37 0 43 5q4 3 10 6t9 3t7 -4.5t4 -10.5
q0 -7 -2 -21q-2 -16 -2 -26q0 -18 2 -46v-2q0 -7 -3.5 -13.5t-9.5 -6.5q-7 0 -11.5 8.5t-5.5 16.5q-5 59 -56 59h-60q-15 0 -15 -32v-272q0 -18 11 -25.5t33 -14.5q12 -4 17.5 -7.5t5.5 -10.5q0 -9 -23 -9q-26 0 -41 3q-20 2 -37 2t-37 -2q-15 -3 -41 -3q-23 0 -23 9z" />
    <glyph glyph-name="uni0443" unicode="&#x443;" horiz-adv-x="438" 
d="M27.5 -275q-14.5 10 -14.5 31q0 19 9 32t24 13q8 0 21.5 -3t18.5 -3q12 0 19 11q19 29 42 76.5t43 101.5q3 9 3 23q0 18 -4 29l-116 293q-17 41 -45 49q-12 4 -17.5 7.5t-5.5 10.5q0 9 20 9q26 0 39 -3q18 -2 34 -2q17 0 35 2q15 3 41 3q7 0 13.5 -3t6.5 -8
q0 -7 -9.5 -13t-19.5 -9q-11 -3 -15.5 -10.5t-4.5 -21.5q0 -9 8 -28l81 -200q2 -6 6 -6q3 0 5 6l69 183q3 7 5.5 18.5t2.5 18.5q0 17 -5 25.5t-15 12.5q-29 13 -29 24q0 5 6.5 8t13.5 3q5 0 23 -2q36 -3 48 -3q14 0 38 3q12 2 21 2q20 0 20 -9q0 -7 -5.5 -10.5t-17.5 -7.5
q-15 -5 -32 -24t-27 -43l-136 -324l-15 -37q-62 -150 -81 -194q-9 -20 -26 -30.5t-39 -10.5t-36.5 10z" />
    <glyph glyph-name="uni045E" unicode="&#x45e;" horiz-adv-x="438" 
d="M27.5 -275q-14.5 10 -14.5 31q0 19 9 32t24 13q8 0 21.5 -3t18.5 -3q12 0 19 11q19 29 42 76.5t43 101.5q3 9 3 23q0 18 -4 29l-116 293q-17 41 -45 49q-12 4 -17.5 7.5t-5.5 10.5q0 9 20 9q26 0 39 -3q18 -2 34 -2q17 0 35 2q15 3 41 3q7 0 13.5 -3t6.5 -8
q0 -7 -9.5 -13t-19.5 -9q-11 -3 -15.5 -10.5t-4.5 -21.5q0 -9 8 -28l81 -200q2 -6 6 -6q3 0 5 6l69 183q3 7 5.5 18.5t2.5 18.5q0 17 -5 25.5t-15 12.5q-29 13 -29 24q0 5 6.5 8t13.5 3q5 0 23 -2q36 -3 48 -3q14 0 38 3q12 2 21 2q20 0 20 -9q0 -7 -5.5 -10.5t-17.5 -7.5
q-15 -5 -32 -24t-27 -43l-136 -324l-15 -37q-62 -150 -81 -194q-9 -20 -26 -30.5t-39 -10.5t-36.5 10zM156.5 501q-34.5 25 -34.5 67q0 25 11 39t27 14q15 0 24.5 -8.5t9.5 -20.5l-1 -34q0 -15 18.5 -27.5t42.5 -12.5q25 0 47 16t35 52q6 16 9.5 21t7.5 5q8 0 8 -14
q0 -58 -36.5 -90t-86.5 -32q-47 0 -81.5 25z" />
    <glyph glyph-name="uni0444" unicode="&#x444;" horiz-adv-x="585" 
d="M191 -261q0 7 5.5 10.5t17.5 7.5q22 7 32.5 13.5t10.5 24.5v191q-58 0 -109.5 26t-82 72t-30.5 103q0 61 29.5 113t80.5 83t112 31v107q0 29 -10.5 44.5t-35.5 20.5q-4 1 -6 4.5t-2 8.5q0 10 7 12q45 10 92 31l24 9l2 1q2 0 4 -2t2 -5q0 -6 -3.5 -38t-3.5 -98v-95
q58 0 109.5 -26t82.5 -72t31 -103q0 -61 -30 -113t-81 -83t-112 -31v-191q0 -18 10.5 -24.5t32.5 -13.5q12 -4 17.5 -7.5t5.5 -10.5q0 -9 -23 -9q-26 0 -41 3q-20 2 -37 2t-37 -2q-15 -3 -41 -3q-23 0 -23 9zM257 382q-41 0 -73 -24.5t-49.5 -64t-17.5 -83.5q0 -48 16.5 -92
t48 -71.5t75.5 -27.5v363zM401 41.5q32 24.5 49.5 64t17.5 83.5q0 48 -16.5 92.5t-48.5 72.5t-76 28v-365q42 0 74 24.5z" />
    <glyph glyph-name="uni0445" unicode="&#x445;" horiz-adv-x="430" 
d="M10 5q0 7 6 11t17 7q17 5 32 17.5t35 39.5l77 107q6 7 6 13q0 5 -4 10l-82 125q-12 20 -21.5 29t-24.5 13q-11 3 -17 7t-6 11q0 9 20 9q21 0 37 -2q20 -2 45 -2l26 1q7 1 25 1h3q20 0 20 -9q0 -5 -4.5 -8t-13.5 -6q-10 -3 -15.5 -6.5t-5.5 -10.5q0 -11 13 -32l46 -69
q4 -7 9 0l51 77q8 11 8 22q0 12 -13 16q-12 4 -17.5 7.5t-5.5 10.5q0 9 20 9q5 0 23.5 -1.5t29.5 -1.5q22 0 39 2.5t24 2.5q20 0 20 -9q0 -7 -5.5 -10.5t-17.5 -7.5q-48 -14 -71 -47l-63 -95q-4 -6 1 -13l97 -158q12 -19 23 -28t26 -14q11 -3 17 -7t6 -11q0 -9 -20 -9
q-19 0 -37 2q-20 2 -47 2l-37 -1q-13 -1 -36 -1t-23 10q0 8 6 12.5t19 7.5q28 8 28 24q0 8 -6 18l-59 96q-1 1 -3 1t-3 -1l-66 -99q-5 -7 -5 -19q0 -7 3.5 -13.5t10.5 -8.5q12 -4 17.5 -7.5t5.5 -10.5q0 -9 -20 -9q-6 0 -21.5 1t-34.5 1q-13 0 -46 -3q-14 -2 -21 -2
q-20 0 -20 9z" />
    <glyph glyph-name="uni0447" unicode="&#x447;" horiz-adv-x="448" 
d="M223 6q0 7 5.5 10.5t17.5 7.5q21 6 31.5 13.5t10.5 25.5v109q0 18 -8 13q-19 -11 -50.5 -17t-62.5 -6q-45 0 -77.5 23t-33.5 62l-1 90q0 20 -5 26.5t-20 11.5q-11 4 -17 8t-6 11q0 9 23 9q14 0 28 -2q12 -3 34 -3q24 0 37 3q18 2 32 2q10 0 16.5 -1.5t6.5 -7.5
q0 -7 -5.5 -10.5t-17.5 -7.5q-18 -6 -27 -13.5t-9 -25.5v-72q0 -30 17 -50t49 -20q28 0 48.5 3.5t34.5 14.5q14 10 14 21v103q0 18 -8.5 26t-26.5 13q-12 4 -17.5 7.5t-5.5 10.5q0 6 6.5 7.5t16.5 1.5q24 0 38 -3q18 -2 34 -2q17 0 35 2q14 3 39 3q10 0 16.5 -1.5t6.5 -7.5
q0 -7 -5.5 -10.5t-17.5 -7.5q-20 -6 -30.5 -13.5t-10.5 -25.5v-274q0 -18 11 -25t33 -14q12 -4 17.5 -7.5t5.5 -10.5q0 -9 -23 -9q-26 0 -41 3q-20 2 -37 2t-37 -2q-15 -3 -41 -3q-23 0 -23 9z" />
    <glyph glyph-name="uni0446" unicode="&#x446;" horiz-adv-x="514" 
d="M443 -103l1 45q0 26 -3.5 38.5t-12 16t-25.5 3.5h-296q-10 0 -20.5 -1.5t-32.5 -1.5h-3q-20 0 -20 9q0 7 5.5 10.5t17.5 7.5q19 6 27.5 13t8.5 25v276q0 18 -8.5 25t-27.5 13q-12 4 -17.5 7.5t-5.5 10.5q0 9 23 9q26 0 39 -3q18 -2 35 -2q18 0 34 2q14 3 39 3
q10 0 16.5 -1.5t6.5 -7.5q0 -7 -5.5 -10.5t-17.5 -7.5q-21 -6 -31 -13t-10 -25v-261q0 -38 17 -38h161q16 0 16 38v261q0 18 -10 25t-31 13q-12 4 -17.5 7.5t-5.5 10.5q0 6 6.5 7.5t16.5 1.5q26 0 39 -3q18 -2 35 -2q18 0 34 2q13 3 39 3q23 0 23 -9q0 -7 -5.5 -10.5
t-17.5 -7.5q-19 -6 -27.5 -13t-8.5 -25v-286q0 -6 13.5 -9.5t29.5 -3.5q6 0 14.5 1.5t16.5 1.5q14 0 14 -8q0 -4 -1 -6q-2 -4 -8.5 -19t-11.5 -44.5t-7 -72.5q-1 -11 -7.5 -21t-12.5 -10q-21 0 -21 36z" />
    <glyph glyph-name="uni0448" unicode="&#x448;" horiz-adv-x="692" 
d="M24 6q0 7 5.5 10.5t17.5 7.5q19 6 27.5 13t8.5 25v276q0 18 -8.5 25t-27.5 13q-12 4 -17.5 7.5t-5.5 10.5q0 9 23 9q25 0 39 -3q18 -2 35 -2q18 0 34 2q14 3 39 3q10 0 16.5 -1.5t6.5 -7.5q0 -7 -5.5 -10.5t-17.5 -7.5q-21 -6 -31 -13t-10 -25v-261q0 -38 17 -38h127
q16 0 16 38v261q0 18 -10 25t-31 13q-12 4 -17.5 7.5t-5.5 10.5q0 6 6.5 7.5t16.5 1.5q25 0 39 -3q18 -2 35 -2q18 0 34 2q14 3 39 3q23 0 23 -9q0 -7 -5.5 -10.5t-17.5 -7.5q-19 -6 -27.5 -13t-8.5 -25v-261q0 -38 16 -38h122q17 0 17 38v261q0 18 -10 25t-31 13
q-12 4 -17.5 7.5t-5.5 10.5q0 9 23 9q25 0 39 -3q18 -2 35 -2q18 0 34 2q14 3 39 3q10 0 16.5 -1.5t6.5 -7.5q0 -7 -5.5 -10.5t-17.5 -7.5q-19 -6 -27.5 -13t-8.5 -25v-276q0 -18 9 -25t28 -13q12 -4 17.5 -7.5t5.5 -10.5q0 -9 -23 -9q-22 0 -32.5 1.5t-20.5 1.5h-492
q-10 0 -20.5 -1.5t-32.5 -1.5q-23 0 -23 9z" />
    <glyph glyph-name="uni0449" unicode="&#x449;" horiz-adv-x="692" 
d="M603.5 -128q-4.5 11 -4.5 31l1 38q0 38 -6 48.5t-22 10.5h-472q-10 0 -20.5 -1.5t-32.5 -1.5h-3q-20 0 -20 9q0 7 5.5 10.5t17.5 7.5q19 6 27.5 13t8.5 25v276q0 18 -8.5 25t-27.5 13q-12 4 -17.5 7.5t-5.5 10.5q0 9 23 9q25 0 39 -3q18 -2 35 -2q18 0 34 2q14 3 39 3
q10 0 16.5 -1.5t6.5 -7.5q0 -7 -5.5 -10.5t-17.5 -7.5q-21 -6 -31 -13t-10 -25v-261q0 -38 17 -38h127q16 0 16 38v261q0 18 -10 25t-31 13q-12 4 -17.5 7.5t-5.5 10.5q0 6 6.5 7.5t16.5 1.5q25 0 39 -3q18 -2 35 -2q18 0 34 2q14 3 39 3q23 0 23 -9q0 -7 -5.5 -10.5
t-17.5 -7.5q-19 -6 -27.5 -13t-8.5 -25v-261q0 -38 16 -38h122q17 0 17 38v261q0 18 -10 25t-31 13q-12 4 -17.5 7.5t-5.5 10.5q0 9 23 9q25 0 39 -3q18 -2 35 -2q18 0 34 2q14 3 39 3q10 0 16.5 -1.5t6.5 -7.5q0 -7 -5.5 -10.5t-17.5 -7.5q-19 -6 -27.5 -13t-8.5 -25v-282
q0 -16 16 -16q6 0 14 1t15 1q15 0 15 -8q0 -4 -1 -6q-1 -3 -7.5 -18t-11.5 -45t-8 -73q-1 -11 -7.5 -21t-12.5 -10q-12 0 -16.5 11z" />
    <glyph glyph-name="uni045F" unicode="&#x45f;" horiz-adv-x="499" 
d="M234 -157q-4 12 -4 31q0 126 -50 126h-80q-10 0 -20.5 -1.5t-32.5 -1.5h-3q-20 0 -20 9q0 7 5.5 10.5t17.5 7.5q19 6 27.5 13t8.5 25v276q0 18 -8.5 25t-27.5 13q-12 4 -17.5 7.5t-5.5 10.5q0 9 23 9q25 0 39 -3q16 -2 34 -2q17 0 35 2q14 3 39 3q23 0 23 -9
q0 -7 -5.5 -10.5t-17.5 -7.5q-21 -6 -31 -13t-10 -25v-261q0 -38 17 -38h160q16 0 16 38v261q0 18 -10 25t-31 13q-12 4 -17.5 7.5t-5.5 10.5q0 9 23 9q26 0 39 -3q18 -2 35 -2q18 0 34 2q14 3 39 3q23 0 23 -9q0 -7 -5.5 -10.5t-17.5 -7.5q-19 -6 -27.5 -13t-8.5 -25v-277
q0 -18 8.5 -24.5t27.5 -12.5q12 -4 17.5 -7.5t5.5 -10.5q0 -9 -20 -9q-25 0 -35 1.5t-20 1.5h-94q-13 0 -24 -36.5t-11 -101.5q0 -11 -7 -21t-13 -10q-13 0 -17 12z" />
    <glyph glyph-name="uni044C" unicode="&#x44c;" horiz-adv-x="404" 
d="M24 6q0 7 5.5 10.5t17.5 7.5q22 6 32 13.5t10 25.5v274q0 19 -8 26.5t-25 12.5q-12 4 -17.5 7.5t-5.5 10.5q0 9 22 9q25 0 37 -3q16 -2 33 -2q16 0 34 2q13 3 37 3t24 -9q0 -7 -5.5 -10.5t-17.5 -7.5q-19 -6 -28.5 -13.5t-9.5 -25.5v-101q0 -4 3.5 -6t6.5 0q8 4 28.5 6
t38.5 2q27 0 59 -11.5t55.5 -38t23.5 -68.5q0 -63 -48 -93t-123 -30q-26 0 -41 3q-20 2 -37 2t-37 -2q-15 -3 -40 -3q-24 0 -24 9zM275 48.5q26 23.5 26 65.5q0 49 -23.5 72.5t-71.5 23.5q-27 0 -38 -7q-6 -4 -7.5 -10.5t-1.5 -15.5v-104q0 -22 17 -35t37 -13q36 0 62 23.5z
" />
    <glyph glyph-name="uni044A" unicode="&#x44a;" horiz-adv-x="477" 
d="M97 6q0 7 5.5 10.5t17.5 7.5q22 6 32 13.5t10 25.5v287q0 12 -3.5 15.5t-17.5 3.5h-39q-18 0 -26.5 -9t-18 -25.5t-13.5 -23.5q-4 -8 -12 -16.5t-15 -8.5t-7 11q0 8 1 11q4 16 8.5 44.5t4.5 45.5q0 7 5.5 12.5t9.5 5.5t15 -9q7 -6 36 -6h105q26 0 35 1l39 1q24 0 24 -9
q0 -7 -5.5 -10.5t-17.5 -7.5q-19 -6 -28.5 -13.5t-9.5 -25.5v-101q0 -4 3.5 -6t6.5 0q8 4 28.5 6t38.5 2q26 0 58.5 -11t56 -35t23.5 -61q0 -74 -46.5 -104t-124.5 -30q-26 0 -41 3q-20 2 -37 2t-37 -2q-15 -3 -40 -3q-24 0 -24 9zM345.5 51.5q28.5 26.5 28.5 62.5
q0 49 -23.5 72.5t-71.5 23.5q-27 0 -38 -7q-6 -4 -7.5 -10.5t-1.5 -15.5v-104q0 -20 15.5 -34t31.5 -14q38 0 66.5 26.5z" />
    <glyph glyph-name="uni044B" unicode="&#x44b;" horiz-adv-x="611" 
d="M24 6q0 7 5.5 10.5t17.5 7.5q22 6 32 13.5t10 25.5v274q0 19 -8 26.5t-25 12.5q-12 4 -17.5 7.5t-5.5 10.5q0 9 22 9q25 0 37 -3q16 -2 33 -2q16 0 34 2q13 3 37 3t24 -9q0 -7 -5.5 -10.5t-17.5 -7.5q-19 -6 -28.5 -13.5t-9.5 -25.5v-101q0 -4 3.5 -6t6.5 0q8 4 28.5 6
t38.5 2q27 0 59 -11.5t55.5 -38t23.5 -68.5q0 -63 -48 -93t-123 -30q-26 0 -41 3q-20 2 -37 2t-37 -2q-15 -3 -40 -3q-24 0 -24 9zM275 48.5q26 23.5 26 65.5q0 49 -23.5 72.5t-71.5 23.5q-27 0 -38 -7q-6 -4 -7.5 -10.5t-1.5 -15.5v-104q0 -22 17 -35t37 -13q36 0 62 23.5z
M385 6q0 7 5.5 10.5t17.5 7.5q22 7 32.5 14t10.5 25v268q0 22 -9 33t-28 14q-10 2 -16.5 6.5t-6.5 11.5q0 9 20 9q25 0 39 -3q18 -2 34 -2q17 0 37 2q17 3 43 3q20 0 20 -9q0 -7 -6.5 -11.5t-16.5 -6.5q-40 -7 -40 -47v-268q0 -18 10.5 -25t32.5 -14q12 -4 17.5 -7.5
t5.5 -10.5q0 -9 -20 -9q-26 0 -43 3q-22 2 -38 2t-38 -2q-16 -3 -43 -3q-20 0 -20 9z" />
    <glyph glyph-name="uni0459" unicode="&#x459;" horiz-adv-x="619" 
d="M15 -1.5q-13 12.5 -13 29.5q0 19 13.5 36t27.5 17q8 0 18 -10q8 -10 16 -10q34 0 49.5 81t15.5 177q0 27 -11.5 35.5t-41.5 14.5q-5 1 -11 6.5t-6 12.5q0 5 9 10t13 5q14 0 28 -2l26 -1h209q12 0 30 2l28 1q4 0 13 -5t9 -10q0 -7 -6 -12.5t-11 -6.5q-46 -10 -46 -69v-71
q0 -4 3.5 -6t6.5 0q8 4 28.5 6t38.5 2q27 0 59 -10t55.5 -33.5t23.5 -60.5q0 -73 -45.5 -101.5t-125.5 -28.5q-26 0 -42 3q-20 2 -36 2q-17 0 -39 -2q-16 -3 -41 -3q-20 0 -20 9q0 7 5.5 10.5t17.5 7.5q21 6 31 13t10 25v268q0 38 -16 38h-89q-17 0 -17 -38q0 -77 -14 -156
t-45 -133.5t-78 -54.5q-17 0 -30 12.5zM490.5 47q25.5 22 25.5 63q0 49 -23 71t-72 22q-27 0 -38 -7q-6 -4 -7.5 -10.5t-1.5 -15.5v-97q0 -20 15.5 -34t31.5 -14q44 0 69.5 22z" />
    <glyph glyph-name="uni045A" unicode="&#x45a;" horiz-adv-x="644" 
d="M24 6q0 7 5.5 10.5t17.5 7.5q22 6 32 13.5t10 25.5v274q0 18 -9.5 25.5t-28.5 13.5q-12 4 -17.5 7.5t-5.5 10.5q0 9 23 9q26 0 39 -3q18 -2 35 -2q16 0 30 2q10 3 33 3q24 0 24 -9q0 -7 -5.5 -10.5t-17.5 -7.5q-17 -5 -23.5 -12.5t-6.5 -26.5v-103q0 -6 10 -6h155
q5 0 5 8v101q0 19 -5.5 26.5t-21.5 12.5q-12 4 -17.5 7.5t-5.5 10.5q0 9 23 9q24 0 34 -3q14 -2 30 -2q17 0 37 2q15 3 40 3q20 0 20 -9q0 -7 -5.5 -10.5t-17.5 -7.5q-20 -6 -30.5 -13.5t-10.5 -25.5v-108q0 -4 3.5 -6t6.5 0q8 4 28.5 6t38.5 2q27 0 59 -10t55.5 -33.5
t23.5 -60.5q0 -73 -45.5 -101.5t-125.5 -28.5q-25 0 -42 3q-20 2 -36 2q-17 0 -33 -2q-12 -3 -36 -3t-24 9q0 7 5.5 10.5t17.5 7.5q18 5 26 13t8 26v123q0 3 -1 4t-3 1h-163q-1 0 -2 -2t-1 -5v-121q0 -19 8.5 -26t27.5 -13q12 -4 17.5 -7.5t5.5 -10.5q0 -9 -19 -9
q-25 0 -39 3q-18 2 -35 2t-39 -2q-16 -3 -42 -3q-20 0 -20 9zM515 47q26 22 26 63q0 49 -23 71t-72 22q-27 0 -38 -7q-6 -4 -7.5 -10.5t-1.5 -15.5v-97q0 -20 15.5 -34t31.5 -14q43 0 69 22z" />
    <glyph glyph-name="uni0455" unicode="&#x455;" horiz-adv-x="323" 
d="M86 -4.5q-27 9.5 -46 26.5q-8 16 -11 80q0 9 13 9q11 0 12 -7q12 -46 39.5 -68.5t59.5 -22.5q29 0 49.5 19.5t20.5 48.5q0 26 -17.5 45.5t-63.5 48.5q-52 32 -73.5 59.5t-21.5 64.5q0 50 35 82.5t100 32.5q28 0 48.5 -5.5t31.5 -13.5q8 -11 13.5 -34.5t5.5 -44.5
q0 -7 -10 -7q-6 0 -12 2.5t-7 6.5q-14 34 -33.5 51t-47.5 17q-26 0 -45 -16t-19 -43q0 -24 14.5 -41.5t54.5 -40.5q63 -36 89 -64.5t26 -72.5q0 -54 -41 -88t-106 -34q-31 0 -58 9.5z" />
    <glyph glyph-name="uni0454" unicode="&#x454;" horiz-adv-x="412" 
d="M118 12.5q-39 26.5 -61 71.5t-22 96q0 61 27.5 115t75.5 86t108 32q76 0 115 -48q7 -8 7 -15q0 -9 -14 -20t-22 -11q-7 0 -14 3t-10 7q-13 20 -39 33.5t-55 13.5q-48 0 -75.5 -39t-33.5 -101q0 -2 -0.5 -11.5t2.5 -6.5q9 8 29 17.5t31 9.5q16 0 36.5 -4.5t24.5 -5.5
q42 -10 69 -10q9 0 21 3.5t17 3.5t5 -10q0 -14 -20.5 -27.5t-33.5 -13.5q-38 0 -84 10q-6 1 -24.5 5.5t-30.5 4.5q-20 0 -34 -14q-8 -8 -7 -17q24 -67 59.5 -99.5t97.5 -32.5q30 0 48.5 11.5t39.5 38.5q5 5 9 5q5 0 8.5 -4.5t3.5 -11.5q0 -8 -9 -20q-19 -26 -61.5 -48.5
t-95.5 -22.5q-49 0 -88 26.5z" />
    <glyph glyph-name="uni044D" unicode="&#x44d;" horiz-adv-x="408" 
d="M117.5 -8.5q-23.5 6.5 -53.5 24.5q-14 9 -19 20t-5 38t12 27q7 0 15 -11.5t11 -14.5q29 -32 52.5 -45t56.5 -13q50 0 81 47t31 122q0 5 -2.5 8.5t-4.5 0.5q-10 -14 -25 -21t-26 -7q-19 0 -61 12q-38 10 -54 10q-17 0 -34.5 -6t-21.5 -6q-12 0 -12 9q0 5 11.5 17.5
t28 22.5t31.5 10q14 0 30.5 -4t33.5 -9q48 -12 61 -12q15 0 22 3t13 8q1 1 5.5 4.5t4.5 6.5q0 37 -17 70t-46.5 52.5t-64.5 19.5q-29 0 -44 -7t-32 -22q-9 -8 -16 -23t-9 -18q-4 -10 -8.5 -18t-8.5 -8q-7 0 -9 5.5t-2 17.5q0 19 2.5 33.5t9.5 36.5q2 6 6 8.5t7.5 4t5.5 2.5
q5 2 21 10t40.5 12.5t58.5 4.5q49 0 90.5 -27t65.5 -72t24 -96q0 -60 -25 -114t-70.5 -87t-103.5 -33q-33 0 -56.5 6.5z" />
    <glyph glyph-name="uni0456" unicode="&#x456;" horiz-adv-x="245" 
d="M24 8q0 7 5.5 10t17.5 6q23 6 33 13.5t10 24.5v217q0 66 -45 73q-10 1 -10 13q0 11 9 12q61 14 105 50q9 7 14 7q6 0 6 -5q0 -11 -3 -38q-1 -12 -3.5 -44.5t-2.5 -52.5v-232q0 -16 10.5 -24t32.5 -14q12 -3 17.5 -6t5.5 -10q0 -11 -20 -11q-25 0 -42 3q-22 2 -39 2
q-16 0 -38 -2q-16 -3 -43 -3q-20 0 -20 11zM88.5 530.5q-14.5 14.5 -14.5 35.5q0 22 14.5 36.5t35.5 14.5q22 0 36.5 -14.5t14.5 -36.5q0 -21 -14.5 -35.5t-36.5 -14.5q-21 0 -35.5 14.5z" />
    <glyph glyph-name="uni0457" unicode="&#x457;" horiz-adv-x="245" 
d="M24 8q0 7 5.5 10t17.5 6q23 6 33 13.5t10 24.5v217q0 66 -45 73q-10 1 -10 13q0 11 9 12q61 14 105 50q9 7 14 7q6 0 6 -5q0 -11 -3 -38q-1 -12 -3.5 -44.5t-2.5 -52.5v-232q0 -16 10.5 -24t32.5 -14q12 -3 17.5 -6t5.5 -10q0 -11 -20 -11q-25 0 -42 3q-22 2 -39 2
q-16 0 -38 -2q-16 -3 -43 -3q-20 0 -20 11zM1.5 523.5q-15.5 15.5 -15.5 34.5t15.5 34.5t34.5 15.5t34.5 -15.5t15.5 -34.5t-15.5 -34.5t-34.5 -15.5t-34.5 15.5zM178.5 523.5q-15.5 15.5 -15.5 34.5t15.5 34.5t34.5 15.5t34.5 -15.5t15.5 -34.5t-15.5 -34.5t-34.5 -15.5
t-34.5 15.5z" />
    <glyph glyph-name="uni0458" unicode="&#x458;" horiz-adv-x="226" 
d="M-13 -284.5q-7 2.5 -7 7.5t4 10t7 7q41 10 66 63q32 67 32 266v210q0 64 -46 73q-4 1 -6 4.5t-2 8.5q0 4 2 7.5t5 4.5q29 7 51 18.5t35.5 20.5t17.5 11q12 7 13 7q7 0 7 -5q-7 -72 -7 -154v-184q0 -69 -5.5 -129.5t-24.5 -113.5q-12 -33 -35 -64.5t-48 -51t-45 -19.5
q-7 0 -14 2.5zM80.5 530.5q-14.5 14.5 -14.5 35.5q0 22 14.5 36.5t35.5 14.5q22 0 36.5 -14.5t14.5 -36.5q0 -21 -14.5 -35.5t-36.5 -14.5q-21 0 -35.5 14.5z" />
    <glyph glyph-name="uni045B" unicode="&#x45b;" horiz-adv-x="519" 
d="M490.5 17.5q5.5 -3.5 5.5 -9.5q0 -11 -20 -11q-25 0 -42 3q-20 2 -36 2t-36 -2q-17 -3 -42 -3q-20 0 -20 11q0 6 4.5 8.5t18.5 7.5q18 6 28.5 16t10.5 28v189q0 24 -14 44.5t-35.5 33t-43.5 12.5q-21 0 -45.5 -6t-37.5 -16q-16 -13 -21.5 -27.5t-5.5 -44.5v-188
q0 -18 10 -26.5t29 -14.5q11 -3 16.5 -6.5t5.5 -9.5t-4.5 -8.5t-15.5 -2.5q-26 0 -41 3q-18 2 -35 2q-16 0 -38 -2q-16 -3 -43 -3q-20 0 -20 11q0 6 5 9t18 7q20 6 31 14.5t12 26.5v451h-56q-6 0 -10 6t-4 11q0 7 7.5 12t16.5 5h46v16q0 64 -44 72q-9 2 -9 14q0 9 8 12
q79 25 111 39q4 2 6 2q7 0 7 -7q0 -5 -4.5 -30.5t-4.5 -105.5v-12h138q5 0 9.5 -3t4.5 -7l-1 -3q-11 -21 -31 -21h-120v-143q0 -15 1.5 -22.5t5.5 -14.5q85 63 152 63q49 0 81.5 -39t32.5 -97v-195q0 -32 41 -44q12 -3 17.5 -6.5z" />
    <glyph glyph-name="uni044E" unicode="&#x44e;" horiz-adv-x="659" 
d="M288 37.5q-52 51.5 -57 133.5q0 4 -1.5 7t-3.5 3h-59q-8 0 -8 -9v-109q0 -18 10.5 -25t33.5 -14q12 -4 17.5 -7.5t5.5 -10.5q0 -9 -23 -9q-26 0 -41 3q-20 2 -37 2t-37 -2q-15 -3 -41 -3q-23 0 -23 9q0 7 5.5 10.5t17.5 7.5q22 6 32 13.5t10 25.5v274q0 18 -9.5 25.5
t-28.5 13.5q-12 4 -17.5 7.5t-5.5 10.5q0 9 23 9q26 0 39 -3q18 -2 35 -2q16 0 34 2q13 3 38 3q23 0 23 -9q0 -7 -5.5 -10.5t-17.5 -7.5q-19 -6 -28.5 -13.5t-9.5 -25.5v-113q0 -6 10 -6h56h2q6 0 7 11q8 49 34 91.5t67.5 68t92.5 25.5q56 0 101 -27.5t70 -73.5t25 -100
q0 -61 -22.5 -112.5t-68.5 -83t-113 -31.5q-80 0 -132 51.5zM491.5 38.5q25.5 22.5 40.5 62t15 88.5q0 85 -36 139.5t-100 54.5q-44 0 -73.5 -41.5t-29.5 -120.5q0 -89 33.5 -147t93.5 -58q31 0 56.5 22.5z" />
    <glyph glyph-name="uni044F" unicode="&#x44f;" horiz-adv-x="447" 
d="M3 -4q-18 6 -18 13q0 16 16 16q32 0 55 23.5t39.5 49.5t21.5 33q19 27 27.5 36.5t20.5 16.5q5 3 6.5 5.5t-2.5 3.5q-43 9 -65 32.5t-22 65.5q0 51 43 81t105 30q27 0 41 -1l52 -1q25 0 33 1q5 0 13 0.5t24 0.5q23 0 23 -9q0 -7 -5.5 -10.5t-17.5 -7.5q-18 -5 -27.5 -14.5
t-9.5 -30.5v-271q0 -16 8.5 -22t19 -9t15.5 -4q12 -4 17.5 -7.5t5.5 -10.5q0 -9 -20 -9q-28 0 -45 3q-22 2 -38 2q-17 0 -37 -2q-15 -3 -41 -3h-3q-20 0 -20 9q0 7 5.5 10.5t17.5 7.5q24 7 34.5 13.5t10.5 24.5v107q0 4 -2.5 7t-6.5 3q-20 2 -23 2q-6 0 -16 -2
q-12 -3 -21.5 -15.5t-37.5 -56.5q-73 -117 -137 -117q-21 0 -39 6zM272.5 211.5q13.5 3.5 13.5 13.5v110q0 22 -12 30t-45 8q-30 0 -51.5 -22.5t-21.5 -53.5q0 -36 22 -62.5t55 -26.5q26 0 39.5 3.5z" />
    <glyph glyph-name="uni0452" unicode="&#x452;" horiz-adv-x="487" 
d="M176 -207q0 5 3 8t10 6q50 21 89.5 76.5t61.5 132.5t22 162q0 99 -26.5 140t-79.5 41q-21 0 -42 -5t-34 -16q-15 -12 -21 -32.5t-6 -52.5v-188q1 -18 10.5 -27t27.5 -14q12 -4 17.5 -7.5t5.5 -10.5q0 -6 -6.5 -7.5t-16.5 -1.5q-25 0 -39 3q-16 2 -34 2q-17 0 -37 -2
q-15 -3 -41 -3q-23 0 -23 9q0 7 5.5 10.5t17.5 7.5q20 6 31.5 14.5t11.5 26.5v449h-54q-6 0 -10 5t-4 10q0 7 7.5 12.5t16.5 5.5h44q-1 49 -10.5 68t-34.5 24q-4 1 -6 4.5t-2 8.5q0 10 7 12q45 10 92 31l24 9l2 1q7 0 7 -7q0 -9 -1 -17.5t-2 -16.5q-6 -40 -6 -71v-46h161
q15 0 15 -10q0 -6 -11 -14.5t-22 -8.5h-143v-126q0 -30 6 -37q15 16 50 33t77 17q79 0 112.5 -51.5t33.5 -145.5q0 -125 -46 -220t-103.5 -147.5t-81.5 -52.5q-25 0 -25 9z" />
    <glyph glyph-name="uni04B1" unicode="&#x4b1;" horiz-adv-x="438" 
d="M451 396q0 -7 -5.5 -10.5t-17.5 -7.5q-16 -5 -34.5 -24t-27.5 -43l-84 -213q-11 -29 -19 -55h110q5 0 9 -4t4 -10q0 -7 -11 -18.5t-23 -11.5h-97q-1 -7 -1 -20v-199q0 -18 10.5 -24.5t32.5 -13.5q12 -4 17.5 -7.5t5.5 -10.5q0 -6 -6.5 -7.5t-16.5 -1.5q-26 0 -41 3
q-20 2 -37 2t-37 -2q-15 -3 -41 -3q-10 0 -16.5 1.5t-6.5 7.5q0 7 5.5 10.5t17.5 7.5q22 7 32.5 13.5t10.5 24.5v204q0 10 -1 15h-113q-6 0 -10 3.5t-4 9.5q0 11 8 21t19 10h90q-12 40 -25 74l-82 212q-16 40 -46 49q-12 4 -17.5 7.5t-5.5 10.5q0 9 23 9q25 0 37 -3
q16 -2 33 -2q16 0 34 2q13 3 38 3q23 0 23 -9q0 -7 -5.5 -10.5t-17.5 -7.5q-10 -3 -15 -15t-5 -27t4 -26l80 -225q1 -2 2.5 -6.5t3.5 -4.5q3 0 6 10l82 211q7 18 7 36t-7 31t-18 16q-12 4 -17.5 7.5t-5.5 10.5q0 9 23 9q5 0 21 -2q36 -3 49 -3q20 0 34 2.5t22 2.5
q23 0 23 -9z" />
    <glyph glyph-name="uni0431.SRB" horiz-adv-x="481" 
d="M126.5 14q-41.5 28 -66.5 74.5t-25 98.5q0 69 46.5 127t124.5 82q8 3 0 9l-22 18q-46 38 -70 67.5t-24 68.5t41 72t92 39l58 6q37 4 75 9t63 12q3 1 4.5 2.5t3.5 1.5q3 0 4.5 -4.5t1.5 -8.5q0 -35 -28.5 -60.5t-77.5 -25.5q-26 0 -74 8q-50 8 -78 8q-20 0 -33 -11
t-13 -24q0 -19 27 -42.5t82 -62.5l48 -35q51 -39 83.5 -69.5t54.5 -71t22 -89.5q0 -60 -27.5 -111t-80 -83t-124.5 -33q-46 0 -87.5 28zM337.5 66q31.5 50 31.5 128q0 36 -15.5 71.5t-40.5 62.5q-20 23 -43 36.5t-40 13.5q-33 0 -59 -24.5t-40 -63t-14 -80.5q0 -49 17.5 -94
t45.5 -72.5t59 -27.5q67 0 98.5 50z" />
    <glyph glyph-name="uni2116" unicode="&#x2116;" horiz-adv-x="867" 
d="M453 -2.5q-10 11.5 -22 35.5q-10 18 -15 25q-12 16 -96 200q-95 209 -109 226q-13 16 -21 16q-5 0 -7 -6.5t-2 -14.5q0 -211 -5 -340q-3 -82 -27.5 -118t-58.5 -36q-26 0 -44 16t-18 42q0 8 5.5 11t13.5 4t12 2q28 5 46 25.5t22 79.5q7 97 11 177t4 204q0 30 -22.5 47
t-76.5 27q-7 1 -19 8.5t-12 15.5t7.5 11t15.5 3l72 -3q56 -2 93 -2q8 0 12.5 -3.5t11.5 -13.5q15 -20 155 -343q47 -109 53 -120q3 -6 10 -13t12 -7q9 0 10 21q2 30 4.5 125.5t2.5 171.5q0 108 28.5 150t74.5 42q21 0 32.5 -11.5t11.5 -24.5q0 -6 -6 -11.5t-16 -8.5
q-40 -12 -62.5 -46t-22.5 -116l-2 -39q-1 -22 -4.5 -115.5t-3.5 -185.5l1 -74q0 -6 1 -12.5t1 -12.5q0 -10 -5 -15t-20 -5q-16 0 -26 11.5zM619 347.5q-36 33.5 -36 86.5q0 36 18.5 67.5t49.5 50t67 18.5q32 0 60.5 -16.5t46 -44t17.5 -59.5q0 -56 -36 -96t-100 -40
q-51 0 -87 33.5zM764 369q15 26 15 66q0 41 -20 72.5t-52 31.5q-31 0 -46 -26t-15 -65q0 -43 20 -74t52 -31q31 0 46 26zM838.5 238.5q4.5 -3.5 4.5 -7.5l-1 -3q-11 -21 -31 -21h-214q-5 0 -9.5 4t-4.5 8q0 7 7.5 15t16.5 8h222q5 0 9.5 -3.5z" />
    <glyph glyph-name="gravecomb" 
d="M40 478q-21 21 -56 62.5t-52 66.5q-2 2 -6 8t-4 13q0 10 14.5 15.5t34.5 5.5q7 0 14.5 -5t12.5 -13q17 -29 42.5 -76t34.5 -71q4 -11 4 -18q0 -9 -8 -9q-10 0 -31 21z" />
    <glyph glyph-name="acutecomb" 
d="M-78 466q0 7 4 18q9 24 34.5 71t42.5 76q5 8 12.5 13t14.5 5q20 0 34.5 -5.5t14.5 -15.5q0 -7 -4 -13t-6 -8q-17 -25 -52 -66.5t-56 -62.5t-31 -21q-8 0 -8 9z" />
    <glyph glyph-name="uni0308.cap" 
d="M-132.5 709.5q-14.5 14.5 -14.5 35.5t14.5 35.5t35.5 14.5t35.5 -14.5t14.5 -35.5t-14.5 -35.5t-35.5 -14.5t-35.5 14.5zM62.5 709.5q-14.5 14.5 -14.5 35.5t14.5 35.5t35.5 14.5t35.5 -14.5t14.5 -35.5t-14.5 -35.5t-35.5 -14.5t-35.5 14.5z" />
    <glyph glyph-name="gravecomb.cap" 
d="M59 694l-45 34q-63 48 -85 68q-6 5 -9.5 9.5t-3.5 9.5q0 9 22 16t36 7q18 0 27 -13q42 -61 77 -119q5 -8 5 -15q0 -6 -6 -6t-18 9z" />
    <glyph glyph-name="acutecomb.cap" 
d="M-84 691q0 7 5 15q35 58 77 119q9 13 27 13q14 0 36 -7t22 -16q0 -5 -3.5 -9.5t-9.5 -9.5q-22 -20 -85 -68l-45 -34q-12 -9 -18 -9t-6 6z" />
    <glyph glyph-name="uni0306.cyr" 
d="M-83.5 501q-34.5 25 -34.5 67q0 25 11 39t27 14q15 0 24.5 -8.5t9.5 -20.5l-1 -34q0 -15 18.5 -27.5t42.5 -12.5q25 0 47 16t35 52q6 16 9.5 21t7.5 5q8 0 8 -14q0 -58 -36.5 -90t-86.5 -32q-47 0 -81.5 25z" />
    <glyph glyph-name="uni0306.cyrcap" 
d="M-107.5 722q-35.5 30 -35.5 70q0 29 14 48.5t36 19.5q19 0 32 -9.5t13 -26.5t-6 -31q-7 -14 -7 -23q0 -15 16.5 -25.5t45.5 -10.5q96 0 121 100q1 5 5.5 8.5t6.5 3.5q4 0 6 -5.5t2 -11.5q0 -38 -19 -69.5t-52 -49.5t-73 -18q-70 0 -105.5 30z" />
    <glyph glyph-name="dieresis" horiz-adv-x="300" 
d="M27.5 523.5q-15.5 15.5 -15.5 34.5t15.5 34.5t34.5 15.5t34.5 -15.5t15.5 -34.5t-15.5 -34.5t-34.5 -15.5t-34.5 15.5zM204.5 523.5q-15.5 15.5 -15.5 34.5t15.5 34.5t34.5 15.5t34.5 -15.5t15.5 -34.5t-15.5 -34.5t-34.5 -15.5t-34.5 15.5z" />
    <glyph glyph-name="dotaccent" horiz-adv-x="200" 
d="M64.5 530.5q-14.5 14.5 -14.5 35.5q0 22 14.5 36.5t35.5 14.5q22 0 36.5 -14.5t14.5 -36.5q0 -21 -14.5 -35.5t-36.5 -14.5q-21 0 -35.5 14.5z" />
    </font>
</defs>
</svg>
