<?xml version="1.0" standalone="no"?>
<!DOCTYPE svg PUBLIC "-//W3C//DTD SVG 1.1//EN" "http://www.w3.org/Graphics/SVG/1.1/DTD/svg11.dtd" >
<svg xmlns="http://www.w3.org/2000/svg" xmlns:xlink="http://www.w3.org/1999/xlink" version="1.1">
<metadata>
Created by FontForge 20161003 at Wed Apr 26 17:55:50 2017
 By www-data
</metadata>
<defs>
<font id="Lobster-Regular" horiz-adv-x="1034" >
  <font-face 
    font-family="Lobster"
    font-weight="400"
    font-stretch="normal"
    units-per-em="2048"
    panose-1="2 0 5 6 0 0 0 2 0 3"
    ascent="1638"
    descent="-410"
    x-height="1024"
    cap-height="1536"
    bbox="-428 -512 2429 2048"
    underline-thickness="102"
    underline-position="-307"
    unicode-range="U+000D-2215"
  />
<missing-glyph horiz-adv-x="1659" 
d="M547 2048h1112l-549 -2560h-1110zM96 -430h948l517 2396h-949zM961 1094q0 57 -23.5 87.5t-65.5 30.5q-43 0 -71.5 -30t-28.5 -78q0 -32 17 -60.5t45 -42.5v-8q-23 -23 -49.5 -32t-49.5 -9q-43 0 -68.5 30.5t-25.5 80.5q0 46 20.5 86t57 69.5t86 46.5t106.5 17
q109 0 168.5 -48.5t59.5 -133.5q0 -56 -25 -99.5t-63 -80.5t-82 -71t-82 -72t-63 -84t-25 -107h-86q0 64 18.5 112.5t46 87.5t59.5 73t59.5 69t46 75t18.5 91zM809 389q0 -38 -22.5 -60t-59.5 -22q-38 0 -60 22t-22 60q0 37 22 59.5t60 22.5q37 0 59.5 -22.5t22.5 -59.5z
" />
    <glyph glyph-name="E_x" unicode="Ex" horiz-adv-x="1632" 
d="M1718 367q-28 -83 -63 -144t-72.5 -103t-76.5 -68t-76.5 -40t-71.5 -19t-62 -5q-49 0 -85.5 15.5t-63.5 48.5t-47.5 84t-38.5 122q-56 -65 -133 -119t-165 -92t-181 -59t-179 -21q-80 0 -150.5 20t-123.5 62.5t-84 110.5t-31 164q0 81 26 165t74.5 157.5t119 129
t159.5 78.5q-66 48 -95.5 112.5t-29.5 133.5q0 79 33.5 157.5t93 141.5t142 102t180.5 39q61 0 114.5 -16.5t93.5 -48.5t62.5 -80t22.5 -111q0 -46 -12 -85t-33 -67.5t-48.5 -44.5t-58.5 -16q-56 0 -96 55q18 6 34.5 25t29 44t19.5 54t7 56q0 31 -10 53t-25.5 35.5t-36 19.5
t-41.5 6q-46 0 -84.5 -25t-66 -65.5t-43 -92.5t-15.5 -106q0 -45 11.5 -88t36.5 -79.5t64.5 -64t94.5 -42.5q-55 -12 -103.5 -40t-89 -66.5t-72.5 -85.5t-54.5 -97.5t-34.5 -101.5t-12 -98q0 -56 15.5 -95.5t43.5 -64.5t66.5 -37t83.5 -12q56 0 117 16.5t121 46.5
t115.5 71.5t100.5 92.5l-102 561h289l65 -364q46 49 82.5 95.5t61.5 88.5t38 78t13 63v14t-2 11q-11 -2 -19 -3t-16 -1q-27 0 -45.5 9t-29.5 24.5t-16 36t-5 44.5q0 48 33 72.5t81 24.5q34 0 60.5 -14.5t44 -39t26.5 -58t9 -71.5q0 -50 -17.5 -102.5t-53.5 -111t-91 -126
t-131 -147.5l18 -102q6 -29 12.5 -60.5t19.5 -58.5t33.5 -44.5t55.5 -17.5q30 0 58.5 13.5t52.5 37.5t43 57.5t30 72.5h86z" />
    <glyph glyph-name="F_i" unicode="Fi" horiz-adv-x="1487" 
d="M221 0l295 1368h-22q-62 0 -114 -18.5t-90 -66.5t-59.5 -130t-21.5 -209q0 -39 4.5 -63.5t10 -39t10 -22.5t4.5 -14q-53 0 -94 10.5t-69 33.5t-42.5 61t-14.5 94q0 102 38 198t121.5 170t216.5 119t323 45q52 0 106.5 -6.5t113 -14t121.5 -14t132 -6.5q66 0 139 8t158 31
q-10 -56 -28 -112t-48 -102t-73.5 -74.5t-104.5 -28.5q-64 0 -115 12t-100 29t-100 37t-115 36l-88 -409h258l-33 -152h-258l-166 -770h-295zM1573 367q-29 -83 -64.5 -144t-74 -103t-79 -68t-78.5 -40t-72.5 -19t-61.5 -5q-46 0 -86 14t-69.5 44t-46.5 76t-17 111
q0 28 4 61.5t12 72.5l139 657h295l-147 -696q-5 -17 -6.5 -33.5t-1.5 -32.5q0 -43 20 -59.5t64 -16.5q30 0 58 13.5t52 37.5t43 57.5t31 72.5h86z" />
    <glyph glyph-name="IJ" unicode="IJ" horiz-adv-x="1358" 
d="M1071 1468l307 68l-307 -1454q-22 -107 -60 -199.5t-98.5 -160.5t-147 -107t-206.5 -39q-86 0 -148 21t-102.5 58.5t-60 89t-19.5 112.5q0 42 8 77t23 66h-67l296 1391q-136 -56 -211 -168t-75 -279q0 -39 4.5 -63.5t9.5 -39t9.5 -22.5t4.5 -14q-53 0 -94 10.5
t-68.5 33.5t-42 61t-14.5 94q0 68 29.5 134t81 125t121 109t149 86.5t166 57t172.5 20.5q23 0 42.5 -1t39.5 -3l-301 -1413q63 -10 100 -44.5t37 -86.5q0 -30 -14 -68q-47 47 -100 47q-28 0 -52.5 -12t-42.5 -32t-28.5 -47t-10.5 -58q0 -30 10 -55.5t29 -44.5t46 -29.5
t61 -10.5q30 0 57 10.5t51 39t44 77t36 125.5z" />
    <glyph glyph-name="T_h" unicode="Th" horiz-adv-x="1989" 
d="M2075 367q-43 -126 -93 -201t-100.5 -114.5t-99 -51.5t-88.5 -12q-68 0 -114 19.5t-74.5 52t-41 74t-12.5 85.5q0 52 14.5 121.5t31.5 142.5t31.5 141t14.5 117q0 105 -74 105q-27 0 -50 -14t-42.5 -38t-35 -56t-27.5 -68q-26 -137 -57 -301t-68 -369h-295l281 1307
q-63 5 -131 14t-140 20l-289 -1341h-294l292 1360q-86 -4 -161 -24t-130.5 -67t-87.5 -126.5t-32 -200.5q0 -39 4.5 -63.5t9.5 -39t9.5 -22.5t4.5 -14q-53 0 -94 10.5t-68.5 33.5t-42 61t-14.5 93q0 102 41.5 198.5t129 170.5t224 119t326.5 45q34 0 96 -8.5t137.5 -18
t158.5 -18t161 -8.5q75 0 140 10t108 39q-12 -23 -23 -45t-22.5 -51.5t-23.5 -70.5t-27.5 -102t-34 -146t-41.5 -202q33 38 66 61.5t64.5 36t60 17t53.5 4.5q49 0 90.5 -13t72 -41t47.5 -72t17 -105q0 -41 -7.5 -88.5t-18 -97t-23.5 -98.5t-23.5 -94t-18 -83.5t-7.5 -67.5
q0 -38 17 -62t65 -24q33 0 58 13t45 37t36.5 57.5t32.5 73.5h86z" />
    <glyph glyph-name="T_i" unicode="Ti" horiz-adv-x="1524" 
d="M322 0l294 1374q-42 6 -81 6q-71 0 -131.5 -21t-105 -71.5t-70 -134.5t-25.5 -211q0 -39 4.5 -63.5t9.5 -39t9.5 -22.5t4.5 -14q-53 0 -94 10.5t-68.5 33.5t-42 61t-14.5 93q0 102 38 198.5t121.5 170.5t216.5 119t323 45q31 0 89 -5t130 -11.5t152 -11.5t155 -5
q72 0 133 6t103 23q12 -38 17 -72t5 -63q0 -62 -22.5 -102t-55 -63t-69 -31.5t-64.5 -8.5q-36 0 -76.5 9.5t-88 25.5t-102.5 36.5t-120 43.5l-281 -1305h-294zM1610 367q-29 -83 -64.5 -144t-74 -103t-79 -68t-78.5 -40t-72.5 -19t-61.5 -5q-46 0 -86 14t-69.5 44t-46.5 76
t-17 111q0 28 4 61.5t12 72.5l139 657h295l-147 -696q-5 -17 -7 -33.5t-2 -32.5q0 -43 20.5 -59.5t63.5 -16.5q30 0 58.5 13.5t52.5 37.5t43 57.5t31 72.5h86z" />
    <glyph glyph-name="a_x" unicode="ax" horiz-adv-x="1841" 
d="M1927 367q-29 -83 -63.5 -144t-72 -103t-77 -68t-76.5 -40t-71 -19t-62 -5q-48 0 -84.5 15.5t-64.5 48.5t-49 85t-39 125q-117 -147 -237.5 -210.5t-244.5 -63.5q-43 0 -81.5 12.5t-69.5 37t-52.5 60.5t-29.5 82q-24 -36 -54.5 -70.5t-68 -61.5t-83.5 -43.5t-101 -16.5
q-53 0 -102 17t-87 56t-61 102t-23 154q0 70 14 150t43 160t72.5 153.5t102 130t132.5 90t163 33.5q87 0 126.5 -30t39.5 -74v-15l22 109h295l-147 -696q-7 -27 -7 -52q0 -38 19 -64t70 -26q40 0 84.5 15.5t87.5 42t83 61.5t72 74l-119 645h289l80 -442q46 49 82.5 95.5
t61.5 88.5t38 78t13 63v14t-2 11q-11 -2 -19 -3t-16 -1q-27 0 -45.5 9t-30 24.5t-16.5 36t-5 44.5t9 42t25 30.5t36.5 18.5t44.5 6q34 0 60.5 -14.5t43.5 -39t26 -58t9 -71.5q0 -50 -17 -102.5t-53 -111t-91 -126t-131 -147.5l18 -102q6 -29 12.5 -60.5t19.5 -58.5
t33.5 -44.5t55.5 -17.5q30 0 58 13.5t52 37.5t43 57.5t31 72.5h86zM647 829q0 9 -4 22.5t-13.5 26t-25.5 21t-41 8.5q-43 0 -81.5 -28t-70.5 -74.5t-57 -105.5t-42.5 -121.5t-26.5 -123t-9 -108.5q0 -59 11 -91t26.5 -47.5t33.5 -18.5t32 -3q23 0 48.5 11.5t49 34t43 56.5
t29.5 79z" />
    <glyph glyph-name="a_z" unicode="az" horiz-adv-x="1855" 
d="M836 328q-5 -17 -7 -33.5t-2 -32.5q0 -43 20.5 -59.5t63.5 -16.5q14 0 25 2t20 7q-21 -53 -40 -92t-42 -64.5t-52.5 -38t-69.5 -12.5q-85 0 -137 49.5t-64 140.5q-23 -35 -53.5 -69t-68 -61t-83.5 -43.5t-100 -16.5q-53 0 -102 17t-87 56t-61 102t-23 154q0 70 14 150
t43 160t72.5 153.5t102 130t132.5 90t163 33.5q87 0 126.5 -30t39.5 -74v-15l22 109h295zM647 829q0 9 -4 22.5t-13.5 26t-25.5 21t-41 8.5q-43 0 -81.5 -28t-70.5 -74.5t-57 -105.5t-42.5 -121.5t-26.5 -123t-9 -108.5q0 -59 11 -91t26.5 -47.5t33.5 -18.5t32 -3
q23 0 48.5 11.5t49 34t43 56.5t29.5 79zM979 0l522 913h-115q-24 0 -44.5 -1t-35.5 -4t-23.5 -9.5t-8.5 -17.5q0 -5 3.5 -6t7.5 -4t7.5 -10t3.5 -25q0 -29 -9.5 -49.5t-25 -33.5t-35 -19.5t-40.5 -6.5q-18 0 -34.5 6t-30 17t-21.5 28t-8 39q0 31 16.5 67.5t47 67.5
t74.5 51.5t99 20.5h526l-501 -866q13 -1 31 -3t39 -4.5t42.5 -4t42.5 -1.5q38 0 65 8.5t32 32.5q-20 2 -29.5 14t-9.5 29q0 15 7.5 30.5t21.5 28t35.5 21t49.5 8.5q48 0 69.5 -28t21.5 -70q0 -35 -17 -74t-49 -71t-78.5 -53t-105.5 -21h-543z" />
    <glyph glyph-name="b_s" unicode="bs" horiz-adv-x="1636" 
d="M1722 367q-72 -85 -145 -141.5t-139 -98.5q-27 -39 -61.5 -65.5t-74 -43t-81.5 -23.5t-84 -7q-92 0 -147.5 25t-86.5 64t-41 87.5t-10 95.5q0 45 13 81.5t34 61.5t47 38.5t53 13.5q107 0 107 -86q0 -38 -28 -65.5t-70 -27.5q-17 0 -32.5 5t-23.5 22q0 -72 29.5 -112.5
t89.5 -40.5q34 0 58 9.5t40 31.5t23.5 58.5t7.5 90.5q0 28 -1.5 54t-5 56.5t-7.5 68.5t-9 90.5t-10.5 122.5t-11.5 165q-72 -109 -153 -177t-171 -99q-5 -62 -20 -133t-43.5 -141.5t-72 -135t-104 -114.5t-140 -79.5t-179.5 -29.5q-142 0 -214 69t-72 193q0 29 3 58.5
t11 58.5l219 1026l303 41l-98 -461q31 19 55.5 30.5t44.5 17.5t36.5 7.5t31.5 1.5q50 0 92 -16t74 -52.5t51.5 -95t24.5 -143.5q74 14 152 97t163 227l303 40q6 -133 11.5 -230.5t10.5 -169t9 -121.5t7.5 -88.5t5 -70t1.5 -65.5q0 -42 -6 -76q42 23 79 50.5t66 50.5h86z
M285 328q-6 -26 -6 -47q0 -95 108 -95q44 0 83 38t70 99t52.5 136.5t30.5 150.5q-33 24 -33 82q0 26 7 47.5t19 36.5q-11 47 -35.5 78t-62.5 31q-11 0 -28 -1.5t-35 -6t-33.5 -11.5t-24.5 -18z" />
    <glyph glyph-name="b_s_x" unicode="bsx" horiz-adv-x="2343" 
d="M2429 367q-29 -83 -63.5 -144t-72 -103t-77 -68t-76.5 -40t-71 -19t-62 -5q-52 0 -90 17.5t-66 54t-49 94t-39 137.5q-39 -27 -83 -50.5t-87.5 -44.5t-84.5 -39t-74 -34q-27 -37 -61.5 -62.5t-73.5 -41.5t-80.5 -23.5t-81.5 -7.5q-92 0 -147.5 25t-86.5 64t-41 87.5
t-10 95.5q0 45 13 81.5t34 61.5t47 38.5t53 13.5q107 0 107 -86q0 -38 -28 -65.5t-70 -27.5q-17 0 -32.5 5t-23.5 22q0 -72 29.5 -112.5t89.5 -40.5q34 0 58 9.5t40 31.5t23.5 58.5t7.5 90.5q0 28 -1.5 54t-5 56.5t-7.5 68.5t-9 90.5t-10.5 122.5t-11.5 165
q-72 -109 -153 -177t-171 -99q-5 -62 -20 -133t-43.5 -141.5t-72 -135t-104 -114.5t-140 -79.5t-179.5 -29.5q-142 0 -214 69t-72 193q0 29 3 58.5t11 58.5l219 1026l303 41l-98 -461q31 19 55.5 30.5t44.5 17.5t36.5 7.5t31.5 1.5q50 0 92 -16t74 -52.5t51.5 -95
t24.5 -143.5q74 14 152 97t163 227l303 40q6 -133 11.5 -230.5t10.5 -169t9 -121.5t7.5 -88.5t5 -70t1.5 -65.5q0 -25 -1.5 -47.5t-6.5 -42.5q63 26 131.5 64.5t122.5 82.5l-115 625h289l80 -442q46 49 82 95.5t61 88.5t38 78t13 63v14t-2 11q-11 -2 -19 -3t-16 -1
q-27 0 -45 9t-29.5 24.5t-16.5 36t-5 44.5q0 48 33.5 72.5t81.5 24.5q34 0 60.5 -14.5t43.5 -39t26 -58t9 -71.5q0 -50 -17 -102.5t-53 -111t-91.5 -126t-131.5 -147.5l19 -102q6 -29 12.5 -60.5t19 -58.5t33.5 -44.5t56 -17.5q30 0 58 13.5t52 37.5t43 57.5t31 72.5h86z
M285 328q-6 -26 -6 -47q0 -95 108 -95q44 0 83 38t70 99t52.5 136.5t30.5 150.5q-33 24 -33 82q0 26 7 47.5t19 36.5q-11 47 -35.5 78t-62.5 31q-11 0 -28 -1.5t-35 -6t-33.5 -11.5t-24.5 -18z" />
    <glyph glyph-name="b_s_z" unicode="bsz" horiz-adv-x="2372" 
d="M1452 1087q6 -133 11.5 -230.5t10.5 -169t9 -121.5t7.5 -88.5t5 -70t1.5 -65.5q0 -101 -32.5 -168.5t-84.5 -109t-116 -59t-127 -17.5q-92 0 -147.5 25t-86.5 64t-41 87.5t-10 95.5q0 45 13 81.5t34 61.5t47 38.5t53 13.5q107 0 107 -86q0 -38 -28 -65.5t-70 -27.5
q-17 0 -32.5 5t-23.5 22q0 -72 29.5 -112.5t89.5 -40.5q34 0 58 9.5t40 31.5t23.5 58.5t7.5 90.5q0 28 -1.5 54t-5 56.5t-7.5 68.5t-9 90.5t-10.5 122.5t-11.5 165q-72 -109 -153 -177t-171 -99q-5 -62 -20 -133t-43.5 -141.5t-72 -135t-104 -114.5t-140 -79.5t-179.5 -29.5
q-142 0 -214 69t-72 193q0 29 3 58.5t11 58.5l219 1026l303 41l-98 -461q31 19 55.5 30.5t44.5 17.5t36.5 7.5t31.5 1.5q50 0 92 -16t74 -52.5t51.5 -95t24.5 -143.5q74 14 152 97t163 227zM1495 0l522 913h-114q-24 0 -44.5 -1t-36 -4t-24 -9.5t-8.5 -17.5q0 -5 3.5 -6
t7.5 -4t7.5 -10t3.5 -25q0 -29 -9.5 -49.5t-25 -33.5t-35 -19.5t-40.5 -6.5q-18 0 -34.5 6t-30 17t-21.5 28t-8 39q0 31 16.5 67.5t47 67.5t74.5 51.5t99 20.5h527l-502 -866q13 -1 31 -3t39 -4.5t42.5 -4t42.5 -1.5q38 0 65 8.5t32 32.5q-20 2 -29.5 14t-9.5 29
q0 15 7.5 30.5t21.5 28t35.5 21t50.5 8.5q47 0 68.5 -28.5t21.5 -69.5q0 -35 -17 -74t-49 -71t-78.5 -53t-105.5 -21h-543zM285 328q-6 -26 -6 -47q0 -95 108 -95q44 0 83 38t70 99t52.5 136.5t30.5 150.5q-33 24 -33 82q0 26 7 47.5t19 36.5q-11 47 -35.5 78t-62.5 31
q-11 0 -28 -1.5t-35 -6t-33.5 -11.5t-24.5 -18z" />
    <glyph glyph-name="c_x" unicode="cx" horiz-adv-x="1546" 
d="M1632 367q-43 -125 -98.5 -200t-113.5 -115t-111.5 -52t-91.5 -12q-53 0 -91.5 16t-67.5 50.5t-50 88t-37 127.5q-65 -65 -143.5 -117.5t-163 -89t-171.5 -56t-169 -19.5q-75 0 -141 17.5t-116 57.5t-79 104t-29 157q0 55 12 130t38 154.5t68.5 157.5t104 139t142.5 99
t186 38q67 0 111 -16t70 -43t36 -61t10 -70q0 -39 -9 -67t-24 -45.5t-34.5 -26t-40.5 -8.5q-38 0 -72 24q12 32 18.5 62t6.5 59q0 37 -13.5 60.5t-42.5 23.5q-33 0 -65 -29.5t-61.5 -78t-54.5 -110.5t-43.5 -126t-29 -124.5t-10.5 -107.5q0 -57 16 -96t44 -62.5t66 -33.5
t81 -10q55 0 117.5 15t125.5 44t124 73t112 101l-117 635h289l80 -442q46 49 82.5 95.5t61.5 88.5t38 78t13 63v14t-2 11q-11 -2 -18.5 -3t-18.5 -1q-27 0 -45 9.5t-29 24.5t-15.5 34t-4.5 38q0 54 31 79.5t79 25.5q36 0 63 -14t45 -38t27 -56.5t9 -69.5q0 -50 -16.5 -102
t-52 -111.5t-91 -128t-133.5 -152.5l18 -100q6 -29 12.5 -60.5t19.5 -58.5t33.5 -44.5t55.5 -17.5q30 0 58.5 13.5t52.5 37.5t43 57.5t30 72.5h86z" />
    <glyph glyph-name="c_z" unicode="cz" horiz-adv-x="1575" 
d="M698 0l523 913h-74q-24 0 -44.5 -1t-36 -4t-24 -9.5t-8.5 -17.5q0 -5 3.5 -6t8 -4t8 -10t3.5 -25q0 -29 -9.5 -49.5t-25.5 -33.5t-35.5 -19.5t-40.5 -6.5q-18 0 -34.5 6t-30 17t-21.5 28t-8 39q0 31 16.5 67.5t47 67.5t74.5 51.5t100 20.5h485l-502 -866q28 0 52.5 -4
t47 -8.5t43.5 -8.5t44 -4q24 0 41.5 11t23.5 42q-20 2 -29.5 14t-9.5 29q0 15 7.5 30.5t21.5 28t35.5 21t50.5 8.5q47 0 68.5 -28.5t21.5 -69.5q0 -35 -17 -74t-49 -71t-78.5 -53t-105.5 -21h-543zM631 291q-16 -89 -50 -147t-81 -93t-104.5 -49t-119.5 -14
q-71 0 -129.5 18.5t-100 57.5t-64.5 100.5t-23 148.5q0 59 12 136.5t38.5 158.5t69 159t103.5 139t142.5 98.5t185.5 37.5q67 0 111 -16t70 -43t36 -61t10 -70q0 -39 -9 -67t-24 -45.5t-34.5 -26t-40.5 -8.5q-38 0 -72 24q12 32 18.5 62t6.5 59q0 37 -13.5 60.5t-42.5 23.5
q-33 0 -65 -29.5t-61.5 -77.5t-54.5 -110t-43.5 -127t-29 -128t-10.5 -114q0 -48 9 -81t25.5 -52.5t39 -28t49.5 -8.5q30 0 63 10t66 26.5t63 36.5t54 40z" />
    <glyph glyph-name="e_x" unicode="ex" horiz-adv-x="1561" 
d="M1647 367q-43 -125 -99 -200t-114 -115t-111.5 -52t-91.5 -12q-51 0 -89 15.5t-67 49.5t-50.5 88t-39.5 131q-62 -64 -138.5 -116t-161 -89.5t-173 -58t-174.5 -20.5q-75 0 -141 17.5t-116 56.5t-79 103t-29 157q0 56 12 131t38 155t69 157.5t104 139t143 99.5t187 38
q69 0 112.5 -16.5t69 -43.5t35 -62.5t9.5 -73.5q0 -89 -39 -165.5t-104.5 -133.5t-151 -92t-178.5 -41q-2 -14 -2.5 -28.5t-0.5 -27.5q0 -57 16 -96t43.5 -62.5t65 -33.5t80.5 -10q55 0 118 15t126.5 44t124.5 73t113 101l-117 635h289l79 -442q46 49 82.5 95.5t61.5 88.5
t38 78t13 63v14t-2 11q-11 -2 -18.5 -3t-18.5 -1q-27 0 -45 9.5t-29 24.5t-15.5 34t-4.5 38q0 54 31 79.5t79 25.5q36 0 63 -14t45 -38t27 -56.5t9 -69.5q0 -50 -16.5 -102t-52 -111.5t-91 -128t-133.5 -152.5l18 -100q6 -29 13 -60.5t19.5 -58.5t33 -44.5t55.5 -17.5
q30 0 58.5 13.5t52.5 37.5t43 57.5t31 72.5h86zM295 512q59 2 113 31.5t95.5 76t66 106.5t24.5 124q0 38 -11 61t-40 23q-39 0 -77 -39t-71 -100.5t-59 -136.5t-41 -146z" />
    <glyph glyph-name="e_z" unicode="ez" horiz-adv-x="1614" 
d="M631 291q-16 -89 -50 -147t-81 -93t-104.5 -49t-119.5 -14q-71 0 -129.5 18.5t-100 57.5t-64.5 100.5t-23 148.5q0 59 12 136t38 158t69 159t104 139.5t143 99t187 37.5q68 0 112 -16.5t69 -43.5t34.5 -62.5t9.5 -73.5q0 -89 -39 -165.5t-104.5 -133.5t-150.5 -92
t-177 -41q-2 -17 -3 -32.5t-1 -29.5q0 -49 9.5 -82t27 -52.5t40.5 -27.5t50 -8q30 0 62.5 9t64 24t61 34.5t54.5 41.5zM281 512q59 2 113 31.5t95.5 76t66 106.5t24.5 124q0 38 -11.5 61t-40.5 23q-38 0 -75.5 -38.5t-70 -99.5t-59 -136t-42.5 -148zM737 0l523 913h-115
q-24 0 -44.5 -1t-36 -4t-24 -9.5t-8.5 -17.5q0 -5 3.5 -6t8 -4t8 -10t3.5 -25q0 -29 -9.5 -49.5t-25.5 -33.5t-35.5 -19.5t-40.5 -6.5q-18 0 -34.5 6t-30 17t-21.5 28t-8 39q0 31 16.5 67.5t47 67.5t74.5 51.5t99 20.5h527l-502 -866q13 -1 31 -3t39 -4.5t43 -4t43 -1.5
q37 0 64 8.5t32 32.5q-20 2 -29.5 14t-9.5 29q0 15 7.5 30.5t21.5 28t35.5 21t50.5 8.5q47 0 68.5 -28.5t21.5 -69.5q0 -35 -17 -74t-49 -71t-78.5 -53t-105.5 -21h-543z" />
    <glyph glyph-name="eacute_x" unicode="&#xe9;x" horiz-adv-x="1556" 
d="M1642 367q-29 -83 -63.5 -144t-72 -103t-76.5 -68t-76.5 -40t-71.5 -19t-61 -5q-49 0 -86 16t-65.5 50.5t-49.5 88t-39 129.5q-61 -65 -139 -117.5t-163 -89.5t-172.5 -57t-166.5 -20q-77 0 -144.5 17.5t-118 56.5t-79.5 101t-29 152q0 60 12 136.5t38.5 157.5t69 158.5
t104 138.5t143.5 98.5t188 37.5q69 0 112.5 -16.5t68 -44t34 -64.5t9.5 -77q0 -86 -39 -161t-104.5 -132t-151 -92t-177.5 -41q-2 -17 -3 -33t-1 -33q0 -52 15.5 -88.5t43.5 -59.5t67 -33.5t85 -10.5q52 0 114 15t125.5 44.5t124 73t111.5 100.5l-116 635h288l80 -442
q46 49 82.5 95.5t61.5 88.5t38 78t13 63v14t-2 11q-11 -2 -19 -3t-16 -1q-27 0 -45.5 9t-29.5 24.5t-16 36t-5 44.5q0 48 33 72.5t81 24.5q35 0 61 -14.5t43.5 -39t26.5 -58t9 -71.5q0 -50 -17 -102.5t-53 -111t-91.5 -126t-131.5 -147.5l18 -102q6 -29 13 -60.5t19.5 -58.5
t33 -44.5t55.5 -17.5q30 0 58.5 13.5t52.5 37.5t43 57.5t30 72.5h86zM291 512q59 4 113 33.5t95.5 75.5t66 104t24.5 119q0 43 -10 66.5t-39 23.5q-41 0 -79 -38t-70.5 -99t-58.5 -136t-42 -149zM459 1149l186 387h215l-248 -387h-153z" />
    <glyph glyph-name="ff" unicode="ff" horiz-adv-x="1040" 
d="M918 942l-232 -1106q-22 -110 -64.5 -178t-94.5 -106t-108 -51t-106 -13q-88 0 -142 34.5t-79 94.5q-30 -39 -64.5 -64t-70.5 -39.5t-72.5 -20t-70.5 -5.5q-46 0 -89.5 16t-77.5 45t-54.5 69.5t-20.5 90.5q0 71 27.5 119.5t75.5 83t112.5 58.5t138.5 46l246 1170
q22 110 64.5 178t94.5 106t108 51t106 13q34 0 67.5 -9t62 -25.5t51.5 -40.5t38 -54q31 39 66 64t71 39.5t72.5 20t70.5 5.5q46 0 89.5 -16t77.5 -45t54.5 -69.5t20.5 -90.5q0 -48 -6 -84h-96q2 17 3 29t1 26q0 35 -23.5 52.5t-54.5 17.5q-17 0 -36 -6t-38 -23.5t-36 -49.5
t-29 -83l-37 -168h205l-19 -82h-202zM621 942h-203l-182 -866l210 37zM436 63l-211 -38l-39 -189q-8 -35 -18 -67t-21 -58q14 -25 45.5 -33t73.5 -8q16 0 33 7.5t33.5 26t30.5 49.5t24 77zM672 1186l12 53q2 12 3 22.5t1 22.5q0 35 -23.5 52.5t-54.5 17.5q-17 0 -36 -6
t-38 -23.5t-36 -49.5t-29 -83l-37 -168h203zM-76 -51q-48 -16 -89.5 -35.5t-72 -45t-48 -57.5t-17.5 -73q0 -12 6 -24t17 -21.5t26 -16t33 -6.5q16 0 33 7.5t33.5 26t30.5 49.5t24 77z" />
    <glyph glyph-name="ffi" unicode="ffi" horiz-adv-x="1565" 
d="M1651 367q-29 -83 -64.5 -144t-74 -103t-79 -68t-78.5 -40t-72.5 -19t-61.5 -5q-46 0 -86 14t-70 44t-47 76t-17 111q0 28 4.5 61.5t12.5 72.5l121 575h-246l-234 -1106q-22 -107 -63 -174.5t-91 -106t-104 -53t-102 -14.5q-75 0 -133.5 29t-89.5 80q-30 -33 -63 -54.5
t-66.5 -33.5t-67.5 -16.5t-65 -4.5q-46 0 -89.5 16t-77.5 45t-54.5 69.5t-20.5 90.5q0 71 27.5 119.5t75.5 83t112.5 58.5t138.5 46l246 1170q22 110 64.5 178t94.5 106t108 51t106 13q169 0 252 -107q36 33 74.5 54t78.5 33t79 16t77 4q61 0 126.5 -9t118.5 -35t87.5 -72
t34.5 -120q0 -46 -13.5 -77.5t-36 -51t-52 -28t-60.5 -8.5q-23 0 -45 5t-39 17t-28 33.5t-11 54.5q0 18 4.5 35.5t13.5 32t22 23.5t29 9h10t7 -2q-2 42 -32.5 62t-80.5 20q-49 0 -86 -19.5t-63 -52t-42.5 -74t-25.5 -85.5l-35 -168h543l-147 -696q-5 -17 -7 -33.5t-2 -32.5
q0 -43 20.5 -59.5t63.5 -16.5q30 0 58.5 13.5t52.5 37.5t43 57.5t31 72.5h86zM594 942h-172l-184 -868l180 30zM408 53l-183 -37l-39 -180q-8 -35 -17.5 -67.5t-23.5 -61.5q3 -21 12.5 -33.5t20.5 -19.5t23 -9.5t20 -2.5q21 0 41 10t38 32t33.5 58t26.5 88zM627 1094
q17 85 43.5 146.5t58.5 109.5q-14 17 -33.5 25.5t-48.5 8.5q-43 0 -73.5 -17.5t-51.5 -45t-33 -61.5t-18 -68l-33 -168h174zM-76 -51q-48 -16 -89.5 -35.5t-72 -45t-48 -57.5t-17.5 -73q0 -12 6 -24t17 -21.5t26 -16t33 -6.5q15 0 32.5 7.5t34 26t31 49.5t23.5 77z" />
    <glyph glyph-name="ffl" unicode="ffl" horiz-adv-x="1597" 
d="M1683 367q-43 -125 -100 -200t-117 -115t-116 -52t-97 -12q-46 0 -86 14t-69.5 44t-46.5 76t-17 111q0 54 17 134l213 1005q-21 9 -46 15t-49 10t-43.5 6t-29.5 2q-17 0 -37 -6t-39.5 -23.5t-36.5 -49.5t-27 -83l-45 -219h191l-17 -82h-190l-236 -1106
q-22 -107 -63 -174.5t-91 -106t-104 -53t-102 -14.5q-78 0 -135 28.5t-88 82.5q-30 -33 -63 -54.5t-66.5 -34t-67.5 -17.5t-65 -5q-46 0 -89.5 16t-77.5 45t-54.5 69.5t-20.5 90.5q0 71 27.5 119.5t75.5 83t112.5 58.5t138.5 46l246 1170q22 110 64.5 178t94.5 106t108 51
t106 13q152 0 235 -86q28 25 58 42t61 26.5t61.5 13.5t59.5 4q70 0 137 -12t134 -31.5t134.5 -45t137.5 -52.5l-226 -1065q-5 -17 -6.5 -33.5t-1.5 -32.5q0 -43 20.5 -59.5t63.5 -16.5q30 0 58.5 13.5t52.5 37.5t43 57.5t30 72.5h86zM596 942h-174l-184 -868l180 30zM408 53
l-183 -37l-39 -180q-8 -34 -17.5 -66t-23.5 -61q3 -21 12.5 -34.5t21.5 -20.5t23.5 -9.5t18.5 -2.5q21 0 41 10t38 32t33.5 58t26.5 88zM647 1186q11 56 28.5 99.5t37.5 78.5q-27 20 -66 20q-43 0 -73.5 -17.5t-51.5 -45t-33 -61.5t-18 -68l-33 -168h174zM-76 -51
q-48 -16 -89.5 -35.5t-72 -45t-48 -57.5t-17.5 -73q0 -12 6 -24t17 -21.5t26 -16t33 -6.5q15 0 32.5 7.5t34 26t31 49.5t23.5 77z" />
    <glyph glyph-name="f_f_t" unicode="fft" horiz-adv-x="1597" 
d="M1683 367q-43 -125 -100 -200t-117 -115t-116 -52t-97 -12q-46 0 -86 14t-69.5 44t-46.5 76t-17 111q0 54 17 134l120 575h-276l-236 -1106q-22 -107 -63 -174.5t-91 -106t-104 -53t-102 -14.5q-78 0 -135 28.5t-88 82.5q-30 -33 -63 -54.5t-66.5 -34t-67.5 -17.5t-65 -5
q-46 0 -89.5 16t-77.5 45t-54.5 69.5t-20.5 90.5q0 71 27.5 119.5t75.5 83t112.5 58.5t138.5 46l246 1170q22 110 64.5 178t94.5 106t108 51t106 13q152 0 235 -86q28 25 58 42t61 26.5t61.5 13.5t59.5 4q70 0 137 -12t134 -31.5t134.5 -45t137.5 -52.5l-78 -369h123
l-17 -82h-125l-129 -614q-5 -17 -6.5 -33.5t-1.5 -32.5q0 -43 20.5 -59.5t63.5 -16.5q30 0 58.5 13.5t52.5 37.5t43 57.5t30 72.5h86zM596 942h-174l-184 -868l180 30zM1264 1372q-21 9 -46 15t-49 10t-43.5 6t-29.5 2q-17 0 -37 -6t-39.5 -23.5t-36.5 -49.5t-27 -83
l-45 -219h279zM408 53l-183 -37l-39 -180q-8 -34 -17.5 -66t-23.5 -61q3 -21 12.5 -34.5t21.5 -20.5t23.5 -9.5t18.5 -2.5q21 0 41 10t38 32t33.5 58t26.5 88zM647 1186q11 56 28.5 99.5t37.5 78.5q-27 20 -66 20q-43 0 -73.5 -17.5t-51.5 -45t-33 -61.5t-18 -68l-33 -168
h174zM-76 -51q-48 -16 -89.5 -35.5t-72 -45t-48 -57.5t-17.5 -73q0 -12 6 -24t17 -21.5t26 -16t33 -6.5q15 0 32.5 7.5t34 26t31 49.5t23.5 77z" />
    <glyph glyph-name="fi" unicode="fi" horiz-adv-x="1094" 
d="M158 1094q31 141 85 227.5t119.5 133.5t137 63t137.5 16q61 0 126.5 -9t118.5 -35t87.5 -72t34.5 -120q0 -46 -13.5 -77.5t-36 -51t-52 -28t-60.5 -8.5q-23 0 -45 5t-39 17t-28 33.5t-11 54.5q0 18 4.5 35.5t13.5 32t22 23.5t29 9h10t7 -2q-2 42 -32.5 62t-80.5 20
q-49 0 -86 -19.5t-63 -52t-42.5 -74t-25.5 -85.5l-35 -168h164l-16 -82h-164l-234 -1106q-22 -107 -63 -174.5t-91 -106t-104 -53t-102 -14.5q-56 0 -102.5 16t-80.5 45.5t-52.5 72t-18.5 95.5q0 69 31 116.5t81 81t113.5 57t128.5 44.5zM-84 -51q-49 -15 -90.5 -35.5
t-72 -45.5t-47.5 -54t-17 -62q0 -26 10 -42t23.5 -25t27.5 -12t23 -3q15 0 32 8.5t33 27.5t30 49.5t23 74.5zM1180 367q-29 -83 -64.5 -144t-74 -103t-79 -68t-78.5 -40t-72.5 -19t-61.5 -5q-46 0 -86 14t-70 44t-47 76t-17 111q0 28 4.5 61.5t12.5 72.5l139 657h295
l-147 -696q-5 -17 -7 -33.5t-2 -32.5q0 -43 20.5 -59.5t63.5 -16.5q30 0 58.5 13.5t52.5 37.5t43 57.5t31 72.5h86z" />
    <glyph glyph-name="f_i_x" unicode="fix" horiz-adv-x="1839" 
d="M158 1094q31 141 85 227.5t119.5 133.5t137 63t137.5 16q61 0 126.5 -9t118.5 -35t87.5 -72t34.5 -120q0 -46 -13.5 -77.5t-36 -51t-52 -28t-60.5 -8.5q-23 0 -45 5t-39 17t-28 33.5t-11 54.5q0 18 4.5 35.5t13.5 32t22 23.5t29 9h10t7 -2q-2 42 -32.5 62t-80.5 20
q-49 0 -86 -19.5t-63 -52t-42.5 -74t-25.5 -85.5l-35 -168h164l-16 -82h-164l-234 -1106q-22 -107 -63 -174.5t-91 -106t-104 -53t-102 -14.5q-56 0 -102.5 16t-80.5 45.5t-52.5 72t-18.5 95.5q0 69 31 116.5t81 81t113.5 57t128.5 44.5zM1925 367q-29 -83 -63.5 -144
t-72 -103t-77 -68t-76.5 -40t-71 -19t-62 -5q-49 0 -85.5 16t-64.5 50.5t-48.5 88t-38.5 127.5q-49 -55 -109.5 -106t-128 -90t-139 -62.5t-141.5 -23.5q-47 0 -87 14t-69 43.5t-45.5 75.5t-16.5 110q0 26 4.5 60t12.5 76l139 657h295l-147 -696q-5 -17 -7 -33.5t-2 -32.5
q0 -38 24 -56t66 -18q38 0 81.5 14.5t87 40t84.5 61t73 77.5l-117 643h289l80 -442q46 49 82.5 95.5t61.5 88.5t38 78t13 63v14t-2 11q-11 -2 -19 -3t-16 -1q-27 0 -45.5 9t-30 24.5t-16.5 36t-5 44.5t9 42t25 30.5t36.5 18.5t44.5 6q34 0 60.5 -14.5t43.5 -39t26 -58
t9 -71.5q0 -50 -17 -102.5t-53 -111t-91 -126t-131 -147.5l18 -102q6 -29 12.5 -60.5t19.5 -58.5t33.5 -44.5t55.5 -17.5q30 0 58 13.5t52 37.5t43 57.5t31 72.5h86zM-84 -51q-49 -15 -90.5 -35.5t-72 -45.5t-47.5 -54t-17 -62q0 -26 10 -42t23.5 -25t27.5 -12t23 -3
q15 0 32 8.5t33 27.5t30 49.5t23 74.5z" />
    <glyph glyph-name="f_i_z" unicode="fiz" horiz-adv-x="1851" 
d="M-84 -51q-49 -15 -90.5 -35.5t-72 -45.5t-47.5 -54t-17 -62q0 -26 10 -42t23.5 -25t27.5 -12t23 -3q15 0 32 8.5t33 27.5t30 49.5t23 74.5zM158 1094q31 141 85 227.5t119.5 133.5t137 63t137.5 16q61 0 126.5 -9t118.5 -35t87.5 -72t34.5 -120q0 -46 -13.5 -77.5
t-36 -51t-52 -28t-60.5 -8.5q-23 0 -45 5t-39 17t-28 33.5t-11 54.5q0 18 4.5 35.5t13.5 32t22 23.5t29 9h10t7 -2q-2 42 -32.5 62t-80.5 20q-49 0 -86 -19.5t-63 -52t-42.5 -74t-25.5 -85.5l-35 -168h164l-16 -82h-164l-234 -1106q-22 -107 -63 -174.5t-91 -106t-104 -53
t-102 -14.5q-56 0 -102.5 16t-80.5 45.5t-52.5 72t-18.5 95.5q0 69 31 116.5t81 81t113.5 57t128.5 44.5zM686 1024h295l-147 -696q-5 -17 -7 -33.5t-2 -32.5q0 -43 20.5 -59.5t63.5 -16.5q29 0 42 4t24 9q-4 -55 -24.5 -94.5t-51.5 -65.5t-70 -38.5t-79 -12.5q-46 0 -86 14
t-70 44t-47 76t-17 111q0 28 4.5 61.5t12.5 72.5zM975 0l522 913h-115q-24 0 -44.5 -1t-35.5 -4t-23.5 -9.5t-8.5 -17.5q0 -5 3.5 -6t7.5 -4t7.5 -10t3.5 -25q0 -29 -9.5 -49.5t-25 -33.5t-35 -19.5t-40.5 -6.5q-18 0 -35 6t-30.5 17t-21.5 28t-8 39q0 31 16.5 67.5
t47.5 67.5t75 51.5t99 20.5h526l-501 -866q26 -2 69.5 -7.5t85.5 -5.5q37 0 64.5 8.5t32.5 32.5q-20 2 -29.5 14t-9.5 29q0 15 7.5 30.5t21.5 28t35.5 21t49.5 8.5q48 0 69 -28t21 -70q0 -35 -17 -74t-49 -71t-78 -53t-105 -21h-543z" />
    <glyph glyph-name="fl" unicode="fl" horiz-adv-x="1122" 
d="M-88 -51q-48 -16 -89.5 -35.5t-72 -45t-48 -57.5t-17.5 -73q0 -12 6 -24t17 -21.5t26 -16t33 -6.5q15 0 32 7.5t33.5 26t31 49.5t23.5 77zM1208 367q-43 -125 -100 -200t-117 -115t-116 -52t-97 -12q-46 0 -86 14t-69.5 44t-46.5 76t-17 111q0 28 4 61.5t12 72.5
l213 1005q-21 9 -46 15t-48.5 10t-43 6t-29.5 2q-17 0 -37.5 -6t-40 -23.5t-36 -49.5t-26.5 -83l-45 -219h191l-17 -82h-190l-234 -1106q-22 -110 -64.5 -178t-94 -106t-107.5 -51t-106 -13q-46 0 -89.5 16t-77.5 45t-54.5 69.5t-20.5 90.5q0 71 27.5 119.5t75.5 83
t112.5 58.5t138.5 46l246 1170q22 110 64.5 178t95 106t108.5 51t105 13q70 0 137 -12t134 -31.5t134 -45t137 -52.5l-225 -1065q-5 -17 -6.5 -33.5t-1.5 -32.5q0 -43 20.5 -59.5t63.5 -16.5q30 0 58.5 13.5t52.5 37.5t43 57.5t30 72.5h86z" />
    <glyph glyph-name="f_l_x" unicode="flx" horiz-adv-x="1868" 
d="M1954 367q-29 -83 -63.5 -144t-72.5 -103t-77 -68t-76.5 -40t-71.5 -19t-61 -5q-49 0 -86 16t-64.5 50.5t-48.5 88t-39 127.5q-49 -55 -109.5 -106t-127.5 -90t-138.5 -62.5t-142.5 -23.5q-47 0 -86.5 14t-68.5 43.5t-45.5 75.5t-16.5 110q0 26 4 60t12 76l213 1005
q-21 9 -46 15t-48.5 10t-43 6t-29.5 2q-17 0 -37.5 -6t-40 -23.5t-36 -49.5t-26.5 -83l-45 -219h191l-17 -82h-190l-234 -1106q-22 -110 -64.5 -178t-94 -106t-107.5 -51t-106 -13q-46 0 -89.5 16t-77.5 45t-54.5 69.5t-20.5 90.5q0 71 27.5 119.5t75.5 83t112.5 58.5
t138.5 46l246 1170q22 110 64.5 178t95 106t108.5 51t105 13q70 0 137 -12t134 -31.5t134 -45t137 -52.5l-225 -1065q-5 -17 -6.5 -33.5t-1.5 -32.5q0 -38 24 -56t66 -18q37 0 81 14.5t87.5 40t84.5 61t73 77.5l-117 643h289l80 -442q46 49 82 95.5t61 88.5t38 78t13 63v14
t-2 11q-11 -2 -19 -3t-16 -1q-27 0 -45 9t-29.5 24.5t-16.5 36t-5 44.5q0 48 33.5 72.5t81.5 24.5q34 0 60.5 -14.5t43.5 -39t26 -58t9 -71.5q0 -50 -17 -102.5t-53 -111t-91.5 -126t-131.5 -147.5l19 -102q6 -29 12.5 -60.5t19 -58.5t33 -44.5t55.5 -17.5q30 0 58.5 13.5
t52.5 37.5t43 57.5t31 72.5h86zM-88 -51q-48 -16 -89.5 -35.5t-72 -45t-48 -57.5t-17.5 -73q0 -12 6 -24t17 -21.5t26 -16t33 -6.5q16 0 33 7.5t33 26t30 49.5t24 77z" />
    <glyph glyph-name="f_l_z" unicode="flz" horiz-adv-x="1921" 
d="M-88 -51q-48 -16 -89.5 -35.5t-72 -45t-48 -57.5t-17.5 -73q0 -12 6 -24t17 -21.5t26 -16t33 -6.5q15 0 32 7.5t33.5 26t31 49.5t23.5 77zM788 1372q-21 9 -46 15t-48.5 10t-43 6t-29.5 2q-17 0 -37.5 -6t-40 -23.5t-36 -49.5t-26.5 -83l-45 -219h191l-17 -82h-190
l-234 -1106q-22 -110 -64.5 -178t-94 -106t-107.5 -51t-106 -13q-46 0 -89.5 16t-77.5 45t-54.5 69.5t-20.5 90.5q0 71 27.5 119.5t75.5 83t112.5 58.5t138.5 46l246 1170q22 110 64.5 178t95 106t108.5 51t105 13q70 0 137 -12t134 -31.5t134 -45t137 -52.5l-225 -1065
q-5 -17 -6.5 -33.5t-1.5 -32.5q0 -43 20.5 -59.5t63.5 -16.5q29 0 42 4t24 9q-4 -55 -24.5 -94.5t-51.5 -65.5t-70 -38.5t-80 -12.5q-46 0 -86 14t-69.5 44t-46.5 76t-17 111q0 28 4 61.5t12 72.5zM1044 0l523 913h-115q-24 0 -44.5 -1t-35.5 -4t-24 -9.5t-9 -17.5
q0 -5 3.5 -6t8 -4t8 -10t3.5 -25q0 -29 -9.5 -49.5t-25 -33.5t-35.5 -19.5t-41 -6.5q-18 0 -34.5 6t-30 17t-21.5 28t-8 39q0 31 16.5 67.5t47 67.5t74.5 51.5t100 20.5h526l-502 -866q13 -1 31.5 -3t39 -4.5t42.5 -4t43 -1.5q37 0 64 8.5t32 32.5q-20 2 -29.5 14t-9.5 29
q0 15 7.5 30.5t21.5 28t35.5 21t50.5 8.5q47 0 68.5 -28.5t21.5 -69.5q0 -35 -17 -74t-49 -71t-78.5 -53t-105.5 -21h-543z" />
    <glyph glyph-name="f_t" unicode="ft" horiz-adv-x="1122" 
d="M1208 367q-43 -125 -100 -200t-117 -115t-116 -52t-97 -12q-46 0 -86 14t-69.5 44t-46.5 76t-17 111q0 28 4 61.5t12 72.5l121 575h-276l-234 -1106q-22 -110 -64.5 -178t-94 -106t-107.5 -51t-106 -13q-46 0 -89.5 16t-77.5 45t-54.5 69.5t-20.5 90.5q0 71 27.5 119.5
t75.5 83t112.5 58.5t138.5 46l246 1170q22 110 64.5 178t95 106t108.5 51t105 13q70 0 137 -12t134 -31.5t134 -45t137 -52.5l-77 -369h123l-17 -82h-125l-129 -614q-5 -17 -6.5 -33.5t-1.5 -32.5q0 -43 20.5 -59.5t63.5 -16.5q30 0 58.5 13.5t52.5 37.5t43 57.5t30 72.5h86
zM788 1372q-21 9 -46 15t-48.5 10t-43 6t-29.5 2q-17 0 -37.5 -6t-40 -23.5t-36 -49.5t-26.5 -83l-45 -219h279zM-88 -51q-48 -16 -89.5 -35.5t-72 -45t-48 -57.5t-17.5 -73q0 -12 6 -24t17 -21.5t26 -16t33 -6.5q16 0 33 7.5t33 26t30 49.5t24 77z" />
    <glyph glyph-name="f_u" unicode="fu" horiz-adv-x="1581" 
d="M1667 367q-43 -125 -97.5 -200t-111 -115t-109.5 -52t-94 -12q-88 0 -139.5 48.5t-62.5 145.5q-39 -63 -79 -101t-79 -59t-76 -27.5t-69 -6.5q-46 0 -86 14t-70 44t-47 76t-17 111q0 28 4.5 61.5t12.5 72.5l121 575h-250l-236 -1106q-22 -110 -63.5 -178t-92 -106
t-105.5 -51t-105 -13q-46 0 -89.5 16t-77.5 45t-54.5 69.5t-20.5 90.5q0 71 27.5 119.5t75.5 83t112 58.5t137 46l248 1170q22 110 64.5 178t94.5 106t108 51t106 13q46 0 89.5 -16t77 -45t54 -69.5t20.5 -90.5q0 -48 -6 -84h-96q2 17 3 29t1 26q0 35 -23.5 52.5t-54.5 17.5
q-16 0 -36.5 -7t-41 -25.5t-38 -51.5t-27.5 -84l-35 -162h547l-147 -696q-7 -29 -7 -58q0 -35 13.5 -59.5t48.5 -24.5q30 0 55 13.5t45.5 37.5t36 57.5t27.5 72.5l139 657h295l-148 -696q-5 -17 -6.5 -33.5t-1.5 -32.5q0 -43 20.5 -59.5t63.5 -16.5q30 0 55.5 13.5t46 37.5
t36.5 57.5t28 72.5h86zM-88 -51q-48 -16 -89.5 -35.5t-71.5 -45t-47 -57.5t-17 -73q0 -12 6 -24t17 -21.5t26 -16t33 -6.5q16 0 32.5 7.5t32 26t28.5 49.5t23 77z" />
    <glyph glyph-name="f_x" unicode="fx" horiz-adv-x="1358" 
d="M1444 367q-29 -83 -63.5 -144t-72 -103t-77 -68t-76.5 -40t-71 -19t-62 -5q-56 0 -96.5 21.5t-70.5 67t-51.5 117.5t-39.5 173l-4 14q-35 -25 -68.5 -52t-59.5 -56t-41.5 -59.5t-15.5 -61.5q5 2 12 2h15q27 0 43.5 -9t25.5 -23.5t12 -32.5t3 -36q0 -60 -32 -86t-83 -26
q-69 0 -102 39.5t-33 105.5q0 51 26.5 107.5t69.5 111.5t97.5 104.5t109.5 86.5l-82 446h-239l-236 -1106q-22 -110 -63.5 -178t-92 -106t-105.5 -51t-105 -13q-46 0 -89.5 16t-77.5 45t-54.5 69.5t-20.5 90.5q0 71 27.5 119.5t75.5 83t112 58.5t137 46l248 1170
q22 110 64.5 178t94.5 106t108 51t106 13q46 0 89.5 -16t77 -45t54 -69.5t20.5 -90.5q0 -48 -6 -84h-96q2 17 3 29t1 26q0 35 -23.5 52.5t-54.5 17.5q-16 0 -36.5 -7t-41 -25.5t-38 -51.5t-27.5 -84l-35 -162h498l74 -406q97 87 148.5 158t51.5 131v14t-2 11q-11 -2 -19 -3
t-16 -1q-27 0 -45 9t-29.5 24.5t-16.5 36t-5 44.5q0 48 33.5 72.5t81.5 24.5q34 0 60.5 -14.5t43.5 -39t26 -58t9 -71.5q0 -51 -17 -102t-53.5 -106t-93 -115.5t-135.5 -130.5l25 -135q6 -29 12.5 -60.5t19 -58.5t33.5 -44.5t56 -17.5q30 0 58 13.5t52 37.5t43 57.5t31 72.5
h86zM-94 -51q-48 -16 -89.5 -35.5t-71.5 -45t-47 -57.5t-17 -73q0 -12 6 -24t17 -21.5t25.5 -16t32.5 -6.5q16 0 32.5 7.5t32 26t29 49.5t23.5 77z" />
    <glyph glyph-name="g_p" unicode="gp" horiz-adv-x="1997" 
d="M852 -512l109 516q-48 -2 -96.5 -6.5t-102.5 -15.5l-31 -146q-22 -110 -63.5 -178t-92.5 -106t-106.5 -51t-106.5 -13q-47 0 -88.5 12.5t-72.5 37t-49.5 62t-18.5 87.5q0 63 30.5 113t79 89t108 67t118.5 46l23 98q-45 -48 -105.5 -80t-140.5 -32q-53 0 -102 17t-87 56
t-61 102t-23 154q0 70 14 150t43 160t72.5 153.5t102 130t132.5 90t163 33.5q87 0 126.5 -30t39.5 -74v-12l22 106h295l-201 -940q54 12 104 21.5t101 17.5l207 977h295l-33 -154q45 38 103 63t137 25q52 0 97.5 -16.5t79.5 -54t53.5 -99.5t19.5 -153q0 -69 -10 -149.5
t-32.5 -161t-60.5 -155t-94 -131.5t-132 -91.5t-175 -34.5q-102 0 -189 6l-92 -432zM1288 154q23 2 45 2h45q54 0 96 28t74 74.5t54 105.5t36 121.5t20.5 123t6.5 108.5q0 59 -11 93t-26.5 51t-33.5 21.5t-31 4.5q-35 0 -74 -25.5t-68 -75.5zM647 831q0 9 -4 22t-13.5 25
t-25.5 20.5t-41 8.5q-43 0 -81.5 -28t-70.5 -74.5t-57 -105.5t-42.5 -121.5t-26.5 -123t-9 -108.5q0 -59 11 -91t26.5 -47.5t33.5 -18.5t32 -3q21 0 45 10.5t47.5 30.5t42.5 50t29 69zM446 -111q-40 -15 -76 -32.5t-63.5 -38.5t-44 -46.5t-16.5 -56.5q0 -11 4 -23t12.5 -22
t21.5 -16t31 -6q32 0 65.5 44.5t53.5 137.5z" />
    <glyph glyph-name="g_x" unicode="gx" horiz-adv-x="1827" 
d="M1913 367q-29 -83 -63.5 -144t-72 -103t-77 -68t-76.5 -40t-71 -19t-62 -5q-49 0 -86 16t-64.5 50t-48.5 87t-39 127q-56 -62 -118.5 -107.5t-127 -78.5t-127 -56t-118.5 -40l-31 -150q-22 -110 -63.5 -178t-92.5 -106t-106.5 -51t-106.5 -13q-47 0 -88.5 12.5t-72.5 37
t-49.5 62t-18.5 87.5q0 65 30.5 113t78.5 83.5t107.5 60t117.5 42.5l25 116q-23 -24 -49 -44.5t-56.5 -36t-65.5 -24.5t-75 -9q-53 0 -102 17t-87 56t-61 102t-23 154q0 70 14 150t43 160t72.5 153.5t102 130t132.5 90t163 33.5q87 0 126.5 -30t39.5 -74v-15l22 109h295
l-201 -944q52 18 105.5 42.5t108.5 61t112.5 87.5t118.5 122l-115 631h289l80 -442q46 49 82 95.5t61 88.5t38 78t13 63v14t-2 11q-11 -2 -19 -3t-16 -1q-27 0 -45 9t-29.5 24.5t-16.5 36t-5 44.5q0 48 33.5 72.5t81.5 24.5q34 0 60.5 -14.5t43.5 -39t26 -58t9 -71.5
q0 -50 -17 -102.5t-53 -111t-91.5 -126t-131.5 -147.5l19 -102q6 -29 12.5 -60.5t19 -58.5t33 -44.5t55.5 -17.5q30 0 58.5 13.5t52.5 37.5t43 57.5t31 72.5h86zM549 367l98 462q0 9 -4 22.5t-13.5 26t-25.5 21t-41 8.5q-43 0 -81.5 -28t-70.5 -74.5t-57 -105.5
t-42.5 -121.5t-26.5 -123t-9 -108.5q0 -59 11 -91t26.5 -47.5t33.5 -18.5t32 -3q21 0 46 10t48 31t42.5 52t29.5 73zM446 -109q-40 -14 -76 -31.5t-63.5 -39t-44 -48t-16.5 -57.5q0 -11 4 -23t12.5 -22t21.5 -16t31 -6q32 0 65.5 44.5t53.5 137.5z" />
    <glyph glyph-name="g_z" unicode="gz" horiz-adv-x="1858" 
d="M489 102q-44 -47 -105 -80.5t-140 -33.5q-53 0 -102 17t-87 56t-61 102t-23 154q0 70 14 150t43 160t72.5 153.5t102 130t132.5 90t163 33.5q87 0 126.5 -30t39.5 -74v-4l20 98h297l-250 -1188q-22 -110 -64.5 -178t-94 -106t-108 -51t-106.5 -13q-46 0 -89.5 16t-77 45
t-54 69.5t-20.5 90.5q0 72 27.5 121t75.5 83t112.5 57.5t138.5 45.5zM645 836q-2 10 -6.5 22t-13.5 23t-24.5 18.5t-39.5 7.5q-43 0 -81.5 -28t-70.5 -74.5t-57 -105.5t-42.5 -121.5t-26.5 -123t-9 -108.5q0 -59 11 -91t26.5 -47.5t33.5 -18.5t32 -3q21 0 44.5 9.5
t46.5 28.5t42 48t31 68zM457 -49q-48 -16 -90 -36t-72.5 -45.5t-48 -58t-17.5 -73.5q0 -12 6 -24t17 -21.5t26 -16t33 -6.5q16 0 33.5 7.5t33.5 26t30 49.5t24 77zM981 0l522 913h-114q-24 0 -44.5 -1t-36 -4t-24 -9.5t-8.5 -17.5q0 -5 3.5 -6t7.5 -4t7.5 -10t3.5 -25
q0 -29 -9.5 -49.5t-25 -33.5t-35 -19.5t-40.5 -6.5q-18 0 -34.5 6t-30 17t-21.5 28t-8 39q0 31 16.5 67.5t47 67.5t74.5 51.5t99 20.5h527l-502 -866q13 -1 31 -3t39 -4.5t42.5 -4t42.5 -1.5q38 0 65 8.5t32 32.5q-20 2 -29.5 14t-9.5 29q0 15 7.5 30.5t21.5 28t35.5 21
t49.5 8.5q48 0 69.5 -28t21.5 -70q0 -35 -17 -74t-49 -71t-78.5 -53t-105.5 -21h-543z" />
    <glyph glyph-name="ij" unicode="ij" horiz-adv-x="1038" 
d="M506 1296q0 -34 -13 -63.5t-35.5 -51t-52 -34t-63.5 -12.5t-63.5 12.5t-51.5 34t-34.5 51t-12.5 63.5t12.5 63.5t34.5 52t51.5 35.5t63.5 13t63.5 -13t52 -35.5t35.5 -52t13 -63.5zM139 1024h295l-147 -696q-5 -17 -6.5 -33.5t-1.5 -32.5q0 -43 20 -59.5t63 -16.5
q29 0 42 4t24 9q-4 -55 -24.5 -94.5t-51.5 -65.5t-70 -38.5t-79 -12.5q-46 0 -86 14t-69.5 44t-46.5 76t-17 111q0 28 4 61.5t12 72.5zM731 -164q-22 -110 -63.5 -178t-92.5 -106t-106.5 -51t-106.5 -13q-47 0 -88.5 12.5t-72.5 37t-49.5 62t-18.5 87.5q0 64 30.5 112.5
t79 85.5t108 63t118.5 44l219 1032h295l-203 -950q47 16 85 38.5t69.5 57t57 82.5t46.5 115h86q-31 -102 -73.5 -170t-90.5 -111.5t-99 -66.5t-99 -35zM1036 1298q0 -34 -13 -63.5t-35 -51t-52 -34t-64 -12.5t-63.5 12.5t-51 34t-34 51t-12.5 63.5t12.5 64t34 52t51 35
t63.5 13t64 -13t52 -35t35 -52t13 -64zM446 -111q-40 -15 -76 -32.5t-63.5 -38.5t-44 -46.5t-16.5 -56.5q0 -11 4 -23t12.5 -22t21.5 -16t31 -6q32 0 65.5 44.5t53.5 137.5z" />
    <glyph glyph-name="i_x" unicode="ix" horiz-adv-x="1292" 
d="M1378 367q-28 -83 -63 -144t-72.5 -103t-76.5 -68t-76.5 -40t-71.5 -19t-62 -5q-49 0 -85.5 16t-64.5 50.5t-48.5 88t-38.5 127.5q-49 -55 -109.5 -106t-128 -90t-139 -62.5t-141.5 -23.5q-47 0 -86.5 14t-68.5 43.5t-45.5 75.5t-16.5 110q0 26 4 60t12 76l139 657h295
l-147 -696q-5 -17 -6.5 -33.5t-1.5 -32.5q0 -38 24 -56t66 -18q37 0 80.5 14.5t87 40t84.5 61t73 77.5l-116 643h288l80 -442q46 49 82.5 95.5t61.5 88.5t38 78t13 63v14t-2 11q-11 -2 -19 -3t-16 -1q-27 0 -45.5 9t-29.5 24.5t-16 36t-5 44.5q0 48 33 72.5t81 24.5
q34 0 60.5 -14.5t44 -39t26.5 -58t9 -71.5q0 -50 -17.5 -102.5t-53.5 -111t-91 -126t-131 -147.5l18 -102q6 -29 13 -60.5t19.5 -58.5t33 -44.5t55.5 -17.5q30 0 58.5 13.5t52.5 37.5t43 57.5t30 72.5h86zM506 1296q0 -34 -13 -63.5t-35.5 -51t-52 -34t-63.5 -12.5
t-63.5 12.5t-51.5 34t-34.5 51t-12.5 63.5t12.5 63.5t34.5 52t51.5 35.5t63.5 13t63.5 -13t52 -35.5t35.5 -52t13 -63.5z" />
    <glyph glyph-name="i_z" unicode="iz" horiz-adv-x="1305" 
d="M506 1296q0 -34 -13 -63.5t-35.5 -51t-52 -34t-63.5 -12.5t-63.5 12.5t-51.5 34t-34.5 51t-12.5 63.5t12.5 63.5t34.5 52t51.5 35.5t63.5 13t63.5 -13t52 -35.5t35.5 -52t13 -63.5zM139 1024h295l-147 -696q-5 -17 -6.5 -33.5t-1.5 -32.5q0 -43 20 -59.5t63 -16.5
q29 0 42 4t24 9q-4 -55 -24.5 -94.5t-51.5 -65.5t-70 -38.5t-79 -12.5q-46 0 -86 14t-69.5 44t-46.5 76t-17 111q0 28 4 61.5t12 72.5zM428 0l522 913h-114q-24 0 -44.5 -1t-36 -4t-24 -9.5t-8.5 -17.5q0 -5 3.5 -6t7.5 -4t7.5 -10t3.5 -25q0 -29 -9.5 -49.5t-25 -33.5
t-35 -19.5t-40.5 -6.5q-18 0 -34.5 6t-30 17t-21.5 28t-8 39q0 31 16.5 67.5t47 67.5t74.5 51.5t99 20.5h527l-502 -866q13 -1 31 -3t39 -4.5t42.5 -4t42.5 -1.5q38 0 65 8.5t32 32.5q-20 2 -29.5 14t-9.5 29q0 15 7.5 30.5t21.5 28t35.5 21t49.5 8.5q48 0 69.5 -28
t21.5 -70q0 -35 -17 -74t-49 -71t-78.5 -53t-105.5 -21h-543z" />
    <glyph glyph-name="iacute_x" unicode="&#xed;x" horiz-adv-x="1292" 
d="M1378 367q-28 -83 -63 -144t-72.5 -103t-76.5 -68t-76.5 -40t-71.5 -19t-62 -5q-49 0 -85.5 16t-64.5 50.5t-48.5 88t-38.5 127.5q-49 -55 -109.5 -106t-128 -90t-139 -62.5t-141.5 -23.5q-47 0 -86.5 14t-68.5 43.5t-45.5 75.5t-16.5 110q0 26 4 60t12 76l139 657h295
l-147 -696q-5 -17 -6.5 -33.5t-1.5 -32.5q0 -38 24 -56t66 -18q37 0 80.5 14.5t87 40t84.5 61t73 77.5l-116 643h288l80 -442q46 49 82.5 95.5t61.5 88.5t38 78t13 63v14t-2 11q-11 -2 -19 -3t-16 -1q-27 0 -45.5 9t-29.5 24.5t-16 36t-5 44.5q0 48 33 72.5t81 24.5
q34 0 60.5 -14.5t44 -39t26.5 -58t9 -71.5q0 -50 -17.5 -102.5t-53.5 -111t-91 -126t-131 -147.5l18 -102q6 -29 13 -60.5t19.5 -58.5t33 -44.5t55.5 -17.5q30 0 58.5 13.5t52.5 37.5t43 57.5t30 72.5h86zM229 1149l187 387h215l-248 -387h-154z" />
    <glyph glyph-name="iacute_z" unicode="&#xed;z" horiz-adv-x="1305" 
d="M139 1024h295l-147 -696q-5 -17 -6.5 -33.5t-1.5 -32.5q0 -43 20 -59.5t63 -16.5q29 0 42 4t24 9q-4 -55 -24.5 -94.5t-51.5 -65.5t-70 -38.5t-79 -12.5q-46 0 -86 14t-69.5 44t-46.5 76t-17 111q0 28 4 61.5t12 72.5zM428 0l522 913h-114q-24 0 -44.5 -1t-36 -4
t-24 -9.5t-8.5 -17.5q0 -5 3.5 -6t7.5 -4t7.5 -10t3.5 -25q0 -29 -9.5 -49.5t-25 -33.5t-35 -19.5t-40.5 -6.5q-18 0 -34.5 6t-30 17t-21.5 28t-8 39q0 31 16.5 67.5t47 67.5t74.5 51.5t99 20.5h527l-502 -866q13 -1 31 -3t39 -4.5t42.5 -4t42.5 -1.5q38 0 65 8.5t32 32.5
q-20 2 -29.5 14t-9.5 29q0 15 7.5 30.5t21.5 28t35.5 21t49.5 8.5q48 0 69.5 -28t21.5 -70q0 -35 -17 -74t-49 -71t-78.5 -53t-105.5 -21h-543zM227 1149l187 387h215l-248 -387h-154z" />
    <glyph glyph-name="j_x" unicode="jx" horiz-adv-x="1278" 
d="M1364 367q-29 -83 -63.5 -144t-72 -103t-77 -68t-76.5 -40t-71 -19t-62 -5q-49 0 -85.5 16t-64.5 50t-48.5 87t-38.5 127q-56 -62 -119 -107.5t-127.5 -78.5t-127 -56t-118.5 -40l-31 -150q-22 -110 -63.5 -178t-92 -106t-106 -51t-106.5 -13q-47 0 -88.5 12.5t-73 37
t-50 62t-18.5 87.5q0 65 30.5 113t79 83.5t108 60t118.5 42.5l219 1038h295l-201 -944q52 18 105.5 42.5t108.5 61t112.5 87.5t118.5 122l-115 631h289l80 -442q46 49 82 95.5t61 88.5t38 78t13 63v14t-2 11q-11 -2 -18.5 -3t-15.5 -1q-27 0 -45.5 9t-30 24.5t-16.5 36
t-5 44.5q0 48 33.5 72.5t81.5 24.5q34 0 60.5 -14.5t43.5 -39t26 -58t9 -71.5q0 -50 -17 -102.5t-53 -111t-91.5 -126t-131.5 -147.5l19 -102q6 -29 12.5 -60.5t19 -58.5t33.5 -44.5t56 -17.5q30 0 58 13.5t52 37.5t43 57.5t31 72.5h86zM487 1298q0 -34 -13 -63.5t-35 -51
t-51.5 -34t-63.5 -12.5t-63.5 12.5t-51.5 34t-34.5 51t-12.5 63.5t12.5 64t34.5 52t51.5 35t63.5 13t63.5 -13t51.5 -35t35 -52t13 -64zM-100 -109q-40 -14 -77 -31.5t-65 -39t-44.5 -48t-16.5 -57.5q0 -11 4 -23t13 -22t22 -16t31 -6q32 0 65 44.5t53 137.5z" />
    <glyph glyph-name="j_z" unicode="jz" horiz-adv-x="1266" 
d="M145 1024h297l-249 -1188q-23 -110 -65 -178t-94 -106t-108 -51t-106 -13q-46 0 -89.5 16t-77.5 45t-54.5 69.5t-20.5 90.5q0 72 28 121t76.5 83t113 57.5t138.5 45.5zM504 1298q0 -34 -13 -63.5t-35.5 -51t-52 -34t-63.5 -12.5t-63.5 12.5t-51.5 34t-34.5 51t-12.5 63.5
t12.5 64t34.5 52t51.5 35t63.5 13t63.5 -13t52 -35t35.5 -52t13 -64zM-80 -49q-49 -16 -91 -35.5t-72.5 -45t-48 -58t-17.5 -74.5q0 -12 6 -24t17 -21.5t26 -16t33 -6.5q16 0 33 7.5t33.5 26t30.5 49.5t24 77zM389 0l522 913h-114q-24 0 -44.5 -1t-36 -4t-24 -9.5
t-8.5 -17.5q0 -5 3.5 -6t8 -4t8 -10t3.5 -25q0 -29 -9.5 -49.5t-25.5 -33.5t-35.5 -19.5t-40.5 -6.5q-18 0 -34.5 6t-30 17t-21.5 28t-8 39q0 31 16.5 67.5t47 67.5t74.5 51.5t99 20.5h527l-502 -866q13 -1 31 -3t39 -4.5t43 -4t43 -1.5q37 0 64 8.5t32 32.5q-20 2 -29.5 14
t-9.5 29q0 15 7.5 30.5t21.5 28t35.5 21t50.5 8.5q47 0 68.5 -28.5t21.5 -69.5q0 -35 -17 -74t-49 -71t-78.5 -53t-105.5 -21h-543z" />
    <glyph glyph-name="l_x" unicode="lx" horiz-adv-x="1292" 
d="M1378 367q-28 -83 -63 -144t-72.5 -103t-76.5 -68t-76.5 -40t-71.5 -19t-62 -5q-49 0 -85.5 16t-64.5 50t-48.5 87t-38.5 127q-50 -56 -110.5 -106.5t-127 -89t-137.5 -61.5t-141 -23q-47 0 -86.5 14t-68.5 43.5t-45.5 75.5t-16.5 110q0 26 4 60t12 76l217 1026l303 41
l-233 -1106q-5 -17 -6.5 -33.5t-1.5 -32.5q0 -38 24 -56t66 -18q39 0 82 13.5t85.5 38.5t83 60.5t74.5 78.5l-118 645h288l80 -442q46 49 82.5 95.5t61.5 88.5t38 78t13 63v14t-2 11q-11 -2 -19 -3t-16 -1q-27 0 -45.5 9t-29.5 24.5t-16 36t-5 44.5q0 48 33 72.5t81 24.5
q34 0 60.5 -14.5t44 -39t26.5 -58t9 -71.5q0 -50 -17.5 -102.5t-53.5 -111t-91 -126t-131 -147.5l18 -102q6 -29 13 -60.5t19.5 -58.5t33 -44.5t55.5 -17.5q30 0 58.5 13.5t52.5 37.5t43 57.5t30 72.5h86z" />
    <glyph glyph-name="l_z" unicode="lz" horiz-adv-x="1300" 
d="M215 1397l303 41l-235 -1106q-5 -17 -7 -31.5t-2 -28.5q0 -35 18 -58.5t66 -23.5q29 0 42 4t24 9q-4 -55 -24.5 -95.5t-51.5 -67t-70 -39.5t-79 -13q-46 0 -86 14.5t-69.5 45t-46.5 77.5t-17 113q0 27 4 60.5t12 72.5zM424 0l522 913h-115q-24 0 -44.5 -1t-35.5 -4
t-23.5 -9.5t-8.5 -17.5q0 -5 3.5 -6t7.5 -4t7.5 -10t3.5 -25q0 -29 -9.5 -49.5t-25 -33.5t-35 -19.5t-40.5 -6.5q-18 0 -34.5 6t-30 17t-21.5 28t-8 39q0 31 16.5 67.5t47 67.5t74.5 51.5t99 20.5h526l-501 -866q13 -1 31 -3t39 -4.5t42.5 -4t42.5 -1.5q38 0 65 8.5t32 32.5
q-20 2 -29.5 14t-9.5 29q0 15 7.5 30.5t21.5 28t35.5 21t49.5 8.5q48 0 69.5 -28t21.5 -70q0 -35 -17 -74t-49 -71t-78.5 -53t-105.5 -21h-543z" />
    <glyph glyph-name="m_x" unicode="mx" horiz-adv-x="2302" 
d="M2388 367q-29 -83 -63.5 -144t-72 -103t-77 -68t-76.5 -40t-71 -19t-62 -5q-49 0 -86 16t-65 50.5t-49.5 88t-39.5 127.5q-53 -55 -116 -106t-128.5 -90t-129.5 -62.5t-119 -23.5q-67 0 -111 19.5t-70.5 52t-37 74t-10.5 85.5q0 52 14.5 121.5t31.5 142.5t31.5 141
t14.5 117q0 105 -74 105q-28 0 -52 -15t-44 -40.5t-36 -60t-28 -73.5l-139 -657h-295l150 707q6 24 6 51q0 18 -3 34t-10.5 28.5t-19 20t-29.5 7.5q-30 0 -55.5 -15t-46 -41t-36.5 -61t-28 -74l-139 -657h-295l217 1024h295l-22 -106q33 37 66 59.5t65 35t62 17t57 4.5
q40 0 75 -9.5t62 -30.5t46 -54.5t27 -81.5q37 57 76 91.5t76 52.5t71 24t62 6q49 0 90.5 -13t72 -41t47.5 -72t17 -105q0 -41 -7.5 -88.5t-18 -97t-23.5 -98.5t-23.5 -94t-18 -83.5t-7.5 -67.5q0 -38 21 -62t69 -24q35 0 78 14.5t87.5 40.5t86.5 62t76 78l-117 643h289
l80 -442q46 49 82 95.5t61 88.5t38 78t13 63v14t-2 11q-11 -2 -18.5 -3t-15.5 -1q-27 0 -45.5 9t-30 24.5t-16.5 36t-5 44.5q0 48 33.5 72.5t81.5 24.5q34 0 60.5 -14.5t43.5 -39t26 -58t9 -71.5q0 -50 -17 -102.5t-53 -111t-91.5 -126t-131.5 -147.5l19 -102
q6 -29 12.5 -60.5t19 -58.5t33.5 -44.5t56 -17.5q30 0 58 13.5t52 37.5t43 57.5t31 72.5h86z" />
    <glyph glyph-name="m_z" unicode="mz" horiz-adv-x="2304" 
d="M428 0l150 707q6 24 6 51q0 18 -3 34t-10.5 28.5t-19 20t-29.5 7.5q-30 0 -55.5 -15t-46 -41t-36.5 -61t-28 -74l-139 -657h-295l217 1024h295l-22 -106q33 37 66 59.5t65 35t62 17t57 4.5q40 0 75 -9.5t62 -30.5t46 -54.5t27 -81.5q37 57 76 91.5t76 52.5t71 24t62 6
q49 0 90.5 -13t72 -41t47.5 -72t17 -105q0 -41 -7.5 -88.5t-18 -97t-23.5 -98.5t-23.5 -94t-18 -83.5t-7.5 -67.5q0 -38 17.5 -62t64.5 -24q49 0 68 13q-7 -56 -28 -95.5t-51.5 -65.5t-68 -38t-78.5 -12q-59 0 -98.5 19.5t-63.5 52t-34 74t-10 85.5q0 52 14.5 121.5
t31.5 142.5t31.5 141t14.5 117q0 105 -74 105q-28 0 -52 -15t-44 -40.5t-36 -60t-28 -73.5l-139 -657h-295zM1427 0l523 913h-115q-24 0 -44.5 -1t-35.5 -4t-24 -9.5t-9 -17.5q0 -5 3.5 -6t8 -4t8 -10t3.5 -25q0 -29 -9.5 -49.5t-25 -33.5t-35.5 -19.5t-41 -6.5
q-18 0 -34.5 6t-30 17t-21.5 28t-8 39q0 31 16.5 67.5t47 67.5t74.5 51.5t100 20.5h526l-502 -866q13 -1 31.5 -3t39 -4.5t42.5 -4t43 -1.5q37 0 64 8.5t32 32.5q-20 2 -29.5 14t-9.5 29q0 15 7.5 30.5t21.5 28t35.5 21t50.5 8.5q47 0 68.5 -28.5t21.5 -69.5q0 -35 -17 -74
t-49 -71t-78.5 -53t-105.5 -21h-543z" />
    <glyph glyph-name="n_z" unicode="nz" horiz-adv-x="1806" 
d="M-78 0l217 1024h295l-22 -106q33 37 65.5 59.5t63.5 34.5t58.5 16t51.5 4q49 0 91 -13t72.5 -41t47.5 -72t17 -105q0 -41 -7.5 -88.5t-18.5 -97t-23.5 -98.5t-23.5 -94t-18.5 -83.5t-7.5 -67.5q0 -38 17.5 -62t64.5 -24q51 0 68 13q-7 -56 -28 -95.5t-51 -65.5t-68 -38
t-78 -12q-59 0 -99 19.5t-64 52t-34 74t-10 85.5q0 52 14.5 121.5t31.5 142.5t31.5 141t14.5 117q0 105 -74 105q-28 0 -52 -15t-44 -40.5t-36 -60t-28 -73.5l-139 -657h-295zM930 0l522 913h-115q-24 0 -44.5 -1t-35.5 -4t-23.5 -9.5t-8.5 -17.5q0 -5 3.5 -6t7.5 -4
t7.5 -10t3.5 -25q0 -29 -9.5 -49.5t-25 -33.5t-35 -19.5t-40.5 -6.5q-18 0 -35 6t-30.5 17t-21.5 28t-8 39q0 31 16.5 67.5t47.5 67.5t75 51.5t99 20.5h526l-501 -866q26 -2 69.5 -7.5t85.5 -5.5q37 0 64 8.5t32 32.5q-20 2 -29 14t-9 29q0 15 7 30.5t21.5 28t35.5 21
t50 8.5q48 0 69 -28t21 -70q0 -35 -17 -74t-49 -71t-78 -53t-105 -21h-543z" />
    <glyph glyph-name="o_ae" unicode="o&#xe6;" horiz-adv-x="2230" 
d="M2300 367q-43 -69 -97.5 -137t-123.5 -122t-154.5 -87t-189.5 -33q-56 0 -104.5 11t-87.5 35t-66.5 61t-42.5 89q-19 -36 -44 -71t-59 -63t-77.5 -45t-98.5 -17q-52 0 -101 11t-87 41t-61 82t-23 134q0 94 34.5 159t96.5 104.5t148 57t188 17.5q31 0 54 -1.5t40 -6.5
q20 45 32.5 93t12.5 91q0 30 -7 56t-23.5 45.5t-43 30.5t-65.5 11q-59 0 -103 -13.5t-82 -35.5t-74 -50.5t-79 -58.5t-96 -60t-125 -54q-9 -150 -49.5 -270t-105.5 -204t-150.5 -129.5t-182.5 -45.5q-71 0 -131.5 17.5t-104 56t-68 100t-24.5 149.5q0 60 12 136.5
t38.5 157.5t69 158.5t104.5 138.5t144 98.5t187 37.5q253 0 263 -309q62 24 112 56t94.5 65.5t86.5 65.5t88.5 57.5t100.5 41t122 15.5q105 0 179.5 -19.5t125.5 -64.5q54 38 121.5 61t148.5 23q68 0 111.5 -15t68 -41.5t34 -62t9.5 -75.5q0 -86 -39 -161t-104.5 -132
t-150.5 -92t-177 -41q-2 -17 -3 -33t-1 -33q0 -57 9 -93.5t25 -57.5t38.5 -29t50.5 -8q75 0 128.5 15t97 42t81 65t80.5 85h70zM616 604q-29 6 -42 31t-13 67q0 44 17.5 71t46.5 38q-5 60 -23 83.5t-55 23.5t-70.5 -28.5t-63 -75.5t-54 -107.5t-42 -124.5t-27 -126.5
t-9.5 -113.5t5.5 -83t17.5 -50.5t32 -25.5t49 -7q37 0 74 33t68.5 90.5t55 135.5t33.5 169zM1739 512q59 4 113 33.5t95.5 75.5t66 104t24.5 119q0 43 -10 66.5t-39 23.5q-41 0 -79 -38t-70.5 -99t-58.5 -136t-42 -149zM1430 467q-11 0 -22 1t-22 1q-40 0 -78.5 -11
t-69 -33.5t-49 -58t-18.5 -83.5q0 -32 11 -51.5t27.5 -29.5t34.5 -13t32 -3q19 0 40.5 13t42 45t39 86t32.5 137z" />
    <glyph glyph-name="o_s" unicode="os" horiz-adv-x="1610" 
d="M1696 367q-73 -85 -146 -141.5t-139 -98.5q-27 -39 -61.5 -65.5t-73.5 -43t-81.5 -23.5t-84.5 -7q-92 0 -147.5 25t-86.5 64t-41 87.5t-10 95.5q0 45 13 81.5t34 61.5t47.5 38.5t53.5 13.5q106 0 106 -86q0 -38 -28 -65.5t-70 -27.5q-17 0 -32 5t-23 22q0 -72 29 -112.5
t89 -40.5q34 0 58.5 9.5t40.5 31.5t23.5 58.5t7.5 90.5q0 28 -2 54t-5 56.5t-7.5 68.5t-9.5 90.5t-10.5 122.5t-11.5 165q-75 -116 -161 -185t-183 -98q-10 -144 -51.5 -259.5t-106.5 -196t-149 -123.5t-178 -43q-71 0 -131.5 17.5t-104 56t-68 100t-24.5 149.5
q0 60 12 136.5t38.5 157.5t69 158.5t104 138.5t143.5 98.5t188 37.5q259 0 262 -321q79 5 162.5 89t171.5 237l303 40q6 -133 11.5 -230.5t10.5 -169t9 -121.5t7.5 -88.5t5 -70t1.5 -65.5q0 -42 -6 -76q42 23 79.5 50.5t66.5 50.5h86zM612 600q-49 18 -49 92q0 79 58 107
q-5 66 -22.5 92.5t-55.5 26.5q-36 0 -70 -28.5t-64 -75.5t-54.5 -107.5t-42 -124.5t-27 -126.5t-9.5 -113.5t5.5 -83t18 -50.5t32.5 -25.5t49 -7q37 0 73.5 32.5t67.5 89.5t54.5 134.5t35.5 167.5z" />
    <glyph glyph-name="o_s_x" unicode="osx" horiz-adv-x="2318" 
d="M2404 367q-29 -83 -63.5 -144t-72 -103t-76.5 -68t-76.5 -40t-71.5 -19t-62 -5q-52 0 -89.5 17.5t-65.5 54t-49 94t-39 137.5q-39 -27 -83.5 -50.5t-88 -44.5t-84.5 -39t-74 -34q-27 -37 -61.5 -62.5t-73 -41.5t-80 -23.5t-82.5 -7.5q-92 0 -147.5 25t-86.5 64t-41 87.5
t-10 95.5q0 45 13 81.5t34 61.5t47.5 38.5t53.5 13.5q106 0 106 -86q0 -38 -28 -65.5t-70 -27.5q-17 0 -32 5t-23 22q0 -72 29.5 -112.5t89.5 -40.5q34 0 58 9.5t40 31.5t23.5 58.5t7.5 90.5q0 28 -2 54t-5 56.5t-7.5 68.5t-9.5 90.5t-10.5 122.5t-11.5 165
q-75 -116 -161 -185t-183 -98q-10 -144 -51.5 -259.5t-106.5 -196t-149 -123.5t-178 -43q-71 0 -131.5 17.5t-104 56t-68 100t-24.5 149.5q0 60 12 136.5t38.5 157.5t69 158.5t104 138.5t143.5 98.5t188 37.5q259 0 263 -321q78 5 161.5 89t171.5 237l303 40
q6 -133 11.5 -230.5t10.5 -169t9.5 -121.5t7.5 -88.5t5 -70t2 -65.5q0 -50 -9 -90q31 13 65 29.5t67 35t64 39.5t58 43l-114 625h288l80 -442q46 49 82.5 95.5t61.5 88.5t38 78t13 63v14t-2 11q-11 -2 -19 -3t-16 -1q-27 0 -45.5 9t-29.5 24.5t-16 36t-5 44.5q0 48 33 72.5
t81 24.5q35 0 61 -14.5t43.5 -39t26.5 -58t9 -71.5q0 -50 -17 -102.5t-53 -111t-91.5 -126t-131.5 -147.5l18 -102q6 -29 13 -60.5t19.5 -58.5t33 -44.5t55.5 -17.5q30 0 58.5 13.5t52.5 37.5t43 57.5t30 72.5h86zM614 600q-49 18 -49 92q0 79 58 107q-5 66 -22.5 92.5
t-55.5 26.5q-37 0 -70.5 -28.5t-63 -75.5t-54 -107.5t-42 -124.5t-27 -126.5t-9.5 -113.5t5.5 -83t17.5 -50.5t32 -25.5t49 -7q37 0 73.5 32.5t67.5 89.5t54.5 134.5t35.5 167.5z" />
    <glyph glyph-name="o_s_z" unicode="osz" horiz-adv-x="2333" 
d="M1425 1087q6 -133 11.5 -230.5t10.5 -169t9 -121.5t7.5 -88.5t5 -70t1.5 -65.5q0 -101 -32.5 -168.5t-84.5 -109t-116 -59t-127 -17.5q-92 0 -147.5 25t-86.5 64t-41 87.5t-10 95.5q0 45 13 81.5t34 61.5t47.5 38.5t53.5 13.5q106 0 106 -86q0 -38 -28 -65.5t-70 -27.5
q-17 0 -32 5t-23 22q0 -72 29 -112.5t89 -40.5q34 0 58.5 9.5t40.5 31.5t23.5 58.5t7.5 90.5q0 28 -2 54t-5 56.5t-7.5 68.5t-9.5 90.5t-10.5 122.5t-11.5 165q-75 -116 -161 -185t-183 -98q-10 -144 -51.5 -259.5t-106.5 -196t-149 -123.5t-178 -43q-71 0 -131.5 17.5
t-104 56t-68 100t-24.5 149.5q0 60 12 136.5t38.5 157.5t69 158.5t104 138.5t143.5 98.5t188 37.5q259 0 262 -321q79 5 162.5 89t171.5 237zM612 600q-49 18 -49 92q0 79 58 107q-5 66 -22.5 92.5t-55.5 26.5q-36 0 -70 -28.5t-64 -75.5t-54.5 -107.5t-42 -124.5
t-27 -126.5t-9.5 -113.5t5.5 -83t18 -50.5t32.5 -25.5t49 -7q37 0 73.5 32.5t67.5 89.5t54.5 134.5t35.5 167.5zM1456 0l522 913h-114q-24 0 -44.5 -1t-36 -4t-24 -9.5t-8.5 -17.5q0 -5 3.5 -6t8 -4t8 -10t3.5 -25q0 -29 -9.5 -49.5t-25.5 -33.5t-35.5 -19.5t-40.5 -6.5
q-18 0 -34.5 6t-30 17t-21.5 28t-8 39q0 31 16.5 67.5t47 67.5t74.5 51.5t99 20.5h527l-502 -866q13 -1 31 -3t39 -4.5t43 -4t43 -1.5q37 0 64 8.5t32 32.5q-20 2 -29.5 14t-9.5 29q0 15 7.5 30.5t21.5 28t35.5 21t50.5 8.5q47 0 68.5 -28.5t21.5 -69.5q0 -35 -17 -74
t-49 -71t-78.5 -53t-105.5 -21h-543z" />
    <glyph glyph-name="o_x" unicode="ox" horiz-adv-x="1743" 
d="M1827 367q-29 -83 -63.5 -144t-72 -103t-77 -68t-76.5 -40t-71 -19t-62 -5q-56 0 -96.5 21.5t-70.5 67t-51.5 117.5t-39.5 173l-4 14q-35 -25 -68.5 -52t-59.5 -56t-41.5 -59.5t-15.5 -61.5q5 2 12 2h15q27 0 43.5 -9t25.5 -23.5t12 -32.5t3 -36q0 -60 -32 -86t-83 -26
q-69 0 -102 39.5t-33 105.5q0 51 26.5 107.5t69.5 111.5t97.5 104.5t109.5 86.5l-57 317q-127 -151 -277 -197q-12 -144 -55 -259.5t-108 -196.5t-149.5 -124.5t-178.5 -43.5q-72 0 -132 17.5t-103.5 56t-68 100t-24.5 149.5q0 60 12.5 136.5t40 157.5t71 158.5t106 138.5
t144.5 98.5t187 37.5q260 0 263 -321q60 6 122.5 59t128.5 146l-18 98h289l74 -406q97 87 148.5 158t51.5 131v14t-2 11q-11 -2 -19 -3t-16 -1q-27 0 -45 9t-29.5 24.5t-16.5 36t-5 44.5q0 48 33.5 72.5t81.5 24.5q34 0 60.5 -14.5t43.5 -39t26 -58t9 -71.5q0 -51 -17 -102
t-53.5 -106t-93 -115.5t-135.5 -130.5l25 -135q6 -29 12.5 -60.5t19 -58.5t33 -44.5t55.5 -17.5q30 0 58.5 13.5t52.5 37.5t43 57.5t31 72.5h86zM616 600q-55 15 -55 92q0 44 17.5 71t46.5 38q-5 66 -22.5 91.5t-55.5 25.5q-37 0 -71 -28.5t-64.5 -75.5t-56 -107.5
t-43.5 -124.5t-28 -126.5t-10 -113.5t5.5 -83t18 -50.5t32.5 -25.5t49 -7q37 0 74.5 32.5t69.5 89.5t56.5 134.5t36.5 167.5z" />
    <glyph glyph-name="oacute_s" unicode="&#xf3;s" horiz-adv-x="1612" 
d="M449 1149l186 387h215l-248 -387h-153zM1698 367q-72 -85 -145.5 -141.5t-139.5 -98.5q-27 -39 -61.5 -65.5t-73.5 -43t-81.5 -23.5t-84.5 -7q-92 0 -147.5 25t-86.5 64t-41 87.5t-10 95.5q0 45 13 81.5t34 61.5t47.5 38.5t53.5 13.5q106 0 106 -86q0 -38 -28 -65.5
t-70 -27.5q-17 0 -32 5t-23 22q0 -72 29.5 -112.5t89.5 -40.5q34 0 58 9.5t40 31.5t23.5 58.5t7.5 90.5q0 28 -2 54t-5 56.5t-7.5 68.5t-9.5 90.5t-10.5 122.5t-11.5 165q-75 -116 -161 -185t-183 -98q-10 -144 -51.5 -259.5t-106.5 -196t-149 -123.5t-178 -43
q-71 0 -131.5 17.5t-104 56t-68 100t-24.5 149.5q0 60 12 136.5t38.5 157.5t69 158.5t104 138.5t143.5 98.5t188 37.5q259 0 263 -321q78 5 161.5 89t171.5 237l303 40q6 -133 11.5 -230.5t10.5 -169t9.5 -121.5t7.5 -88.5t5 -70t2 -65.5q0 -22 -2 -40.5t-5 -35.5
q42 23 79.5 50.5t66.5 50.5h86zM614 600q-49 18 -49 92q0 79 58 107q-5 66 -22.5 92.5t-55.5 26.5q-37 0 -70.5 -28.5t-63 -75.5t-54 -107.5t-42 -124.5t-27 -126.5t-9.5 -113.5t5.5 -83t17.5 -50.5t32 -25.5t49 -7q37 0 73.5 32.5t67.5 89.5t54.5 134.5t35.5 167.5z" />
    <glyph glyph-name="oacute_s_x" unicode="&#xf3;sx" horiz-adv-x="2337" 
d="M1430 1087q5 -133 10.5 -230.5t10.5 -169t9.5 -121.5t7.5 -88.5t5 -70t2 -65.5q0 -101 -33 -168.5t-84.5 -109t-116 -59t-127.5 -17.5q-92 0 -147.5 25t-86.5 64t-41 87.5t-10 95.5q0 45 13 81.5t34 61.5t47.5 38.5t53.5 13.5q106 0 106 -86q0 -38 -28 -65.5t-70 -27.5
q-17 0 -32 5t-23 22q0 -72 29.5 -112.5t89.5 -40.5q34 0 58 9.5t40 31.5t23.5 58.5t7.5 90.5q0 28 -2 54t-5 56.5t-7.5 68.5t-9.5 90.5t-10.5 122.5t-10.5 165q-76 -116 -161.5 -185t-183.5 -98q-10 -144 -51.5 -259.5t-106.5 -196t-149 -123.5t-178 -43q-71 0 -131.5 17.5
t-104 56t-68 100t-24.5 149.5q0 60 12 136.5t38.5 157.5t69 158.5t104.5 138.5t144 98.5t187 37.5q260 0 263 -321q78 5 161.5 89t171.5 237zM616 600q-49 18 -49 92q0 79 58 107q-5 66 -22.5 92.5t-55.5 26.5q-37 0 -70.5 -28.5t-63 -75.5t-54 -107.5t-42 -124.5
t-27 -126.5t-9.5 -113.5t5.5 -83t17.5 -50.5t32 -25.5t49 -7q37 0 73.5 32.5t67.5 89.5t54.5 134.5t35.5 167.5zM1460 0l522 913h-114q-24 0 -44.5 -1t-36 -4t-24 -9.5t-8.5 -17.5q0 -5 3.5 -6t8 -4t8 -10t3.5 -25q0 -29 -9.5 -49.5t-25.5 -33.5t-35.5 -19.5t-40.5 -6.5
q-18 0 -34.5 6t-30 17t-21.5 28t-8 39q0 31 16.5 67.5t47 67.5t74.5 51.5t99 20.5h527l-502 -866q13 -1 31 -3t39 -4.5t43 -4t43 -1.5q37 0 64 8.5t32 32.5q-20 2 -29.5 14t-9.5 29q0 15 7.5 30.5t21.5 28t35.5 21t50.5 8.5q47 0 68.5 -28.5t21.5 -69.5q0 -35 -17 -74
t-49 -71t-78.5 -53t-105.5 -21h-543zM451 1149l186 387h215l-248 -387h-153z" />
    <glyph glyph-name="oacute_s_z" unicode="&#xf3;sz" horiz-adv-x="2335" 
d="M1427 1087q6 -133 11.5 -230.5t10.5 -169t9.5 -121.5t7.5 -88.5t5 -70t2 -65.5q0 -101 -33 -168.5t-84.5 -109t-116 -59t-127.5 -17.5q-92 0 -147.5 25t-86.5 64t-41 87.5t-10 95.5q0 45 13 81.5t34 61.5t47.5 38.5t53.5 13.5q106 0 106 -86q0 -38 -28 -65.5t-70 -27.5
q-17 0 -32 5t-23 22q0 -72 29.5 -112.5t89.5 -40.5q34 0 58 9.5t40 31.5t23.5 58.5t7.5 90.5q0 28 -2 54t-5 56.5t-7.5 68.5t-9.5 90.5t-10.5 122.5t-11.5 165q-75 -116 -161 -185t-183 -98q-10 -144 -51.5 -259.5t-106.5 -196t-149 -123.5t-178 -43q-71 0 -131.5 17.5
t-104 56t-68 100t-24.5 149.5q0 60 12 136.5t38.5 157.5t69 158.5t104 138.5t143.5 98.5t188 37.5q259 0 263 -321q78 5 161.5 89t171.5 237zM614 600q-49 18 -49 92q0 79 58 107q-5 66 -22.5 92.5t-55.5 26.5q-37 0 -70.5 -28.5t-63 -75.5t-54 -107.5t-42 -124.5
t-27 -126.5t-9.5 -113.5t5.5 -83t17.5 -50.5t32 -25.5t49 -7q37 0 73.5 32.5t67.5 89.5t54.5 134.5t35.5 167.5zM1458 0l522 913h-114q-24 0 -44.5 -1t-36 -4t-24 -9.5t-8.5 -17.5q0 -5 3.5 -6t8 -4t8 -10t3.5 -25q0 -29 -9.5 -49.5t-25.5 -33.5t-35.5 -19.5t-40.5 -6.5
q-18 0 -34.5 6t-30 17t-21.5 28t-8 39q0 31 16.5 67.5t47 67.5t74.5 51.5t99 20.5h527l-502 -866q13 -1 31 -3t39 -4.5t43 -4t43 -1.5q37 0 64 8.5t32 32.5q-20 2 -29.5 14t-9.5 29q0 15 7.5 30.5t21.5 28t35.5 21t50.5 8.5q47 0 68.5 -28.5t21.5 -69.5q0 -35 -17 -74
t-49 -71t-78.5 -53t-105.5 -21h-543zM449 1149l186 387h215l-248 -387h-153z" />
    <glyph glyph-name="oacute_x" unicode="&#xf3;x" horiz-adv-x="1745" 
d="M1829 367q-29 -83 -63.5 -144t-72 -103t-77 -68t-76.5 -40t-71 -19t-62 -5q-56 0 -96.5 21.5t-70.5 67t-51.5 117.5t-39.5 173l-4 14q-35 -25 -68.5 -52t-59 -56t-41 -59.5t-15.5 -61.5q5 2 11.5 2h14.5q27 0 43.5 -9t25.5 -23.5t12 -32.5t3 -36q0 -60 -32 -86t-83 -26
q-69 0 -102 39.5t-33 105.5q0 51 26.5 107.5t69.5 111.5t97.5 104.5t109.5 86.5l-57 317q-127 -151 -276 -197q-12 -144 -55 -259.5t-108.5 -196.5t-150 -124.5t-178.5 -43.5q-71 0 -131.5 17.5t-104 56t-68 100t-24.5 149.5q0 60 12.5 136.5t40 157.5t71 158.5t106 138.5
t144.5 98.5t187 37.5q260 0 263 -321q60 6 122.5 59t129.5 146l-19 98h289l74 -406q97 87 148.5 158t51.5 131v14t-2 11q-11 -2 -19 -3t-16 -1q-27 0 -45 9t-29.5 24.5t-16.5 36t-5 44.5q0 48 33.5 72.5t81.5 24.5q34 0 60.5 -14.5t43.5 -39t26 -58t9 -71.5q0 -51 -17 -102
t-53.5 -106t-93 -115.5t-135.5 -130.5l25 -135q6 -29 12.5 -60.5t19 -58.5t33.5 -44.5t56 -17.5q30 0 58 13.5t52 37.5t43 57.5t31 72.5h86zM618 600q-55 15 -55 92q0 44 17.5 71t46.5 38q-5 66 -22.5 91.5t-55.5 25.5q-37 0 -71 -28.5t-64.5 -75.5t-56 -107.5t-43.5 -124.5
t-28 -126.5t-10 -113.5t5.5 -83t18 -50.5t32.5 -25.5t49 -7q37 0 74.5 32.5t69.5 89.5t56.5 134.5t36.5 167.5zM446 1149l187 387h215l-248 -387h-154z" />
    <glyph glyph-name="r_x" unicode="rx" horiz-adv-x="1606" 
d="M1692 367q-43 -125 -98.5 -200t-112.5 -115t-111 -52t-94 -12q-56 0 -96 21.5t-70 67t-53 117.5t-45 173l-4 14q-36 -25 -69 -52t-59 -56t-41.5 -59.5t-15.5 -61.5q5 2 12 2h15q27 0 43.5 -9t25.5 -23.5t12 -32.5t3 -36q0 -60 -32 -86t-83 -26q-69 0 -102 39.5t-33 105.5
q0 52 26 108t68 110t95.5 102.5t109.5 85.5l-119 532h289l92 -414q99 91 154 164t55 133v14t-2 11q-11 -2 -19 -3t-16 -1q-27 0 -45 9t-29.5 24.5t-16.5 36t-5 44.5q0 48 33.5 72.5t81.5 24.5q34 0 60.5 -14.5t43.5 -39t26 -58t9 -71.5q0 -51 -17.5 -102t-54.5 -106
t-94.5 -116.5t-138.5 -133.5l30 -131q6 -29 13 -60.5t20 -58.5t33.5 -44.5t54.5 -17.5q30 0 58.5 13.5t52.5 37.5t43 57.5t31 72.5h86zM-78 0l217 1024h295l-26 -127q27 24 55 47t58.5 40.5t63.5 28.5t70 11q35 0 61.5 -13t44.5 -34t27 -49t9 -58q0 -27 -9 -53.5
t-27.5 -47.5t-46.5 -34.5t-65 -13.5q-29 0 -44.5 10t-23.5 25t-11.5 32.5t-7.5 32.5t-10.5 25t-21.5 10q-47 0 -79 -21.5t-70 -56.5l-164 -778h-295z" />
    <glyph glyph-name="r_z" unicode="rz" horiz-adv-x="1339" 
d="M463 0l520 907h-190q2 -5 2 -12v-18q0 -33 -10 -61.5t-28.5 -49.5t-46 -33t-61.5 -12q-29 0 -44.5 10t-23.5 25t-11.5 32.5t-7.5 32.5t-10.5 25t-21.5 10q-47 0 -79 -21.5t-70 -56.5l-164 -778h-295l217 1024h295l-26 -127q27 24 55 47t58.5 40.5t63.5 28.5t70 11h684
l-501 -866q28 0 52.5 -4t46.5 -8.5t43.5 -8.5t43.5 -4q25 0 42 11t24 42q-20 2 -29.5 14t-9.5 29q0 15 7.5 30.5t21.5 28t35.5 21t49.5 8.5q48 0 69 -28t21 -70q0 -35 -17 -74t-49 -71t-78 -53t-105 -21h-543z" />
    <glyph glyph-name="s_x" unicode="sx" horiz-adv-x="1489" 
d="M1575 367q-29 -83 -63.5 -144t-72 -103t-77 -68t-76.5 -40t-71 -19t-62 -5q-52 0 -90 17.5t-66 54t-49 94t-39 137.5q-42 -30 -91 -55.5t-97 -47.5t-91.5 -41t-74.5 -36q-32 -34 -71.5 -57.5t-82 -38t-86 -21t-82.5 -6.5q-77 0 -133.5 23.5t-93.5 61t-54.5 84t-17.5 93.5
q0 36 9.5 66.5t24.5 54.5t34.5 41.5t40.5 27.5q86 154 145 304.5t107 302.5l303 40q6 -133 11.5 -230.5t10.5 -169t9 -121.5t7.5 -88.5t5 -70t1.5 -65.5q0 -23 -2.5 -46t-7.5 -46q63 26 132.5 64t123.5 85l-115 625h289l80 -442q46 49 82 95.5t61 88.5t38 78t13 63v14t-2 11
q-11 -2 -19 -3t-16 -1q-27 0 -45 9t-29.5 24.5t-16.5 36t-5 44.5q0 48 33.5 72.5t81.5 24.5q34 0 60.5 -14.5t43.5 -39t26 -58t9 -71.5q0 -50 -17 -102.5t-53 -111t-91.5 -126t-131.5 -147.5l19 -102q6 -29 12.5 -60.5t19 -58.5t33.5 -44.5t56 -17.5q30 0 58 13.5t52 37.5
t43 57.5t31 72.5h86zM43 293q0 -72 28.5 -107.5t96.5 -35.5q34 0 66 9.5t57 32t40 58.5t15 90q0 26 -1.5 50.5t-3.5 52t-5.5 61.5t-8 79t-9.5 104t-11 138q-31 -100 -73 -194t-93 -193q20 -11 33.5 -28t13.5 -43q0 -19 -6 -37t-18 -32.5t-28.5 -23t-37.5 -8.5q-17 0 -32 5
t-23 22z" />
    <glyph glyph-name="s_z" unicode="sz" horiz-adv-x="1524" 
d="M598 1087q6 -133 11.5 -230.5t10.5 -169t9 -121.5t7.5 -88.5t5 -70t1.5 -65.5q0 -67 -18.5 -119.5t-50 -91.5t-73 -66.5t-87 -44.5t-92.5 -24.5t-89 -7.5q-77 0 -133.5 23.5t-93.5 61t-54.5 84t-17.5 93.5q0 36 9.5 66.5t24.5 54.5t34.5 41.5t40.5 27.5q86 154 145 304.5
t107 302.5zM43 293q0 -72 28.5 -107.5t96.5 -35.5q34 0 66 9.5t57 32t40 58.5t15 90q0 26 -1.5 50.5t-3.5 52t-5.5 61.5t-8 79t-9.5 104t-11 138q-31 -100 -73 -194t-93 -193q20 -11 33.5 -28t13.5 -43q0 -19 -6 -37t-18 -32.5t-28.5 -23t-37.5 -8.5q-17 0 -32 5t-23 22z
M647 0l522 913h-114q-24 0 -44.5 -1t-36 -4t-24 -9.5t-8.5 -17.5q0 -5 3.5 -6t8 -4t8 -10t3.5 -25q0 -29 -9.5 -49.5t-25.5 -33.5t-35.5 -19.5t-40.5 -6.5q-18 0 -34.5 6t-30 17t-21.5 28t-8 39q0 31 16.5 67.5t47 67.5t74.5 51.5t99 20.5h527l-502 -866q13 -1 31 -3
t39 -4.5t43 -4t43 -1.5q37 0 64 8.5t32 32.5q-20 2 -29.5 14t-9.5 29q0 15 7.5 30.5t21.5 28t35.5 21t50.5 8.5q47 0 68.5 -28.5t21.5 -69.5q0 -35 -17 -74t-49 -71t-78.5 -53t-105.5 -21h-543z" />
    <glyph glyph-name="t_x" unicode="tx" horiz-adv-x="1292" 
d="M1378 367q-28 -83 -63 -144t-72.5 -103t-76.5 -68t-76.5 -40t-71.5 -19t-62 -5q-49 0 -85.5 16t-64.5 50t-48.5 87t-38.5 127q-50 -56 -110.5 -106.5t-127 -89t-137.5 -61.5t-141 -23q-47 0 -86.5 14t-68.5 43.5t-45.5 75.5t-16.5 110q0 26 4 60t12 76l123 575h-68l17 82
h67l62 283l303 41l-70 -324h430l80 -442q46 49 82.5 95.5t61.5 88.5t38 78t13 63v14t-2 11q-11 -2 -19 -3t-16 -1q-27 0 -45.5 9t-29.5 24.5t-16 36t-5 44.5q0 48 33 72.5t81 24.5q34 0 60.5 -14.5t44 -39t26.5 -58t9 -71.5q0 -50 -17.5 -102.5t-53.5 -111t-91 -126
t-131 -147.5l18 -102q6 -29 13 -60.5t19.5 -58.5t33 -44.5t55.5 -17.5q30 0 58.5 13.5t52.5 37.5t43 57.5t30 72.5h86zM592 942h-172l-131 -614q-5 -17 -6.5 -33.5t-1.5 -32.5q0 -38 24 -56t66 -18q39 0 82 13.5t85.5 38.5t83 60.5t74.5 78.5z" />
    <glyph glyph-name="t_z" unicode="tz" horiz-adv-x="1442" 
d="M131 942h-68l17 82h67l62 283l303 41q-5 -20 -10 -43.5t-10 -49.5q-11 -43 -23.5 -102.5t-26.5 -128.5h123l-16 -82h-123l-131 -614q-5 -20 -7.5 -38.5t-2.5 -33.5q0 -32 14.5 -53t56.5 -21q11 0 26 0.5t28 5.5q-23 -66 -50 -105.5t-55 -60.5t-56.5 -27.5t-55.5 -6.5
q-55 0 -94 17.5t-63.5 48.5t-36 73.5t-11.5 91.5q0 53 12 109zM565 0l522 913h-114q-24 0 -44.5 -1t-36 -4t-24 -9.5t-8.5 -17.5q0 -5 3.5 -6t8 -4t8 -10t3.5 -25q0 -29 -9.5 -49.5t-25.5 -33.5t-35.5 -19.5t-40.5 -6.5q-18 0 -34.5 6t-30 17t-21.5 28t-8 39q0 31 16.5 67.5
t47 67.5t74.5 51.5t99 20.5h527l-502 -866q13 -1 31 -3t39 -4.5t43 -4t43 -1.5q37 0 64 8.5t32 32.5q-20 2 -29.5 14t-9.5 29q0 15 7.5 30.5t21.5 28t35.5 21t50.5 8.5q47 0 68.5 -28.5t21.5 -69.5q0 -35 -17 -74t-49 -71t-78.5 -53t-105.5 -21h-543z" />
    <glyph glyph-name="u_v" unicode="uv" horiz-adv-x="1890" 
d="M428 0l23 104q-33 -37 -66 -59.5t-64.5 -35t-61 -17t-56.5 -4.5q-46 0 -86 14t-69.5 44t-46.5 76t-17 111q0 28 4 61.5t12 72.5l139 657h295l-147 -696q-6 -26 -6 -52q0 -18 3 -34t10 -28.5t18.5 -20t29.5 -7.5q30 0 55 13.5t45.5 37.5t36 57.5t27.5 72.5l139 657h293
l-217 -1024h-293zM1724 858q-19 -8 -43 -8q-22 0 -38.5 10t-27 26t-15.5 36.5t-5 42.5q0 16 9 33.5t24.5 32.5t37 24.5t46.5 9.5q33 0 57.5 -14t41 -38.5t24.5 -58t8 -73.5q0 -80 -14 -177.5t-43.5 -196.5t-75 -192.5t-109.5 -166t-147 -116.5t-186 -44q-119 0 -186.5 59
t-67.5 176q0 46 12 105l121 585l-53 27l16 84h360l-149 -696q-5 -23 -8.5 -41t-3.5 -35q0 -29 16 -47.5t61 -18.5t88 31.5t80.5 83t68.5 118.5t53.5 138t35 140.5t12.5 127.5v33z" />
    <glyph glyph-name="u_x" unicode="ux" horiz-adv-x="1798" 
d="M1884 367q-29 -83 -63.5 -144t-72 -103t-77 -68t-76.5 -40t-71 -19t-62 -5q-48 0 -84.5 15.5t-64.5 48.5t-49 85t-39 125q-117 -147 -237.5 -210.5t-244.5 -63.5q-43 0 -82 13.5t-70 38.5t-53 61.5t-30 82.5q-39 -64 -79.5 -102.5t-79.5 -59.5t-76 -27.5t-70 -6.5
q-46 0 -86 14.5t-69.5 44.5t-46.5 77t-17 112q0 26 4 59t12 72l139 657h295l-147 -696q-6 -26 -6 -52q0 -18 3 -34t10 -28.5t18.5 -20t29.5 -7.5q30 0 55 13.5t45.5 37.5t36 57.5t27.5 72.5l139 657h295l-147 -696q-7 -27 -7 -52q0 -38 19 -64t69 -26q41 0 85 15.5t87.5 42
t83.5 61.5t72 74l-119 645h289l80 -442q46 49 82.5 95.5t61.5 88.5t38 78t13 63v14t-2 11q-11 -2 -19 -3t-16 -1q-27 0 -45.5 9t-30 24.5t-16.5 36t-5 44.5t9 42t25 30.5t36.5 18.5t44.5 6q34 0 60.5 -14.5t43.5 -39t26 -58t9 -71.5q0 -50 -17 -102.5t-53 -111t-91 -126
t-131 -147.5l18 -102q6 -29 12.5 -60.5t19.5 -58.5t33.5 -44.5t55.5 -17.5q30 0 58 13.5t52 37.5t43 57.5t31 72.5h86z" />
    <glyph glyph-name="y_p" unicode="yp" horiz-adv-x="1954" 
d="M809 -512l109 516q-48 -2 -96.5 -6.5t-102.5 -15.5l-31 -146q-22 -110 -63.5 -178t-92.5 -106t-106.5 -51t-106.5 -13q-47 0 -88.5 12.5t-72.5 37t-49.5 62t-18.5 87.5q0 63 30.5 113t79 89t108 67t118.5 46l23 100q-33 -36 -66 -58.5t-64 -34.5t-60 -16.5t-56 -4.5
q-46 0 -86 14t-69.5 44t-46.5 76t-17 111q0 28 4 61.5t12 72.5l139 657h295l-147 -696q-6 -26 -6 -52q0 -18 3 -34t10 -28.5t18.5 -20t29.5 -7.5q28 0 52.5 12.5t44.5 35t35.5 53.5t27.5 67l143 670h295l-201 -940q54 12 104 21.5t101 17.5l207 977h295l-33 -154
q45 38 103 63t137 25q52 0 97.5 -16.5t79.5 -54t53.5 -99.5t19.5 -153q0 -69 -10 -149.5t-32.5 -161t-60.5 -155t-94 -131.5t-132 -91.5t-175 -34.5q-102 0 -189 6l-92 -432zM1245 154q23 2 45 2h45q54 0 96 28t74 74.5t54 105.5t36 121.5t20.5 123t6.5 108.5q0 59 -11 93
t-26.5 51t-33.5 21.5t-31 4.5q-35 0 -74 -25.5t-68 -75.5zM403 -111q-40 -15 -76 -32.5t-63.5 -38.5t-44 -46.5t-16.5 -56.5q0 -11 4 -23t12.5 -22t21.5 -16t31 -6q32 0 65.5 44.5t53.5 137.5z" />
    <glyph glyph-name="y_x" unicode="yx" horiz-adv-x="1784" 
d="M1870 367q-29 -83 -63.5 -143.5t-72 -102.5t-77 -67.5t-76.5 -40t-71 -19t-62 -4.5q-49 0 -86 16t-64.5 49.5t-48.5 86t-39 126.5q-56 -62 -118.5 -107.5t-127 -78.5t-127 -56t-118.5 -40l-31 -150q-22 -110 -63.5 -178t-92.5 -106t-106.5 -51t-106.5 -13
q-47 0 -88.5 12.5t-72.5 37t-49.5 62t-18.5 87.5q0 65 30.5 113t78.5 83.5t107.5 60t117.5 42.5l27 118q-33 -37 -66 -59.5t-64.5 -34.5t-61 -16t-56.5 -4q-46 0 -86 14t-69.5 43t-46.5 75t-17 111q0 28 4 61.5t12 72.5l139 657h295l-147 -696q-6 -26 -6 -52q0 -18 3 -34
t10 -28.5t18.5 -20t29.5 -7.5q30 0 55 13.5t45.5 37.5t36 57.5t27.5 72.5l139 657h295l-201 -944q52 18 105.5 42.5t108.5 61t112.5 87.5t118.5 122l-115 631h289l80 -442q46 49 82 95.5t61 88.5t38 78t13 63v14t-2 11q-11 -2 -19 -3t-16 -1q-27 0 -45 9t-29.5 24.5
t-16.5 36t-5 44.5q0 48 33.5 72.5t81.5 24.5q34 0 60.5 -14.5t43.5 -39t26 -58t9 -71.5q0 -50 -17 -102.5t-53 -111t-91.5 -126t-131.5 -147.5l19 -102q6 -29 12.5 -60.5t19 -58.5t33 -44.5t55.5 -17.5q30 0 58.5 13.5t52.5 37.5t43 57.5t31 72.5h86zM403 -109
q-40 -14 -76 -31.5t-63.5 -39t-44 -48t-16.5 -57.5q0 -11 4 -23t12.5 -22t21.5 -16t31 -6q32 0 65.5 44.5t53.5 137.5z" />
    <glyph glyph-name="y_z" unicode="yz" horiz-adv-x="1819" 
d="M453 106q-33 -38 -66 -61t-65 -35.5t-62 -17t-57 -4.5q-46 0 -86 14t-69.5 44t-46.5 76t-17 111q0 28 4 61.5t12 72.5l139 657h295l-147 -696q-6 -26 -6 -52q0 -18 3 -34t10 -28.5t18.5 -20t29.5 -7.5q30 0 55 13.5t45.5 37.5t36 57.5t27.5 72.5l139 657h297l-250 -1188
q-22 -110 -64.5 -178t-94 -106t-108 -51t-106.5 -13q-46 0 -89.5 16t-77 45t-54 69.5t-20.5 90.5q0 72 27.5 121t75.5 83t112.5 57.5t138.5 45.5zM418 -49q-48 -16 -90 -36t-72.5 -45.5t-48 -58t-17.5 -73.5q0 -12 6 -24t17 -21.5t26 -16t33 -6.5q15 0 32.5 7.5t34 26
t30.5 49.5t24 77zM942 0l522 913h-114q-24 0 -44.5 -1t-36 -4t-24 -9.5t-8.5 -17.5q0 -5 3.5 -6t8 -4t8 -10t3.5 -25q0 -29 -9.5 -49.5t-25.5 -33.5t-35.5 -19.5t-40.5 -6.5q-18 0 -34.5 6t-30 17t-21.5 28t-8 39q0 31 16.5 67.5t47 67.5t74.5 51.5t99 20.5h527l-502 -866
q13 -1 31 -3t39 -4.5t43 -4t43 -1.5q37 0 64 8.5t32 32.5q-20 2 -29.5 14t-9.5 29q0 15 7.5 30.5t21.5 28t35.5 21t50.5 8.5q47 0 68.5 -28.5t21.5 -69.5q0 -35 -17 -74t-49 -71t-78.5 -53t-105.5 -21h-543z" />
    <glyph glyph-name=".notdef" horiz-adv-x="1659" 
d="M547 2048h1112l-549 -2560h-1110zM96 -430h948l517 2396h-949zM961 1094q0 57 -23.5 87.5t-65.5 30.5q-43 0 -71.5 -30t-28.5 -78q0 -32 17 -60.5t45 -42.5v-8q-23 -23 -49.5 -32t-49.5 -9q-43 0 -68.5 30.5t-25.5 80.5q0 46 20.5 86t57 69.5t86 46.5t106.5 17
q109 0 168.5 -48.5t59.5 -133.5q0 -56 -25 -99.5t-63 -80.5t-82 -71t-82 -72t-63 -84t-25 -107h-86q0 64 18.5 112.5t46 87.5t59.5 73t59.5 69t46 75t18.5 91zM809 389q0 -38 -22.5 -60t-59.5 -22q-38 0 -60 22t-22 60q0 37 22 59.5t60 22.5q37 0 59.5 -22.5t22.5 -59.5z
" />
    <glyph glyph-name=".null" horiz-adv-x="0" 
 />
    <glyph glyph-name="nonmarkingreturn" unicode="&#xd;" horiz-adv-x="444" 
 />
    <glyph glyph-name="NULL" horiz-adv-x="0" 
 />
    <glyph glyph-name="NULL" horiz-adv-x="0" 
 />
    <glyph glyph-name="space" unicode=" " horiz-adv-x="444" 
 />
    <glyph glyph-name="exclam" unicode="!" horiz-adv-x="526" 
d="M201 473l156 1024l315 43l-297 -1067h-174zM392 152q0 -34 -12.5 -64t-34.5 -52t-51.5 -35t-63.5 -13t-63.5 13t-52 35t-35.5 52t-13 64t13 63t35.5 51t52 34.5t63.5 12.5t63.5 -12.5t51.5 -34.5t34.5 -51t12.5 -63z" />
    <glyph glyph-name="quotedbl" unicode="&#x22;" horiz-adv-x="723" 
d="M317 1540h215l-225 -475h-143zM639 1540h215l-225 -475h-144z" />
    <glyph glyph-name="numbersign" unicode="#" horiz-adv-x="1350" 
d="M241 1008h211l75 371h150l-76 -371h265l75 371h150l-76 -371h199l-31 -158h-200l-51 -252h194l-31 -158h-195l-77 -382h-149l77 382h-265l-77 -382h-149l77 382h-215l31 158h216l51 252h-210zM518 598h265l51 252h-265z" />
    <glyph glyph-name="dollar" unicode="$" horiz-adv-x="1122" 
d="M309 -293l60 263q-78 12 -141 42.5t-107 76.5t-68 106.5t-24 132.5q0 60 17 111t47 87.5t71.5 57t91.5 20.5q68 0 116.5 -37.5t59.5 -97.5q-43 0 -78.5 -13.5t-60.5 -37.5t-39 -57.5t-14 -73.5q0 -72 43 -119t118 -59l138 608q-45 54 -91.5 109t-84 112.5t-61 119
t-23.5 130.5q0 81 33.5 149.5t93.5 118.5t142 78.5t179 28.5h4l47 204h105l-49 -214q60 -12 107.5 -36.5t81 -60t51.5 -81t18 -99.5q0 -43 -11.5 -78.5t-32 -61t-49.5 -39.5t-63 -14q-38 0 -70 16.5t-55 47.5q38 28 61 74.5t23 99.5q0 49 -22 83t-62 49l-114 -500
q49 -54 101 -110t95 -118t70.5 -132.5t27.5 -154.5q0 -99 -40 -185.5t-110.5 -150.5t-165.5 -101t-205 -38l-58 -256h-103zM715 362q0 69 -27 131t-69 122l-115 -504q47 8 86 29.5t66.5 54t43 75t15.5 92.5zM541 1257q0 -57 20.5 -106.5t54.5 -97.5l92 407
q-38 -6 -68.5 -23.5t-52.5 -44t-34 -61t-12 -74.5z" />
    <glyph glyph-name="percent" unicode="%" horiz-adv-x="1499" 
d="M457 1563q119 0 178.5 -77t59.5 -229q0 -116 -33 -218t-90 -178.5t-133.5 -120.5t-163.5 -44q-234 0 -234 305q0 118 32 220.5t88.5 178.5t132.5 119.5t163 43.5zM230 950q0 -88 17.5 -129t56.5 -41q40 0 77 44t65.5 119t45 174t16.5 208q0 82 -14.5 117t-48.5 35
q-40 0 -78.5 -46t-69 -120t-49 -169t-18.5 -192zM393 0h-147l852 1540h147zM1220 854q119 0 178.5 -76.5t59.5 -228.5q0 -116 -33 -218t-90 -178.5t-133.5 -120.5t-163.5 -44q-234 0 -234 305q0 117 32 219.5t88.5 178.5t132.5 119.5t163 43.5zM993 242q0 -88 17.5 -129
t56.5 -41q40 0 77 44t65.5 119t45 173.5t16.5 207.5q0 82 -14.5 117t-48.5 35q-27 0 -53 -21t-50 -57.5t-44.5 -87t-35.5 -109t-23.5 -122.5t-8.5 -129z" />
    <glyph glyph-name="ampersand" unicode="&#x26;" horiz-adv-x="1397" 
d="M1162 558q-23 -6 -43 -8.5t-40 -3.5q-15 -132 -67.5 -239.5t-135 -184t-192 -118t-238.5 -41.5q-97 0 -174 25t-131 72.5t-83 115t-29 152.5q0 86 29.5 169.5t81 154t120.5 123t148 75.5v8q-33 27 -55 54.5t-36 58.5t-20 67t-6 80q0 84 35.5 160.5t96.5 134.5t142.5 92.5
t173.5 34.5q70 0 129 -21t101.5 -59t66 -90t23.5 -113q0 -42 -11.5 -77t-32 -60t-49.5 -39t-63 -14q-38 0 -70 16.5t-55 46.5q37 23 60.5 70t23.5 100q0 57 -28.5 90t-77.5 33q-42 0 -80 -24t-67 -65t-46.5 -94.5t-17.5 -111.5q0 -103 55 -173t152 -95v-8
q-74 -14 -140.5 -58.5t-117 -109t-80 -142t-29.5 -157.5q0 -106 53.5 -165.5t147.5 -59.5q67 0 132.5 28t120 79t94.5 122t55 157q-23 -1 -45.5 -3.5t-48.5 -9.5q-54 -19 -96 -47.5t-65 -62.5l-5 -1q-14 17 -23 35.5t-15 37.5q-13 45 -5 85.5t31.5 74t59.5 58.5t78 39
q33 10 68.5 14.5t70.5 7.5t69.5 6t65.5 10q24 8 49.5 21t48 29t41 32.5t29.5 32.5h5q17 -17 27.5 -36t16.5 -39q13 -43 3 -85.5t-36 -79t-65 -64.5t-85 -43z" />
    <glyph glyph-name="quotesingle" unicode="'" horiz-adv-x="401" 
d="M317 1540h215l-225 -475h-143z" />
    <glyph glyph-name="parenleft" unicode="(" horiz-adv-x="895" 
d="M1089 1481q-81 -48 -152.5 -121t-132.5 -166.5t-110 -203.5t-83 -232t-52.5 -252.5t-18.5 -263.5q0 -196 39 -366.5t115 -301.5l-68 -59q-77 77 -136.5 170t-100 197t-61.5 218.5t-21 235.5q0 195 54 380t152.5 345.5t238 289.5t310.5 212z" />
    <glyph glyph-name="parenright" unicode=")" horiz-adv-x="846" 
d="M-140 -403q80 47 152 120.5t133 166.5t110 203t83 232t52.5 252.5t18.5 264.5q0 196 -39 366t-115 301l68 60q77 -78 136.5 -170.5t100 -197t61.5 -219t21 -235.5q0 -195 -54 -380t-152.5 -345.5t-238 -289t-310.5 -211.5z" />
    <glyph glyph-name="asterisk" unicode="*" horiz-adv-x="1055" 
d="M583 1253q60 74 108.5 105.5t91.5 31.5q47 0 75 -32.5t28 -83.5q0 -7 -1 -14t-3 -13l-265 -86q75 -14 123 -30t75.5 -35t37.5 -40.5t10 -46.5q0 -17 -3 -31.5t-11.5 -29t-23 -30t-36.5 -34.5l-206 183q15 -56 24.5 -101.5t9.5 -83.5q0 -129 -110 -129q-17 0 -38.5 4.5
t-47.5 12.5l51 297q-60 -74 -106.5 -103.5t-88.5 -29.5q-46 0 -74 32.5t-28 83.5v14t2 13l260 84q-76 13 -124.5 29t-76 34.5t-37.5 40t-10 45.5q0 17 3.5 32t12.5 29.5t23.5 30t36.5 33.5l207 -182q-17 56 -26 101.5t-9 82.5q0 129 109 129q18 0 40 -4t48 -12z" />
    <glyph glyph-name="plus" unicode="+" horiz-adv-x="905" 
d="M522 778h299l-35 -162h-301l-63 -294h-164l64 294h-291l37 162h290l62 285h164z" />
    <glyph glyph-name="comma" unicode="," horiz-adv-x="442" 
d="M84 -258q-18 12 -18 35q0 27 16.5 49t36.5 43t36.5 43t16.5 51q0 11 -6.5 21.5t-20.5 19.5q-42 26 -69 62.5t-27 87.5q0 34 12.5 63.5t34.5 51.5t51.5 35t63.5 13q68 0 103.5 -43.5t35.5 -111.5q0 -45 -18 -100.5t-52 -112t-83.5 -110.5t-112.5 -97z" />
    <glyph glyph-name="hyphen" unicode="-" horiz-adv-x="594" 
d="M39 455l37 161h409l-34 -161h-412z" />
    <glyph glyph-name="period" unicode="." horiz-adv-x="539" 
d="M389 154q0 -34 -13 -63.5t-35.5 -51.5t-52 -34.5t-63.5 -12.5t-63.5 12.5t-51.5 34.5t-34.5 51.5t-12.5 63.5t12.5 63.5t34.5 51.5t51.5 35t63.5 13t63.5 -13t52 -35t35.5 -51.5t13 -63.5z" />
    <glyph glyph-name="slash" unicode="/" horiz-adv-x="637" 
d="M23 -512l434 2048h147l-434 -2048h-147z" />
    <glyph glyph-name="zero" unicode="0" horiz-adv-x="1118" 
d="M456 -21q-120 0 -200 40t-127 109t-66.5 162.5t-19.5 200.5q0 141 22.5 274.5t65.5 251t104.5 215t139 167.5t169.5 109t196 39q101 0 175.5 -35.5t123 -100t72 -155.5t23.5 -202q0 -75 -8.5 -160.5t-26.5 -175t-46.5 -179.5t-68.5 -172t-92 -153t-117.5 -123t-145 -82
t-173.5 -30zM737 1425q-49 0 -96.5 -41.5t-90.5 -113t-80 -167.5t-63.5 -205.5t-42 -226.5t-15.5 -231q0 -58 5.5 -113t20 -98t40.5 -69t68 -26q50 0 97.5 40.5t89 111t76 166t59 206t38 230t13.5 238.5q0 60 -7 114t-21.5 95.5t-37 65.5t-53.5 24z" />
    <glyph glyph-name="one" unicode="1" horiz-adv-x="649" 
d="M43 0l270 1278h-194l24 94q42 0 94 4t116 20.5t141 48t170 87.5l-326 -1532h-295z" />
    <glyph glyph-name="two" unicode="2" horiz-adv-x="1008" 
d="M889 350q26 -72 26 -127q0 -56 -22.5 -101.5t-60.5 -78t-87.5 -50.5t-103.5 -18q-49 0 -99 13t-102 28t-106.5 28t-111.5 13q-53 0 -108.5 -13t-118.5 -46h-8q-12 49 -12 96q1 72 30.5 139t78 130t110 124.5t125 123.5t125 126t109.5 132.5t77 142.5t29 157
q0 55 -8.5 101.5t-27.5 80t-48 52.5t-69 19q-36 0 -66 -13t-51 -35.5t-33 -53t-12 -64.5q0 -75 29 -127.5t69 -76.5v-8q-35 -32 -76 -50.5t-79 -18.5q-30 0 -57 14t-47 41t-32 66.5t-12 90.5q0 61 28 123.5t82 113t134.5 82t185.5 31.5q87 0 160 -25.5t126 -73.5
t82.5 -117.5t29.5 -157.5q0 -74 -25.5 -138t-69 -122t-100.5 -111t-119.5 -103t-127 -98.5t-123 -98.5t-107 -102t-79.5 -109q34 9 64 12t61 3q51 0 97.5 -7t89.5 -16t81.5 -16t73.5 -7q52 0 99.5 22.5t100.5 81.5z" />
    <glyph glyph-name="three" unicode="3" horiz-adv-x="1053" 
d="M739 854q68 -22 116.5 -57t80 -79t46.5 -95.5t15 -106.5q0 -62 -18.5 -125t-53.5 -121.5t-85.5 -109.5t-114.5 -89t-141 -59.5t-164 -21.5q-30 0 -71.5 4t-87 16.5t-90 35.5t-80 61.5t-57.5 95t-22 135.5q0 64 15.5 118t47 93t77.5 60.5t108 21.5q28 0 54.5 -5
t47.5 -17.5t36.5 -32.5t21.5 -50q-59 -4 -94.5 -27.5t-54.5 -56t-25 -69.5t-6 -68q0 -46 14.5 -80.5t38.5 -58t55.5 -35.5t66.5 -12q46 0 93 21t85.5 64.5t62.5 109t24 155.5q0 58 -16 116.5t-49 110.5t-84.5 94t-122.5 66q86 25 151.5 70t109.5 100.5t66.5 115t22.5 113.5
q0 36 -9.5 67t-29 53.5t-49 35t-68.5 12.5q-37 0 -67 -11.5t-51 -32t-32.5 -50t-11.5 -65.5q0 -21 4 -44t13.5 -43.5t24.5 -36.5t36 -22q-38 -35 -78 -52t-78 -17q-30 0 -57 11.5t-47 33.5t-31.5 54.5t-11.5 74.5q0 70 33 127t90 98t134.5 63.5t166.5 22.5q94 0 165.5 -24.5
t119.5 -66t72 -95.5t24 -113q0 -51 -17.5 -103.5t-52.5 -102t-87.5 -94.5t-123.5 -81z" />
    <glyph glyph-name="four" unicode="4" horiz-adv-x="975" 
d="M536 441q-64 18 -130 36.5t-138 18.5q-52 0 -108.5 -7.5t-112.5 -35.5h-8l-43 80v10q86 103 166.5 208.5t143 211.5t100.5 210.5t38 205.5q0 32 -4 64t-12 63q23 7 50.5 10t51.5 3q48 0 84 -13.5t61 -37.5t37.5 -56.5t12.5 -69.5q0 -50 -23.5 -108.5t-63.5 -120.5
t-92 -125.5t-108.5 -122.5t-114 -112t-108.5 -93l2 -6q34 14 83.5 25.5t98.5 11.5q48 0 103.5 -10t109.5 -20l166 478h131l-101 -476q33 13 65.5 36.5t64.5 60.5l6 -4q17 -29 25 -57t8 -55q0 -41 -16.5 -77.5t-46 -65.5t-70 -49.5t-87.5 -29.5l-89 -422h-285z" />
    <glyph glyph-name="five" unicode="5" horiz-adv-x="1059" 
d="M404 -10q-182 0 -277.5 77.5t-95.5 220.5q0 64 19.5 117t54.5 91t83.5 58.5t107.5 20.5q125 0 146 -104q-84 -10 -134 -60t-50 -130q0 -73 42.5 -113.5t114.5 -40.5q60 0 110 28t85.5 78.5t55.5 119.5t20 152q0 144 -59 220t-166 76q-57 0 -122 -22.5t-146 -70.5l-28 20
l159 775q90 -11 176 -19t167 -8q88 0 175 13t182 45q2 -17 3 -34t1 -34q0 -49 -12.5 -92t-40 -75.5t-72.5 -51t-110 -18.5q-41 0 -88 6.5t-93.5 15t-88.5 17t-72 12.5l-82 -371q131 64 254 64q83 0 150 -29.5t114 -84t72.5 -133t25.5 -175.5q0 -126 -42 -229t-118 -177
t-183.5 -114.5t-237.5 -40.5z" />
    <glyph glyph-name="six" unicode="6" horiz-adv-x="1023" 
d="M676 931q70 0 128 -24t99 -70t64 -111.5t23 -148.5q0 -76 -19.5 -149t-55 -138.5t-85 -120t-109.5 -94.5t-128.5 -62.5t-141.5 -22.5q-107 0 -186 30.5t-130.5 95.5t-76.5 167.5t-25 246.5q0 140 25.5 268.5t71.5 240t111 203t144.5 156.5t171 100.5t191.5 35.5
q67 0 122 -16.5t94 -47t60 -73.5t21 -95q0 -39 -11.5 -73.5t-31.5 -60t-47.5 -40t-59.5 -14.5q-34 0 -63 18t-41 47q33 17 50 50.5t17 68.5q0 22 -6.5 43t-20 37t-33.5 25.5t-47 9.5q-63 0 -125 -51t-116 -141t-96 -214t-64 -270l7 2q37 96 121 144t198 48zM332 448
q0 -81 11.5 -137.5t32.5 -92.5t51 -52t67 -16q43 0 85 32t75.5 88.5t54 133.5t20.5 167q0 59 -12.5 100t-34 66.5t-51.5 37t-66 11.5q-63 0 -107 -24t-72 -68t-41 -106.5t-13 -139.5z" />
    <glyph glyph-name="seven" unicode="7" horiz-adv-x="950" 
d="M1068 1518q0 -34 -26 -88t-68.5 -123.5t-96.5 -151.5t-110.5 -171.5t-110.5 -184.5t-96.5 -190t-68.5 -188t-26 -179q0 -54 10 -109t27 -103q-37 -20 -73.5 -29t-70.5 -9q-47 0 -85 17t-64.5 49t-41 78t-14.5 104q0 79 26 159.5t68 159t96.5 153.5t110.5 145t110.5 133
t96.5 116t68 95t26 71q-38 -11 -70 -19t-67 -8q-34 0 -66.5 7t-64.5 15.5t-65.5 15.5t-70.5 7q-61 0 -107.5 -24.5t-94.5 -81.5l-6 2q-14 31 -20.5 63t-6.5 62q0 54 20.5 98t58 75t89.5 48t114 17q52 0 97 -10.5t90.5 -22.5t94 -22.5t108.5 -10.5q55 0 125 10.5t151 32.5z
" />
    <glyph glyph-name="eight" unicode="8" horiz-adv-x="1022" 
d="M-4 378q0 72 22.5 135.5t70 119t121 104.5t175.5 94q-37 38 -70 78t-58.5 82t-40.5 88t-15 96q0 78 33.5 146t92.5 119t139.5 80.5t175.5 29.5q82 0 152.5 -20.5t122 -58t81 -89.5t31.5 -116q0 -103 -74 -194.5t-227 -175.5q48 -44 94.5 -90.5t83.5 -99t60 -112.5
t25 -131q0 -96 -40.5 -182t-111.5 -150.5t-168 -102.5t-210 -40q-101 0 -185.5 27.5t-146 78.5t-97 123t-36.5 161zM687 385q-1 52 -19.5 99.5t-48.5 92t-69 87t-81 84.5q-98 -67 -150.5 -162t-52.5 -206q0 -57 14.5 -103.5t40.5 -79.5t61.5 -50.5t78.5 -17.5
q49 0 90.5 20.5t71.5 55.5t47 81.5t17 98.5zM491 1248q0 -39 12 -75t32.5 -69t47.5 -64.5t59 -62.5q39 34 69.5 73t52.5 81t33.5 84.5t11.5 82.5q0 72 -36.5 113t-99.5 41q-40 0 -73.5 -15.5t-57.5 -42.5t-37.5 -64.5t-13.5 -81.5z" />
    <glyph glyph-name="nine" unicode="9" horiz-adv-x="1001" 
d="M370 617q-71 0 -129 24t-99 70t-64 111.5t-23 148.5q0 76 21 147.5t59 134.5t91 115.5t116.5 90t135.5 58t149 20.5q190 0 285.5 -135t95.5 -404q0 -140 -24 -269t-68 -240.5t-106 -202.5t-138 -156t-164 -100.5t-184 -35.5q-68 0 -123 16.5t-93.5 47t-59.5 73t-21 95.5
q0 39 11 73.5t31 60.5t46.5 41t58.5 15q37 0 66 -18.5t39 -47.5q-32 -18 -49.5 -50.5t-17.5 -66.5q0 -39 25 -69.5t78 -30.5q64 0 124.5 51.5t111 142.5t88 215t56.5 269l-7 -2q-37 -96 -121 -144t-197 -48zM715 1143q0 36 -4.5 80.5t-19.5 84.5t-45 67t-81 27
q-53 0 -99 -37.5t-79.5 -98t-52.5 -136.5t-19 -153q0 -56 10.5 -96t30 -65.5t45.5 -37.5t58 -12q70 0 119 28t79.5 78t44 119t13.5 152z" />
    <glyph glyph-name="colon" unicode=":" horiz-adv-x="547" 
d="M410 276q0 -34 -13 -63.5t-35.5 -51t-52 -34t-63.5 -12.5t-63.5 12.5t-51.5 34t-34.5 51t-12.5 63.5t12.5 64t34.5 52t51.5 35t63.5 13t63.5 -13t52 -35t35.5 -52t13 -64zM512 768q0 -34 -13 -63.5t-35.5 -51.5t-52 -34.5t-63.5 -12.5t-63.5 12.5t-51.5 34.5t-34.5 51.5
t-12.5 63.5t12.5 63.5t34.5 52t51.5 35.5t63.5 13t63.5 -13t52 -35.5t35.5 -52t13 -63.5z" />
    <glyph glyph-name="semicolon" unicode=";" horiz-adv-x="565" 
d="M518 678q0 -34 -13 -63.5t-35.5 -51.5t-52 -34.5t-63.5 -12.5t-63.5 12.5t-51 34.5t-34 51.5t-12.5 63.5t12.5 63.5t34 52t51 35.5t63.5 13t63.5 -13t52 -35.5t35.5 -52t13 -63.5zM129 -225q-18 12 -18 35q0 27 16.5 49t36.5 43t36.5 43t16.5 51q0 11 -6.5 21.5
t-20.5 19.5q-42 26 -69 62t-27 87q0 34 12.5 63.5t34.5 52t51.5 35.5t63.5 13q68 0 103.5 -43.5t35.5 -111.5q0 -45 -18 -100.5t-52 -112t-83.5 -110.5t-112.5 -97z" />
    <glyph glyph-name="less" unicode="&#x3c;" horiz-adv-x="733" 
d="M709 756l-455 -238l373 -194l-45 -158l-568 321l19 84l690 349z" />
    <glyph glyph-name="equal" unicode="=" horiz-adv-x="1055" 
d="M156 647l49 230h753l-47 -230h-755zM66 207l49 229h753l-47 -229h-755z" />
    <glyph glyph-name="greater" unicode="&#x3e;" horiz-adv-x="741" 
d="M29 330l454 237l-372 195l45 158l567 -322l-18 -84l-691 -348z" />
    <glyph glyph-name="question" unicode="?" horiz-adv-x="903" 
d="M603 1270q0 90 -36 138t-101 48q-34 0 -63 -13t-50 -35.5t-33 -53t-12 -66.5q0 -52 26.5 -97t71.5 -65v-8q-37 -34 -77.5 -51.5t-77.5 -17.5q-33 0 -60.5 12.5t-47 35t-30 54t-10.5 70.5q0 73 32.5 135.5t89.5 108.5t134.5 72t167.5 26q83 0 149 -19.5t112.5 -56t71 -89
t24.5 -118.5t-23 -120t-60.5 -100.5t-85.5 -88.5t-97.5 -83t-97.5 -84t-85.5 -92t-60.5 -107.5t-23 -129.5h-135q0 76 16.5 137t44 112.5t62 95t71 84t71 80t62 83t44 93.5t16.5 110zM421 164q0 -34 -12.5 -63.5t-34.5 -52t-51.5 -35.5t-63.5 -13t-63.5 13t-52 35.5
t-35.5 52t-13 63.5t13 63.5t35.5 51.5t52 34.5t63.5 12.5t63.5 -12.5t51.5 -34.5t34.5 -51.5t12.5 -63.5z" />
    <glyph glyph-name="at" unicode="@" horiz-adv-x="1410" 
d="M962 33q0 -43 -22.5 -77.5t-60 -61.5t-86.5 -46t-101.5 -31.5t-105.5 -18.5t-98 -6q-104 0 -196 25.5t-161 85.5t-109.5 160t-40.5 249q0 127 30 246t85 224t132.5 191.5t172 149t203.5 97t228 34.5q108 0 199 -29.5t158 -88.5t104.5 -147t37.5 -205q0 -78 -17 -152
t-46.5 -139.5t-71 -120.5t-90 -95t-103.5 -62t-112 -22q-68 0 -109.5 32.5t-45.5 95.5q-55 -72 -112.5 -110t-123.5 -38q-78 0 -121.5 53t-43.5 157q0 60 15 122t41 119t62 107t77 86.5t86.5 58t91.5 21.5q32 0 55.5 -12.5t52.5 -43.5l33 51l155 -15l-95 -361
q-11 -42 -19.5 -78t-8.5 -63q0 -11 1.5 -22.5t6 -20.5t12.5 -15t20 -6q30 0 69.5 38t75 102.5t60 149.5t24.5 178q0 160 -78 243t-225 83q-89 0 -174.5 -30t-161 -83.5t-139 -127t-109 -160.5t-71 -183.5t-25.5 -196.5q0 -97 21 -166.5t63 -114t104.5 -65.5t144.5 -21
q62 0 121.5 12.5t112 36t96.5 57.5t77 77q23 -11 39 -37t16 -70zM799 764q-12 11 -22.5 15.5t-21.5 4.5q-38 0 -77 -37.5t-71.5 -94.5t-53 -124.5t-20.5 -128.5q0 -45 13 -65.5t42 -20.5q15 0 30.5 5t30.5 13.5t27 20t20 25.5z" />
    <glyph glyph-name="A" unicode="A" horiz-adv-x="1368" 
d="M801 0l157 743q-78 36 -142.5 52t-131.5 22q-58 -125 -106.5 -257t-84 -256.5t-55.5 -233.5t-20 -189q0 -49 8.5 -74.5t19.5 -39.5q-41 0 -88.5 4t-89 24.5t-69 64.5t-27.5 124q0 68 21.5 163t61.5 204.5t95 229t123 236.5q-97 -6 -158.5 -29.5t-81.5 -76.5
q8 0 17.5 -20.5t9.5 -43.5q0 -37 -33.5 -58.5t-81.5 -21.5q-27 0 -50 7.5t-40 22t-27 37t-10 52.5q0 52 31.5 98t87.5 80t132.5 54t166.5 20q42 0 107 -6q78 123 165 232.5t179 192t185 131t183 48.5q36 0 80.5 -6t81.5 -23l-321 -1507h-295zM1096 1391q-46 -25 -93.5 -71.5
t-94 -110t-92.5 -141t-89 -163.5q62 -12 126 -29.5t124 -41.5z" />
    <glyph glyph-name="B" unicode="B" horiz-adv-x="1313" 
d="M205 0l278 1303l303 40l-96 -454h12q61 0 114.5 30t93.5 78t63.5 107t23.5 117q0 43 -15 82.5t-47 70.5t-83.5 49.5t-124.5 18.5q-60 0 -121.5 -13.5t-118 -41t-106.5 -68.5t-86.5 -96.5t-58 -125t-21.5 -153.5q0 -39 4.5 -63.5t10 -39t10 -22.5t4.5 -14
q-104 0 -161.5 42t-57.5 146q0 71 28 138.5t78.5 128t120 111t152 87.5t175 57.5t189.5 20.5q113 0 195 -27.5t135.5 -72.5t79.5 -104t26 -122q0 -46 -13 -92t-39 -88t-64.5 -79.5t-88.5 -65.5q66 -12 112 -43.5t75 -76t42 -98.5t13 -112q0 -49 -9.5 -112t-30.5 -128.5
t-55 -128.5t-84 -112t-116.5 -79t-152.5 -30q-33 0 -69 6t-65.5 23t-49 46.5t-19.5 76.5q0 26 6 55t20 64q39 -42 71 -58t67 -16q56 0 94.5 35.5t62.5 90t34.5 119.5t10.5 123q0 53 -9.5 100.5t-32 83t-59.5 56.5t-93 21q-13 0 -39 -1t-55 -6l-168 -784h-295z" />
    <glyph glyph-name="C" unicode="C" horiz-adv-x="1018" 
d="M1071 348q-41 -103 -111 -175.5t-151.5 -118t-166 -66.5t-155.5 -21q-114 0 -198 27t-139.5 87t-83 156t-27.5 234q0 70 8.5 152.5t27.5 170.5t48.5 177t71.5 171.5t97 154.5t124 125t153 83.5t185 30.5q71 0 133.5 -15.5t109 -48.5t73 -85t26.5 -125q0 -41 -7.5 -75.5
t-25 -60t-45 -39.5t-66.5 -14q-24 0 -55.5 9t-60.5 44q18 9 35 28.5t30 45t21 55.5t8 60q0 24 -6.5 47t-21.5 40t-39 27.5t-58 10.5q-57 0 -110.5 -42t-101 -113.5t-87 -166.5t-67.5 -201t-44 -218t-16 -216q0 -71 10.5 -129.5t38 -100.5t75 -65.5t122.5 -23.5q121 0 224 54
t175 151z" />
    <glyph glyph-name="D" unicode="D" horiz-adv-x="1358" 
d="M193 0l278 1303l303 40l-246 -1148q56 -41 117 -41t114 38t96.5 103.5t77.5 153.5t57.5 188.5t35.5 207t12 210.5t-21.5 177.5t-61 120t-94.5 68t-122 21.5q-114 0 -212 -34t-170 -98.5t-113 -156.5t-41 -209q0 -39 4.5 -63.5t9.5 -39t9.5 -22.5t4.5 -14q-103 0 -161 43
t-58 147q0 70 27.5 137.5t77.5 127.5t120 110.5t154.5 87.5t181.5 57.5t201 20.5q99 0 178 -22t140 -61.5t104.5 -94t71 -120t40.5 -140t13 -152.5q0 -117 -21 -235t-58.5 -226t-90 -201.5t-115.5 -162.5t-134.5 -108.5t-147.5 -39.5q-60 0 -122 26t-128 83l-17 -82h-294z
" />
    <glyph glyph-name="E" unicode="E" horiz-adv-x="940" 
d="M991 348q-41 -90 -104.5 -161t-143 -121t-169.5 -76.5t-183 -26.5q-99 0 -170.5 29.5t-117 79.5t-67.5 115t-22 137q0 81 26 165t74.5 157.5t119 129t159.5 78.5q-66 48 -95.5 112.5t-29.5 133.5q0 79 33.5 157.5t93 141.5t142 102t180.5 39q61 0 114.5 -16.5t93.5 -48.5
t62.5 -80t22.5 -111q0 -46 -12 -85t-33 -67.5t-48.5 -44.5t-58.5 -16q-56 0 -96 55q18 6 34.5 25t29 44t19.5 54t7 56q0 31 -10 53t-25.5 35.5t-36 19.5t-41.5 6q-46 0 -84.5 -25t-66 -65.5t-43 -92.5t-15.5 -106q0 -45 11.5 -88t36.5 -79.5t64.5 -64t94.5 -42.5
q-55 -12 -103.5 -40t-89 -66.5t-72.5 -85.5t-54.5 -97.5t-34.5 -101.5t-12 -98q0 -43 11 -81t34 -66t60 -44t89 -16q47 0 101.5 13t106.5 39.5t97 65.5t74 91z" />
    <glyph glyph-name="F" unicode="F" horiz-adv-x="940" 
d="M180 0l295 1368q-59 -2 -108 -22.5t-84 -68.5t-54.5 -129t-19.5 -204q0 -39 4.5 -63.5t10 -39t10 -22.5t4.5 -14q-53 0 -94 10.5t-69 33.5t-42.5 61t-14.5 94q0 102 38 198t121.5 170t216.5 119t323 45q31 0 69.5 -4t82 -8.5t91.5 -8.5t97 -4q48 0 94.5 5.5t89.5 19.5
q-10 -32 -19.5 -69.5t-28.5 -72.5t-53 -63.5t-93 -40.5q-73 0 -144 11t-143 28l-86 -407h299l-33 -152h-299l-166 -770h-295z" />
    <glyph glyph-name="G" unicode="G" horiz-adv-x="1184" 
d="M1118 856l-150 -688q-33 -153 -79 -264.5t-106.5 -184.5t-137.5 -108t-172 -35q-75 0 -136 20t-104.5 57t-67.5 88.5t-24 113.5q0 60 21.5 111.5t58.5 90t87.5 60.5t108.5 22q79 0 126.5 -38t47.5 -103q0 -48 -22 -78q-19 25 -50.5 39t-66.5 14q-31 0 -56.5 -10.5
t-44 -30t-28.5 -46.5t-10 -60q0 -32 10 -59.5t27.5 -47t42 -30.5t53.5 -11q71 0 122 63.5t79 188.5l102 453h-8q-56 -77 -134.5 -118.5t-172.5 -41.5q-91 0 -164 36.5t-124.5 104t-79.5 163.5t-28 214q0 114 26 218.5t74 194.5t115.5 163t151 125t179.5 80t202 28
q87 0 157 -19.5t119 -56t75 -89t26 -117.5q0 -44 -11.5 -80t-32 -61.5t-49.5 -39.5t-63 -14q-38 0 -72 16.5t-57 47.5q18 12 34 32.5t28 46t19 53.5t7 56q0 62 -35.5 95.5t-101.5 33.5q-61 0 -120 -28.5t-111.5 -78.5t-97.5 -119.5t-77.5 -151t-50.5 -173t-18 -186.5
q0 -155 48.5 -235.5t141.5 -80.5q112 0 195.5 115.5t136.5 341.5z" />
    <glyph glyph-name="H" unicode="H" horiz-adv-x="1362" 
d="M801 0l164 770h-301l-164 -770h-295l297 1393q-136 -57 -211.5 -170.5t-75.5 -278.5q0 -39 4.5 -63.5t10 -39t10 -22.5t4.5 -14q-53 0 -94 10.5t-69 33.5t-42 61t-14 94q0 68 29.5 134t80.5 125t120.5 109t149.5 86.5t166 57t172 20.5q23 0 42.5 -1t39.5 -3l-131 -610
h301l131 610h295l-325 -1532h-295z" />
    <glyph glyph-name="I" unicode="I" horiz-adv-x="768" 
d="M193 0l296 1391q-136 -56 -211 -168t-75 -279q0 -39 4.5 -63.5t9.5 -39t9.5 -22.5t4.5 -14q-53 0 -94 10.5t-68.5 33.5t-42 61t-14.5 94q0 68 29.5 134t81 125t121 109t149 86.5t166 57t172.5 20.5q23 0 42.5 -1t39.5 -3l-326 -1532h-294z" />
    <glyph glyph-name="J" unicode="J" horiz-adv-x="1098" 
d="M862 1393q-135 -56 -212 -169.5t-77 -279.5q0 -39 4.5 -63.5t10 -39t10 -22.5t4.5 -14q-53 0 -94 10.5t-68.5 33.5t-42 61t-14.5 94q0 68 29.5 134t81 125t121 109t149 86.5t166 57t172.5 20.5h82l-307 -1454q-25 -117 -65 -211t-103.5 -159.5t-154 -100.5t-216.5 -35
q-74 0 -130.5 21t-95 59t-58 91t-19.5 118q0 52 16.5 101.5t48 87.5t78 61.5t107.5 23.5q31 0 66 -3t65 -16.5t49.5 -41t19.5 -76.5q0 -36 -12 -82q-19 16 -35 26.5t-30.5 16.5t-28.5 8t-29 2q-36 0 -63 -13t-44.5 -34t-26.5 -48.5t-9 -55.5q0 -40 13.5 -67.5t34 -44.5
t45 -24.5t46.5 -7.5q34 0 62 9.5t51.5 36.5t43.5 76.5t38 129.5z" />
    <glyph glyph-name="K" unicode="K" horiz-adv-x="1231" 
d="M193 0l296 1393q-136 -57 -211 -170.5t-75 -278.5q0 -39 4.5 -63.5t9.5 -39t9.5 -22.5t4.5 -14q-53 0 -94 10.5t-68.5 33.5t-42 61t-14.5 94q0 68 29.5 134t81 125t121 109t149 86.5t166 57t172.5 20.5q23 0 42.5 -1t39.5 -3l-133 -627q25 33 57.5 77t70 94t77 102.5
t76.5 103t70.5 95t58.5 78t40 52.5l15 19h215l-569 -656q20 0 37 1t34 1q75 0 124 -16.5t78 -46t40.5 -69.5t11.5 -87q0 -64 -15.5 -134.5t-34.5 -139.5t-34.5 -132t-15.5 -112q0 -48 21.5 -84.5t58.5 -50.5q-66 -19 -116 -27t-87 -8q-50 0 -81 12.5t-48.5 32t-24 44
t-6.5 48.5q0 52 17 120.5t37.5 142t37.5 145.5t17 131q0 31 -6.5 56.5t-20.5 44t-38 28.5t-58 10q-14 0 -31.5 -1.5t-36.5 -6.5l-164 -772h-294z" />
    <glyph glyph-name="L" unicode="L" horiz-adv-x="776" 
d="M489 1370q-136 -56 -211 -167.5t-75 -278.5q0 -39 4.5 -63.5t9.5 -39.5t9.5 -23t4.5 -14q-53 0 -94 10.5t-68.5 34t-42 61.5t-14.5 93q0 68 29.5 134t81 125t121 109.5t149 87t166 57t172.5 20.5q23 0 42.5 -1.5t39.5 -3.5l-315 -1470q53 -12 106.5 -36.5t108.5 -54
t111.5 -60t115 -56t120 -41.5t126.5 -16q42 0 84.5 7t87.5 26q-9 -74 -27.5 -133.5t-45.5 -101.5t-62.5 -64.5t-77.5 -22.5q-73 0 -144 34.5t-142.5 86t-144.5 112t-150 112t-159.5 86t-173.5 34.5h-23t-24 -2z" />
    <glyph glyph-name="M" unicode="M" horiz-adv-x="1612" 
d="M1137 0l131 920l-385 -920h-281l41 924l-342 -924h-164l520 1407q-153 -51 -239 -167.5t-86 -293.5q0 -41 4.5 -65.5t9.5 -39t9.5 -22t4.5 -14.5q-50 0 -90.5 10t-69 32t-44 57.5t-15.5 86.5q0 65 26.5 131t73 126.5t109.5 113t135.5 91.5t151 61t156.5 22q77 0 155 -29
l-47 -1079l451 1079h295l-215 -1507h-295z" />
    <glyph glyph-name="N" unicode="N" horiz-adv-x="1368" 
d="M1471 1532l-334 -1532h-283l-237 1016l-234 -1016h-194l308 1403q-142 -50 -213 -155t-71 -255q0 -66 14.5 -120.5t40.5 -88.5q-131 0 -193.5 53.5t-62.5 168.5q0 73 22.5 141t63 128t97.5 109.5t126 85t148 55t165 19.5q48 0 83.5 -6.5t78.5 -21.5l247 -1096l229 1112
h199z" />
    <glyph glyph-name="O" unicode="O" horiz-adv-x="1362" 
d="M883 1343q-47 -28 -91.5 -87.5t-84.5 -139t-73.5 -173t-58 -190t-38 -190t-13.5 -172.5q0 -52 7 -95.5t21 -75t36.5 -49t54.5 -17.5q52 0 103.5 40t99.5 109t89 160.5t71 195t47.5 212.5t17.5 212q0 89 -10.5 156.5t-39.5 112.5t-80 67.5t-132 22.5q-117 0 -224 -36.5
t-188.5 -105t-129.5 -166t-48 -219.5q0 -30 3.5 -48.5t7 -30t7 -18.5t3.5 -13q-98 0 -152.5 39t-54.5 133q0 72 31 141t87 131.5t132.5 115t168.5 90.5t195 59.5t211 21.5q135 0 227.5 -39t149.5 -108.5t82.5 -166t25.5 -210.5q0 -99 -18.5 -213.5t-58 -228t-100 -219
t-144.5 -186t-192 -129t-242 -48.5q-81 0 -148 22t-116 71t-76 127.5t-27 190.5q0 83 15.5 186.5t46.5 210t77.5 208.5t108 181t138.5 127t169 48q26 0 52 -3t55 -14z" />
    <glyph glyph-name="P" unicode="P" horiz-adv-x="1174" 
d="M193 0l278 1303l303 40l-145 -684q52 4 98.5 28t86.5 61.5t72 86.5t54.5 103.5t34.5 112t12 112.5q0 57 -14.5 107.5t-45 89t-79 60.5t-115.5 22q-125 0 -223.5 -34t-166.5 -98t-104 -156.5t-36 -209.5q0 -39 4.5 -63.5t9.5 -39t9.5 -22.5t4.5 -14q-53 0 -94 10.5
t-68.5 33.5t-42 61t-14.5 94q0 68 29.5 134t81 125t121 109t149 86.5t166 57t172.5 20.5q126 0 217 -33.5t150.5 -89.5t87.5 -128.5t28 -151.5q0 -98 -40.5 -196t-117 -176.5t-186 -127.5t-247.5 -49h-11l-125 -584h-294z" />
    <glyph glyph-name="Q" unicode="Q" horiz-adv-x="1362" 
d="M1253 -55q-21 -53 -44 -87.5t-49 -54t-55.5 -27t-62.5 -7.5q-68 0 -112.5 21.5t-73 57t-46 79.5t-32.5 89q-45 -14 -92 -21t-98 -7q-81 0 -148 22t-116 71t-76 127.5t-27 190.5q0 83 15.5 186.5t46.5 210t77.5 208.5t108 181t138.5 127t169 48q26 0 52 -3t55 -14
q-47 -28 -91.5 -87.5t-84.5 -139t-73.5 -173t-58 -190t-38 -190t-13.5 -172.5q0 -25 -0.5 -46.5t4.5 -41.5q38 9 69.5 14t57.5 5q54 0 93 -15.5t71 -40.5q51 66 97 160.5t80.5 203.5t54.5 225.5t20 227.5q0 89 -10.5 156.5t-39.5 112.5t-80 67.5t-132 22.5
q-117 0 -224 -36.5t-188.5 -105t-129.5 -166t-48 -219.5q0 -30 3.5 -48.5t7 -30t7 -18.5t3.5 -13q-98 0 -152.5 39t-54.5 133q0 72 31 141t87 131.5t132.5 115t168.5 90.5t195 59.5t211 21.5q135 0 227.5 -39t149.5 -108.5t82.5 -166t25.5 -210.5q0 -72 -10 -153
t-30.5 -164.5t-52.5 -167t-75.5 -160t-99 -143.5t-123.5 -118q22 -33 47 -63t55 -52.5t68 -36t86 -13.5q11 0 22 1t23 3zM721 176q-19 31 -46 50.5t-71 19.5q-14 0 -29 -1.5t-30 -6.5q27 -84 98 -84q19 0 39 5t39 17z" />
    <glyph glyph-name="R" unicode="R" horiz-adv-x="1231" 
d="M193 0l278 1303l303 40l-100 -473h16q64 0 117.5 34t92 86t60 115t21.5 122q0 43 -13 82t-40 68.5t-69.5 47t-102.5 17.5q-125 0 -226.5 -34t-174.5 -98.5t-112.5 -156.5t-39.5 -209q0 -39 4.5 -63.5t9.5 -39t9.5 -22.5t4.5 -14q-53 0 -94 10.5t-68.5 33.5t-42 61
t-14.5 94q0 68 29.5 134t81 125t121 109t149 86.5t166 57t172.5 20.5q121 0 208.5 -27.5t144.5 -73.5t84.5 -105t27.5 -122q0 -47 -14.5 -95.5t-43 -94.5t-69.5 -87.5t-94 -72.5q40 -12 67.5 -31.5t43.5 -46t23 -59t7 -68.5q0 -64 -15.5 -134.5t-34.5 -139.5t-34.5 -132
t-15.5 -112q0 -48 21.5 -84.5t58.5 -50.5q-66 -19 -116 -27t-87 -8q-50 0 -81 12.5t-48.5 32t-24 44t-6.5 48.5q0 52 17 120.5t37.5 142t37.5 145.5t17 131q0 31 -6.5 56.5t-20.5 44t-38 28.5t-58 10q-14 0 -31 -1.5t-37 -6.5l-164 -772h-294z" />
    <glyph glyph-name="S" unicode="S" horiz-adv-x="1167" 
d="M1132 1260q0 -43 -11.5 -78.5t-31.5 -61t-49 -39.5t-63 -14q-39 0 -70.5 16.5t-54.5 47.5q38 28 61 74.5t23 99.5q0 66 -39 104.5t-107 38.5q-41 0 -75.5 -15.5t-59 -43t-38 -65.5t-13.5 -83q0 -68 33 -128t83 -118t108 -117.5t108 -127t83 -146t33 -173.5
q0 -101 -42 -186.5t-116.5 -148t-175 -98t-217.5 -35.5q-98 0 -177.5 25.5t-136 73t-87.5 113.5t-31 147q0 68 22 127t60 102.5t90 68.5t111 25q72 0 121 -36t61 -99q-54 0 -97 -15t-73 -42t-46.5 -65.5t-16.5 -86.5q0 -90 52.5 -142.5t141.5 -52.5q54 0 100 19.5t79 53.5
t52 81t19 102q0 56 -18.5 107.5t-49.5 100t-70 95.5t-80 94.5t-80 95.5t-70 98.5t-49.5 104.5t-18.5 114q0 81 34.5 149.5t96 118.5t145.5 78.5t183 28.5q83 0 150 -20.5t114.5 -58t73.5 -90.5t26 -118z" />
    <glyph glyph-name="T" unicode="T" horiz-adv-x="985" 
d="M322 0l290 1356h-24q-81 0 -151.5 -18.5t-122.5 -65t-81.5 -126.5t-29.5 -204q0 -39 4.5 -63.5t9.5 -39t9.5 -22.5t4.5 -14q-53 0 -94 10.5t-68.5 33.5t-42 61t-14.5 93q0 102 38 198.5t121.5 170.5t216.5 119t323 45q62 0 110.5 -3.5t90 -8.5t78.5 -11.5t74.5 -11.5
t79 -8.5t91.5 -3.5q72 0 134 13t104 30q-5 -135 -69.5 -197.5t-186.5 -62.5q-76 0 -154.5 14t-163.5 31l-283 -1315h-294z" />
    <glyph glyph-name="U" unicode="U" horiz-adv-x="1466" 
d="M728 -14q-204 0 -307 99t-103 294q0 99 29 215l209 831q-91 -24 -160.5 -68.5t-117 -101.5t-71.5 -123.5t-24 -135.5q0 -50 13 -99.5t40 -96.5q-117 0 -181.5 56.5t-64.5 162.5q0 68 29 133.5t80.5 124t123.5 107.5t157.5 84.5t182 55.5t197.5 20q35 0 61 -2t54 -8
l-250 -946q-17 -63 -26 -119.5t-9 -101.5q0 -195 160 -195q227 0 318 422l204 946h289l-200 -946q-64 -301 -224.5 -454.5t-408.5 -153.5z" />
    <glyph glyph-name="V" unicode="V" horiz-adv-x="1260" 
d="M541 0l-33 1399q-144 -54 -224.5 -169t-80.5 -286q0 -39 4.5 -63.5t9.5 -39t9.5 -22.5t4.5 -14q-53 0 -94 10.5t-68.5 33.5t-42 61t-14.5 94q0 68 29.5 134t81 125t121 109t149 86.5t166 57t172.5 20.5q23 0 42.5 -1t39.5 -3l18 -1260l431 1254h143l-569 -1526h-295z" />
    <glyph glyph-name="W" unicode="W" horiz-adv-x="1970" 
d="M1249 0l-24 1042l-389 -1042h-295l-33 1399q-144 -54 -224.5 -169t-80.5 -286q0 -39 4.5 -63.5t9.5 -39t9.5 -22.5t4.5 -14q-53 0 -94 10.5t-68.5 33.5t-42 61t-14.5 94q0 68 29.5 134t81 125t121 109t149 86.5t166 57t172.5 20.5q23 0 42.5 -1t39.5 -3l18 -1260
l431 1254h260l18 -1254l430 1254h144l-570 -1526h-295z" />
    <glyph glyph-name="X" unicode="X" horiz-adv-x="1270" 
d="M805 0l-109 512l-297 -512h-125l385 680l-151 719q-144 -54 -224.5 -169t-80.5 -286q0 -39 4.5 -63.5t9.5 -39t9.5 -22.5t4.5 -14q-53 0 -94 10.5t-68.5 33.5t-42 61t-14.5 94q0 68 29.5 134t81 125t121 109t149 86.5t166 57t172.5 20.5q23 0 42.5 -1t39.5 -3l88 -426
l238 420h143l-344 -596l192 -930h-325z" />
    <glyph glyph-name="Y" unicode="Y" horiz-adv-x="1270" 
d="M569 0l136 631l-197 768q-144 -54 -224.5 -169t-80.5 -286q0 -39 4.5 -63.5t9.5 -39t9.5 -22.5t4.5 -14q-53 0 -94 10.5t-68.5 33.5t-42 61t-14.5 94q0 68 29.5 134t81 125t121 109t149 86.5t166 57t172.5 20.5q23 0 42.5 -1t39.5 -3l178 -733l303 727h136l-398 -895
l-135 -631h-328z" />
    <glyph glyph-name="Z" unicode="Z" horiz-adv-x="1110" 
d="M23 0l716 1425q-32 0 -81 2.5t-103 2.5q-36 0 -70 -2t-60 -7t-42 -14t-16 -23q11 0 22.5 -14t11.5 -51q0 -34 -12 -56.5t-30 -36t-39 -19t-39 -5.5q-30 0 -50 11t-32.5 28t-17.5 39t-5 43q0 39 16.5 77t48 68.5t78.5 49t109 18.5h702l-706 -1403q42 0 94 -2t103 -2
q36 0 70 1.5t62.5 6.5t49.5 13.5t31 23.5q-11 0 -24 13t-13 51q0 33 11.5 55.5t29 36.5t39.5 20t43 6q28 0 48 -10.5t32.5 -27t18 -38t5.5 -42.5q0 -39 -18 -81.5t-52 -77t-82.5 -57t-109.5 -22.5h-739z" />
    <glyph glyph-name="bracketleft" unicode="[" horiz-adv-x="819" 
d="M422 -492h-437l430 2032h437l-23 -117h-227l-383 -1798h227z" />
    <glyph glyph-name="backslash" unicode="\" horiz-adv-x="741" 
d="M520 -512l-434 2048h147l435 -2048h-148z" />
    <glyph glyph-name="bracketright" unicode="]" horiz-adv-x="819" 
d="M308 1540h437l-430 -2032h-437l23 117h227l383 1798h-227z" />
    <glyph glyph-name="asciicircum" unicode="^" horiz-adv-x="862" 
d="M637 1149l-123 164l-321 -164h-91l435 387h43l122 -387h-65z" />
    <glyph glyph-name="underscore" unicode="_" horiz-adv-x="909" 
d="M74 0l37 162h716l-34 -162h-719z" />
    <glyph glyph-name="grave" unicode="`" horiz-adv-x="412" 
d="M49 1536h215l60 -387h-113z" />
    <glyph glyph-name="a" unicode="a" horiz-adv-x="1077" 
d="M1163 367q-29 -83 -63 -144t-70.5 -103t-74.5 -68t-74 -40t-69 -19t-60 -5q-87 0 -138.5 47.5t-62.5 140.5q-25 -35 -55 -68.5t-67 -60t-82.5 -43t-100.5 -16.5q-53 0 -102 17t-87 56t-61 102t-23 154q0 70 14 150t43 160t72.5 153.5t102 130t132.5 90t163 33.5
q87 0 126.5 -30t39.5 -74v-15l22 109h295l-147 -696q-5 -17 -7 -33.5t-2 -32.5q0 -88 84 -88q30 0 55.5 15.5t46.5 41.5t37 61.5t27 74.5h86zM647 829q0 9 -4 22.5t-13.5 26t-25.5 21t-41 8.5q-43 0 -81.5 -28t-70.5 -74.5t-57 -105.5t-42.5 -121.5t-26.5 -123t-9 -108.5
q0 -59 11 -91t26.5 -47.5t33.5 -18.5t32 -3q23 0 48.5 11.5t49 34t43 56.5t29.5 79z" />
    <glyph glyph-name="b" unicode="b" horiz-adv-x="909" 
d="M219 1393l303 41l-98 -461q31 19 55.5 30.5t44.5 17.5t36.5 7.5t31.5 1.5q54 0 98.5 -18t76.5 -59.5t49.5 -108.5t17.5 -164q0 -60 -11.5 -134.5t-37.5 -151.5t-69 -150t-105 -130t-146 -91.5t-193 -34.5q-142 0 -214 69t-72 193q0 29 3 58.5t11 58.5zM285 328
q-6 -26 -6 -47q0 -95 108 -95q33 0 64 22.5t57.5 60t48.5 88t37.5 106t24 113.5t8.5 112q0 37 -6.5 72.5t-20 63.5t-34 44.5t-48.5 16.5q-11 0 -28 -1.5t-35 -6t-33.5 -11.5t-24.5 -18z" />
    <glyph glyph-name="c" unicode="c" horiz-adv-x="786" 
d="M856 367q-43 -72 -98.5 -140t-125 -121t-154 -85.5t-185.5 -32.5q-73 0 -132 18.5t-101 57.5t-64.5 100.5t-22.5 148.5q0 59 12 136.5t38.5 158.5t69 159t104 139t142.5 98.5t185 37.5q68 0 112 -16.5t70 -43t36 -60.5t10 -68q0 -38 -8.5 -65.5t-23.5 -46.5t-35 -28
t-42 -9q-35 0 -72 24q25 66 25 121q0 38 -14 61t-43 23q-32 0 -64 -29t-61.5 -77t-54.5 -110t-43.5 -129t-29 -133.5t-10.5 -123.5q0 -52 9.5 -85.5t28 -52.5t46 -26.5t64.5 -7.5q61 0 110.5 16t92.5 44t81.5 66t77.5 81h70z" />
    <glyph glyph-name="d" unicode="d" horiz-adv-x="1075" 
d="M1161 367q-29 -83 -63 -143t-70.5 -100.5t-74.5 -65t-74 -37.5t-69 -17t-60 -4q-85 0 -137 44.5t-64 131.5q-23 -35 -52.5 -68.5t-67 -60t-83.5 -43t-100 -16.5q-53 0 -102 17t-87 56t-61 102t-23 154q0 70 14 150t43 160t72.5 153.5t102 130t132.5 90t163 33.5
q87 0 126.5 -30t39.5 -74v-8l100 471l303 41l-235 -1106q-5 -17 -7 -33.5t-2 -32.5q0 -43 20.5 -59.5t63.5 -16.5q30 0 55.5 13.5t46 37.5t36.5 57.5t28 72.5h86zM547 367l100 469q-2 9 -6.5 21t-13.5 23.5t-24.5 19t-39.5 7.5q-43 0 -81.5 -28t-70.5 -74.5t-57 -105.5
t-42.5 -121.5t-26.5 -123t-9 -108.5q0 -59 11 -91t26.5 -47.5t33.5 -18.5t32 -3q21 0 46.5 10.5t49 31.5t43 53t29.5 75v11z" />
    <glyph glyph-name="e" unicode="e" horiz-adv-x="786" 
d="M856 367q-43 -72 -98.5 -140t-125 -121t-154 -85.5t-185.5 -32.5q-73 0 -132 18.5t-101 57.5t-64.5 100.5t-22.5 148.5q0 59 12 136t38 158t69 159t104 139.5t143 99t187 37.5q69 0 112.5 -16.5t69 -43.5t35 -62.5t9.5 -73.5q0 -89 -39 -165.5t-104.5 -133.5t-150.5 -92
t-177 -41q-2 -23 -3.5 -43.5t-1.5 -38.5q0 -52 9.5 -85.5t28 -52.5t46 -26.5t64.5 -7.5q61 0 110.5 16t92.5 44t81.5 66t77.5 81h70zM297 512q58 4 112 33t95 75.5t65.5 106t24.5 123.5q0 38 -11 61t-40 23q-39 0 -76.5 -37.5t-70.5 -97.5t-58.5 -135.5t-40.5 -151.5z" />
    <glyph glyph-name="f" unicode="f" horiz-adv-x="547" 
d="M174 1186q22 110 64.5 178t94.5 106t108 51t106 13q46 0 89.5 -16t77 -45t54 -69.5t20.5 -90.5q0 -48 -6 -84h-96q2 17 3 29t1 26q0 35 -23.5 52.5t-54.5 17.5q-16 0 -36.5 -7t-41 -25.5t-38 -51.5t-27.5 -84l-35 -162h150l-15 -82h-151l-236 -1106q-22 -110 -63.5 -178
t-92 -106t-105.5 -51t-105 -13q-46 0 -89.5 16t-77.5 45t-54.5 69.5t-20.5 90.5q0 71 27.5 119.5t75.5 83t112 58.5t137 46zM-88 -51q-48 -16 -89.5 -35.5t-71.5 -45t-47 -57.5t-17 -73q0 -12 6 -24t17 -21.5t26 -16t33 -6.5q16 0 32.5 7.5t32 26t28.5 49.5t23 77z" />
    <glyph glyph-name="g" unicode="g" horiz-adv-x="1038" 
d="M731 -164q-22 -110 -63.5 -178t-92.5 -106t-106.5 -51t-106.5 -13q-47 0 -88.5 12.5t-72.5 37t-49.5 62t-18.5 87.5q0 64 30.5 113t78.5 85.5t107.5 62.5t117.5 44l25 108q-45 -48 -105.5 -80t-140.5 -32q-53 0 -102 17t-87 56t-61 102t-23 154q0 70 14 150t43 160
t72.5 153.5t102 130t132.5 90t163 33.5q87 0 126.5 -30t39.5 -74v-12l22 106h295l-203 -950q47 16 85 38.5t69.5 57t57 82.5t46.5 115h86q-31 -102 -73.5 -170t-90.5 -111.5t-99 -66.5t-99 -35zM647 831q0 9 -4 22t-13.5 25t-25.5 20.5t-41 8.5q-43 0 -81.5 -28t-70.5 -74.5
t-57 -105.5t-42.5 -121.5t-26.5 -123t-9 -108.5q0 -59 11 -91t26.5 -47.5t33.5 -18.5t32 -3q21 0 45 10.5t47.5 30.5t42.5 50t29 69zM446 -111q-40 -15 -76 -32.5t-63.5 -38.5t-44 -46.5t-16.5 -56.5q0 -11 4 -23t12.5 -22t21.5 -16t31 -6q32 0 65.5 44.5t53.5 137.5z" />
    <glyph glyph-name="h" unicode="h" 
d="M1120 367q-43 -126 -92.5 -201t-100 -114.5t-99 -51.5t-89.5 -12q-68 0 -114 19.5t-74 52t-40.5 74t-12.5 85.5q0 52 14.5 121.5t31.5 142.5t31.5 141t14.5 117q0 105 -74 105q-28 0 -52 -15t-44 -40.5t-36 -60t-28 -73.5l-139 -657h-295l297 1393l303 41l-110 -516
q33 37 65.5 59.5t63.5 34.5t58.5 16t51.5 4q49 0 91 -13t72.5 -41t47.5 -72t17 -105q0 -41 -7.5 -88.5t-18.5 -97t-23.5 -98.5t-23.5 -94t-18.5 -83.5t-7.5 -67.5q0 -38 17.5 -62t64.5 -24q33 0 58 13t45 37t36.5 57.5t32.5 73.5h86z" />
    <glyph glyph-name="i" unicode="i" horiz-adv-x="547" 
d="M506 1296q0 -34 -13 -63.5t-35.5 -51t-52 -34t-63.5 -12.5t-63.5 12.5t-51.5 34t-34.5 51t-12.5 63.5t12.5 63.5t34.5 52t51.5 35.5t63.5 13t63.5 -13t52 -35.5t35.5 -52t13 -63.5zM633 367q-29 -83 -64.5 -144t-74 -103t-79 -68t-78.5 -40t-72.5 -19t-61.5 -5
q-46 0 -86 14t-69.5 44t-46.5 76t-17 111q0 28 4 61.5t12 72.5l139 657h295l-147 -696q-5 -17 -6.5 -33.5t-1.5 -32.5q0 -43 20 -59.5t63 -16.5q30 0 58.5 13.5t52.5 37.5t43 57.5t31 72.5h86z" />
    <glyph glyph-name="j" unicode="j" horiz-adv-x="492" 
d="M184 -164q-22 -110 -63.5 -178t-92 -106t-106 -51t-106.5 -13q-47 0 -88.5 12.5t-73 37t-50 62t-18.5 87.5q0 64 30.5 112.5t79 85.5t108.5 63t118 44l219 1032h295l-203 -950q47 16 85 38.5t69.5 57t57 82.5t47.5 115h86q-31 -102 -73.5 -170t-91 -111.5t-99.5 -66.5
t-99 -35zM489 1298q0 -34 -13 -63.5t-35 -51t-51.5 -34t-63.5 -12.5t-63.5 12.5t-51.5 34t-34.5 51t-12.5 63.5t12.5 64t34.5 52t51.5 35t63.5 13t63.5 -13t51.5 -35t35 -52t13 -64zM-100 -111q-40 -15 -76.5 -32.5t-64 -38.5t-44 -46.5t-16.5 -56.5q0 -11 4 -23t13 -22
t22 -16t31 -6q32 0 65 44.5t53 137.5z" />
    <glyph glyph-name="k" unicode="k" horiz-adv-x="1061" 
d="M1147 367q-43 -129 -94.5 -204.5t-102.5 -114t-98.5 -49.5t-81.5 -11q-128 0 -193 60.5t-65 172.5q0 48 12 107l17 80q5 20 6.5 39t1.5 36q0 45 -16 72t-58 27q-35 0 -71.5 -20.5t-79.5 -55.5l-107 -506h-295l297 1393l303 41l-153 -721l395 311h203l-410 -285q34 9 68 9
q57 0 99.5 -19t70.5 -52t41.5 -76.5t13.5 -92.5q0 -19 -1.5 -38.5t-6.5 -39.5l-23 -102q-5 -17 -7.5 -33t-2.5 -33q0 -31 16 -53.5t64 -22.5q33 0 58 13t45 37t36.5 57.5t32.5 73.5h86z" />
    <glyph glyph-name="l" unicode="l" horiz-adv-x="547" 
d="M633 367q-29 -83 -64.5 -144t-74 -103t-79 -68t-78.5 -40t-72.5 -19t-61.5 -5q-46 0 -86 14t-69.5 44t-46.5 76t-17 111q0 28 4 61.5t12 72.5l219 1026l303 41l-235 -1106q-5 -17 -6.5 -33.5t-1.5 -32.5q0 -43 20 -59.5t63 -16.5q30 0 58.5 13.5t52.5 37.5t43 57.5
t31 72.5h86z" />
    <glyph glyph-name="m" unicode="m" horiz-adv-x="1540" 
d="M1626 367q-43 -126 -92.5 -201t-100 -114.5t-99 -51.5t-89.5 -12q-68 0 -114 19.5t-74 52t-40.5 74t-12.5 85.5q0 52 14.5 121.5t31.5 142.5t31.5 141t14.5 117q0 105 -74 105q-28 0 -52 -15t-44 -40.5t-36 -60t-28 -73.5l-139 -657h-295l150 707q6 24 6 51q0 18 -3 34
t-10.5 28.5t-19 20t-29.5 7.5q-30 0 -55.5 -15t-46 -41t-36.5 -61t-28 -74l-139 -657h-295l217 1024h295l-22 -106q33 37 66 59.5t65 35t62 17t57 4.5q40 0 75 -9.5t62 -30.5t46 -54.5t27 -81.5q37 57 76 91.5t76 52.5t71 24t62 6q49 0 90.5 -13t72 -41t47.5 -72t17 -105
q0 -41 -7.5 -88.5t-18 -97t-23.5 -98.5t-23.5 -94t-18 -83.5t-7.5 -67.5q0 -38 17.5 -62t64.5 -24q33 0 58 13t45 37t36.5 57.5t32.5 73.5h86z" />
    <glyph glyph-name="n" unicode="n" 
d="M1120 367q-43 -126 -92.5 -201t-100 -114.5t-99 -51.5t-89.5 -12q-68 0 -114 19.5t-74 52t-40.5 74t-12.5 85.5q0 52 14.5 121.5t31.5 142.5t31.5 141t14.5 117q0 105 -74 105q-28 0 -52 -15t-44 -40.5t-36 -60t-28 -73.5l-139 -657h-295l217 1024h295l-22 -106
q33 37 65.5 59.5t63.5 34.5t58.5 16t51.5 4q49 0 91 -13t72.5 -41t47.5 -72t17 -105q0 -41 -7.5 -88.5t-18.5 -97t-23.5 -98.5t-23.5 -94t-18.5 -83.5t-7.5 -67.5q0 -38 17.5 -62t64.5 -24q33 0 58 13t45 37t36.5 57.5t32.5 73.5h86z" />
    <glyph glyph-name="o" unicode="o" horiz-adv-x="899" 
d="M1151 778q-60 -63 -155 -107t-208 -63q-12 -142 -54.5 -256t-107.5 -194t-149 -123t-178 -43q-71 0 -131.5 17.5t-104 56t-68 100t-24.5 149.5q0 60 12.5 136.5t40 157.5t71 158.5t106 138.5t144.5 98.5t187 37.5q263 0 263 -327v-2q5 -2 9.5 -2h12.5q36 0 77.5 10.5
t83.5 27.5t82 39.5t73 45.5zM618 602q-32 8 -43.5 31.5t-11.5 54.5q0 43 17.5 70.5t46.5 40.5q-2 33 -7 55.5t-14 37t-22.5 20.5t-34.5 6q-37 0 -71 -28.5t-64.5 -75.5t-56 -107.5t-43.5 -124.5t-28 -126.5t-10 -113.5t5.5 -83t18 -50.5t32.5 -25.5t49 -7q37 0 74.5 33
t69.5 90t56.5 135t36.5 168z" />
    <glyph glyph-name="p" unicode="p" horiz-adv-x="958" 
d="M-186 -512l342 1612h295l-33 -154q45 38 103 63t136 25q52 0 98 -16.5t79.5 -54t53 -99.5t19.5 -153q0 -69 -9.5 -149.5t-32.5 -161t-60.5 -155t-93.5 -131.5t-132.5 -91.5t-175.5 -34.5q-39 0 -68 6t-49.5 16t-34 23.5t-22.5 27.5l-106 -499zM262 213q6 -17 24.5 -32
t53.5 -15q54 0 96 27.5t74 73t54 103.5t36 119t20.5 120.5t6.5 107.5q0 59 -11 93t-26.5 51t-33.5 21.5t-32 4.5q-35 0 -73.5 -25.5t-67.5 -75.5z" />
    <glyph glyph-name="q" unicode="q" horiz-adv-x="995" 
d="M360 -512l129 612q-45 -48 -105 -80t-138 -32q-53 0 -102 17t-87 56t-61 102t-23 154q0 70 14 150t43 160t72.5 153.5t102 130t132.5 90t163 33.5q87 0 126.5 -30t39.5 -74v-4l20 98h295l-311 -1462zM647 838q-2 9 -7 21t-14.5 22.5t-25 18t-37.5 7.5q-43 0 -81.5 -28
t-70.5 -74.5t-57 -105.5t-42.5 -121.5t-26.5 -123t-9 -108.5q0 -59 11 -91t26.5 -47.5t33.5 -18.5t32 -3q21 0 43.5 9.5t44.5 27.5t41 45.5t31 63.5z" />
    <glyph glyph-name="r" unicode="r" horiz-adv-x="770" 
d="M-78 0l217 1024h295l-26 -127q27 24 55 47t58.5 40.5t63.5 28.5t70 11q35 0 61.5 -13t44.5 -34t27 -49t9 -58q0 -27 -9 -53.5t-27.5 -47.5t-46.5 -34.5t-65 -13.5q-29 0 -44.5 10t-23.5 25t-11.5 32.5t-7.5 32.5t-10.5 25t-21.5 10q-47 0 -79 -21.5t-70 -56.5l-164 -778
h-295z" />
    <glyph glyph-name="s" unicode="s" horiz-adv-x="782" 
d="M868 367q-80 -93 -160.5 -153.5t-152.5 -102.5q-32 -34 -71.5 -57.5t-82 -38t-86 -21t-82.5 -6.5q-77 0 -133.5 23.5t-93.5 61t-54.5 84t-17.5 93.5q0 36 9.5 66.5t24.5 54.5t34.5 41.5t40.5 27.5q86 154 145 304.5t107 302.5l303 40q6 -133 11.5 -230.5t10.5 -169
t9 -121.5t7.5 -88.5t5 -70t1.5 -65.5q0 -23 -1.5 -42t-6.5 -36q45 26 81.5 51.5t65.5 51.5h86zM43 293q0 -72 28.5 -107.5t96.5 -35.5q34 0 66 9.5t57 32t40 58.5t15 90q0 26 -1.5 50.5t-3.5 52t-5.5 61.5t-8 79t-9.5 104t-11 138q-31 -100 -73 -194t-93 -193
q20 -11 33.5 -28t13.5 -43q0 -19 -6 -37t-18 -32.5t-28.5 -23t-37.5 -8.5q-17 0 -32 5t-23 22z" />
    <glyph glyph-name="t" unicode="t" horiz-adv-x="547" 
d="M633 367q-29 -83 -64.5 -144t-74 -103t-79 -68t-78.5 -40t-72.5 -19t-61.5 -5q-46 0 -86 14t-69.5 44t-46.5 76t-17 111q0 28 4 61.5t12 72.5l123 575h-68l17 82h67l62 283l303 41l-70 -324h123l-16 -82h-123l-131 -614q-5 -17 -6.5 -33.5t-1.5 -32.5q0 -43 20 -59.5
t63 -16.5q30 0 58.5 13.5t52.5 37.5t43 57.5t31 72.5h86z" />
    <glyph glyph-name="u" unicode="u" 
d="M1120 367q-29 -83 -63 -144t-70.5 -103t-74.5 -68t-74 -40t-69 -19t-60 -5q-88 0 -140 48.5t-63 145.5q-39 -63 -79 -101t-79 -59t-76 -27.5t-69 -6.5q-46 0 -86 14t-69.5 44t-46.5 76t-17 111q0 28 4 61.5t12 72.5l139 657h295l-147 -696q-6 -32 -6 -58q0 -35 13 -59.5
t48 -24.5q30 0 55 13.5t45.5 37.5t36 57.5t27.5 72.5l139 657h295l-147 -696q-5 -17 -7 -33.5t-2 -32.5q0 -43 20.5 -59.5t63.5 -16.5q30 0 55.5 13.5t46.5 37.5t37 57.5t27 72.5h86z" />
    <glyph glyph-name="v" unicode="v" horiz-adv-x="848" 
d="M139 1024h295l-147 -696q-5 -23 -8 -41.5t-3 -32.5q0 -31 16.5 -49.5t53.5 -18.5q50 0 96 35t85 92.5t71 130.5t54.5 149t35 148.5t12.5 128.5q-2 -5 -10.5 -9t-18.5 -6.5t-20 -3.5t-16 -1q-18 0 -32 9.5t-23.5 24.5t-14 33.5t-4.5 36.5q0 48 30.5 79.5t96.5 31.5
q37 0 61.5 -15t39.5 -40t21.5 -57t6.5 -66q0 -82 -14 -180.5t-44.5 -198.5t-77 -193.5t-111.5 -166t-149 -116.5t-188 -44q-116 0 -183.5 59.5t-67.5 181.5q0 17 2 43.5t8 55.5z" />
    <glyph glyph-name="w" unicode="w" horiz-adv-x="1354" 
d="M645 1024h295l-147 -696q-11 -49 -11 -74q0 -31 16.5 -49.5t53.5 -18.5q50 0 96 35t85 92.5t71 130.5t54.5 149t35 148.5t12.5 128.5q-2 -5 -10.5 -9t-18.5 -6.5t-20 -3.5t-16 -1q-18 0 -32 9.5t-23.5 24.5t-14 33.5t-4.5 36.5q0 48 30.5 79.5t96.5 31.5q37 0 61.5 -15
t39.5 -40t21.5 -57t6.5 -66q0 -82 -14 -180.5t-44.5 -198.5t-77 -193.5t-111.5 -166t-149 -116.5t-188 -44q-100 0 -163.5 42.5t-81.5 129.5q-37 -56 -76 -89.5t-76.5 -52t-73 -24.5t-65.5 -6q-46 0 -86 14t-69.5 44t-46.5 76t-17 111q0 28 4 61.5t12 72.5l139 657h295
l-147 -696q-6 -26 -6 -52q0 -18 3 -34t10 -28.5t18.5 -20t29.5 -7.5q30 0 55 13.5t45.5 37.5t36 57.5t27.5 72.5z" />
    <glyph glyph-name="x" unicode="x" horiz-adv-x="1069" 
d="M1155 367q-41 -119 -94.5 -193.5t-110.5 -115.5t-112.5 -55.5t-100.5 -14.5q-46 0 -85 20t-70.5 63.5t-55.5 110.5t-39 162l-282 -344h-148l414 467l-33 229q-8 52 -16.5 85t-17.5 52t-20 26t-24 7q-30 0 -66 -30.5t-73.5 -92.5t-72.5 -155.5t-62 -220.5h-86
q17 76 40 154.5t53.5 153t69.5 140t87 114t106 77t127 28.5q61 0 102 -23.5t66.5 -59t37.5 -78.5t16 -82l18 -156q87 97 130 167.5t48 127.5q-11 -2 -19 -3t-16 -1q-27 0 -45 9t-29.5 24.5t-16.5 36t-5 44.5q0 27 11.5 46t30.5 31.5t44.5 18t52.5 5.5q28 0 50 -16.5t36 -43
t21.5 -60t7.5 -67.5q0 -48 -17.5 -95t-53 -99t-89 -113t-125.5 -139l19 -143q6 -50 16.5 -84.5t26 -55.5t36.5 -30t48 -9q30 0 58 13.5t52 37.5t43 57.5t31 72.5h86z" />
    <glyph glyph-name="y" unicode="y" horiz-adv-x="995" 
d="M688 -164q-22 -110 -63.5 -178t-92.5 -106t-106.5 -51t-106.5 -13q-47 0 -88.5 12.5t-72.5 37t-49.5 62t-18.5 87.5q0 64 30.5 113t78.5 85.5t107.5 62.5t117.5 44l25 110q-33 -36 -66 -58.5t-64 -34.5t-60 -16.5t-56 -4.5q-46 0 -86 14t-69.5 44t-46.5 76t-17 111
q0 28 4 61.5t12 72.5l139 657h295l-147 -696q-6 -26 -6 -52q0 -18 3 -34t10 -28.5t18.5 -20t29.5 -7.5q28 0 52.5 12.5t44.5 35t35.5 53.5t27.5 67l143 670h295l-203 -950q47 16 85 38.5t69.5 57t57 82.5t46.5 115h86q-31 -102 -73.5 -170t-90.5 -111.5t-99 -66.5t-99 -35z
M403 -111q-40 -15 -76 -32.5t-63.5 -38.5t-44 -46.5t-16.5 -56.5q0 -11 4 -23t12.5 -22t21.5 -16t31 -6q32 0 65.5 44.5t53.5 137.5z" />
    <glyph glyph-name="z" unicode="z" horiz-adv-x="877" 
d="M0 0l522 913h-114q-24 0 -44.5 -1t-36 -4t-24 -9.5t-8.5 -17.5q0 -5 3.5 -6t7.5 -4t7.5 -10t3.5 -25q0 -29 -9.5 -49.5t-25 -33.5t-35 -19.5t-40.5 -6.5q-18 0 -34.5 6t-30 17t-21.5 28t-8 39q0 31 16.5 67.5t47 67.5t74.5 51.5t99 20.5h527l-502 -866q13 -1 31 -3
t39 -4.5t42.5 -4t42.5 -1.5q38 0 65 8.5t32 32.5q-20 2 -29.5 14t-9.5 29q0 15 7.5 30.5t21.5 28t35.5 21t49.5 8.5q48 0 69.5 -28t21.5 -70q0 -35 -17 -74t-49 -71t-78.5 -53t-105.5 -21h-543z" />
    <glyph glyph-name="braceleft" unicode="{" horiz-adv-x="721" 
d="M802 1438q-49 0 -84.5 -7.5t-61.5 -31.5t-44 -68t-31.5 -117t-24.5 -179.5t-23 -254.5q-5 -52 -16.5 -90t-35 -67t-60.5 -52.5t-92 -46.5q63 -29 88.5 -65t25.5 -94q0 -37 -8 -82t-20 -94.5t-26 -102.5t-26 -105.5t-20 -103.5t-8 -96q0 -90 34 -141.5t97 -59.5l-19 -92
h-59q-68 0 -122 17t-92 48.5t-58.5 77t-20.5 101.5q0 44 11 98.5t27 114t35 121.5t35 121t27 113t11 97q0 42 -18 58t-66 16h-64l21 104h65q36 0 61.5 13t42.5 42.5t26 77t11 115.5q9 206 32.5 343.5t70.5 220.5t122.5 118t186.5 35h88z" />
    <glyph glyph-name="bar" unicode="|" horiz-adv-x="1090" 
d="M449 -512v2050h190v-2050h-190z" />
    <glyph glyph-name="braceright" unicode="}" horiz-adv-x="721" 
d="M-115 -410q48 0 83.5 7.5t61.5 31.5t44 68t31.5 117t24.5 179.5t23 254.5q4 52 16 90t35.5 67t60.5 52.5t93 46.5q-32 15 -53.5 30.5t-35.5 34.5t-20 42.5t-6 52.5q0 55 17 127.5t37.5 151t37.5 157.5t17 147q0 90 -34.5 141.5t-97.5 59.5l19 92h59q68 0 122 -17
t92 -48.5t58.5 -77t20.5 -101.5q0 -44 -10.5 -98.5t-27 -114t-35 -121.5t-35 -121t-27 -113t-10.5 -97q0 -42 18 -58t66 -16h63l-20 -104h-66q-36 0 -61.5 -13t-42.5 -42.5t-26 -77t-11 -115.5q-9 -206 -32.5 -343.5t-71 -220.5t-122.5 -118t-186 -35h-88z" />
    <glyph glyph-name="asciitilde" unicode="~" horiz-adv-x="883" 
d="M922 1370q-8 -36 -38.5 -72.5t-76 -66t-101.5 -48t-114 -18.5q-51 0 -95.5 12t-85.5 26t-80.5 26t-82.5 12q-76 0 -135 -53l-13 4q50 99 137.5 150t204.5 51q55 0 98.5 -10.5t82 -23.5t76 -23.5t81.5 -10.5q38 0 72 12t57 35z" />
    <glyph glyph-name="uni00A0" unicode="&#xa0;" horiz-adv-x="444" 
 />
    <glyph glyph-name="exclamdown" unicode="&#xa1;" horiz-adv-x="449" 
d="M342 565l-156 -1024l-315 -43l297 1067h174zM151 886q0 34 12.5 64t34.5 52t51.5 35t63.5 13t63.5 -13t52 -35t35.5 -52t13 -64t-13 -63.5t-35.5 -51t-52 -34t-63.5 -12.5t-63.5 12.5t-51.5 34t-34.5 51t-12.5 63.5z" />
    <glyph glyph-name="cent" unicode="&#xa2;" horiz-adv-x="786" 
d="M219 -55l60 264q-126 34 -194.5 134t-68.5 257q0 118 39 225t106.5 192t158 142.5t194.5 76.5l53 234h105l-52 -225q112 -4 175 -55t63 -139q0 -36 -10 -66.5t-27 -53t-40.5 -35.5t-51.5 -13t-52.5 12.5t-39.5 32.5q7 12 13.5 28.5t11.5 34.5t7.5 36t2.5 34q0 39 -19 57
t-58 19l-175 -763q22 -3 49 -3q65 0 115 23.5t98 76.5q9 -23 12.5 -42t3.5 -38q0 -45 -20.5 -82t-58.5 -62.5t-91.5 -39.5t-119.5 -14h-15t-14 1l-57 -249h-103zM260 625q0 -150 66 -210l158 691q-48 -28 -89 -76.5t-71 -111.5t-47 -138t-17 -155z" />
    <glyph glyph-name="sterling" unicode="&#xa3;" horiz-adv-x="932" 
d="M98 858h190l70 322q19 90 61 161t100.5 120.5t131.5 75.5t154 26q54 0 100 -13.5t79.5 -39.5t52 -64.5t18.5 -89.5q0 -36 -10 -68.5t-29 -56.5t-46.5 -38.5t-62.5 -14.5q-34 0 -58.5 16.5t-35.5 38.5q8 12 15.5 28t13 34t9 37t3.5 36q0 43 -15.5 64.5t-41.5 21.5
q-53 0 -93 -67t-71 -207l-70 -322h291l-29 -102h-284l-64 -297q-14 -66 -46.5 -112.5t-92.5 -78.5l6 -8q32 12 59.5 14t59.5 2q42 0 79.5 -7t74.5 -15.5t75 -15.5t80 -7q61 0 108 25t95 82l6 -2q27 -62 27 -127q0 -51 -20.5 -91.5t-58 -69.5t-91 -44.5t-119.5 -15.5
q-51 0 -99.5 10t-98.5 22.5t-103 22.5t-113 10q-112 0 -260 -43l-18 84q24 14 47.5 40.5t44.5 63t37.5 81t27.5 94.5l82 383h-196z" />
    <glyph glyph-name="currency" unicode="&#xa4;" horiz-adv-x="1024" 
d="M702 449q-78 -60 -184 -60q-105 0 -188 62l-115 -115l-74 74l115 114q-29 38 -44 85t-15 98q0 107 59 184l-117 117l78 73l115 -114q42 31 88.5 46t97.5 15t97.5 -15t84.5 -44l115 114l74 -73l-113 -113q62 -83 62 -188q0 -102 -62 -187l113 -112l-74 -74zM723 709
q0 43 -16 80t-43.5 64.5t-65 43.5t-80.5 16t-80.5 -16t-65 -43.5t-43.5 -64.5t-16 -80t16 -80.5t43.5 -65t65 -43.5t80.5 -16t80.5 16t65 43.5t43.5 65t16 80.5z" />
    <glyph glyph-name="yen" unicode="&#xa5;" horiz-adv-x="1143" 
d="M1044 629l-28 -103h-262l-29 -133h268l-28 -102h-263l-61 -291h-328l62 291h-203l29 102h196l29 133h-203l29 103h197l-230 907h336l180 -739l307 739h136l-402 -907h268z" />
    <glyph glyph-name="brokenbar" unicode="&#xa6;" horiz-adv-x="1090" 
d="M449 -512v967h190v-967h-190zM449 616v922h190v-922h-190z" />
    <glyph glyph-name="section" unicode="&#xa7;" horiz-adv-x="1110" 
d="M799 272q0 -88 -30 -159t-87 -120.5t-140 -76.5t-188 -27q-30 0 -67 3.5t-74.5 13t-73 28t-63 48t-44 73t-16.5 103.5q0 56 15 102.5t41 79.5t62.5 51.5t78.5 18.5q31 0 55 -9.5t43.5 -24.5t35 -33t28.5 -36q-46 -4 -78 -14t-51.5 -28.5t-28 -46t-8.5 -66.5
q0 -80 38 -120t130 -40q75 0 119.5 47t44.5 151q0 63 -16 112t-42 89.5t-59 73.5t-67.5 63.5t-67.5 60.5t-59 64t-42 73t-16 89q0 49 16 92.5t44.5 79.5t67.5 63.5t85 45.5q-5 23 -7.5 44.5t-2.5 41.5q0 91 38.5 158t100.5 110.5t139.5 64.5t155.5 21q19 0 46 -2t56.5 -8.5
t59 -19t52.5 -34.5t37.5 -54t14.5 -77q0 -36 -9.5 -66.5t-26.5 -52t-42.5 -34t-56.5 -12.5q-19 0 -38 6t-38 26q35 20 54.5 60t19.5 82q0 21 -6.5 41t-21 35.5t-36 24.5t-51.5 9q-41 0 -76.5 -18t-61 -48.5t-40 -70t-14.5 -82.5q0 -64 30 -111t75 -88t97.5 -80t97.5 -87
t75 -109t30 -145q0 -59 -15.5 -115.5t-45.5 -103t-74.5 -79t-101.5 -44.5v-7zM786 375q39 48 39 129q0 59 -21 105.5t-55 85.5t-77 73.5t-87 69.5t-85.5 72.5t-71.5 84.5q-17 -11 -28 -26.5t-11 -44.5q0 -43 25 -80t63.5 -74t85.5 -76.5t91 -86.5t80 -103.5t52 -128.5z" />
    <glyph glyph-name="dieresis" unicode="&#xa8;" horiz-adv-x="803" 
d="M365 1298q0 -27 -10 -49.5t-27.5 -39t-40 -26t-47.5 -9.5q-27 0 -50 9.5t-39.5 26t-26 39t-9.5 49.5q0 25 9.5 48t26 40t39.5 27t50 10q25 0 47.5 -10t40 -27t27.5 -40t10 -48zM733 1298q0 -27 -10 -49.5t-27 -39t-40 -26t-48 -9.5q-27 0 -49.5 9.5t-39.5 26t-26.5 39
t-9.5 49.5q0 25 9.5 48t26.5 40t39.5 27t49.5 10q25 0 48 -10t40 -27t27 -40t10 -48z" />
    <glyph glyph-name="copyright" unicode="&#xa9;" horiz-adv-x="1202" 
d="M862 512q-43 -66 -109.5 -102.5t-142.5 -36.5q-62 0 -116.5 25.5t-95 68.5t-64 100t-23.5 121q0 65 24 120.5t65.5 96t96.5 63.5t117 23q48 -2 90.5 -17.5t75.5 -41t55.5 -60.5t32.5 -75l-96 -37q-6 18 -14.5 40t-25 41t-43.5 31.5t-71 12.5q-39 0 -74 -11.5t-62 -35
t-42.5 -58.5t-15.5 -82q0 -46 15 -86t41.5 -69.5t61.5 -46.5t76 -17q48 0 89.5 24.5t64.5 67.5zM600 156q-102 0 -192.5 41t-158 111.5t-106.5 166t-39 203.5q0 110 39 205.5t106.5 166.5t158 111.5t192.5 40.5q100 0 190.5 -40t158 -110.5t107.5 -165.5t40 -206
q0 -110 -40 -205.5t-107.5 -166.5t-158 -111.5t-190.5 -40.5zM604 242q83 0 156.5 33.5t128.5 92t87 138.5t32 172t-32 172t-87 138.5t-128.5 92t-156.5 33.5q-84 0 -157.5 -33.5t-128.5 -92t-87 -138.5t-32 -172t32 -172t87 -138.5t128.5 -92t157.5 -33.5z" />
    <glyph glyph-name="ordfeminine" unicode="&#xaa;" horiz-adv-x="707" 
d="M569 1139q-2 -11 -4 -18.5t-2 -18.5q0 -17 9 -29t34 -12q6 0 14.5 -0.5t16.5 4.5q-12 -36 -27 -56.5t-31.5 -30.5t-33 -12.5t-31.5 -2.5q-54 0 -81 22t-38 59q-29 -35 -68.5 -61.5t-93.5 -26.5q-42 0 -70 12.5t-44.5 32.5t-23.5 45t-7 50q0 47 6.5 96t21.5 95.5
t38.5 87.5t58.5 71.5t81 48.5t105 18q20 0 41.5 -8t38.5 -20l6 31h170zM399 1139l68 293q-14 12 -29.5 16t-29.5 4q-34 0 -63.5 -30t-51 -77t-33.5 -105t-12 -114q0 -24 6.5 -39.5t16.5 -23.5t22.5 -11t23.5 -3q20 0 38.5 15t35.5 38z" />
    <glyph glyph-name="guillemotleft" unicode="&#xab;" horiz-adv-x="1206" 
d="M41 487l18 84l629 308l-20 -113l-494 -246l397 -196l-24 -117zM471 487l18 84l629 308l-20 -113l-494 -246l397 -196l-24 -117z" />
    <glyph glyph-name="logicalnot" unicode="&#xac;" horiz-adv-x="909" 
d="M481 104l72 351h-514l37 161h741l-104 -512h-232z" />
    <glyph glyph-name="uni00AD" unicode="&#xad;" horiz-adv-x="594" 
d="M39 455l37 161h409l-34 -161h-412z" />
    <glyph glyph-name="registered" unicode="&#xae;" horiz-adv-x="1133" 
d="M565 162q-102 0 -192 41t-157.5 111.5t-106.5 166t-39 203.5q0 110 39 205.5t106.5 166.5t157.5 111.5t192 40.5q101 0 191 -40t158 -110.5t107.5 -165.5t39.5 -206q0 -110 -39.5 -205.5t-107.5 -166.5t-158 -111.5t-191 -40.5zM569 248q83 0 156.5 33.5t128.5 92
t87 138.5t32 172t-32 172t-87 138.5t-128.5 92t-156.5 33.5q-84 0 -157.5 -33.5t-128.5 -92t-87 -138.5t-32 -172t32 -172t87 -138.5t128.5 -92t157.5 -33.5zM717 389l-127 256h-135v-252h-95l2 596h193q54 0 99.5 -11t78 -32.5t50.5 -54t18 -74.5q0 -57 -33.5 -99
t-87.5 -59l133 -256zM561 723q22 0 48 3.5t47.5 13t36 27t14.5 46.5q0 27 -14 44.5t-36 28t-48.5 15t-51.5 4.5h-102v-182h106z" />
    <glyph glyph-name="macron" unicode="&#xaf;" horiz-adv-x="913" 
d="M801 1210h-658l33 152h655z" />
    <glyph glyph-name="degree" unicode="&#xb0;" horiz-adv-x="643" 
d="M272 766q-60 0 -98 15.5t-59.5 45.5t-30 73.5t-8.5 98.5q0 90 23 170t65.5 139.5t104 94.5t139.5 35q90 0 128.5 -60t38.5 -172q0 -44 -9 -93.5t-26 -98t-42.5 -93.5t-59.5 -79.5t-75.5 -55t-90.5 -20.5zM279 842q40 0 72 32.5t54.5 87.5t35 126t12.5 149q0 27 -2 50.5
t-8 41t-16 27.5t-26 10q-21 0 -48.5 -19.5t-53.5 -57.5t-46 -94.5t-26 -131.5q-2 -19 -3 -41t-1 -47t2 -49t8 -42.5t17 -30t29 -11.5z" />
    <glyph glyph-name="plusminus" unicode="&#xb1;" horiz-adv-x="981" 
d="M612 952h299l-34 -161h-302l-63 -295h-164l64 295h-291l37 161h291l61 285h164zM764 229h-719l37 162h717z" />
    <glyph glyph-name="twosuperior" unicode="&#xb2;" horiz-adv-x="672" 
d="M602 899q14 -38 14 -72q0 -31 -12 -56t-32.5 -43t-47.5 -28t-57 -10q-26 0 -53.5 6.5t-56 15t-58.5 15t-61 6.5q-28 0 -57 -7t-64 -26h-8q-7 27 -7 54q0 55 26.5 104t67 96t87 94t87 98.5t67 109.5t26.5 126q0 53 -18 87t-58 34q-38 0 -63 -27t-25 -65q0 -32 15 -55.5
t36 -32.5l2 -6q-18 -17 -41 -27t-43 -10q-38 0 -65 23.5t-27 68.5q0 34 16 68t47 61.5t77 44.5t106 17q51 0 93 -12.5t72 -36t47 -58t17 -78.5q0 -54 -24.5 -100.5t-63 -88.5t-86 -81t-93.5 -78t-85 -79t-61 -83q20 7 36 8t33 1q28 0 54.5 -4t51.5 -8.5t47 -8.5t40 -4
q26 0 48.5 10.5t47.5 38.5z" />
    <glyph glyph-name="threesuperior" unicode="&#xb3;" horiz-adv-x="688" 
d="M326 1004q-42 -11 -65 -43t-23 -78q0 -48 24.5 -78.5t63.5 -30.5q29 0 53.5 14.5t42 40t27.5 61.5t10 79q0 86 -36.5 138.5t-103.5 61.5v9q84 26 133.5 83t49.5 132q0 51 -21.5 80.5t-58.5 29.5q-35 0 -57.5 -27t-22.5 -67q0 -67 47 -88l2 -6q-23 -19 -44.5 -29
t-43.5 -10q-45 0 -72.5 28t-27.5 74q0 38 19.5 71.5t52.5 59t77 40t94 14.5q48 0 89 -14t70.5 -38.5t46 -58t16.5 -72.5q0 -35 -13.5 -66t-38 -56.5t-59.5 -45.5t-78 -32v-9q80 -17 127 -70t47 -128q0 -56 -25.5 -106t-69 -88t-101 -60.5t-121.5 -22.5q-51 0 -94 15.5
t-74 44t-48.5 68t-17.5 87.5q0 36 10.5 65.5t29 51t44 33.5t56.5 12q29 0 48.5 -15.5t35.5 -53.5z" />
    <glyph glyph-name="acute" unicode="&#xb4;" horiz-adv-x="647" 
d="M432 1536h215l-289 -387h-112z" />
    <glyph glyph-name="mu" unicode="&#xb5;" 
d="M1120 367q-29 -83 -63 -143t-70.5 -100.5t-74.5 -65t-74 -37.5t-69 -17t-60 -4q-87 0 -138.5 45.5t-62.5 138.5q-36 -58 -75 -94t-77.5 -56t-74.5 -27t-66 -7l-55 -266l-310 -74l144 676l6 31l139 657h295l-147 -696q-6 -26 -6 -52q0 -18 3 -34t10 -28.5t18.5 -20
t29.5 -7.5q30 0 55 13.5t45.5 37.5t36 57.5t27.5 72.5l139 657h295l-147 -696q-5 -17 -7 -33.5t-2 -32.5q0 -43 20.5 -59.5t63.5 -16.5q30 0 55.5 13.5t46.5 37.5t37 57.5t27 72.5h86z" />
    <glyph glyph-name="paragraph" unicode="&#xb6;" horiz-adv-x="1110" 
d="M569 -166l166 778q-23 -8 -44 -12.5t-44 -9.5l-158 -756h-192l158 756q-78 15 -135.5 55t-96 96t-57.5 124.5t-19 140.5q0 63 14.5 127t43.5 122.5t72 109.5t100 88.5t127.5 59t154.5 21.5q77 0 146 -18t120.5 -58.5t82 -105t30.5 -156.5q0 -35 -4 -70t-12 -77
l-260 -1215h-193zM852 1167q12 58 12 101q0 48 -12 78.5t-35 50.5l-147 -703h12q20 0 38 1.5t34 6.5z" />
    <glyph glyph-name="periodcentered" unicode="&#xb7;" horiz-adv-x="889" 
d="M641 547q0 -41 -16 -77t-43 -62.5t-63 -42t-77 -15.5t-76.5 15.5t-62 42t-42 62.5t-15.5 77q0 40 15.5 76t42 63t62 43t76.5 16t77 -16t63 -43t43 -63t16 -76z" />
    <glyph glyph-name="cedilla" unicode="&#xb8;" horiz-adv-x="465" 
d="M485 -250q0 -44 -21.5 -82.5t-58.5 -67.5t-86 -46t-104 -17q-62 0 -116 24.5t-89 69.5l35 56q29 -28 69 -45t79 -17q45 0 73.5 23.5t28.5 60.5q0 32 -23 52t-63 20q-23 0 -49.5 -6t-50.5 -19l-9 8l117 295l88 -6l-76 -188q42 12 65.5 16t43.5 4q68 0 107.5 -36.5
t39.5 -98.5z" />
    <glyph glyph-name="onesuperior" unicode="&#xb9;" horiz-adv-x="469" 
d="M266 705h-174l144 684q-36 -11 -62 -11q-37 0 -55.5 17.5t-18.5 46.5q0 13 6 33q82 0 167.5 23t168.5 65l7 -4z" />
    <glyph glyph-name="ordmasculine" unicode="&#xba;" horiz-adv-x="674" 
d="M616 1417q-5 -15 -11.5 -31t-15.5 -32t-21.5 -30t-30.5 -24q-4 -86 -30.5 -150.5t-65 -108t-83.5 -65.5t-86 -22q-97 0 -141.5 42.5t-44.5 140.5q0 101 25.5 174.5t68.5 121t99 70.5t118 23q22 0 42 -3.5t36 -10t25.5 -15.5t9.5 -20q0 -25 -17.5 -36t-35.5 -18
q-16 39 -54 39q-29 0 -52 -17t-40.5 -45t-30.5 -62.5t-21 -69.5t-11.5 -67t-3.5 -54q0 -25 6 -41t17.5 -25.5t27 -13.5t33.5 -4q27 0 48 20.5t36 52.5t24 71t13 77q-31 9 -31 45q0 15 7 30t18.5 27t25.5 19.5t29 7.5q23 0 31 -8t8 -31q23 14 35 28.5t32 37.5z" />
    <glyph glyph-name="guillemotright" unicode="&#xbb;" horiz-adv-x="1200" 
d="M31 207l28 117l492 196l-397 246l18 113l504 -308l-23 -110zM485 207l29 117l492 196l-398 246l19 113l503 -308l-22 -110z" />
    <glyph glyph-name="onequarter" unicode="&#xbc;" horiz-adv-x="1499" 
d="M831 303l-2 8q82 134 120 238t38 196q0 31 -5 56.5t-11 50.5q17 3 35.5 4.5t35.5 1.5q51 0 79 -33t28 -90q0 -36 -13 -78t-36 -86t-55.5 -88t-71.5 -84l2 -6h178l92 430l182 23l-98 -453h78l-23 -90h-73l-64 -303h-178l66 303h-304zM333 0h-147l852 1540h147zM375 705
h-174l144 684q-36 -11 -62 -11q-37 0 -55.5 17.5t-18.5 46.5q0 13 6 33q82 0 167.5 23t168.5 65l7 -4z" />
    <glyph glyph-name="onehalf" unicode="&#xbd;" horiz-adv-x="1499" 
d="M362 0h-147l852 1540h147zM389 705h-174l144 684q-36 -11 -62 -11q-37 0 -55.5 17.5t-18.5 46.5q0 13 6 33q82 0 167.5 23t168.5 65l7 -4zM1388 197q8 -20 11 -38.5t3 -33.5q0 -31 -12 -56t-32.5 -43t-47.5 -28t-57 -10q-26 0 -53.5 6.5t-56 15t-58.5 15t-61 6.5
q-28 0 -57 -7t-64 -26h-8q-7 25 -7 53q0 55 26.5 104t67 96t87 94.5t87 99t67 109.5t26.5 126q0 53 -18 87t-58 34q-38 0 -63 -27t-25 -65q0 -32 15 -55.5t36 -32.5l2 -7q-18 -17 -41 -26.5t-43 -9.5q-38 0 -65 23.5t-27 68.5q0 34 16 68t47 61t77 44t106 17q51 0 93 -12.5
t72 -36t47 -57.5t17 -78q0 -54 -24.5 -100.5t-63 -88.5t-86 -81t-93.5 -78t-85 -79t-61 -83q20 6 36 7t33 1q28 0 54.5 -4t51.5 -8.5t47 -8t40 -3.5q26 0 48.5 10.5t47.5 38.5z" />
    <glyph glyph-name="threequarters" unicode="&#xbe;" horiz-adv-x="1499" 
d="M401 0h-147l852 1540h147zM295 1004q-42 -11 -65 -43t-23 -78q0 -48 24.5 -78.5t63.5 -30.5q29 0 53.5 14.5t42 40t27.5 61.5t10 79q0 86 -36.5 138.5t-103.5 61.5v9q84 26 133.5 83t49.5 132q0 51 -21.5 80.5t-58.5 29.5q-35 0 -57.5 -27t-22.5 -67q0 -67 47 -88l2 -6
q-23 -19 -44.5 -29t-43.5 -10q-45 0 -72.5 28t-27.5 74q0 38 19.5 71.5t52.5 59t77 40t94 14.5q48 0 89 -14t70.5 -38.5t46 -58t16.5 -72.5q0 -35 -13.5 -66t-38 -56.5t-59.5 -45.5t-78 -32v-9q80 -17 127 -70t47 -128q0 -56 -25.5 -106t-69 -88t-101 -60.5t-121.5 -22.5
q-51 0 -94 15.5t-74 44t-48.5 68t-17.5 87.5q0 36 10.5 65.5t29 51t44 33.5t56.5 12q29 0 48.5 -15.5t35.5 -53.5zM831 303l-2 8q82 134 120 238t38 196q0 31 -5 56.5t-11 50.5q17 3 35.5 4.5t35.5 1.5q51 0 79 -33t28 -90q0 -36 -13 -78t-36 -86t-55.5 -88t-71.5 -84l2 -6
h178l92 430l182 23l-98 -453h78l-23 -90h-73l-64 -303h-178l66 303h-304z" />
    <glyph glyph-name="questiondown" unicode="&#xbf;" horiz-adv-x="899" 
d="M254 -219q0 -90 36 -138.5t101 -48.5q34 0 63 12.5t50 35t33 53t12 65.5q0 54 -27 99t-71 65v8q37 34 78 52t80 18q33 0 60 -12.5t45.5 -35.5t29 -55.5t10.5 -72.5q0 -72 -33 -134t-91 -107.5t-137 -71t-171 -25.5q-81 0 -145.5 20t-109.5 57.5t-69 90.5t-24 119
q0 67 23.5 121t61.5 100t86.5 86.5t99.5 80t99.5 80.5t86.5 89t61.5 105t23.5 128h125q0 -98 -28.5 -172t-71.5 -134t-93.5 -112t-93.5 -106.5t-71.5 -116.5t-28.5 -143zM437 877q0 34 12.5 63.5t34 51.5t51 35t63.5 13t63.5 -13t52 -35t35.5 -51.5t13 -63.5t-13 -63.5
t-35.5 -51.5t-52 -34.5t-63.5 -12.5t-63.5 12.5t-51 34.5t-34 51.5t-12.5 63.5z" />
    <glyph glyph-name="Agrave" unicode="&#xc0;" horiz-adv-x="1368" 
d="M801 0l157 743q-78 36 -142.5 52t-131.5 22q-58 -125 -106.5 -257t-84 -256.5t-55.5 -233.5t-20 -189q0 -49 8.5 -74.5t19.5 -39.5q-41 0 -88.5 4t-89 24.5t-69 64.5t-27.5 124q0 68 21.5 163t61.5 204.5t95 229t123 236.5q-97 -6 -158.5 -29.5t-81.5 -76.5
q8 0 17.5 -20.5t9.5 -43.5q0 -37 -33.5 -58.5t-81.5 -21.5q-27 0 -50 7.5t-40 22t-27 37t-10 52.5q0 52 31.5 98t87.5 80t132.5 54t166.5 20q42 0 107 -6q78 123 165 232.5t179 192t185 131t183 48.5q36 0 80.5 -6t81.5 -23l-321 -1507h-295zM1096 1391q-46 -25 -93.5 -71.5
t-94 -110t-92.5 -141t-89 -163.5q62 -12 126 -29.5t124 -41.5zM1116 1661l-121 387h215l59 -387h-153z" />
    <glyph glyph-name="Aacute" unicode="&#xc1;" horiz-adv-x="1368" 
d="M801 0l157 743q-78 36 -142.5 52t-131.5 22q-58 -125 -106.5 -257t-84 -256.5t-55.5 -233.5t-20 -189q0 -49 8.5 -74.5t19.5 -39.5q-41 0 -88.5 4t-89 24.5t-69 64.5t-27.5 124q0 68 21.5 163t61.5 204.5t95 229t123 236.5q-97 -6 -158.5 -29.5t-81.5 -76.5
q8 0 17.5 -20.5t9.5 -43.5q0 -37 -33.5 -58.5t-81.5 -21.5q-27 0 -50 7.5t-40 22t-27 37t-10 52.5q0 52 31.5 98t87.5 80t132.5 54t166.5 20q42 0 107 -6q78 123 165 232.5t179 192t185 131t183 48.5q36 0 80.5 -6t81.5 -23l-321 -1507h-295zM1096 1391q-46 -25 -93.5 -71.5
t-94 -110t-92.5 -141t-89 -163.5q62 -12 126 -29.5t124 -41.5zM1175 1661l187 387h215l-248 -387h-154z" />
    <glyph glyph-name="Acircumflex" unicode="&#xc2;" horiz-adv-x="1368" 
d="M801 0l157 743q-78 36 -142.5 52t-131.5 22q-58 -125 -106.5 -257t-84 -256.5t-55.5 -233.5t-20 -189q0 -49 8.5 -74.5t19.5 -39.5q-41 0 -88.5 4t-89 24.5t-69 64.5t-27.5 124q0 68 21.5 163t61.5 204.5t95 229t123 236.5q-97 -6 -158.5 -29.5t-81.5 -76.5
q8 0 17.5 -20.5t9.5 -43.5q0 -37 -33.5 -58.5t-81.5 -21.5q-27 0 -50 7.5t-40 22t-27 37t-10 52.5q0 52 31.5 98t87.5 80t132.5 54t166.5 20q42 0 107 -6q78 123 165 232.5t179 192t185 131t183 48.5q36 0 80.5 -6t81.5 -23l-321 -1507h-295zM1096 1391q-46 -25 -93.5 -71.5
t-94 -110t-92.5 -141t-89 -163.5q62 -12 126 -29.5t124 -41.5zM1498 1661l-123 164l-321 -164h-90l434 387h43l123 -387h-66z" />
    <glyph glyph-name="Atilde" unicode="&#xc3;" horiz-adv-x="1368" 
d="M801 0l157 743q-78 36 -142.5 52t-131.5 22q-58 -125 -106.5 -257t-84 -256.5t-55.5 -233.5t-20 -189q0 -49 8.5 -74.5t19.5 -39.5q-41 0 -88.5 4t-89 24.5t-69 64.5t-27.5 124q0 68 21.5 163t61.5 204.5t95 229t123 236.5q-97 -6 -158.5 -29.5t-81.5 -76.5
q8 0 17.5 -20.5t9.5 -43.5q0 -37 -33.5 -58.5t-81.5 -21.5q-27 0 -50 7.5t-40 22t-27 37t-10 52.5q0 52 31.5 98t87.5 80t132.5 54t166.5 20q42 0 107 -6q78 123 165 232.5t179 192t185 131t183 48.5q36 0 80.5 -6t81.5 -23l-321 -1507h-295zM1096 1391q-46 -25 -93.5 -71.5
t-94 -110t-92.5 -141t-89 -163.5q62 -12 126 -29.5t124 -41.5zM1659 1882q-8 -36 -38.5 -72.5t-76 -66t-101.5 -48t-114 -18.5q-51 0 -95 12t-85 26t-81 26t-83 12q-76 0 -135 -53l-12 4q49 99 136.5 150t205.5 51q55 0 98 -10.5t81.5 -23.5t76 -23.5t82.5 -10.5q38 0 72 12
t57 35z" />
    <glyph glyph-name="Adieresis" unicode="&#xc4;" horiz-adv-x="1368" 
d="M801 0l157 743q-78 36 -142.5 52t-131.5 22q-58 -125 -106.5 -257t-84 -256.5t-55.5 -233.5t-20 -189q0 -49 8.5 -74.5t19.5 -39.5q-41 0 -88.5 4t-89 24.5t-69 64.5t-27.5 124q0 68 21.5 163t61.5 204.5t95 229t123 236.5q-97 -6 -158.5 -29.5t-81.5 -76.5
q8 0 17.5 -20.5t9.5 -43.5q0 -37 -33.5 -58.5t-81.5 -21.5q-27 0 -50 7.5t-40 22t-27 37t-10 52.5q0 52 31.5 98t87.5 80t132.5 54t166.5 20q42 0 107 -6q78 123 165 232.5t179 192t185 131t183 48.5q36 0 80.5 -6t81.5 -23l-321 -1507h-295zM1096 1391q-46 -25 -93.5 -71.5
t-94 -110t-92.5 -141t-89 -163.5q62 -12 126 -29.5t124 -41.5zM1056 1686q-27 0 -50 9.5t-39.5 26t-26 39t-9.5 49.5q0 25 9.5 48t26 40t39.5 27t50 10q25 0 47.5 -10t39.5 -27t27 -40t10 -48q0 -27 -10 -49.5t-27 -39t-39.5 -26t-47.5 -9.5zM1549 1810q0 -27 -10 -49.5
t-27 -39t-40 -26t-48 -9.5q-27 0 -49.5 9.5t-39.5 26t-26.5 39t-9.5 49.5q0 25 9.5 48t26.5 40t39.5 27t49.5 10q25 0 48 -10t40 -27t27 -40t10 -48z" />
    <glyph glyph-name="Aring" unicode="&#xc5;" horiz-adv-x="1368" 
d="M801 0l157 743q-78 36 -142.5 52t-131.5 22q-58 -125 -106.5 -257t-84 -256.5t-55.5 -233.5t-20 -189q0 -49 8.5 -74.5t19.5 -39.5q-41 0 -88.5 4t-89 24.5t-69 64.5t-27.5 124q0 68 21.5 163t61.5 204.5t95 229t123 236.5q-97 -6 -158.5 -29.5t-81.5 -76.5
q8 0 17.5 -20.5t9.5 -43.5q0 -37 -33.5 -58.5t-81.5 -21.5q-27 0 -50 7.5t-40 22t-27 37t-10 52.5q0 52 31.5 98t87.5 80t132.5 54t166.5 20q42 0 107 -6q78 123 165 232.5t179 192t185 131t183 48.5q36 0 80.5 -6t81.5 -23l-321 -1507h-295zM1096 1391q-46 -25 -93.5 -71.5
t-94 -110t-92.5 -141t-89 -163.5q62 -12 126 -29.5t124 -41.5zM1405 1815q0 -34 -9.5 -65.5t-31 -55.5t-55.5 -38t-82 -14q-33 0 -59.5 11t-45.5 30.5t-29 46t-10 56.5q0 28 10 60.5t31 60.5t54 46.5t79 18.5q38 0 66 -12t46 -33.5t27 -50t9 -61.5zM1329 1808
q0 15 -1.5 32.5t-8 31.5t-20 23.5t-38.5 9.5q-27 0 -45 -11t-29.5 -27.5t-16.5 -37t-5 -39.5q0 -35 16.5 -55.5t53.5 -20.5q48 0 71 25.5t23 68.5z" />
    <glyph glyph-name="AE" unicode="&#xc6;" horiz-adv-x="1565" 
d="M801 0l157 743q-78 36 -144 52.5t-132 21.5q-57 -125 -105.5 -256t-83.5 -255t-55 -233t-20 -190q0 -39 4.5 -59.5t9.5 -30.5t9.5 -14t4.5 -10q-53 2 -102.5 7.5t-87.5 27.5t-61 67.5t-23 126.5q0 65 21.5 157.5t61.5 200.5t95 226t123 235q-92 -6 -154.5 -28.5
t-85.5 -77.5q8 0 17.5 -20.5t9.5 -43.5q0 -32 -29.5 -56t-95.5 -24q-22 0 -43 7t-37.5 23t-26.5 40t-10 59q0 47 33 89.5t88 75t127.5 52t151.5 19.5q53 0 121 -6q77 124 164.5 235t179.5 195t186 133t184 49q42 0 85 -6.5t88 -14t93.5 -14t102.5 -6.5t113 8t127 31
q-11 -34 -23 -73.5t-35 -73t-61 -56t-101 -22.5q-39 0 -72.5 6t-63.5 15.5t-58.5 21t-58.5 22.5l-111 -518h317l-41 -151h-309l-104 -490h458l-43 -217h-755zM1096 1391q-47 -26 -95 -72.5t-95.5 -110t-93.5 -141t-89 -164.5q66 -12 130 -29t124 -40z" />
    <glyph glyph-name="Ccedilla" unicode="&#xc7;" horiz-adv-x="1018" 
d="M1071 348q-37 -92 -97 -159.5t-131.5 -113.5t-148 -71t-145.5 -33l-43 -106q32 8 59.5 12t48.5 4q66 0 96.5 -27t30.5 -75q0 -56 -21.5 -98t-56 -70t-78.5 -42.5t-89 -14.5q-39 0 -70 4.5t-57 12.5t-48.5 18t-44.5 22q14 25 33.5 45t48.5 20q31 0 50 -8.5t34.5 -19
t30.5 -19t37 -8.5q13 0 24 7.5t19.5 19.5t13 27.5t4.5 31.5q0 29 -18 51.5t-61 22.5q-42 0 -66 -8.5t-41 -16.5l76 211q-108 3 -187 32t-131.5 89t-78 154.5t-25.5 228.5q0 70 8.5 152.5t27.5 170.5t48.5 177t71.5 171.5t97 154.5t124 125t153 83.5t185 30.5
q71 0 133.5 -15.5t109 -48.5t73 -85t26.5 -125q0 -41 -7.5 -75.5t-25 -60t-45 -39.5t-66.5 -14q-24 0 -55.5 9t-60.5 44q18 9 35 28.5t30 45t21 55.5t8 60q0 24 -6.5 47t-21.5 40t-39 27.5t-58 10.5q-57 0 -110.5 -42t-101 -113.5t-87 -166.5t-67.5 -201t-44 -218t-16 -216
q0 -71 10.5 -129.5t38 -100.5t75 -65.5t122.5 -23.5q121 0 224 54t175 151z" />
    <glyph glyph-name="Egrave" unicode="&#xc8;" horiz-adv-x="940" 
d="M991 348q-41 -90 -104.5 -161t-143 -121t-169.5 -76.5t-183 -26.5q-99 0 -170.5 29.5t-117 79.5t-67.5 115t-22 137q0 81 26 165t74.5 157.5t119 129t159.5 78.5q-66 48 -95.5 112.5t-29.5 133.5q0 79 33.5 157.5t93 141.5t142 102t180.5 39q61 0 114.5 -16.5t93.5 -48.5
t62.5 -80t22.5 -111q0 -46 -12 -85t-33 -67.5t-48.5 -44.5t-58.5 -16q-56 0 -96 55q18 6 34.5 25t29 44t19.5 54t7 56q0 31 -10 53t-25.5 35.5t-36 19.5t-41.5 6q-46 0 -84.5 -25t-66 -65.5t-43 -92.5t-15.5 -106q0 -45 11.5 -88t36.5 -79.5t64.5 -64t94.5 -42.5
q-55 -12 -103.5 -40t-89 -66.5t-72.5 -85.5t-54.5 -97.5t-34.5 -101.5t-12 -98q0 -43 11 -81t34 -66t60 -44t89 -16q47 0 101.5 13t106.5 39.5t97 65.5t74 91zM637 1661l-121 387h215l60 -387h-154z" />
    <glyph glyph-name="Eacute" unicode="&#xc9;" horiz-adv-x="940" 
d="M991 348q-41 -90 -104.5 -161t-143 -121t-169.5 -76.5t-183 -26.5q-99 0 -170.5 29.5t-117 79.5t-67.5 115t-22 137q0 81 26 165t74.5 157.5t119 129t159.5 78.5q-66 48 -95.5 112.5t-29.5 133.5q0 79 33.5 157.5t93 141.5t142 102t180.5 39q61 0 114.5 -16.5t93.5 -48.5
t62.5 -80t22.5 -111q0 -46 -12 -85t-33 -67.5t-48.5 -44.5t-58.5 -16q-56 0 -96 55q18 6 34.5 25t29 44t19.5 54t7 56q0 31 -10 53t-25.5 35.5t-36 19.5t-41.5 6q-46 0 -84.5 -25t-66 -65.5t-43 -92.5t-15.5 -106q0 -45 11.5 -88t36.5 -79.5t64.5 -64t94.5 -42.5
q-55 -12 -103.5 -40t-89 -66.5t-72.5 -85.5t-54.5 -97.5t-34.5 -101.5t-12 -98q0 -43 11 -81t34 -66t60 -44t89 -16q47 0 101.5 13t106.5 39.5t97 65.5t74 91zM676 1661l186 387h215l-248 -387h-153z" />
    <glyph glyph-name="Ecircumflex" unicode="&#xca;" horiz-adv-x="940" 
d="M991 348q-41 -90 -104.5 -161t-143 -121t-169.5 -76.5t-183 -26.5q-99 0 -170.5 29.5t-117 79.5t-67.5 115t-22 137q0 81 26 165t74.5 157.5t119 129t159.5 78.5q-66 48 -95.5 112.5t-29.5 133.5q0 79 33.5 157.5t93 141.5t142 102t180.5 39q61 0 114.5 -16.5t93.5 -48.5
t62.5 -80t22.5 -111q0 -46 -12 -85t-33 -67.5t-48.5 -44.5t-58.5 -16q-56 0 -96 55q18 6 34.5 25t29 44t19.5 54t7 56q0 31 -10 53t-25.5 35.5t-36 19.5t-41.5 6q-46 0 -84.5 -25t-66 -65.5t-43 -92.5t-15.5 -106q0 -45 11.5 -88t36.5 -79.5t64.5 -64t94.5 -42.5
q-55 -12 -103.5 -40t-89 -66.5t-72.5 -85.5t-54.5 -97.5t-34.5 -101.5t-12 -98q0 -43 11 -81t34 -66t60 -44t89 -16q47 0 101.5 13t106.5 39.5t97 65.5t74 91zM948 1661l-123 164l-321 -164h-90l434 387h43l123 -387h-66z" />
    <glyph glyph-name="Edieresis" unicode="&#xcb;" horiz-adv-x="940" 
d="M991 348q-41 -90 -104.5 -161t-143 -121t-169.5 -76.5t-183 -26.5q-99 0 -170.5 29.5t-117 79.5t-67.5 115t-22 137q0 81 26 165t74.5 157.5t119 129t159.5 78.5q-66 48 -95.5 112.5t-29.5 133.5q0 79 33.5 157.5t93 141.5t142 102t180.5 39q61 0 114.5 -16.5t93.5 -48.5
t62.5 -80t22.5 -111q0 -46 -12 -85t-33 -67.5t-48.5 -44.5t-58.5 -16q-56 0 -96 55q18 6 34.5 25t29 44t19.5 54t7 56q0 31 -10 53t-25.5 35.5t-36 19.5t-41.5 6q-46 0 -84.5 -25t-66 -65.5t-43 -92.5t-15.5 -106q0 -45 11.5 -88t36.5 -79.5t64.5 -64t94.5 -42.5
q-55 -12 -103.5 -40t-89 -66.5t-72.5 -85.5t-54.5 -97.5t-34.5 -101.5t-12 -98q0 -43 11 -81t34 -66t60 -44t89 -16q47 0 101.5 13t106.5 39.5t97 65.5t74 91zM737 1810q0 -27 -10 -49.5t-27 -39t-40 -26t-48 -9.5q-27 0 -49.5 9.5t-39.5 26t-26.5 39t-9.5 49.5q0 25 9.5 48
t26.5 40t39.5 27t49.5 10q25 0 48 -10t40 -27t27 -40t10 -48zM1106 1810q0 -27 -10 -49.5t-27 -39t-40 -26t-48 -9.5q-27 0 -50 9.5t-39.5 26t-26 39t-9.5 49.5q0 25 9.5 48t26 40t39.5 27t50 10q25 0 48 -10t40 -27t27 -40t10 -48z" />
    <glyph glyph-name="Igrave" unicode="&#xcc;" horiz-adv-x="768" 
d="M193 0l296 1391q-136 -56 -211 -168t-75 -279q0 -39 4.5 -63.5t9.5 -39t9.5 -22.5t4.5 -14q-53 0 -94 10.5t-68.5 33.5t-42 61t-14.5 94q0 68 29.5 134t81 125t121 109t149 86.5t166 57t172.5 20.5q23 0 42.5 -1t39.5 -3l-326 -1532h-294zM561 1661l-121 387h215l60 -387
h-154z" />
    <glyph glyph-name="Iacute" unicode="&#xcd;" horiz-adv-x="768" 
d="M193 0l296 1391q-136 -56 -211 -168t-75 -279q0 -39 4.5 -63.5t9.5 -39t9.5 -22.5t4.5 -14q-53 0 -94 10.5t-68.5 33.5t-42 61t-14.5 94q0 68 29.5 134t81 125t121 109t149 86.5t166 57t172.5 20.5q23 0 42.5 -1t39.5 -3l-326 -1532h-294zM601 1661l186 387h215
l-247 -387h-154z" />
    <glyph glyph-name="Icircumflex" unicode="&#xce;" horiz-adv-x="768" 
d="M193 0l296 1391q-136 -56 -211 -168t-75 -279q0 -39 4.5 -63.5t9.5 -39t9.5 -22.5t4.5 -14q-53 0 -94 10.5t-68.5 33.5t-42 61t-14.5 94q0 68 29.5 134t81 125t121 109t149 86.5t166 57t172.5 20.5q23 0 42.5 -1t39.5 -3l-326 -1532h-294zM884 1661l-123 164l-322 -164
h-90l434 387h43l123 -387h-65z" />
    <glyph glyph-name="Idieresis" unicode="&#xcf;" horiz-adv-x="768" 
d="M193 0l296 1391q-136 -56 -211 -168t-75 -279q0 -39 4.5 -63.5t9.5 -39t9.5 -22.5t4.5 -14q-53 0 -94 10.5t-68.5 33.5t-42 61t-14.5 94q0 68 29.5 134t81 125t121 109t149 86.5t166 57t172.5 20.5q23 0 42.5 -1t39.5 -3l-326 -1532h-294zM632 1810q0 -27 -10 -49.5
t-27 -39t-40 -26t-48 -9.5q-27 0 -50 9.5t-39.5 26t-26 39t-9.5 49.5q0 25 9.5 48t26 40t39.5 27t50 10q25 0 48 -10t40 -27t27 -40t10 -48zM1001 1810q0 -27 -10 -49.5t-27.5 -39t-40 -26t-47.5 -9.5q-27 0 -50 9.5t-39.5 26t-26 39t-9.5 49.5q0 25 9.5 48t26 40t39.5 27
t50 10q25 0 47.5 -10t40 -27t27.5 -40t10 -48z" />
    <glyph glyph-name="Eth" unicode="&#xd0;" horiz-adv-x="1358" 
d="M193 0l151 707h-80l41 151h72l94 445l303 40l-104 -485h161l-40 -151h-154l-109 -512q56 -41 117 -41t114 38.5t96.5 104t77.5 153t57.5 186t35.5 202.5t12 202q0 96 -11 171t-42 126t-86 78t-143 27q-125 0 -226.5 -34t-174.5 -98.5t-112.5 -156.5t-39.5 -209
q0 -39 4.5 -63.5t9.5 -39t9.5 -22.5t4.5 -14q-53 0 -94 10.5t-68.5 33.5t-42 61t-14.5 94q0 68 29.5 134t81 125t121 109t149 86.5t166 57t172.5 20.5q118 0 208 -21t155.5 -58.5t109 -89.5t69.5 -113.5t37 -130t11 -140.5q0 -132 -21 -258.5t-58.5 -239t-90 -206.5
t-115.5 -162t-134.5 -106t-147.5 -38q-60 0 -122 26t-128 83l-17 -82h-294z" />
    <glyph glyph-name="Ntilde" unicode="&#xd1;" horiz-adv-x="1405" 
d="M1452 1882q-8 -36 -38.5 -72.5t-75.5 -66t-101.5 -48t-114.5 -18.5q-51 0 -95 12t-85 26t-81 26t-83 12q-76 0 -135 -53l-12 4q49 99 136.5 150t205.5 51q55 0 98 -10.5t81.5 -23.5t76 -23.5t82.5 -10.5q38 0 72 12t57 35zM1471 1532l-334 -1532h-283l-237 1016
l-234 -1016h-194l308 1403q-142 -50 -213 -155t-71 -255q0 -66 14.5 -120.5t40.5 -88.5q-131 0 -193.5 53.5t-62.5 168.5q0 73 22.5 141t63 128t97.5 109.5t126 85t148 55t165 19.5q48 0 83.5 -6.5t78.5 -21.5l247 -1096l229 1112h199z" />
    <glyph glyph-name="Ograve" unicode="&#xd2;" horiz-adv-x="1362" 
d="M883 1343q-47 -28 -91.5 -87.5t-84.5 -139t-73.5 -173t-58 -190t-38 -190t-13.5 -172.5q0 -52 7 -95.5t21 -75t36.5 -49t54.5 -17.5q52 0 103.5 40t99.5 109t89 160.5t71 195t47.5 212.5t17.5 212q0 89 -10.5 156.5t-39.5 112.5t-80 67.5t-132 22.5q-117 0 -224 -36.5
t-188.5 -105t-129.5 -166t-48 -219.5q0 -30 3.5 -48.5t7 -30t7 -18.5t3.5 -13q-98 0 -152.5 39t-54.5 133q0 72 31 141t87 131.5t132.5 115t168.5 90.5t195 59.5t211 21.5q135 0 227.5 -39t149.5 -108.5t82.5 -166t25.5 -210.5q0 -99 -18.5 -213.5t-58 -228t-100 -219
t-144.5 -186t-192 -129t-242 -48.5q-81 0 -148 22t-116 71t-76 127.5t-27 190.5q0 83 15.5 186.5t46.5 210t77.5 208.5t108 181t138.5 127t169 48q26 0 52 -3t55 -14zM739 1661l-121 387h215l59 -387h-153z" />
    <glyph glyph-name="Oacute" unicode="&#xd3;" horiz-adv-x="1362" 
d="M883 1343q-47 -28 -91.5 -87.5t-84.5 -139t-73.5 -173t-58 -190t-38 -190t-13.5 -172.5q0 -52 7 -95.5t21 -75t36.5 -49t54.5 -17.5q52 0 103.5 40t99.5 109t89 160.5t71 195t47.5 212.5t17.5 212q0 89 -10.5 156.5t-39.5 112.5t-80 67.5t-132 22.5q-117 0 -224 -36.5
t-188.5 -105t-129.5 -166t-48 -219.5q0 -30 3.5 -48.5t7 -30t7 -18.5t3.5 -13q-98 0 -152.5 39t-54.5 133q0 72 31 141t87 131.5t132.5 115t168.5 90.5t195 59.5t211 21.5q135 0 227.5 -39t149.5 -108.5t82.5 -166t25.5 -210.5q0 -99 -18.5 -213.5t-58 -228t-100 -219
t-144.5 -186t-192 -129t-242 -48.5q-81 0 -148 22t-116 71t-76 127.5t-27 190.5q0 83 15.5 186.5t46.5 210t77.5 208.5t108 181t138.5 127t169 48q26 0 52 -3t55 -14zM813 1661l186 387h215l-247 -387h-154z" />
    <glyph glyph-name="Ocircumflex" unicode="&#xd4;" horiz-adv-x="1362" 
d="M883 1343q-47 -28 -91.5 -87.5t-84.5 -139t-73.5 -173t-58 -190t-38 -190t-13.5 -172.5q0 -52 7 -95.5t21 -75t36.5 -49t54.5 -17.5q52 0 103.5 40t99.5 109t89 160.5t71 195t47.5 212.5t17.5 212q0 89 -10.5 156.5t-39.5 112.5t-80 67.5t-132 22.5q-117 0 -224 -36.5
t-188.5 -105t-129.5 -166t-48 -219.5q0 -30 3.5 -48.5t7 -30t7 -18.5t3.5 -13q-98 0 -152.5 39t-54.5 133q0 72 31 141t87 131.5t132.5 115t168.5 90.5t195 59.5t211 21.5q135 0 227.5 -39t149.5 -108.5t82.5 -166t25.5 -210.5q0 -99 -18.5 -213.5t-58 -228t-100 -219
t-144.5 -186t-192 -129t-242 -48.5q-81 0 -148 22t-116 71t-76 127.5t-27 190.5q0 83 15.5 186.5t46.5 210t77.5 208.5t108 181t138.5 127t169 48q26 0 52 -3t55 -14zM1092 1661l-123 164l-322 -164h-90l434 387h43l123 -387h-65z" />
    <glyph glyph-name="Otilde" unicode="&#xd5;" horiz-adv-x="1362" 
d="M883 1343q-47 -28 -91.5 -87.5t-84.5 -139t-73.5 -173t-58 -190t-38 -190t-13.5 -172.5q0 -52 7 -95.5t21 -75t36.5 -49t54.5 -17.5q52 0 103.5 40t99.5 109t89 160.5t71 195t47.5 212.5t17.5 212q0 89 -10.5 156.5t-39.5 112.5t-80 67.5t-132 22.5q-117 0 -224 -36.5
t-188.5 -105t-129.5 -166t-48 -219.5q0 -30 3.5 -48.5t7 -30t7 -18.5t3.5 -13q-98 0 -152.5 39t-54.5 133q0 72 31 141t87 131.5t132.5 115t168.5 90.5t195 59.5t211 21.5q135 0 227.5 -39t149.5 -108.5t82.5 -166t25.5 -210.5q0 -99 -18.5 -213.5t-58 -228t-100 -219
t-144.5 -186t-192 -129t-242 -48.5q-81 0 -148 22t-116 71t-76 127.5t-27 190.5q0 83 15.5 186.5t46.5 210t77.5 208.5t108 181t138.5 127t169 48q26 0 52 -3t55 -14zM1382 1882q-8 -36 -38.5 -72.5t-75.5 -66t-101 -48t-114 -18.5q-52 0 -96 12t-85 26t-80.5 26t-82.5 12
q-77 0 -136 -53l-12 4q50 99 137.5 150t204.5 51q55 0 98.5 -10.5t81.5 -23.5t75.5 -23.5t82.5 -10.5q38 0 72 12t57 35z" />
    <glyph glyph-name="Odieresis" unicode="&#xd6;" horiz-adv-x="1362" 
d="M883 1343q-47 -28 -91.5 -87.5t-84.5 -139t-73.5 -173t-58 -190t-38 -190t-13.5 -172.5q0 -52 7 -95.5t21 -75t36.5 -49t54.5 -17.5q52 0 103.5 40t99.5 109t89 160.5t71 195t47.5 212.5t17.5 212q0 89 -10.5 156.5t-39.5 112.5t-80 67.5t-132 22.5q-117 0 -224 -36.5
t-188.5 -105t-129.5 -166t-48 -219.5q0 -30 3.5 -48.5t7 -30t7 -18.5t3.5 -13q-98 0 -152.5 39t-54.5 133q0 72 31 141t87 131.5t132.5 115t168.5 90.5t195 59.5t211 21.5q135 0 227.5 -39t149.5 -108.5t82.5 -166t25.5 -210.5q0 -99 -18.5 -213.5t-58 -228t-100 -219
t-144.5 -186t-192 -129t-242 -48.5q-81 0 -148 22t-116 71t-76 127.5t-27 190.5q0 83 15.5 186.5t46.5 210t77.5 208.5t108 181t138.5 127t169 48q26 0 52 -3t55 -14zM840 1810q0 -27 -10 -49.5t-27.5 -39t-40 -26t-47.5 -9.5q-27 0 -50 9.5t-39.5 26t-26 39t-9.5 49.5
q0 25 9.5 48t26 40t39.5 27t50 10q25 0 47.5 -10t40 -27t27.5 -40t10 -48zM1208 1810q0 -27 -10 -49.5t-27 -39t-40 -26t-48 -9.5q-27 0 -49.5 9.5t-39.5 26t-26.5 39t-9.5 49.5q0 25 9.5 48t26.5 40t39.5 27t49.5 10q25 0 48 -10t40 -27t27 -40t10 -48z" />
    <glyph glyph-name="multiply" unicode="&#xd7;" horiz-adv-x="848" 
d="M205 1022l209 -211l213 213l114 -117l-211 -211l209 -207l-116 -118l-211 207l-207 -207l-117 114l209 209l-211 211z" />
    <glyph glyph-name="Oslash" unicode="&#xd8;" horiz-adv-x="1348" 
d="M543 -145l28 133h-4q-78 0 -143.5 21t-112 67.5t-72.5 120t-26 178.5q0 77 15 174t45 196.5t74.5 194.5t104 169.5t133.5 119.5t163 45q24 0 47 -3t45 -11l18 83q-17 4 -36.5 5.5t-41.5 1.5q-114 0 -217 -34.5t-181 -98.5t-124.5 -155.5t-46.5 -205.5q0 -28 3 -45.5
t7 -28t7 -17t3 -11.5q-94 0 -147 36t-53 123q0 68 30 133t83.5 123.5t128 107.5t163 85t188 56t203.5 20h25t25 -2l22 100h107l-25 -115q86 -21 145.5 -64t97 -104.5t54 -139t16.5 -167.5q0 -85 -15.5 -183t-47.5 -196.5t-81.5 -192.5t-117.5 -171t-156 -131.5t-196 -73.5
l-31 -143h-106zM838 1249q-44 -29 -85.5 -85.5t-78 -130.5t-67.5 -160.5t-53.5 -175t-35 -174t-12.5 -156.5q0 -92 22 -152.5t76 -71.5zM719 180q41 30 80 81t74 117t64 143t50 159.5t33 167.5t12 166q0 103 -15 172.5t-63 111.5z" />
    <glyph glyph-name="Ugrave" unicode="&#xd9;" horiz-adv-x="1466" 
d="M1260 1532h289l-136 -639q-33 -156 -66 -283.5t-73.5 -228.5t-91.5 -175t-119 -123t-156.5 -73t-203.5 -24q-111 0 -186.5 21.5t-122 63t-67 102t-20.5 138.5q0 77 14 168t37 195.5t53.5 223t63.5 249.5l68 270q-84 -22 -151 -63.5t-114 -101t-72.5 -136.5t-25.5 -170
q0 -41 4.5 -65.5t10 -39t10 -22t4.5 -14.5q-51 0 -92 10t-69 32t-43 58t-15 88q0 72 30 140.5t82.5 129t125.5 110.5t159 86.5t182 56.5t195 20q26 0 46 -2t52 -8q-48 -176 -86.5 -318.5t-69.5 -256.5t-53.5 -202.5t-37 -158t-22 -123t-7.5 -96.5q0 -88 31.5 -136.5
t109.5 -48.5q44 0 80 6.5t68 29.5t60.5 69t58 125.5t61 197t68.5 285.5zM951 1661l-121 387h215l59 -387h-153z" />
    <glyph glyph-name="Uacute" unicode="&#xda;" horiz-adv-x="1466" 
d="M1260 1532h289l-136 -639q-33 -156 -66 -283.5t-73.5 -228.5t-91.5 -175t-119 -123t-156.5 -73t-203.5 -24q-111 0 -186.5 21.5t-122 63t-67 102t-20.5 138.5q0 77 14 168t37 195.5t53.5 223t63.5 249.5l68 270q-84 -22 -151 -63.5t-114 -101t-72.5 -136.5t-25.5 -170
q0 -41 4.5 -65.5t10 -39t10 -22t4.5 -14.5q-51 0 -92 10t-69 32t-43 58t-15 88q0 72 30 140.5t82.5 129t125.5 110.5t159 86.5t182 56.5t195 20q26 0 46 -2t52 -8q-48 -176 -86.5 -318.5t-69.5 -256.5t-53.5 -202.5t-37 -158t-22 -123t-7.5 -96.5q0 -88 31.5 -136.5
t109.5 -48.5q44 0 80 6.5t68 29.5t60.5 69t58 125.5t61 197t68.5 285.5zM914 1661l186 387h215l-248 -387h-153z" />
    <glyph glyph-name="Ucircumflex" unicode="&#xdb;" horiz-adv-x="1466" 
d="M1260 1532h289l-136 -639q-33 -156 -66 -283.5t-73.5 -228.5t-91.5 -175t-119 -123t-156.5 -73t-203.5 -24q-111 0 -186.5 21.5t-122 63t-67 102t-20.5 138.5q0 77 14 168t37 195.5t53.5 223t63.5 249.5l68 270q-84 -22 -151 -63.5t-114 -101t-72.5 -136.5t-25.5 -170
q0 -41 4.5 -65.5t10 -39t10 -22t4.5 -14.5q-51 0 -92 10t-69 32t-43 58t-15 88q0 72 30 140.5t82.5 129t125.5 110.5t159 86.5t182 56.5t195 20q26 0 46 -2t52 -8q-48 -176 -86.5 -318.5t-69.5 -256.5t-53.5 -202.5t-37 -158t-22 -123t-7.5 -96.5q0 -88 31.5 -136.5
t109.5 -48.5q44 0 80 6.5t68 29.5t60.5 69t58 125.5t61 197t68.5 285.5zM1268 1661l-123 164l-321 -164h-91l435 387h43l122 -387h-65z" />
    <glyph glyph-name="Udieresis" unicode="&#xdc;" horiz-adv-x="1466" 
d="M1260 1532h289l-136 -639q-33 -156 -66 -283.5t-73.5 -228.5t-91.5 -175t-119 -123t-156.5 -73t-203.5 -24q-111 0 -186.5 21.5t-122 63t-67 102t-20.5 138.5q0 77 14 168t37 195.5t53.5 223t63.5 249.5l68 270q-84 -22 -151 -63.5t-114 -101t-72.5 -136.5t-25.5 -170
q0 -41 4.5 -65.5t10 -39t10 -22t4.5 -14.5q-51 0 -92 10t-69 32t-43 58t-15 88q0 72 30 140.5t82.5 129t125.5 110.5t159 86.5t182 56.5t195 20q26 0 46 -2t52 -8q-48 -176 -86.5 -318.5t-69.5 -256.5t-53.5 -202.5t-37 -158t-22 -123t-7.5 -96.5q0 -88 31.5 -136.5
t109.5 -48.5q44 0 80 6.5t68 29.5t60.5 69t58 125.5t61 197t68.5 285.5zM1024 1810q0 -27 -10 -49.5t-27.5 -39t-40 -26t-47.5 -9.5q-27 0 -50 9.5t-39.5 26t-26 39t-9.5 49.5q0 25 9.5 48t26 40t39.5 27t50 10q25 0 47.5 -10t40 -27t27.5 -40t10 -48zM1392 1810
q0 -27 -10 -49.5t-27 -39t-40 -26t-48 -9.5q-54 0 -89 35t-35 89q0 25 9.5 48t26 40t39 27t49.5 10q25 0 48 -10t40 -27t27 -40t10 -48z" />
    <glyph glyph-name="Yacute" unicode="&#xdd;" horiz-adv-x="1270" 
d="M569 0l136 631l-197 768q-144 -54 -224.5 -169t-80.5 -286q0 -39 4.5 -63.5t9.5 -39t9.5 -22.5t4.5 -14q-53 0 -94 10.5t-68.5 33.5t-42 61t-14.5 94q0 68 29.5 134t81 125t121 109t149 86.5t166 57t172.5 20.5q23 0 42.5 -1t39.5 -3l178 -733l303 727h136l-398 -895
l-135 -631h-328zM1008 1661l186 387h215l-248 -387h-153z" />
    <glyph glyph-name="Thorn" unicode="&#xde;" horiz-adv-x="1194" 
d="M193 0l245 1151q-115 -60 -175 -168.5t-60 -263.5q0 -39 4.5 -63.5t9.5 -39.5t9.5 -22.5t4.5 -13.5q-53 0 -94 10.5t-68.5 33.5t-42 61t-14.5 93q0 75 36 148t97 137t142.5 115.5t173.5 83.5l51 233l303 41l-49 -225q117 -6 201.5 -41.5t139 -90t81 -125t26.5 -147.5
q0 -98 -40.5 -195.5t-117 -176.5t-186 -128t-247.5 -49h-60l-76 -358h-294zM608 434q54 0 103.5 22t91.5 59.5t76 87t58 105.5t37 115t13 115q0 54 -13.5 103.5t-42.5 87.5t-74 61.5t-109 26.5l-168 -783h28z" />
    <glyph glyph-name="germandbls" unicode="&#xdf;" horiz-adv-x="984" 
d="M366 176q17 -22 47 -34.5t66 -12.5q42 0 74 22t53.5 59t32.5 85t11 100q0 48 -9.5 97t-28.5 92.5t-47.5 78.5t-65.5 56q16 17 35.5 48.5t39.5 72.5t39.5 88t35 95t24.5 93.5t9 83.5q0 48 -18 77.5t-61 29.5q-28 0 -50.5 -20.5t-43.5 -69t-43 -128.5t-47 -200l-284 -1327
l-309 -74l288 1356q62 298 181 444t302 146q122 0 192 -53t70 -146q0 -68 -23 -138t-54.5 -132t-65 -111t-54.5 -76q58 -44 101.5 -95.5t72.5 -107t43.5 -112.5t14.5 -112q0 -73 -25.5 -139t-75.5 -115.5t-126 -79t-176 -29.5q-79 0 -121.5 27.5t-42.5 76.5q0 23 10 46
t29 38z" />
    <glyph glyph-name="agrave" unicode="&#xe0;" horiz-adv-x="1077" 
d="M1163 367q-29 -83 -63 -144t-70.5 -103t-74.5 -68t-74 -40t-69 -19t-60 -5q-87 0 -138.5 47.5t-62.5 140.5q-25 -35 -55 -68.5t-67 -60t-82.5 -43t-100.5 -16.5q-53 0 -102 17t-87 56t-61 102t-23 154q0 70 14 150t43 160t72.5 153.5t102 130t132.5 90t163 33.5
q87 0 126.5 -30t39.5 -74v-15l22 109h295l-147 -696q-5 -17 -7 -33.5t-2 -32.5q0 -88 84 -88q30 0 55.5 15.5t46.5 41.5t37 61.5t27 74.5h86zM647 829q0 9 -4 22.5t-13.5 26t-25.5 21t-41 8.5q-43 0 -81.5 -28t-70.5 -74.5t-57 -105.5t-42.5 -121.5t-26.5 -123t-9 -108.5
q0 -59 11 -91t26.5 -47.5t33.5 -18.5t32 -3q23 0 48.5 11.5t49 34t43 56.5t29.5 79zM563 1149l-121 387h215l60 -387h-154z" />
    <glyph glyph-name="aacute" unicode="&#xe1;" horiz-adv-x="1077" 
d="M1163 367q-29 -83 -63 -144t-70.5 -103t-74.5 -68t-74 -40t-69 -19t-60 -5q-87 0 -138.5 47.5t-62.5 140.5q-25 -35 -55 -68.5t-67 -60t-82.5 -43t-100.5 -16.5q-53 0 -102 17t-87 56t-61 102t-23 154q0 70 14 150t43 160t72.5 153.5t102 130t132.5 90t163 33.5
q87 0 126.5 -30t39.5 -74v-15l22 109h295l-147 -696q-5 -17 -7 -33.5t-2 -32.5q0 -88 84 -88q30 0 55.5 15.5t46.5 41.5t37 61.5t27 74.5h86zM647 829q0 9 -4 22.5t-13.5 26t-25.5 21t-41 8.5q-43 0 -81.5 -28t-70.5 -74.5t-57 -105.5t-42.5 -121.5t-26.5 -123t-9 -108.5
q0 -59 11 -91t26.5 -47.5t33.5 -18.5t32 -3q23 0 48.5 11.5t49 34t43 56.5t29.5 79zM502 1149l186 387h215l-248 -387h-153z" />
    <glyph glyph-name="acircumflex" unicode="&#xe2;" horiz-adv-x="1077" 
d="M1163 367q-29 -83 -63 -144t-70.5 -103t-74.5 -68t-74 -40t-69 -19t-60 -5q-87 0 -138.5 47.5t-62.5 140.5q-25 -35 -55 -68.5t-67 -60t-82.5 -43t-100.5 -16.5q-53 0 -102 17t-87 56t-61 102t-23 154q0 70 14 150t43 160t72.5 153.5t102 130t132.5 90t163 33.5
q87 0 126.5 -30t39.5 -74v-15l22 109h295l-147 -696q-5 -17 -7 -33.5t-2 -32.5q0 -88 84 -88q30 0 55.5 15.5t46.5 41.5t37 61.5t27 74.5h86zM647 829q0 9 -4 22.5t-13.5 26t-25.5 21t-41 8.5q-43 0 -81.5 -28t-70.5 -74.5t-57 -105.5t-42.5 -121.5t-26.5 -123t-9 -108.5
q0 -59 11 -91t26.5 -47.5t33.5 -18.5t32 -3q23 0 48.5 11.5t49 34t43 56.5t29.5 79zM854 1149l-123 164l-322 -164h-90l434 387h43l123 -387h-65z" />
    <glyph glyph-name="atilde" unicode="&#xe3;" horiz-adv-x="1077" 
d="M1163 367q-29 -83 -63 -144t-70.5 -103t-74.5 -68t-74 -40t-69 -19t-60 -5q-87 0 -138.5 47.5t-62.5 140.5q-25 -35 -55 -68.5t-67 -60t-82.5 -43t-100.5 -16.5q-53 0 -102 17t-87 56t-61 102t-23 154q0 70 14 150t43 160t72.5 153.5t102 130t132.5 90t163 33.5
q87 0 126.5 -30t39.5 -74v-15l22 109h295l-147 -696q-5 -17 -7 -33.5t-2 -32.5q0 -88 84 -88q30 0 55.5 15.5t46.5 41.5t37 61.5t27 74.5h86zM647 829q0 9 -4 22.5t-13.5 26t-25.5 21t-41 8.5q-43 0 -81.5 -28t-70.5 -74.5t-57 -105.5t-42.5 -121.5t-26.5 -123t-9 -108.5
q0 -59 11 -91t26.5 -47.5t33.5 -18.5t32 -3q23 0 48.5 11.5t49 34t43 56.5t29.5 79zM1070 1370q-8 -36 -38.5 -72.5t-75.5 -66t-101.5 -48t-114.5 -18.5q-51 0 -95 12t-85 26t-81 26t-83 12q-76 0 -135 -53l-12 4q49 99 136.5 150t205.5 51q55 0 98 -10.5t81.5 -23.5
t76 -23.5t82.5 -10.5q38 0 72 12t57 35z" />
    <glyph glyph-name="adieresis" unicode="&#xe4;" horiz-adv-x="1077" 
d="M1163 367q-29 -83 -63 -144t-70.5 -103t-74.5 -68t-74 -40t-69 -19t-60 -5q-87 0 -138.5 47.5t-62.5 140.5q-25 -35 -55 -68.5t-67 -60t-82.5 -43t-100.5 -16.5q-53 0 -102 17t-87 56t-61 102t-23 154q0 70 14 150t43 160t72.5 153.5t102 130t132.5 90t163 33.5
q87 0 126.5 -30t39.5 -74v-15l22 109h295l-147 -696q-5 -17 -7 -33.5t-2 -32.5q0 -88 84 -88q30 0 55.5 15.5t46.5 41.5t37 61.5t27 74.5h86zM647 829q0 9 -4 22.5t-13.5 26t-25.5 21t-41 8.5q-43 0 -81.5 -28t-70.5 -74.5t-57 -105.5t-42.5 -121.5t-26.5 -123t-9 -108.5
q0 -59 11 -91t26.5 -47.5t33.5 -18.5t32 -3q23 0 48.5 11.5t49 34t43 56.5t29.5 79zM494 1174q-27 0 -50 9.5t-39.5 26t-26 39t-9.5 49.5q0 25 9.5 48t26 40t39.5 27t50 10q25 0 47.5 -10t39.5 -27t27 -40t10 -48q0 -27 -10 -49.5t-27 -39t-39.5 -26t-47.5 -9.5zM987 1298
q0 -27 -10 -49.5t-27 -39t-40 -26t-48 -9.5q-27 0 -49.5 9.5t-39.5 26t-26.5 39t-9.5 49.5q0 25 9.5 48t26.5 40t39.5 27t49.5 10q25 0 48 -10t40 -27t27 -40t10 -48z" />
    <glyph glyph-name="aring" unicode="&#xe5;" horiz-adv-x="1077" 
d="M1163 367q-29 -83 -63 -144t-70.5 -103t-74.5 -68t-74 -40t-69 -19t-60 -5q-87 0 -138.5 47.5t-62.5 140.5q-25 -35 -55 -68.5t-67 -60t-82.5 -43t-100.5 -16.5q-53 0 -102 17t-87 56t-61 102t-23 154q0 70 14 150t43 160t72.5 153.5t102 130t132.5 90t163 33.5
q87 0 126.5 -30t39.5 -74v-15l22 109h295l-147 -696q-5 -17 -7 -33.5t-2 -32.5q0 -88 84 -88q30 0 55.5 15.5t46.5 41.5t37 61.5t27 74.5h86zM647 829q0 9 -4 22.5t-13.5 26t-25.5 21t-41 8.5q-43 0 -81.5 -28t-70.5 -74.5t-57 -105.5t-42.5 -121.5t-26.5 -123t-9 -108.5
q0 -59 11 -91t26.5 -47.5t33.5 -18.5t32 -3q23 0 48.5 11.5t49 34t43 56.5t29.5 79zM801 1303q0 -34 -9.5 -65.5t-31 -55.5t-55.5 -38t-82 -14q-33 0 -59.5 11t-45.5 30.5t-29 46t-10 56.5q0 28 10 60.5t31 60.5t54 46.5t79 18.5q38 0 66 -12t46 -33.5t27 -50t9 -61.5z
M725 1296q0 15 -1.5 32.5t-8 31.5t-20 23.5t-38.5 9.5q-27 0 -45 -11t-29.5 -27.5t-16.5 -37t-5 -39.5q0 -35 16.5 -55.5t53.5 -20.5q48 0 71 25.5t23 68.5z" />
    <glyph glyph-name="ae" unicode="&#xe6;" horiz-adv-x="1331" 
d="M1401 367q-42 -69 -97 -136.5t-124.5 -120.5t-155 -85.5t-188.5 -32.5q-56 0 -105 10.5t-87.5 33.5t-66.5 59.5t-42 88.5q-21 -39 -46.5 -74.5t-59.5 -62.5t-79 -43t-106 -16q-45 0 -91.5 11t-84 40.5t-61 81.5t-23.5 133q0 95 35 160t96 105t144 57.5t179 17.5
q37 0 62.5 -1.5t44.5 -6.5q20 43 31.5 90t11.5 90q0 31 -7 57.5t-22.5 46t-39 30.5t-56.5 11q-46 0 -82.5 -7.5t-65.5 -20t-53.5 -30t-46.5 -38.5l-57 59q57 58 106.5 90t94 47.5t86.5 19t85 3.5q79 0 146 -19t121 -63q55 42 123 66t153 24q68 0 111.5 -16.5t68 -44
t34 -64.5t9.5 -77q0 -86 -39 -161t-104.5 -132t-150.5 -92t-177 -41q-2 -17 -3 -33t-1 -33q0 -57 9 -93.5t25 -57.5t38.5 -29t50.5 -8q75 0 128.5 15t97 42t81 65t80.5 85h70zM840 512q59 4 113 33.5t95.5 75.5t66 104t24.5 119q0 43 -10 66.5t-39 23.5q-41 0 -79 -38
t-70.5 -99t-58.5 -136t-42 -149zM530 467q-11 2 -17 2h-17q-50 0 -91.5 -13t-71 -36.5t-45.5 -57t-16 -73.5q0 -35 11.5 -55t27 -31t31.5 -14t25 -3q26 0 48.5 12.5t42.5 44.5t38 86t34 138z" />
    <glyph glyph-name="ccedilla" unicode="&#xe7;" horiz-adv-x="786" 
d="M352 -8q-14 -2 -29 -3t-30 -1q-73 0 -132 18.5t-101 57.5t-64.5 100.5t-22.5 148.5q0 59 12 136.5t38.5 158.5t69 159t104 139t142.5 98.5t185 37.5q68 0 112 -16.5t70 -43t36 -60.5t10 -68q0 -38 -8.5 -65.5t-23.5 -46.5t-35 -28t-42 -9q-35 0 -72 24q25 66 25 121
q0 38 -14 61t-43 23q-32 0 -64 -29t-61.5 -77t-54.5 -110t-43.5 -129t-29 -133.5t-10.5 -123.5q0 -52 9.5 -85.5t28 -52.5t46 -26.5t64.5 -7.5q61 0 110.5 16t92.5 44t81.5 66t77.5 81h70q-35 -57 -77 -112t-92 -102.5t-109.5 -84.5t-128.5 -58l-60 -145q32 8 59.5 12
t49.5 4q66 0 96.5 -27t30.5 -75q0 -56 -21.5 -98t-56 -70t-79 -42.5t-89.5 -14.5q-39 0 -70 4.5t-56.5 12.5t-48 18t-44.5 22q14 25 33.5 45t48.5 20q31 0 50 -8.5t34 -19t30 -19t37 -8.5q13 0 24.5 7.5t19.5 19.5t13 27.5t5 31.5q0 29 -18.5 51.5t-61.5 22.5
q-42 0 -66 -8.5t-41 -16.5z" />
    <glyph glyph-name="egrave" unicode="&#xe8;" horiz-adv-x="786" 
d="M856 367q-43 -72 -98.5 -140t-125 -121t-154 -85.5t-185.5 -32.5q-73 0 -132 18.5t-101 57.5t-64.5 100.5t-22.5 148.5q0 59 12 136t38 158t69 159t104 139.5t143 99t187 37.5q69 0 112.5 -16.5t69 -43.5t35 -62.5t9.5 -73.5q0 -89 -39 -165.5t-104.5 -133.5t-150.5 -92
t-177 -41q-2 -23 -3.5 -43.5t-1.5 -38.5q0 -52 9.5 -85.5t28 -52.5t46 -26.5t64.5 -7.5q61 0 110.5 16t92.5 44t81.5 66t77.5 81h70zM297 512q58 4 112 33t95 75.5t65.5 106t24.5 123.5q0 38 -11 61t-40 23q-39 0 -76.5 -37.5t-70.5 -97.5t-58.5 -135.5t-40.5 -151.5z
M445 1149l-121 387h215l60 -387h-154z" />
    <glyph glyph-name="eacute" unicode="&#xe9;" horiz-adv-x="786" 
d="M856 367q-43 -72 -98.5 -140t-125 -121t-154 -85.5t-185.5 -32.5q-73 0 -132 18.5t-101 57.5t-64.5 100.5t-22.5 148.5q0 59 12 136t38 158t69 159t104 139.5t143 99t187 37.5q69 0 112.5 -16.5t69 -43.5t35 -62.5t9.5 -73.5q0 -89 -39 -165.5t-104.5 -133.5t-150.5 -92
t-177 -41q-2 -23 -3.5 -43.5t-1.5 -38.5q0 -52 9.5 -85.5t28 -52.5t46 -26.5t64.5 -7.5q61 0 110.5 16t92.5 44t81.5 66t77.5 81h70zM297 512q58 4 112 33t95 75.5t65.5 106t24.5 123.5q0 38 -11 61t-40 23q-39 0 -76.5 -37.5t-70.5 -97.5t-58.5 -135.5t-40.5 -151.5z
M457 1149l187 387h215l-248 -387h-154z" />
    <glyph glyph-name="ecircumflex" unicode="&#xea;" horiz-adv-x="786" 
d="M856 367q-43 -72 -98.5 -140t-125 -121t-154 -85.5t-185.5 -32.5q-73 0 -132 18.5t-101 57.5t-64.5 100.5t-22.5 148.5q0 59 12 136t38 158t69 159t104 139.5t143 99t187 37.5q69 0 112.5 -16.5t69 -43.5t35 -62.5t9.5 -73.5q0 -89 -39 -165.5t-104.5 -133.5t-150.5 -92
t-177 -41q-2 -23 -3.5 -43.5t-1.5 -38.5q0 -52 9.5 -85.5t28 -52.5t46 -26.5t64.5 -7.5q61 0 110.5 16t92.5 44t81.5 66t77.5 81h70zM297 512q58 4 112 33t95 75.5t65.5 106t24.5 123.5q0 38 -11 61t-40 23q-39 0 -76.5 -37.5t-70.5 -97.5t-58.5 -135.5t-40.5 -151.5z
M750 1149l-123 164l-322 -164h-90l434 387h43l123 -387h-65z" />
    <glyph glyph-name="edieresis" unicode="&#xeb;" horiz-adv-x="786" 
d="M856 367q-43 -72 -98.5 -140t-125 -121t-154 -85.5t-185.5 -32.5q-73 0 -132 18.5t-101 57.5t-64.5 100.5t-22.5 148.5q0 59 12 136t38 158t69 159t104 139.5t143 99t187 37.5q69 0 112.5 -16.5t69 -43.5t35 -62.5t9.5 -73.5q0 -89 -39 -165.5t-104.5 -133.5t-150.5 -92
t-177 -41q-2 -23 -3.5 -43.5t-1.5 -38.5q0 -52 9.5 -85.5t28 -52.5t46 -26.5t64.5 -7.5q61 0 110.5 16t92.5 44t81.5 66t77.5 81h70zM297 512q58 4 112 33t95 75.5t65.5 106t24.5 123.5q0 38 -11 61t-40 23q-39 0 -76.5 -37.5t-70.5 -97.5t-58.5 -135.5t-40.5 -151.5z
M494 1298q0 -27 -10 -49.5t-27.5 -39t-40 -26t-47.5 -9.5q-27 0 -50 9.5t-39.5 26t-26 39t-9.5 49.5q0 25 9.5 48t26 40t39.5 27t50 10q25 0 47.5 -10t40 -27t27.5 -40t10 -48zM862 1298q0 -27 -10 -49.5t-27 -39t-40 -26t-48 -9.5q-27 0 -49.5 9.5t-39.5 26t-26.5 39
t-9.5 49.5q0 25 9.5 48t26.5 40t39.5 27t49.5 10q25 0 48 -10t40 -27t27 -40t10 -48z" />
    <glyph glyph-name="igrave" unicode="&#xec;" horiz-adv-x="547" 
d="M633 367q-29 -83 -64.5 -144t-74 -103t-79 -68t-78.5 -40t-72.5 -19t-61.5 -5q-46 0 -86 14t-69.5 44t-46.5 76t-17 111q0 28 4 61.5t12 72.5l139 657h295l-147 -696q-5 -17 -6.5 -33.5t-1.5 -32.5q0 -43 20 -59.5t63 -16.5q30 0 58.5 13.5t52.5 37.5t43 57.5t31 72.5h86
zM236 1149l-121 387h215l60 -387h-154z" />
    <glyph glyph-name="iacute" unicode="&#xed;" horiz-adv-x="547" 
d="M633 367q-29 -83 -64.5 -144t-74 -103t-79 -68t-78.5 -40t-72.5 -19t-61.5 -5q-46 0 -86 14t-69.5 44t-46.5 76t-17 111q0 28 4 61.5t12 72.5l139 657h295l-147 -696q-5 -17 -6.5 -33.5t-1.5 -32.5q0 -43 20 -59.5t63 -16.5q30 0 58.5 13.5t52.5 37.5t43 57.5t31 72.5h86
zM228 1149l186 387h215l-248 -387h-153z" />
    <glyph glyph-name="icircumflex" unicode="&#xee;" horiz-adv-x="547" 
d="M633 367q-29 -83 -64.5 -144t-74 -103t-79 -68t-78.5 -40t-72.5 -19t-61.5 -5q-46 0 -86 14t-69.5 44t-46.5 76t-17 111q0 28 4 61.5t12 72.5l139 657h295l-147 -696q-5 -17 -6.5 -33.5t-1.5 -32.5q0 -43 20 -59.5t63 -16.5q30 0 58.5 13.5t52.5 37.5t43 57.5t31 72.5h86
zM537 1149l-123 164l-322 -164h-90l434 387h43l123 -387h-65z" />
    <glyph glyph-name="idieresis" unicode="&#xef;" horiz-adv-x="547" 
d="M633 367q-29 -83 -64.5 -144t-74 -103t-79 -68t-78.5 -40t-72.5 -19t-61.5 -5q-46 0 -86 14t-69.5 44t-46.5 76t-17 111q0 28 4 61.5t12 72.5l139 657h295l-147 -696q-5 -17 -6.5 -33.5t-1.5 -32.5q0 -43 20 -59.5t63 -16.5q30 0 58.5 13.5t52.5 37.5t43 57.5t31 72.5h86
zM285 1298q0 -27 -10 -49.5t-27.5 -39t-40 -26t-47.5 -9.5q-27 0 -50 9.5t-39.5 26t-26 39t-9.5 49.5q0 25 9.5 48t26 40t39.5 27t50 10q25 0 47.5 -10t40 -27t27.5 -40t10 -48zM633 1298q0 -27 -10 -49.5t-27 -39t-40 -26t-48 -9.5q-27 0 -49.5 9.5t-39.5 26t-26.5 39
t-9.5 49.5q0 25 9.5 48t26.5 40t39.5 27t49.5 10q25 0 48 -10t40 -27t27 -40t10 -48z" />
    <glyph glyph-name="eth" unicode="&#xf0;" horiz-adv-x="1102" 
d="M937 1282q43 -106 49 -225t-22 -247l-104 -482q-5 -17 -6.5 -33.5t-1.5 -32.5q0 -43 20.5 -59.5t63.5 -16.5q30 0 55.5 13.5t46 37.5t36.5 57.5t28 72.5h86q-43 -125 -97.5 -198t-111 -110.5t-109.5 -48t-94 -10.5q-85 0 -136.5 45t-64.5 133q-23 -35 -53 -69t-67.5 -61
t-83.5 -43.5t-101 -16.5q-52 0 -101 17t-87 56t-61 102t-23 154q0 70 14 150t43 160t72.5 153.5t102 130t132 90t162.5 33.5q88 0 130.5 -31t42.5 -85q12 84 16 157.5t-10 143.5l-248 -67l-24 105l239 67q-17 36 -39.5 72t-54.5 74l177 67q40 -35 72.5 -73t58.5 -79l226 64
l27 -113zM672 829q0 9 -4 22t-13.5 25.5t-26 21.5t-40.5 9q-44 0 -82 -28t-70 -74.5t-57 -105.5t-42.5 -121.5t-26.5 -123t-9 -108.5q0 -59 11 -91t26.5 -47.5t33 -18.5t31.5 -3q23 0 49 11.5t49.5 34t42.5 56.5t29 79z" />
    <glyph glyph-name="ntilde" unicode="&#xf1;" 
d="M1120 367q-43 -126 -92.5 -201t-100 -114.5t-99 -51.5t-89.5 -12q-68 0 -114 19.5t-74 52t-40.5 74t-12.5 85.5q0 52 14.5 121.5t31.5 142.5t31.5 141t14.5 117q0 105 -74 105q-28 0 -52 -15t-44 -40.5t-36 -60t-28 -73.5l-139 -657h-295l217 1024h295l-22 -106
q33 37 65.5 59.5t63.5 34.5t58.5 16t51.5 4q49 0 91 -13t72.5 -41t47.5 -72t17 -105q0 -41 -7.5 -88.5t-18.5 -97t-23.5 -98.5t-23.5 -94t-18.5 -83.5t-7.5 -67.5q0 -38 17.5 -62t64.5 -24q33 0 58 13t45 37t36.5 57.5t32.5 73.5h86zM1001 1370q-8 -36 -38.5 -72.5
t-75.5 -66t-101 -48t-114 -18.5q-51 0 -95.5 12t-85.5 26t-80.5 26t-82.5 12q-77 0 -135 -53l-13 4q50 99 137.5 150t204.5 51q55 0 98.5 -10.5t81.5 -23.5t75.5 -23.5t82.5 -10.5q38 0 72 12t57 35z" />
    <glyph glyph-name="ograve" unicode="&#xf2;" horiz-adv-x="887" 
d="M1139 778q-60 -63 -155 -107t-208 -63q-12 -142 -54.5 -256t-107.5 -194t-149 -123t-178 -43q-72 0 -132 17.5t-103.5 56t-68 100t-24.5 149.5q0 60 12.5 136.5t39.5 157.5t71 158.5t106 138.5t144.5 98.5t187.5 37.5q262 0 262 -327v-2q5 -2 10 -2h13q36 0 77.5 10.5
t83 27.5t81.5 39.5t73 45.5zM606 602q-32 8 -43.5 31.5t-11.5 54.5q0 43 17 70.5t46 40.5q-2 33 -6.5 55.5t-13.5 37t-22.5 20.5t-34.5 6q-37 0 -71 -28.5t-64.5 -75.5t-55.5 -107.5t-43.5 -124.5t-28.5 -126.5t-10 -113.5t5.5 -83t18 -50.5t32.5 -25.5t49 -7q37 0 74.5 33
t69.5 90t56.5 135t36.5 168zM487 1149l-120 387h215l59 -387h-154z" />
    <glyph glyph-name="oacute" unicode="&#xf3;" horiz-adv-x="887" 
d="M1139 778q-60 -63 -155 -107t-208 -63q-12 -142 -54.5 -256t-107.5 -194t-149 -123t-178 -43q-72 0 -132 17.5t-103.5 56t-68 100t-24.5 149.5q0 60 12.5 136.5t39.5 157.5t71 158.5t106 138.5t144.5 98.5t187.5 37.5q262 0 262 -327v-2q5 -2 10 -2h13q36 0 77.5 10.5
t83 27.5t81.5 39.5t73 45.5zM606 602q-32 8 -43.5 31.5t-11.5 54.5q0 43 17 70.5t46 40.5q-2 33 -6.5 55.5t-13.5 37t-22.5 20.5t-34.5 6q-37 0 -71 -28.5t-64.5 -75.5t-55.5 -107.5t-43.5 -124.5t-28.5 -126.5t-10 -113.5t5.5 -83t18 -50.5t32.5 -25.5t49 -7q37 0 74.5 33
t69.5 90t56.5 135t36.5 168zM449 1149l186 387h215l-248 -387h-153z" />
    <glyph glyph-name="ocircumflex" unicode="&#xf4;" horiz-adv-x="887" 
d="M1139 778q-60 -63 -155 -107t-208 -63q-12 -142 -54.5 -256t-107.5 -194t-149 -123t-178 -43q-72 0 -132 17.5t-103.5 56t-68 100t-24.5 149.5q0 60 12.5 136.5t39.5 157.5t71 158.5t106 138.5t144.5 98.5t187.5 37.5q262 0 262 -327v-2q5 -2 10 -2h13q36 0 77.5 10.5
t83 27.5t81.5 39.5t73 45.5zM606 602q-32 8 -43.5 31.5t-11.5 54.5q0 43 17 70.5t46 40.5q-2 33 -6.5 55.5t-13.5 37t-22.5 20.5t-34.5 6q-37 0 -71 -28.5t-64.5 -75.5t-55.5 -107.5t-43.5 -124.5t-28.5 -126.5t-10 -113.5t5.5 -83t18 -50.5t32.5 -25.5t49 -7q37 0 74.5 33
t69.5 90t56.5 135t36.5 168zM729 1149l-123 164l-321 -164h-90l434 387h43l123 -387h-66z" />
    <glyph glyph-name="otilde" unicode="&#xf5;" horiz-adv-x="887" 
d="M1139 778q-60 -63 -155 -107t-208 -63q-12 -142 -54.5 -256t-107.5 -194t-149 -123t-178 -43q-72 0 -132 17.5t-103.5 56t-68 100t-24.5 149.5q0 60 12.5 136.5t39.5 157.5t71 158.5t106 138.5t144.5 98.5t187.5 37.5q262 0 262 -327v-2q5 -2 10 -2h13q36 0 77.5 10.5
t83 27.5t81.5 39.5t73 45.5zM606 602q-32 8 -43.5 31.5t-11.5 54.5q0 43 17 70.5t46 40.5q-2 33 -6.5 55.5t-13.5 37t-22.5 20.5t-34.5 6q-37 0 -71 -28.5t-64.5 -75.5t-55.5 -107.5t-43.5 -124.5t-28.5 -126.5t-10 -113.5t5.5 -83t18 -50.5t32.5 -25.5t49 -7q37 0 74.5 33
t69.5 90t56.5 135t36.5 168zM903 1370q-8 -36 -38.5 -72.5t-75.5 -66t-101.5 -48t-114.5 -18.5q-51 0 -95 12t-85 26t-81 26t-83 12q-76 0 -135 -53l-12 4q49 99 136.5 150t205.5 51q55 0 98 -10.5t81.5 -23.5t76 -23.5t82.5 -10.5q38 0 72 12t57 35z" />
    <glyph glyph-name="odieresis" unicode="&#xf6;" horiz-adv-x="887" 
d="M1139 778q-60 -63 -155 -107t-208 -63q-12 -142 -54.5 -256t-107.5 -194t-149 -123t-178 -43q-72 0 -132 17.5t-103.5 56t-68 100t-24.5 149.5q0 60 12.5 136.5t39.5 157.5t71 158.5t106 138.5t144.5 98.5t187.5 37.5q262 0 262 -327v-2q5 -2 10 -2h13q36 0 77.5 10.5
t83 27.5t81.5 39.5t73 45.5zM606 602q-32 8 -43.5 31.5t-11.5 54.5q0 43 17 70.5t46 40.5q-2 33 -6.5 55.5t-13.5 37t-22.5 20.5t-34.5 6q-37 0 -71 -28.5t-64.5 -75.5t-55.5 -107.5t-43.5 -124.5t-28.5 -126.5t-10 -113.5t5.5 -83t18 -50.5t32.5 -25.5t49 -7q37 0 74.5 33
t69.5 90t56.5 135t36.5 168zM465 1298q0 -27 -10 -49.5t-27 -39t-40 -26t-48 -9.5q-27 0 -50 9.5t-39.5 26t-26 39t-9.5 49.5q0 25 9.5 48t26 40t39.5 27t50 10q25 0 48 -10t40 -27t27 -40t10 -48zM834 1298q0 -27 -10 -49.5t-27.5 -39t-40 -26t-47.5 -9.5q-27 0 -50 9.5
t-39.5 26t-26 39t-9.5 49.5q0 25 9.5 48t26 40t39.5 27t50 10q25 0 47.5 -10t40 -27t27.5 -40t10 -48z" />
    <glyph glyph-name="divide" unicode="&#xf7;" horiz-adv-x="850" 
d="M799 616h-719l37 162h717zM240 334q0 34 12.5 63.5t34 52t51 35.5t63.5 13t64 -13t52 -35.5t35 -52t13 -63.5t-13 -63.5t-35 -51.5t-52 -34.5t-64 -12.5t-63.5 12.5t-51 34.5t-34 51.5t-12.5 63.5zM362 1061q0 34 12.5 63.5t34.5 52t51.5 35.5t63.5 13t63.5 -13t52 -35.5
t35.5 -52t13 -63.5t-13 -63.5t-35.5 -51.5t-52 -34.5t-63.5 -12.5t-63.5 12.5t-51.5 34.5t-34.5 51.5t-12.5 63.5z" />
    <glyph glyph-name="oslash" unicode="&#xf8;" horiz-adv-x="877" 
d="M787 816q5 -28 7.5 -59.5t2.5 -66.5q0 -149 -40.5 -277t-111 -222.5t-167 -148.5t-207.5 -54q-96 0 -163 41l-132 -152h-115l183 212q-70 93 -70 261q0 93 20 180t57 163t88.5 139t113.5 107.5t133.5 69.5t148.5 25q81 0 135.5 -29t85.5 -91l95 110h115zM554 922
q-31 0 -63 -23t-62 -63.5t-56 -95t-46.5 -116.5t-33 -129t-14.5 -133l353 408q-2 72 -22.5 112t-55.5 40zM359 180q42 0 83.5 36.5t77 97.5t62.5 141.5t40 169.5l-332 -385q18 -60 69 -60z" />
    <glyph glyph-name="ugrave" unicode="&#xf9;" 
d="M1120 367q-29 -83 -63 -144t-70.5 -103t-74.5 -68t-74 -40t-69 -19t-60 -5q-88 0 -140 48.5t-63 145.5q-39 -63 -79 -101t-79 -59t-76 -27.5t-69 -6.5q-46 0 -86 14t-69.5 44t-46.5 76t-17 111q0 28 4 61.5t12 72.5l139 657h295l-147 -696q-6 -32 -6 -58q0 -35 13 -59.5
t48 -24.5q30 0 55 13.5t45.5 37.5t36 57.5t27.5 72.5l139 657h295l-147 -696q-5 -17 -7 -33.5t-2 -32.5q0 -43 20.5 -59.5t63.5 -16.5q30 0 55.5 13.5t46.5 37.5t37 57.5t27 72.5h86zM500 1149l-121 387h215l59 -387h-153z" />
    <glyph glyph-name="uacute" unicode="&#xfa;" 
d="M1120 367q-29 -83 -63 -144t-70.5 -103t-74.5 -68t-74 -40t-69 -19t-60 -5q-88 0 -140 48.5t-63 145.5q-39 -63 -79 -101t-79 -59t-76 -27.5t-69 -6.5q-46 0 -86 14t-69.5 44t-46.5 76t-17 111q0 28 4 61.5t12 72.5l139 657h295l-147 -696q-6 -32 -6 -58q0 -35 13 -59.5
t48 -24.5q30 0 55 13.5t45.5 37.5t36 57.5t27.5 72.5l139 657h295l-147 -696q-5 -17 -7 -33.5t-2 -32.5q0 -43 20.5 -59.5t63.5 -16.5q30 0 55.5 13.5t46.5 37.5t37 57.5t27 72.5h86zM489 1149l187 387h215l-248 -387h-154z" />
    <glyph glyph-name="ucircumflex" unicode="&#xfb;" 
d="M1120 367q-29 -83 -63 -144t-70.5 -103t-74.5 -68t-74 -40t-69 -19t-60 -5q-88 0 -140 48.5t-63 145.5q-39 -63 -79 -101t-79 -59t-76 -27.5t-69 -6.5q-46 0 -86 14t-69.5 44t-46.5 76t-17 111q0 28 4 61.5t12 72.5l139 657h295l-147 -696q-6 -32 -6 -58q0 -35 13 -59.5
t48 -24.5q30 0 55 13.5t45.5 37.5t36 57.5t27.5 72.5l139 657h295l-147 -696q-5 -17 -7 -33.5t-2 -32.5q0 -43 20.5 -59.5t63.5 -16.5q30 0 55.5 13.5t46.5 37.5t37 57.5t27 72.5h86zM793 1149l-123 164l-322 -164h-90l434 387h43l123 -387h-65z" />
    <glyph glyph-name="udieresis" unicode="&#xfc;" 
d="M1120 367q-29 -83 -63 -144t-70.5 -103t-74.5 -68t-74 -40t-69 -19t-60 -5q-88 0 -140 48.5t-63 145.5q-39 -63 -79 -101t-79 -59t-76 -27.5t-69 -6.5q-46 0 -86 14t-69.5 44t-46.5 76t-17 111q0 28 4 61.5t12 72.5l139 657h295l-147 -696q-6 -32 -6 -58q0 -35 13 -59.5
t48 -24.5q30 0 55 13.5t45.5 37.5t36 57.5t27.5 72.5l139 657h295l-147 -696q-5 -17 -7 -33.5t-2 -32.5q0 -43 20.5 -59.5t63.5 -16.5q30 0 55.5 13.5t46.5 37.5t37 57.5t27 72.5h86zM528 1298q0 -27 -10 -49.5t-27 -39t-40 -26t-48 -9.5q-54 0 -89 35t-35 89q0 25 9.5 48
t26 40t39 27t49.5 10q25 0 48 -10t40 -27t27 -40t10 -48zM897 1298q0 -27 -10 -49.5t-27 -39t-40 -26t-48 -9.5q-27 0 -50 9.5t-39.5 26t-26 39t-9.5 49.5q0 25 9.5 48t26 40t39.5 27t50 10q25 0 48 -10t40 -27t27 -40t10 -48z" />
    <glyph glyph-name="yacute" unicode="&#xfd;" 
d="M688 -164q-22 -110 -63.5 -178t-92.5 -106t-106.5 -51t-106.5 -13q-47 0 -88.5 12.5t-72.5 37t-49.5 62t-18.5 87.5q0 64 30.5 113t78.5 85.5t107.5 62.5t117.5 44l25 110q-33 -36 -66 -58.5t-64 -34.5t-60 -16.5t-56 -4.5q-46 0 -86 14t-69.5 44t-46.5 76t-17 111
q0 28 4 61.5t12 72.5l139 657h295l-147 -696q-6 -26 -6 -52q0 -18 3 -34t10 -28.5t18.5 -20t29.5 -7.5q28 0 52.5 12.5t44.5 35t35.5 53.5t27.5 67l143 670h295l-203 -950q47 16 85 38.5t69.5 57t57 82.5t46.5 115h86q-31 -102 -73.5 -170t-90.5 -111.5t-99 -66.5t-99 -35z
M403 -111q-40 -15 -76 -32.5t-63.5 -38.5t-44 -46.5t-16.5 -56.5q0 -11 4 -23t12.5 -22t21.5 -16t31 -6q32 0 65.5 44.5t53.5 137.5zM487 1149l187 387h215l-248 -387h-154z" />
    <glyph glyph-name="thorn" unicode="&#xfe;" horiz-adv-x="969" 
d="M545 1540l-136 -594h9q99 88 239 88q129 0 189.5 -84t60.5 -262q0 -150 -38.5 -278t-106 -221.5t-160.5 -147t-201 -53.5q-65 0 -109 19t-63 54l-106 -499l-310 -74l428 2011zM329 123q37 0 74 22.5t70 62.5t61 94.5t48.5 118t32 133.5t11.5 142q0 191 -100 191
q-40 0 -77 -25.5t-66 -75.5l-131 -616q6 -22 27 -34.5t50 -12.5z" />
    <glyph glyph-name="ydieresis" unicode="&#xff;" 
d="M688 -164q-22 -110 -63.5 -178t-92.5 -106t-106.5 -51t-106.5 -13q-47 0 -88.5 12.5t-72.5 37t-49.5 62t-18.5 87.5q0 64 30.5 113t78.5 85.5t107.5 62.5t117.5 44l25 110q-33 -36 -66 -58.5t-64 -34.5t-60 -16.5t-56 -4.5q-46 0 -86 14t-69.5 44t-46.5 76t-17 111
q0 28 4 61.5t12 72.5l139 657h295l-147 -696q-6 -26 -6 -52q0 -18 3 -34t10 -28.5t18.5 -20t29.5 -7.5q28 0 52.5 12.5t44.5 35t35.5 53.5t27.5 67l143 670h295l-203 -950q47 16 85 38.5t69.5 57t57 82.5t46.5 115h86q-31 -102 -73.5 -170t-90.5 -111.5t-99 -66.5t-99 -35z
M403 -111q-40 -15 -76 -32.5t-63.5 -38.5t-44 -46.5t-16.5 -56.5q0 -11 4 -23t12.5 -22t21.5 -16t31 -6q32 0 65.5 44.5t53.5 137.5zM502 1298q0 -27 -10 -49.5t-27.5 -39t-40 -26t-47.5 -9.5q-27 0 -50 9.5t-39.5 26t-26 39t-9.5 49.5q0 25 9.5 48t26 40t39.5 27t50 10
q25 0 47.5 -10t40 -27t27.5 -40t10 -48zM870 1298q0 -27 -10 -49.5t-27 -39t-40 -26t-48 -9.5q-54 0 -89 35t-35 89q0 25 9.5 48t26 40t39 27t49.5 10q25 0 48 -10t40 -27t27 -40t10 -48z" />
    <glyph glyph-name="dotlessi" unicode="&#x131;" horiz-adv-x="547" 
d="M633 367q-29 -83 -64.5 -144t-74 -103t-79 -68t-78.5 -40t-72.5 -19t-61.5 -5q-46 0 -86 14t-69.5 44t-46.5 76t-17 111q0 28 4 61.5t12 72.5l139 657h295l-147 -696q-5 -17 -6.5 -33.5t-1.5 -32.5q0 -43 20 -59.5t63 -16.5q30 0 58.5 13.5t52.5 37.5t43 57.5t31 72.5h86
z" />
    <glyph glyph-name="OE" unicode="&#x152;" horiz-adv-x="1733" 
d="M733 0l2 4q-35 -8 -72 -12t-75 -4q-81 0 -148 22t-116 71t-76 127.5t-27 190.5q0 83 15.5 186.5t46.5 210t77.5 208.5t108 181t138.5 127t169 48q26 0 52 -3t55 -14q-47 -28 -91.5 -87.5t-84.5 -139t-73.5 -173t-58 -190t-38 -190t-13.5 -172.5q0 -52 7 -95.5t21 -75
t36.5 -49t54.5 -17.5q52 0 103.5 40t99.5 109t89 160.5t71 195t47.5 212.5t17.5 212q0 89 -10.5 156.5t-39.5 112.5t-80 67.5t-132 22.5q-117 0 -224 -36.5t-188.5 -105t-129.5 -166t-48 -219.5q0 -30 3.5 -48.5t7 -30t7 -18.5t3.5 -13q-98 0 -152.5 39t-54.5 133
q0 72 31 141t87 131.5t132.5 115t168.5 90.5t195 59.5t211 21.5q66 0 122.5 -10t102.5 -29q52 19 114 29t151 10q31 0 69.5 -4t82 -8.5t91 -8.5t97.5 -4q48 0 94.5 5.5t89.5 19.5q-10 -32 -19.5 -69.5t-29 -72.5t-53.5 -63.5t-93 -40.5q-60 0 -115 9.5t-106.5 22t-101.5 25
t-101 17.5q48 -68 69 -157.5t21 -194.5q0 -37 -2.5 -75.5t-7.5 -78.5h273l-41 -151h-260q-31 -132 -88.5 -260t-147.5 -230h500l-43 -217h-793z" />
    <glyph glyph-name="oe" unicode="&#x153;" horiz-adv-x="1358" 
d="M1479 418q-43 -79 -102 -154.5t-132 -134t-159.5 -94t-184.5 -35.5q-104 0 -174 50t-102 128q-68 -97 -153.5 -143.5t-172.5 -46.5q-82 0 -141 18t-97.5 58.5t-56.5 104t-18 155.5q0 188 44 324t118.5 224t171.5 130t204 42q52 0 91 -13.5t66.5 -36.5t45 -55t27.5 -69
q57 79 136.5 125.5t190.5 46.5q128 0 195 -51.5t67 -161.5q0 -62 -20.5 -115.5t-56 -98t-82 -80t-97.5 -61t-104.5 -41.5t-101.5 -21q-3 -25 -5 -46.5t-2 -41.5q0 -52 15 -86t39 -54.5t54 -28.5t60 -8q38 0 86.5 20.5t97 57t91 86t69.5 107.5h93zM614 582q-44 0 -65 27.5
t-21 64.5q0 45 24 85.5t66 57.5q-5 51 -23.5 79t-62.5 28q-48 0 -87 -31.5t-69.5 -82.5t-52.5 -115.5t-36.5 -129t-21.5 -123.5t-7 -100q0 -46 10 -76t28.5 -48t43.5 -25t55 -7q48 0 84.5 34t63 89.5t44 126.5t27.5 146zM897 510q70 0 129 28t102.5 72.5t68 99.5t24.5 109
q0 15 -3 35t-11 38t-22 30t-36 12q-29 0 -55.5 -18t-51 -49t-46 -73t-40 -89t-33.5 -97t-26 -98z" />
    <glyph glyph-name="circumflex" unicode="&#x2c6;" horiz-adv-x="600" 
d="M535 1149l-123 164l-322 -164h-90l434 387h43l123 -387h-65z" />
    <glyph glyph-name="ring" unicode="&#x2da;" horiz-adv-x="319" 
d="M174 1460q68 0 108 -42.5t40 -114.5q0 -39 -12 -71t-34.5 -54.5t-54 -35t-69.5 -12.5q-70 0 -111 39t-41 105q0 39 13.5 73t37.5 59t55.5 39.5t67.5 14.5zM221 1305q0 27 -13 42t-36 15q-28 0 -47 -21.5t-19 -58.5q0 -23 13.5 -37t38.5 -14q63 0 63 74z" />
    <glyph glyph-name="tilde" unicode="&#x2dc;" horiz-adv-x="825" 
d="M899 1370q-8 -36 -38.5 -72.5t-75.5 -66t-101.5 -48t-114.5 -18.5q-51 0 -95 12t-85 26t-81 26t-83 12q-76 0 -135 -53l-12 4q49 99 136.5 150t205.5 51q55 0 98 -10.5t81.5 -23.5t76 -23.5t82.5 -10.5q38 0 72 12t57 35z" />
    <glyph glyph-name="endash" unicode="&#x2013;" horiz-adv-x="721" 
d="M39 455l37 161h532l-35 -161h-534z" />
    <glyph glyph-name="emdash" unicode="&#x2014;" horiz-adv-x="909" 
d="M39 455l37 161h717l-35 -161h-719z" />
    <glyph glyph-name="quoteleft" unicode="&#x2018;" horiz-adv-x="428" 
d="M471 1196q0 -32 -10 -58t-28.5 -45t-43.5 -29.5t-55 -10.5q-32 0 -58 10.5t-45.5 29.5t-30 45t-10.5 58q0 39 17 83.5t48.5 90t76.5 89t102 81.5l31 -31q-43 -45 -67.5 -83.5t-24.5 -63.5q0 -20 15.5 -33.5t33.5 -29.5t33.5 -39.5t15.5 -63.5z" />
    <glyph glyph-name="quoteright" unicode="&#x2019;" horiz-adv-x="422" 
d="M223 1397q0 31 10.5 57.5t28.5 45.5t43 29.5t55 10.5q31 0 57.5 -10.5t46 -29.5t30 -45.5t10.5 -57.5q0 -39 -17 -84t-48.5 -90t-76.5 -89t-102 -81l-31 30q44 45 68.5 84t24.5 64q0 20 -15.5 33.5t-34 29.5t-34 39.5t-15.5 63.5z" />
    <glyph glyph-name="quotesinglbase" unicode="&#x201a;" horiz-adv-x="451" 
d="M-20 156q0 31 10 57.5t28.5 45.5t43.5 29.5t55 10.5q31 0 57.5 -10.5t45.5 -29.5t29.5 -45.5t10.5 -57.5q0 -39 -17 -84t-48.5 -90t-76.5 -89t-102 -81l-30 30q43 45 67.5 84t24.5 64q0 20 -15.5 33.5t-33.5 29.5t-33.5 39.5t-15.5 63.5z" />
    <glyph glyph-name="quotedblleft" unicode="&#x201c;" horiz-adv-x="879" 
d="M471 1196q0 -32 -10 -58t-28.5 -45t-43.5 -29.5t-55 -10.5q-32 0 -58 10.5t-45.5 29.5t-30 45t-10.5 58q0 39 17 83.5t48.5 90t76.5 89t102 81.5l31 -31q-43 -45 -67.5 -83.5t-24.5 -63.5q0 -20 15.5 -33.5t33.5 -29.5t33.5 -39.5t15.5 -63.5zM868 1196q0 -32 -10 -58
t-28.5 -45t-43.5 -29.5t-55 -10.5q-32 0 -58 10.5t-45 29.5t-29.5 45t-10.5 58q0 39 16.5 83.5t48 90t76.5 89t102 81.5l31 -31q-43 -45 -67.5 -83.5t-24.5 -63.5q0 -20 15.5 -33.5t33.5 -29.5t33.5 -39.5t15.5 -63.5z" />
    <glyph glyph-name="quotedblright" unicode="&#x201d;" horiz-adv-x="872" 
d="M621 1397q0 31 10 57.5t28.5 45.5t43.5 29.5t55 10.5q31 0 57.5 -10.5t45.5 -29.5t29.5 -45.5t10.5 -57.5q0 -39 -17 -84t-48.5 -90t-76.5 -89t-102 -81l-30 30q43 45 67.5 84t24.5 64q0 20 -15.5 33.5t-33.5 29.5t-33.5 39.5t-15.5 63.5zM223 1397q0 31 10.5 57.5
t28.5 45.5t43 29.5t55 10.5q31 0 57.5 -10.5t46 -29.5t30 -45.5t10.5 -57.5q0 -39 -17 -84t-48.5 -90t-76.5 -89t-102 -81l-31 30q44 45 68.5 84t24.5 64q0 20 -15.5 33.5t-34 29.5t-34 39.5t-15.5 63.5z" />
    <glyph glyph-name="quotedblbase" unicode="&#x201e;" horiz-adv-x="901" 
d="M377 156q0 31 10 57.5t28.5 45.5t43.5 29.5t55 10.5q31 0 57.5 -10.5t45.5 -29.5t29.5 -45.5t10.5 -57.5q0 -39 -16.5 -84t-48 -90t-76.5 -89t-102 -81l-31 30q43 45 67.5 84t24.5 64q0 20 -15.5 33.5t-33.5 29.5t-33.5 39.5t-15.5 63.5zM-20 156q0 31 10 57.5t28.5 45.5
t43.5 29.5t55 10.5q31 0 57.5 -10.5t45.5 -29.5t29.5 -45.5t10.5 -57.5q0 -39 -17 -84t-48.5 -90t-76.5 -89t-102 -81l-30 30q43 45 67.5 84t24.5 64q0 20 -15.5 33.5t-33.5 29.5t-33.5 39.5t-15.5 63.5z" />
    <glyph glyph-name="bullet" unicode="&#x2022;" horiz-adv-x="889" 
d="M641 547q0 -41 -16 -77t-43 -62.5t-63 -42t-77 -15.5t-76.5 15.5t-62 42t-42 62.5t-15.5 77q0 40 15.5 76t42 63t62 43t76.5 16t77 -16t63 -43t43 -63t16 -76z" />
    <glyph glyph-name="ellipsis" unicode="&#x2026;" horiz-adv-x="1438" 
d="M389 154q0 -34 -13 -63.5t-35.5 -51.5t-52 -34.5t-63.5 -12.5t-63.5 12.5t-51.5 34.5t-34.5 51.5t-12.5 63.5t12.5 63.5t34.5 51.5t51.5 35t63.5 13t63.5 -13t52 -35t35.5 -51.5t13 -63.5zM870 154q0 -34 -13 -63.5t-35 -51.5t-51.5 -34.5t-63.5 -12.5t-63.5 12.5
t-51.5 34.5t-34.5 51.5t-12.5 63.5t12.5 63.5t34.5 51.5t51.5 35t63.5 13t63.5 -13t51.5 -35t35 -51.5t13 -63.5zM1372 154q0 -34 -13 -63.5t-35.5 -51.5t-52 -34.5t-63.5 -12.5t-63.5 12.5t-51 34.5t-34 51.5t-12.5 63.5t12.5 63.5t34 51.5t51 35t63.5 13t63.5 -13t52 -35
t35.5 -51.5t13 -63.5z" />
    <glyph glyph-name="guilsinglleft" unicode="&#x2039;" horiz-adv-x="735" 
d="M41 487l18 84l629 349l-20 -113l-494 -287l397 -237l-24 -117z" />
    <glyph glyph-name="guilsinglright" unicode="&#x203a;" horiz-adv-x="705" 
d="M31 166l28 117l492 237l-397 287l18 113l504 -349l-23 -110z" />
    <glyph glyph-name="fraction" unicode="&#x2044;" horiz-adv-x="999" 
d="M147 0h-147l852 1540h147z" />
    <glyph glyph-name="foursuperior" unicode="&#x2074;" horiz-adv-x="721" 
d="M104 1020l-2 8q82 133 120 237.5t38 196.5q0 31 -5 56.5t-11 50.5q17 3 35.5 4.5t35.5 1.5q51 0 79 -33t28 -90q0 -36 -13 -78t-36 -86t-55.5 -88t-71.5 -84l2 -6h178l92 430l182 23l-98 -453h78l-23 -90h-73l-64 -303h-178l66 303h-304z" />
    <glyph glyph-name="Euro" unicode="&#x20ac;" horiz-adv-x="1038" 
d="M119 920h124q40 136 108.5 253t157 202.5t193 134.5t216.5 49q69 0 124.5 -19t95 -55t60.5 -89t21 -120q0 -42 -10.5 -84t-32 -75.5t-55 -55t-79.5 -21.5q-34 0 -67 26.5t-53 82.5q13 7 26.5 24.5t23.5 38.5t16.5 44t6.5 42q0 30 -7 49t-19 30.5t-28 15.5t-34 4
q-59 0 -111.5 -36t-96.5 -100t-78.5 -151t-57.5 -190h430l-28 -103h-422q-11 -66 -15 -135h414l-29 -102h-391v-45q0 -75 12.5 -135t40 -102t70.5 -64.5t105 -22.5q38 0 77.5 8.5t77 24t71.5 36t62 44.5q-4 -90 -41.5 -154t-95.5 -104.5t-131 -59t-147 -18.5
q-87 0 -152.5 25.5t-113 69.5t-79 102.5t-50 124t-26 135t-7.5 135.5h-156l29 102h131q3 35 7.5 68.5t11.5 66.5h-128z" />
    <glyph glyph-name="minus" unicode="&#x2212;" horiz-adv-x="965" 
d="M799 616h-719l37 162h717z" />
    <glyph glyph-name="uni2215" unicode="&#x2215;" horiz-adv-x="999" 
d="M147 0h-147l852 1540h147z" />
    <glyph glyph-name="a.end" horiz-adv-x="956" 
d="M836 328q-5 -17 -7 -33.5t-2 -32.5q0 -43 20.5 -59.5t63.5 -16.5q14 0 25 2t20 7q-21 -53 -40 -92t-42 -64.5t-52.5 -38t-69.5 -12.5q-85 0 -137 49.5t-64 140.5q-23 -35 -53.5 -69t-68 -61t-83.5 -43.5t-100 -16.5q-53 0 -102 17t-87 56t-61 102t-23 154q0 70 14 150
t43 160t72.5 153.5t102 130t132.5 90t163 33.5q87 0 126.5 -30t39.5 -74v-15l22 109h295zM647 829q0 9 -4 22.5t-13.5 26t-25.5 21t-41 8.5q-43 0 -81.5 -28t-70.5 -74.5t-57 -105.5t-42.5 -121.5t-26.5 -123t-9 -108.5q0 -59 11 -91t26.5 -47.5t33.5 -18.5t32 -3
q23 0 48.5 11.5t49 34t43 56.5t29.5 79z" />
    <glyph glyph-name="a_x.end" horiz-adv-x="1810" 
d="M1536 367q9 -46 17.5 -80t22 -56.5t34.5 -33.5t55 -11q29 0 42 4t24 9q-4 -55 -24.5 -94.5t-51.5 -65.5t-70 -38.5t-80 -12.5q-48 0 -84.5 15.5t-64.5 48.5t-49 85t-39 125q-117 -147 -237.5 -210.5t-244.5 -63.5q-43 0 -81.5 12.5t-69.5 37t-52.5 60.5t-29.5 82
q-24 -36 -54.5 -70.5t-68 -61.5t-83.5 -43.5t-101 -16.5q-53 0 -102 17t-87 56t-61 102t-23 154q0 70 14 150t43 160t72.5 153.5t102 130t132.5 90t163 33.5q87 0 126.5 -30t39.5 -74v-15l22 109h295l-147 -696q-7 -27 -7 -52q0 -38 19 -64t70 -26q40 0 84.5 15.5t87.5 42
t83 61.5t72 74l-119 645h289l80 -442q46 49 82.5 95.5t61.5 88.5t38 78t13 63v14t-2 11q-11 -2 -19 -3t-16 -1q-27 0 -45.5 9t-30 24.5t-16.5 36t-5 44.5t9 42t25 30.5t36.5 18.5t44.5 6q34 0 60.5 -14.5t43.5 -39t26 -58t9 -71.5q0 -50 -17 -102.5t-53 -111t-91 -126
t-131 -147.5zM647 829q0 9 -4 22.5t-13.5 26t-25.5 21t-41 8.5q-43 0 -81.5 -28t-70.5 -74.5t-57 -105.5t-42.5 -121.5t-26.5 -123t-9 -108.5q0 -59 11 -91t26.5 -47.5t33.5 -18.5t32 -3q23 0 48.5 11.5t49 34t43 56.5t29.5 79z" />
    <glyph glyph-name="aacute.end" horiz-adv-x="944" 
d="M823 328q-5 -17 -6.5 -33.5t-1.5 -32.5q0 -43 20.5 -59.5t63.5 -16.5q14 0 25 2t20 7q-21 -53 -40 -92t-42 -64.5t-52.5 -38t-70.5 -12.5q-85 0 -136.5 49.5t-63.5 140.5q-23 -35 -53.5 -69t-68 -61t-83.5 -43.5t-101 -16.5q-52 0 -101 17t-87 56t-61 102t-23 154
q0 70 14 150t43 160t72.5 153.5t102 130t132 90t162.5 33.5q88 0 127 -29.5t39 -74.5v-15l23 109h295zM635 829q0 9 -4 22.5t-13.5 26t-26 21t-40.5 8.5q-43 0 -81.5 -28t-70.5 -74.5t-57 -105.5t-42.5 -121.5t-26.5 -123t-9 -108.5q0 -59 11 -91t26.5 -47.5t33.5 -18.5
t32 -3q23 0 48.5 11.5t49 34t43 56.5t29.5 79zM508 1149l186 387h215l-247 -387h-154z" />
    <glyph glyph-name="b_s.end" horiz-adv-x="1497" 
d="M1452 1087q6 -133 11.5 -230.5t10.5 -169t9 -121.5t7.5 -88.5t5 -70t1.5 -65.5q0 -101 -32.5 -168.5t-84.5 -109t-116 -59t-127 -17.5q-92 0 -147.5 25t-86.5 64t-41 87.5t-10 95.5q0 45 13 81.5t34 61.5t47 38.5t53 13.5q107 0 107 -86q0 -38 -28 -65.5t-70 -27.5
q-17 0 -32.5 5t-23.5 22q0 -72 29.5 -112.5t89.5 -40.5q34 0 58 9.5t40 31.5t23.5 58.5t7.5 90.5q0 28 -1.5 54t-5 56.5t-7.5 68.5t-9 90.5t-10.5 122.5t-11.5 165q-72 -109 -153 -177t-171 -99q-5 -62 -20 -133t-43.5 -141.5t-72 -135t-104 -114.5t-140 -79.5t-179.5 -29.5
q-142 0 -214 69t-72 193q0 29 3 58.5t11 58.5l219 1026l303 41l-98 -461q31 19 55.5 30.5t44.5 17.5t36.5 7.5t31.5 1.5q50 0 92 -16t74 -52.5t51.5 -95t24.5 -143.5q74 14 152 97t163 227zM285 328q-6 -26 -6 -47q0 -95 108 -95q44 0 83 38t70 99t52.5 136.5t30.5 150.5
q-33 24 -33 82q0 26 7 47.5t19 36.5q-11 47 -35.5 78t-62.5 31q-11 0 -28 -1.5t-35 -6t-33.5 -11.5t-24.5 -18z" />
    <glyph glyph-name="c.end" horiz-adv-x="698" 
d="M631 291q-16 -89 -50 -147t-81 -93t-104.5 -49t-119.5 -14q-71 0 -129.5 18.5t-100 57.5t-64.5 100.5t-23 148.5q0 59 12 136.5t38.5 158.5t69 159t103.5 139t142.5 98.5t185.5 37.5q67 0 111 -16t70 -43t36 -61t10 -70q0 -39 -9 -67t-24 -45.5t-34.5 -26t-40.5 -8.5
q-38 0 -72 24q12 32 18.5 62t6.5 59q0 37 -13.5 60.5t-42.5 23.5q-33 0 -65 -29.5t-61.5 -77.5t-54.5 -110t-43.5 -127t-29 -128t-10.5 -114q0 -48 9 -81t25.5 -52.5t39 -28t49.5 -8.5q30 0 63 10t66 26.5t63 36.5t54 40z" />
    <glyph glyph-name="d.end" horiz-adv-x="975" 
d="M766 1393l303 41l-235 -1106q-5 -17 -7 -31.5t-2 -28.5q0 -35 18 -58.5t66 -23.5q29 0 42 4t24 9q-4 -55 -24.5 -94.5t-51.5 -65.5t-70 -38.5t-79 -12.5q-39 0 -74 9.5t-63 30t-47.5 53t-28.5 77.5q-24 -33 -53 -63.5t-65 -54.5t-79 -38t-94 -14q-53 0 -102 17t-87 56
t-61 102t-23 154q0 70 14 150t43 160t72.5 153.5t102 130t132.5 90t163 33.5q87 0 126.5 -30t39.5 -74v-8zM547 367l100 469q-2 9 -6.5 21t-13.5 23.5t-24.5 19t-39.5 7.5q-43 0 -81.5 -28t-70.5 -74.5t-57 -105.5t-42.5 -121.5t-26.5 -123t-9 -108.5q0 -59 11 -91
t26.5 -47.5t33.5 -18.5t32 -3q21 0 44 9.5t45 28t40.5 46t30.5 64.5z" />
    <glyph glyph-name="e.end" horiz-adv-x="750" 
d="M643 291q-16 -89 -50 -147t-81 -93t-104 -49t-119 -14q-72 0 -130.5 18.5t-100 57.5t-64.5 100.5t-23 148.5q0 59 12 136t38 158t69 159t104 139.5t143 99t187 37.5q69 0 112.5 -16.5t69 -43.5t35 -62.5t9.5 -73.5q0 -89 -39 -165.5t-104.5 -133.5t-150.5 -92t-177 -41
q-2 -17 -3.5 -32.5t-1.5 -29.5q0 -49 10 -82t27 -52.5t40 -27.5t50 -8q30 0 62.5 9t64 24t61.5 34.5t54 41.5zM293 512q59 2 113 31.5t95.5 76t66 106.5t24.5 124q0 38 -11 61t-40 23q-39 0 -76.5 -38.5t-70 -99.5t-59 -136t-42.5 -148z" />
    <glyph glyph-name="e_x.end" horiz-adv-x="1530" 
d="M1255 367q9 -46 17.5 -80t22 -56.5t34.5 -33.5t55 -11q29 0 42 4t24 9q-4 -55 -24.5 -94.5t-51.5 -65.5t-70 -38.5t-79 -12.5q-49 0 -86 15.5t-65.5 50t-49.5 88t-39 130.5q-62 -64 -138.5 -116t-161 -89.5t-173 -58t-174.5 -20.5q-75 0 -141 17.5t-116 56.5t-79 103
t-29 157q0 56 12 131t38 155t69 157.5t104 139t143 99.5t187 38q69 0 112.5 -16.5t69 -43.5t35 -62.5t9.5 -73.5q0 -89 -39 -165.5t-104.5 -133.5t-151 -92t-178.5 -41q-2 -14 -2.5 -28.5t-0.5 -27.5q0 -57 16 -96t43.5 -62.5t65 -33.5t80.5 -10q55 0 118 15t126.5 44
t124.5 73t113 101l-117 635h289l79 -442q46 49 82.5 95.5t61.5 88.5t38 78t13 63v14t-2 11q-11 -2 -18.5 -3t-18.5 -1q-27 0 -45 9.5t-29 24.5t-15.5 34t-4.5 38q0 54 31 79.5t79 25.5q36 0 63 -14t45 -38t27 -56.5t9 -69.5q0 -50 -16.5 -102t-52 -111.5t-91 -128
t-133.5 -152.5zM295 512q59 2 113 31.5t95.5 76t66 106.5t24.5 124q0 38 -11 61t-40 23q-39 0 -77 -39t-71 -100.5t-59 -136.5t-41 -146z" />
    <glyph glyph-name="eacute.end" horiz-adv-x="752" 
d="M426 1149l186 387h215l-247 -387h-154zM645 291q-16 -89 -50 -147t-81 -93t-104 -49t-119 -14q-72 0 -130.5 18.5t-100 57.5t-64.5 100.5t-23 148.5q0 59 12 136t38 158t69 159t104 139.5t143 99t187 37.5q69 0 112.5 -16.5t69 -43.5t35 -62.5t9.5 -73.5
q0 -89 -39 -165.5t-104.5 -133.5t-150.5 -92t-177 -41q-2 -17 -3.5 -32.5t-1.5 -29.5q0 -49 10 -82t27 -52.5t40 -27.5t50 -8q30 0 62.5 9t64 24t61.5 34.5t54 41.5zM295 512q59 2 113 31.5t95.5 76t66 106.5t24.5 124q0 38 -11 61t-40 23q-39 0 -76.5 -38.5t-70 -99.5
t-59 -136t-42.5 -148z" />
    <glyph glyph-name="fi.end" horiz-adv-x="981" 
d="M-84 -51q-49 -15 -90.5 -35.5t-72 -45.5t-47.5 -54t-17 -62q0 -26 10 -42t23.5 -25t27.5 -12t23 -3q15 0 32 8.5t33 27.5t30 49.5t23 74.5zM158 1094q31 141 85 227.5t119.5 133.5t137 63t137.5 16q61 0 126.5 -9t118.5 -35t87.5 -72t34.5 -120q0 -46 -13.5 -77.5
t-36 -51t-52 -28t-60.5 -8.5q-23 0 -45 5t-39 17t-28 33.5t-11 54.5q0 18 4.5 35.5t13.5 32t22 23.5t29 9h10t7 -2q-2 42 -32.5 62t-80.5 20q-49 0 -86 -19.5t-63 -52t-42.5 -74t-25.5 -85.5l-35 -168h164l-16 -82h-164l-234 -1106q-22 -107 -63 -174.5t-91 -106t-104 -53
t-102 -14.5q-56 0 -102.5 16t-80.5 45.5t-52.5 72t-18.5 95.5q0 69 31 116.5t81 81t113.5 57t128.5 44.5zM686 1024h295l-147 -696q-5 -17 -7 -33.5t-2 -32.5q0 -43 20.5 -59.5t63.5 -16.5q29 0 42 4t24 9q-4 -55 -24.5 -94.5t-51.5 -65.5t-70 -38.5t-79 -12.5q-46 0 -86 14
t-70 44t-47 76t-17 111q0 28 4.5 61.5t12.5 72.5z" />
    <glyph glyph-name="fl.end" horiz-adv-x="1004" 
d="M-88 -51q-48 -16 -89.5 -35.5t-72 -45t-48 -57.5t-17.5 -73q0 -12 6 -24t17 -21.5t26 -16t33 -6.5q15 0 32 7.5t33.5 26t31 49.5t23.5 77zM788 1372q-21 9 -46 15t-48.5 10t-43 6t-29.5 2q-17 0 -37.5 -6t-40 -23.5t-36 -49.5t-26.5 -83l-45 -219h191l-17 -82h-190
l-234 -1106q-22 -110 -64.5 -178t-94 -106t-107.5 -51t-106 -13q-46 0 -89.5 16t-77.5 45t-54.5 69.5t-20.5 90.5q0 71 27.5 119.5t75.5 83t112.5 58.5t138.5 46l246 1170q22 110 64.5 178t95 106t108.5 51t105 13q70 0 137 -12t134 -31.5t134 -45t137 -52.5l-225 -1065
q-5 -17 -6.5 -33.5t-1.5 -32.5q0 -43 20.5 -59.5t63.5 -16.5q29 0 42 4t24 9q-4 -55 -24.5 -94.5t-51.5 -65.5t-70 -38.5t-80 -12.5q-46 0 -86 14t-69.5 44t-46.5 76t-17 111q0 28 4 61.5t12 72.5z" />
    <glyph glyph-name="f_u.end" horiz-adv-x="1483" 
d="M1192 1024h295l-148 -696q-5 -17 -6.5 -33.5t-1.5 -32.5q0 -43 20.5 -59.5t63.5 -16.5q29 0 41.5 4t26.5 9q-4 -56 -24 -95.5t-51.5 -65.5t-71 -38t-81.5 -12q-86 0 -137.5 50.5t-62.5 143.5q-39 -63 -79 -101t-79.5 -59t-77 -27.5t-69.5 -6.5q-46 0 -86 14t-70 44
t-47 76t-17 111q0 28 4.5 61.5t12.5 72.5l121 575h-250l-236 -1106q-22 -110 -63.5 -178t-92 -106t-105.5 -51t-105 -13q-46 0 -89.5 16t-77.5 45t-54.5 69.5t-20.5 90.5q0 71 27.5 119.5t75.5 83t112 58.5t137 46l248 1170q22 110 64.5 178t94.5 106t108 51t106 13
q46 0 89.5 -16t77 -45t54 -69.5t20.5 -90.5q0 -48 -6 -84h-96q2 17 3 29t1 26q0 35 -23.5 52.5t-54.5 17.5q-16 0 -36.5 -7t-41 -25.5t-38 -51.5t-27.5 -84l-35 -162h547l-147 -696q-7 -24 -7 -52q0 -18 3 -34t10.5 -28.5t19 -20t29.5 -7.5q30 0 55 13.5t45.5 37.5t36 57.5
t27.5 72.5zM-88 -51q-48 -16 -89.5 -35.5t-71.5 -45t-47 -57.5t-17 -73q0 -12 6 -24t17 -21.5t26 -16t33 -6.5q16 0 32.5 7.5t32 26t28.5 49.5t23 77z" />
    <glyph glyph-name="g.end" horiz-adv-x="983" 
d="M492 102q-23 -24 -49 -44.5t-56.5 -36t-65.5 -24.5t-75 -9q-53 0 -102 17t-87 56t-61 102t-23 154q0 70 14 150t43 160t72.5 153.5t102 130t132.5 90t163 33.5q87 0 126.5 -30t39.5 -74v-4l20 98h297l-250 -1188q-22 -110 -64.5 -178t-94 -106t-108 -51t-106.5 -13
q-46 0 -89.5 16t-77 45t-54 69.5t-20.5 90.5q0 72 27.5 121t75.5 83t112.5 57.5t138.5 45.5zM647 836q-2 10 -6.5 22t-13.5 23t-24.5 18.5t-39.5 7.5q-43 0 -81.5 -28t-70.5 -74.5t-57 -105.5t-42.5 -121.5t-26.5 -123t-9 -108.5q0 -59 11 -91t26.5 -47.5t33.5 -18.5t32 -3
q21 0 44.5 9.5t46.5 28.5t42 48t31 68zM459 -49q-48 -16 -90 -36t-72.5 -45.5t-48 -58t-17.5 -73.5q0 -12 6 -24t17 -21.5t26 -16t33 -6.5q16 0 33.5 7.5t33.5 26t30 49.5t24 77z" />
    <glyph glyph-name="h.end" horiz-adv-x="928" 
d="M-80 0l297 1393l303 41l-110 -514q33 36 65.5 58t63.5 34t58.5 16t51.5 4q49 0 91 -13t72.5 -41t47.5 -72t17 -105q0 -41 -7.5 -88.5t-18.5 -97t-23.5 -98.5t-23.5 -94t-18.5 -83.5t-7.5 -67.5q0 -38 17.5 -62t64.5 -24q49 0 68 13q-7 -56 -28 -95.5t-51.5 -65.5t-68 -38
t-78.5 -12q-59 0 -98.5 19.5t-63.5 52t-34 74t-10 85.5q0 52 14.5 121.5t31.5 142.5t31.5 141t14.5 117q0 105 -74 105q-26 0 -48.5 -12.5t-42 -35t-35.5 -52.5t-28 -64l-145 -682h-295z" />
    <glyph glyph-name="i.end" horiz-adv-x="428" 
d="M506 1296q0 -34 -13 -63.5t-35.5 -51t-52 -34t-63.5 -12.5t-63.5 12.5t-51.5 34t-34.5 51t-12.5 63.5t12.5 63.5t34.5 52t51.5 35.5t63.5 13t63.5 -13t52 -35.5t35.5 -52t13 -63.5zM139 1024h295l-147 -696q-5 -17 -6.5 -33.5t-1.5 -32.5q0 -43 20 -59.5t63 -16.5
q29 0 42 4t24 9q-4 -55 -24.5 -94.5t-51.5 -65.5t-70 -38.5t-79 -12.5q-46 0 -86 14t-69.5 44t-46.5 76t-17 111q0 28 4 61.5t12 72.5z" />
    <glyph glyph-name="ij.end" horiz-adv-x="983" 
d="M506 1296q0 -34 -13 -63.5t-35.5 -51t-52 -34t-63.5 -12.5t-63.5 12.5t-51.5 34t-34.5 51t-12.5 63.5t12.5 63.5t34.5 52t51.5 35.5t63.5 13t63.5 -13t52 -35.5t35.5 -52t13 -63.5zM139 1024h295l-147 -696q-5 -17 -6.5 -33.5t-1.5 -32.5q0 -43 20 -59.5t63 -16.5
q29 0 42 4t24 9q-4 -55 -24.5 -94.5t-51.5 -65.5t-70 -38.5t-79 -12.5q-46 0 -86 14t-69.5 44t-46.5 76t-17 111q0 28 4 61.5t12 72.5zM686 1024h297l-250 -1188q-22 -110 -64.5 -178t-94 -106t-108 -51t-106.5 -13q-46 0 -89.5 16t-77 45t-54 69.5t-20.5 90.5q0 72 28 121
t76.5 83t113 57.5t138.5 45.5zM1044 1298q0 -34 -13 -63.5t-35 -51t-51.5 -34t-63.5 -12.5t-63.5 12.5t-51.5 34t-34.5 51t-12.5 63.5t12.5 64t34.5 52t51.5 35t63.5 13t63.5 -13t51.5 -35t35 -52t13 -64zM461 -49q-49 -16 -91 -35.5t-73 -45t-48.5 -58t-17.5 -74.5
q0 -12 6 -24t17 -21.5t26 -16t33 -6.5q16 0 33.5 7.5t33.5 26t30 49.5t24 77z" />
    <glyph glyph-name="i_x.end" horiz-adv-x="1262" 
d="M987 367q9 -46 17.5 -80t22 -56.5t34.5 -33.5t55 -11q29 0 42 4t24 9q-4 -55 -24.5 -94.5t-51.5 -65.5t-70 -38.5t-80 -12.5q-49 0 -85.5 16t-64.5 50t-48.5 87t-38.5 127q-50 -56 -111 -106.5t-128 -89t-138 -61.5t-141 -23q-47 0 -86.5 14t-68.5 43.5t-45.5 75.5
t-16.5 110q0 26 4 60t12 76l139 657h295l-147 -696q-5 -17 -6.5 -33.5t-1.5 -32.5q0 -38 24 -56t66 -18q37 0 80.5 14.5t87 40t84.5 61t73 77.5l-116 643h288l80 -442q46 49 82.5 95.5t61.5 88.5t38 78t13 63v14t-2 11q-11 -2 -19 -3t-16 -1q-27 0 -45.5 9t-29.5 24.5
t-16 36t-5 44.5q0 48 33 72.5t81 24.5q34 0 60.5 -14.5t44 -39t26.5 -58t9 -71.5q0 -50 -17.5 -102.5t-53.5 -111t-91 -126t-131 -147.5zM506 1296q0 -34 -13 -63.5t-35.5 -51t-52 -34t-63.5 -12.5t-63.5 12.5t-51.5 34t-34.5 51t-12.5 63.5t12.5 63.5t34.5 52t51.5 35.5
t63.5 13t63.5 -13t52 -35.5t35.5 -52t13 -63.5z" />
    <glyph glyph-name="iacute.end" horiz-adv-x="428" 
d="M139 1024h295l-147 -696q-5 -17 -6.5 -33.5t-1.5 -32.5q0 -43 20 -59.5t63 -16.5q29 0 42 4t24 9q-4 -55 -24.5 -94.5t-51.5 -65.5t-70 -38.5t-79 -12.5q-46 0 -86 14t-69.5 44t-46.5 76t-17 111q0 28 4 61.5t12 72.5zM227 1149l187 387h215l-248 -387h-154z" />
    <glyph glyph-name="j.end" horiz-adv-x="436" 
d="M139 1024h297l-250 -1188q-22 -110 -64.5 -178t-94 -106t-107.5 -51t-106 -13q-46 0 -89.5 16t-77.5 45t-54.5 69.5t-20.5 90.5q0 72 28 121t76.5 83t113 57.5t138.5 45.5zM498 1298q0 -34 -13 -63.5t-35.5 -51t-52 -34t-63.5 -12.5t-63.5 12.5t-51.5 34t-34.5 51
t-12.5 63.5t12.5 64t34.5 52t51.5 35t63.5 13t63.5 -13t52 -35t35.5 -52t13 -64zM-86 -49q-49 -16 -91 -35.5t-72.5 -45t-48 -58t-17.5 -74.5q0 -12 6 -24t17 -21.5t26 -16t33 -6.5q16 0 33 7.5t33 26t30 49.5t24 77z" />
    <glyph glyph-name="k.end" horiz-adv-x="967" 
d="M819 328q-5 -17 -7.5 -33t-2.5 -33q0 -31 16 -53.5t64 -22.5q18 0 29.5 1t19 3t12.5 4.5t11 4.5q-4 -55 -26.5 -94.5t-52.5 -65.5t-60.5 -38.5t-51.5 -12.5q-128 0 -193 60.5t-65 172.5q0 48 12 107l17 80q5 20 6.5 39t1.5 36q0 45 -16 72t-58 27q-35 0 -71.5 -20.5
t-79.5 -55.5l-107 -506h-295l297 1393l303 41l-153 -721l395 311h203l-410 -285q34 9 68 9q57 0 99.5 -19t70.5 -52t41.5 -76.5t13.5 -92.5q0 -19 -1.5 -38.5t-6.5 -39.5z" />
    <glyph glyph-name="l.end" horiz-adv-x="424" 
d="M215 1397l303 41l-235 -1106q-5 -17 -7 -31.5t-2 -28.5q0 -35 18 -58.5t66 -23.5q29 0 42 4t24 9q-4 -55 -24.5 -95.5t-51.5 -67t-70 -39.5t-79 -13q-46 0 -86 14.5t-69.5 45t-46.5 77.5t-17 113q0 27 4 60.5t12 72.5z" />
    <glyph glyph-name="m.end" horiz-adv-x="1436" 
d="M428 0l150 707q6 24 6 51q0 18 -3 34t-10.5 28.5t-19 20t-29.5 7.5q-30 0 -55.5 -15t-46 -41t-36.5 -61t-28 -74l-139 -657h-295l217 1024h295l-22 -106q33 37 66 59.5t65 35t62 17t57 4.5q40 0 75 -9.5t62 -30.5t46 -54.5t27 -81.5q37 57 76 91.5t76 52.5t71 24t62 6
q49 0 90.5 -13t72 -41t47.5 -72t17 -105q0 -41 -7.5 -88.5t-18 -97t-23.5 -98.5t-23.5 -94t-18 -83.5t-7.5 -67.5q0 -38 17.5 -62t64.5 -24q49 0 68 13q-7 -56 -28 -95.5t-51.5 -65.5t-68 -38t-78.5 -12q-59 0 -98.5 19.5t-63.5 52t-34 74t-10 85.5q0 52 14.5 121.5
t31.5 142.5t31.5 141t14.5 117q0 105 -74 105q-28 0 -52 -15t-44 -40.5t-36 -60t-28 -73.5l-139 -657h-295z" />
    <glyph glyph-name="n.end" horiz-adv-x="930" 
d="M-78 0l217 1024h295l-22 -106q33 37 65.5 59.5t63.5 34.5t58.5 16t51.5 4q49 0 91 -13t72.5 -41t47.5 -72t17 -105q0 -41 -7.5 -88.5t-18.5 -97t-23.5 -98.5t-23.5 -94t-18.5 -83.5t-7.5 -67.5q0 -38 17.5 -62t64.5 -24q51 0 68 13q-7 -56 -28 -95.5t-51 -65.5t-68 -38
t-78 -12q-59 0 -99 19.5t-64 52t-34 74t-10 85.5q0 52 14.5 121.5t31.5 142.5t31.5 141t14.5 117q0 105 -74 105q-28 0 -52 -15t-44 -40.5t-36 -60t-28 -73.5l-139 -657h-295z" />
    <glyph glyph-name="o.end" horiz-adv-x="997" 
d="M997 907q-17 -33 -36.5 -71.5t-45 -76t-57 -71t-72.5 -55.5q-10 -147 -51 -266t-105.5 -202t-149 -128t-181.5 -45q-71 0 -131.5 17.5t-104 56t-68 100t-24.5 149.5q0 60 12 136.5t38.5 157.5t69 158.5t104 138.5t143.5 98.5t188 37.5q242 0 260 -276q26 6 48.5 23t41 38
t33 43t23.5 37h65zM612 602q-49 18 -49 92q0 79 58 107q-5 66 -22.5 91.5t-55.5 25.5q-36 0 -70 -28.5t-64 -75.5t-54.5 -107.5t-42 -124.5t-27 -126.5t-9.5 -113.5t5.5 -83t18 -50.5t32.5 -25.5t49 -7q37 0 73.5 33t67.5 90t54.5 135t35.5 168z" />
    <glyph glyph-name="o_s.end" horiz-adv-x="1470" 
d="M1425 1087q6 -133 11.5 -230.5t10.5 -169t9 -121.5t7.5 -88.5t5 -70t1.5 -65.5q0 -101 -32.5 -168.5t-84.5 -109t-116 -59t-127 -17.5q-92 0 -147.5 25t-86.5 64t-41 87.5t-10 95.5q0 45 13 81.5t34 61.5t47.5 38.5t53.5 13.5q106 0 106 -86q0 -38 -28 -65.5t-70 -27.5
q-17 0 -32 5t-23 22q0 -72 29 -112.5t89 -40.5q34 0 58.5 9.5t40.5 31.5t23.5 58.5t7.5 90.5q0 28 -2 54t-5 56.5t-7.5 68.5t-9.5 90.5t-10.5 122.5t-11.5 165q-75 -116 -161 -185t-183 -98q-10 -144 -51.5 -259.5t-106.5 -196t-149 -123.5t-178 -43q-71 0 -131.5 17.5
t-104 56t-68 100t-24.5 149.5q0 60 12 136.5t38.5 157.5t69 158.5t104 138.5t143.5 98.5t188 37.5q259 0 262 -321q79 5 162.5 89t171.5 237zM612 600q-49 18 -49 92q0 79 58 107q-5 66 -22.5 92.5t-55.5 26.5q-36 0 -70 -28.5t-64 -75.5t-54.5 -107.5t-42 -124.5
t-27 -126.5t-9.5 -113.5t5.5 -83t18 -50.5t32.5 -25.5t49 -7q37 0 73.5 32.5t67.5 89.5t54.5 134.5t35.5 167.5z" />
    <glyph glyph-name="oacute.end" horiz-adv-x="997" 
d="M999 907q-17 -33 -36.5 -71.5t-45 -76t-57 -71t-72.5 -55.5q-10 -147 -51 -266t-105.5 -202t-149 -128t-181.5 -45q-71 0 -131.5 17.5t-104 56t-68 100t-24.5 149.5q0 60 12 136.5t38.5 157.5t69 158.5t104 138.5t143.5 98.5t188 37.5q242 0 260 -276q26 6 48.5 23t41 38
t33 43t23.5 37h65zM614 602q-49 18 -49 92q0 79 58 107q-5 66 -22.5 91.5t-55.5 25.5q-37 0 -70.5 -28.5t-63 -75.5t-54 -107.5t-42 -124.5t-27 -126.5t-9.5 -113.5t5.5 -83t17.5 -50.5t32 -25.5t49 -7q37 0 73.5 33t67.5 90t54.5 135t35.5 168zM449 1149l186 387h215
l-248 -387h-153z" />
    <glyph glyph-name="oacute_s.end" horiz-adv-x="1473" 
d="M449 1149l186 387h215l-248 -387h-153zM1427 1087q6 -133 11.5 -230.5t10.5 -169t9.5 -121.5t7.5 -88.5t5 -70t2 -65.5q0 -101 -33 -168.5t-84.5 -109t-116 -59t-127.5 -17.5q-92 0 -147.5 25t-86.5 64t-41 87.5t-10 95.5q0 45 13 81.5t34 61.5t47.5 38.5t53.5 13.5
q106 0 106 -86q0 -38 -28 -65.5t-70 -27.5q-17 0 -32 5t-23 22q0 -72 29.5 -112.5t89.5 -40.5q34 0 58 9.5t40 31.5t23.5 58.5t7.5 90.5q0 28 -2 54t-5 56.5t-7.5 68.5t-9.5 90.5t-10.5 122.5t-11.5 165q-75 -116 -161 -185t-183 -98q-10 -144 -51.5 -259.5t-106.5 -196
t-149 -123.5t-178 -43q-71 0 -131.5 17.5t-104 56t-68 100t-24.5 149.5q0 60 12 136.5t38.5 157.5t69 158.5t104 138.5t143.5 98.5t188 37.5q259 0 263 -321q78 5 161.5 89t171.5 237zM614 600q-49 18 -49 92q0 79 58 107q-5 66 -22.5 92.5t-55.5 26.5q-37 0 -70.5 -28.5
t-63 -75.5t-54 -107.5t-42 -124.5t-27 -126.5t-9.5 -113.5t5.5 -83t17.5 -50.5t32 -25.5t49 -7q37 0 73.5 32.5t67.5 89.5t54.5 134.5t35.5 167.5z" />
    <glyph glyph-name="s.end" horiz-adv-x="647" 
d="M598 1087q6 -133 11.5 -230.5t10.5 -169t9 -121.5t7.5 -88.5t5 -70t1.5 -65.5q0 -67 -18.5 -119.5t-50 -91.5t-73 -66.5t-87 -44.5t-92.5 -24.5t-89 -7.5q-77 0 -133.5 23.5t-93.5 61t-54.5 84t-17.5 93.5q0 36 9.5 66.5t24.5 54.5t34.5 41.5t40.5 27.5q86 154 145 304.5
t107 302.5zM43 293q0 -72 28.5 -107.5t96.5 -35.5q34 0 66 9.5t57 32t40 58.5t15 90q0 26 -1.5 50.5t-3.5 52t-5.5 61.5t-8 79t-9.5 104t-11 138q-31 -100 -73 -194t-93 -193q20 -11 33.5 -28t13.5 -43q0 -19 -6 -37t-18 -32.5t-28.5 -23t-37.5 -8.5q-17 0 -32 5t-23 22z
" />
    <glyph glyph-name="t.end" horiz-adv-x="565" 
d="M131 942h-68l17 82h67l62 283l303 41q-5 -20 -10 -43.5t-10 -49.5q-11 -43 -23.5 -102.5t-26.5 -128.5h123l-16 -82h-123l-131 -614q-5 -20 -7.5 -38.5t-2.5 -33.5q0 -32 14.5 -53t56.5 -21q11 0 26 0.5t28 5.5q-23 -66 -50 -105.5t-55 -60.5t-56.5 -27.5t-55.5 -6.5
q-55 0 -94 17.5t-63.5 48.5t-36 73.5t-11.5 91.5q0 53 12 109z" />
    <glyph glyph-name="u.end" horiz-adv-x="940" 
d="M645 1024h295l-147 -696q-5 -17 -7 -33.5t-2 -32.5q0 -43 20.5 -59.5t63.5 -16.5q15 0 24.5 1t17 3t13.5 4.5t13 4.5q-4 -56 -24 -95.5t-51 -65.5t-70.5 -38t-81.5 -12q-87 0 -138.5 50.5t-62.5 143.5q-38 -63 -78.5 -101t-80 -59t-77 -27.5t-69.5 -6.5q-46 0 -86 14
t-69.5 44t-46.5 76t-17 111q0 28 4 61.5t12 72.5l139 657h295l-147 -696q-6 -26 -6 -52q0 -18 3 -34t10 -28.5t18.5 -20t29.5 -7.5q30 0 55 13.5t45.5 37.5t36 57.5t27.5 72.5z" />
    <glyph glyph-name="u_x.end" horiz-adv-x="1767" 
d="M1493 367q9 -46 17.5 -80t22 -56.5t34.5 -33.5t55 -11q29 0 42 4t24 9q-4 -56 -24.5 -94t-51.5 -61t-70 -33.5t-80 -10.5q-48 0 -84.5 13.5t-64.5 44.5t-49 81t-39 123q-117 -147 -237.5 -210.5t-244.5 -63.5q-43 0 -82 13.5t-70 38.5t-53 61.5t-30 82.5
q-39 -64 -79.5 -102.5t-79.5 -59.5t-76 -27.5t-70 -6.5q-46 0 -86 14.5t-69.5 44.5t-46.5 77t-17 112q0 26 4 59t12 72l139 657h295l-147 -696q-6 -26 -6 -52q0 -18 3 -34t10 -28.5t18.5 -20t29.5 -7.5q30 0 55 13.5t45.5 37.5t36 57.5t27.5 72.5l139 657h295l-147 -696
q-7 -27 -7 -52q0 -38 19 -64t69 -26q41 0 85 15.5t87.5 42t83.5 61.5t72 74l-119 645h289l80 -442q46 49 82.5 95.5t61.5 88.5t38 78t13 63v14t-2 11q-11 -2 -19 -3t-16 -1q-27 0 -45.5 9t-30 24.5t-16.5 36t-5 44.5t9 42t25 30.5t36.5 18.5t44.5 6q34 0 60.5 -14.5
t43.5 -39t26 -58t9 -71.5q0 -50 -17 -102.5t-53 -111t-91 -126t-131 -147.5z" />
    <glyph glyph-name="uacute.end" horiz-adv-x="940" 
d="M645 1024h295l-147 -696q-5 -17 -7 -33.5t-2 -32.5q0 -43 20.5 -59.5t63.5 -16.5q15 0 24.5 1t17 3t13.5 4.5t13 4.5q-4 -56 -24 -95.5t-51 -65.5t-70.5 -38t-81.5 -12q-87 0 -138.5 50.5t-62.5 143.5q-38 -63 -78.5 -101t-80 -59t-77 -27.5t-69.5 -6.5q-46 0 -86 14
t-69.5 44t-46.5 76t-17 111q0 28 4 61.5t12 72.5l139 657h295l-147 -696q-6 -26 -6 -52q0 -18 3 -34t10 -28.5t18.5 -20t29.5 -7.5q30 0 55 13.5t45.5 37.5t36 57.5t27.5 72.5zM449 1149l186 387h215l-248 -387h-153z" />
    <glyph glyph-name="x.end" horiz-adv-x="1024" 
d="M776 365q9 -50 18.5 -84.5t23 -55.5t32 -30t45.5 -9q29 0 44 3t32 10q-4 -56 -26.5 -95.5t-56 -65.5t-75.5 -38t-84 -12q-46 0 -84 20t-68 63.5t-52.5 110.5t-37.5 162l-282 -344h-148l414 467l-33 229q-8 52 -16.5 85t-17.5 52t-20 26t-24 7q-30 0 -66 -30.5
t-73.5 -92.5t-72.5 -155.5t-62 -220.5h-86q17 76 40 154.5t53.5 153t69.5 140t87 114t106 77t127 28.5q61 0 101 -23.5t65 -59t37.5 -78.5t18.5 -82l24 -150q82 94 124.5 163t47.5 126q-11 -2 -19 -3t-16 -1q-27 0 -45 9t-29.5 24.5t-16.5 36t-5 44.5q0 27 11.5 46
t30.5 31.5t44.5 18t52.5 5.5q28 0 50 -16.5t36 -43t21.5 -60t7.5 -67.5q0 -48 -17 -93.5t-51 -96t-85.5 -110t-120.5 -134.5z" />
    </font>
</defs>
</svg>
